<?xml version="1.0" standalone="no"?>
<!DOCTYPE svg PUBLIC "-//W3C//DTD SVG 1.1//EN" "http://www.w3.org/Graphics/SVG/1.1/DTD/svg11.dtd" >
<svg xmlns="http://www.w3.org/2000/svg" xmlns:xlink="http://www.w3.org/1999/xlink" version="1.1">
<metadata></metadata>
<defs>
<font id="co_headlinebold" horiz-adv-x="620" >
<font-face units-per-em="1000" ascent="778" descent="-222" />
<missing-glyph horiz-adv-x="246" />
<glyph unicode="&#xfb01;" horiz-adv-x="616" d="M60 0v526q0 106 61.5 158.5t168.5 52.5q108 0 152 -27q34 -19 34 -56q0 -22 -13 -41.5t-30 -28.5q-11 11 -46.5 19.5t-66.5 8.5q-99 0 -99 -84v-18h252q44 0 63.5 -17.5t19.5 -54.5v-438h-161v360h-174v-360h-161z" />
<glyph unicode="&#xfb02;" horiz-adv-x="608" d="M60 0v526q0 106 65 158.5t186 52.5q151 0 237 -43v-694h-161v601q-33 11 -72 11q-94 0 -94 -87v-15h41q44 0 63.5 -17.5t19.5 -54.5q0 -42 -20 -78h-104v-360h-161z" />
<glyph horiz-adv-x="333" />
<glyph horiz-adv-x="0" />
<glyph horiz-adv-x="0" />
<glyph unicode="&#xd;" horiz-adv-x="246" />
<glyph unicode=" "  horiz-adv-x="246" />
<glyph unicode="&#x09;" horiz-adv-x="246" />
<glyph unicode="&#xa0;" horiz-adv-x="246" />
<glyph unicode="!" horiz-adv-x="278" d="M58 245v370q0 71 84 71q37 0 77 -15v-426h-161zM43 76q0 37 28.5 64.5t67.5 27.5t67.5 -27.5t28.5 -64.5q0 -38 -28.5 -65.5t-67.5 -27.5t-67.5 27.5t-28.5 65.5z" />
<glyph unicode="&#x22;" horiz-adv-x="573" d="M85 422v246q0 69 82 69q38 0 75 -14v-301h-157zM331 422v246q0 69 82 69q38 0 75 -14v-301h-157z" />
<glyph unicode="#" horiz-adv-x="755" d="M254 0h-138l24 145h-31q-74 0 -74 65q0 37 18 68h110l24 143h-31q-39 0 -56.5 15.5t-17.5 48.5t18 69h110l15 89q11 61 82 61q34 0 64 -13l-24 -137h131l15 89q9 61 81 61q34 0 64 -13l-24 -137h32q74 0 74 -65q0 -37 -18 -68h-110l-25 -143h32q39 0 56.5 -15.5 t17.5 -48.5t-18 -69h-109l-25 -145h-138l25 145h-130zM324 421l-24 -143h131l24 143h-131z" />
<glyph unicode="$" horiz-adv-x="655" d="M26 73l66 128q18 -14 71 -34.5t118 -25.5v130l-25 5q-43 8 -77 20.5t-66.5 34.5t-50.5 59t-18 86q0 88 60.5 148t176.5 68v66q0 38 43 38q9 0 41 -8v-97q111 -9 165 -44q46 -28 46 -67q0 -29 -18 -57t-35 -38q-18 19 -60 37.5t-98 26.5v-138l26 -5q112 -23 164 -67 t52 -132q0 -94 -62.5 -148.5t-179.5 -63.5v-103h-84v103q-64 4 -125 21.5t-91.5 33t-38.5 23.5zM281 428v122q-32 -4 -49.5 -15.5t-21.5 -22.5t-4 -26q0 -21 14 -34t61 -24zM365 256v-115q45 6 60 20t15 38q0 22 -17 35t-58 22z" />
<glyph unicode="%" horiz-adv-x="1030" d="M25 537q0 84 60.5 142t148.5 58t149 -58t61 -142q0 -83 -61 -141t-149 -58t-148.5 58t-60.5 141zM234 462q31 0 52 21.5t21 53.5t-21 54t-52 22t-52 -22t-21 -54t21 -53.5t52 -21.5zM586 182q0 84 60.5 142t148.5 58t149 -58t61 -142q0 -83 -61 -141t-149 -58t-148.5 58 t-60.5 141zM795 107q31 0 52 21.5t21 53.5t-21 54t-52 22t-52 -22t-21 -54t21 -53.5t52 -21.5zM231 0l398 686q10 17 17.5 26.5t23.5 17t38 7.5q13 0 25.5 -2.5t22.5 -7t17 -8t12.5 -7.5t6.5 -4l-411 -708h-150z" />
<glyph unicode="&#x26;" horiz-adv-x="723" d="M467 131v146h-154q-46 0 -69 -21t-23 -54q0 -77 139 -77q81 0 107 6zM343 423h274q44 0 62.5 -17t18.5 -53q0 -42 -19 -76h-50v-276q-97 -18 -260 -18q-157 0 -235.5 54t-78.5 156q0 106 106 157q-92 50 -92 152q0 94 70.5 148t186.5 54q110 0 168 -30q45 -22 45 -63 q0 -26 -15.5 -49t-30.5 -31q-15 12 -58.5 25t-88.5 13q-114 0 -114 -77q0 -69 111 -69z" />
<glyph unicode="'" horiz-adv-x="337" d="M90 422v246q0 69 82 69q38 0 75 -14v-301h-157z" />
<glyph unicode="(" horiz-adv-x="353" d="M338 20v-152q-144 24 -218.5 138t-74.5 297t74.5 296.5t218.5 137.5v-152q-65 -25 -98.5 -91.5t-33.5 -190.5t33.5 -191t98.5 -92z" />
<glyph unicode=")" horiz-adv-x="353" d="M15 -132v152q65 25 98.5 92t33.5 191t-33.5 190.5t-98.5 91.5v152q144 -24 218.5 -137.5t74.5 -296.5t-75 -297t-218 -138z" />
<glyph unicode="*" horiz-adv-x="553" d="M182 249l-116 80l103 127l-139 41q0 1 -0.5 6.5t-0.5 10.5q0 35 10 61q19 44 57 44q21 0 42 -10l76 -34l-9 98v7q0 57 76 57q36 0 69 -14l-10 -148l76 34q21 10 42 10q38 0 57 -44q10 -26 10 -61q0 -5 -0.5 -10.5t-0.5 -6.5l-139 -41l103 -127l-116 -80l-95 140z" />
<glyph unicode="+" horiz-adv-x="630" d="M236 81v183h-113q-71 0 -71 80q0 38 15 73h169v117q0 71 83 71q35 0 75 -15v-173h113q71 0 71 -80q0 -38 -15 -73h-169v-183h-158z" />
<glyph unicode="," horiz-adv-x="337" d="M18 -126l68 233q10 35 28 52t52 17q52 0 94 -42l-131 -302z" />
<glyph unicode="-" horiz-adv-x="337" d="M44 348h198q65 0 65 -78q0 -38 -14 -71h-198q-65 0 -65 78q0 38 14 71z" />
<glyph unicode="." horiz-adv-x="337" d="M169 -17q-39 0 -67.5 28.5t-28.5 68.5q0 39 28.5 67.5t67.5 28.5t67.5 -28.5t28.5 -67.5q0 -40 -28.5 -68.5t-67.5 -28.5z" />
<glyph unicode="/" horiz-adv-x="368" d="M0 0l208 674q10 32 26 47.5t47 15.5t54 -13t33 -26l-215 -698h-153z" />
<glyph unicode="0" horiz-adv-x="672" d="M336 -17q-140 0 -216.5 95.5t-76.5 264.5t76.5 265t216.5 96t216.5 -96t76.5 -265t-76.5 -264.5t-216.5 -95.5zM336 136q125 0 125 207q0 208 -125 208q-126 0 -126 -208q0 -207 126 -207z" />
<glyph unicode="1" horiz-adv-x="478" d="M216 0v491l-121 -94q-14 7 -27.5 17t-28 29.5t-14.5 40.5q0 33 16 52.5t57 50.5l59 44q42 30 70.5 42.5t65.5 12.5t85 -19v-667h-162z" />
<glyph unicode="2" horiz-adv-x="564" d="M13 0v137q20 11 102 68.5t119 90.5q63 55 85 91.5t22 78.5q0 40 -29 66.5t-84 26.5q-95 0 -133 -83q-26 9 -53 32.5t-27 55.5q0 33 20 60q11 15 29.5 30t68.5 32.5t114 17.5q124 0 194 -62t70 -158q0 -102 -76 -193q-52 -61 -154 -139h235v-152h-503z" />
<glyph unicode="3" horiz-adv-x="594" d="M8 57l73 123q23 -18 70 -34.5t106 -16.5q58 0 86 21t28 54q0 72 -112 72h-69q-20 36 -20 77q0 71 86 71h10q96 0 96 67q0 31 -25 51.5t-81 20.5q-60 0 -97 -26.5t-46 -52.5q-34 6 -58.5 31.5t-24.5 56.5q0 35 25 63q12 14 33 27.5t70 27.5t109 14q126 0 193.5 -56 t67.5 -139q0 -53 -27 -92.5t-70 -62.5q108 -44 108 -158q0 -95 -72.5 -154t-189.5 -59q-167 0 -269 74z" />
<glyph unicode="4" horiz-adv-x="634" d="M245 283h114v233q-50 -30 -96 -86q-65 -81 -65 -121q0 -16 11.5 -21t35.5 -5zM359 0v133h-151q-80 0 -127.5 31t-47.5 97q0 118 109 246q63 78 137.5 128.5t143.5 50.5q61 0 96 -20v-383h9q44 0 63.5 -17.5t19.5 -54.5q0 -42 -20 -78h-72v-133h-160z" />
<glyph unicode="5" horiz-adv-x="575" d="M11 44l62 124q18 -12 67 -26t99 -14q129 0 129 86q0 89 -150 89q-38 0 -89.5 -7.5t-73.5 -15.5l10 311q2 49 25.5 72t73.5 23h258q44 0 63.5 -17.5t19.5 -54.5q0 -42 -20 -78h-273l-3 -100q20 4 78 4q128 0 187.5 -62t59.5 -158q0 -107 -72.5 -172t-199.5 -65 q-71 0 -133 14.5t-86.5 27t-31.5 19.5z" />
<glyph unicode="6" d="M153 501l118 158q34 45 89 45q26 0 51.5 -9t37.5 -18t16 -14l-141 -193q14 2 25 2q112 0 174 -65.5t62 -162.5q0 -116 -77 -188.5t-198 -72.5q-120 0 -195.5 71t-75.5 183q0 66 29.5 128.5t84.5 135.5zM195 241q0 -50 31.5 -81.5t82.5 -31.5q53 0 83.5 31t30.5 82 t-31.5 83t-82.5 32t-82.5 -32t-31.5 -83z" />
<glyph unicode="7" horiz-adv-x="560" d="M279 0h-170q8 21 107.5 246t123.5 284h-240q-85 0 -85 76q0 47 21 80h400q43 0 66 -23.5t23 -68.5q0 -19 -18 -73q-21 -61 -99 -236t-129 -285z" />
<glyph unicode="8" horiz-adv-x="680" d="M156 349q-87 53 -87 148t74 151t197 56t197 -56t74 -151t-87 -148q50 -26 75.5 -67.5t25.5 -88.5q0 -97 -77 -153.5t-208 -56.5t-208 56.5t-77 153.5q0 103 101 156zM231 492q0 -35 26.5 -56t82.5 -21t82.5 21t26.5 56q0 34 -26.5 56t-82.5 22t-82.5 -22t-26.5 -56z M219 203q0 -37 30 -58.5t91 -21.5t91 21.5t30 58.5q0 36 -30.5 57.5t-90.5 21.5t-90.5 -21.5t-30.5 -57.5z" />
<glyph unicode="9" d="M128 -8l166 226q-14 -2 -25 -2q-112 0 -174 65.5t-62 162.5q0 116 77 188.5t198 72.5q120 0 195.5 -71t75.5 -183q0 -66 -29.5 -128.5t-84.5 -135.5l-144 -195h-193zM309 332q51 0 82.5 32t31.5 83q0 50 -31.5 81.5t-82.5 31.5q-53 0 -83.5 -31t-30.5 -82t31.5 -83 t82.5 -32z" />
<glyph unicode=":" horiz-adv-x="337" d="M169 317q-39 0 -67.5 28.5t-28.5 68.5q0 39 28.5 67.5t67.5 28.5t67.5 -28.5t28.5 -67.5q0 -40 -28.5 -68.5t-67.5 -28.5zM169 -17q-39 0 -67.5 28.5t-28.5 68.5q0 39 28.5 67.5t67.5 28.5t67.5 -28.5t28.5 -67.5q0 -40 -28.5 -68.5t-67.5 -28.5z" />
<glyph unicode=";" horiz-adv-x="337" d="M18 -126l68 233q10 35 28 52t52 17q52 0 94 -42l-131 -302zM169 317q-39 0 -67.5 28.5t-28.5 68.5q0 39 28.5 67.5t67.5 28.5t67.5 -28.5t28.5 -67.5q0 -40 -28.5 -68.5t-67.5 -28.5z" />
<glyph unicode="&#x3c;" horiz-adv-x="630" d="M103 421l458 184v-166l-278 -96l278 -96v-166l-434 174q-58 23 -58 88q0 48 34 78z" />
<glyph unicode="=" horiz-adv-x="630" d="M67 544h440q71 0 71 -80q0 -38 -15 -73h-440q-71 0 -71 80q0 38 15 73zM67 295h440q71 0 71 -80q0 -38 -15 -73h-440q-71 0 -71 80q0 38 15 73z" />
<glyph unicode="&#x3e;" horiz-adv-x="630" d="M69 81v166l278 96l-278 96v166l434 -174q58 -23 58 -88q0 -48 -34 -78z" />
<glyph unicode="?" horiz-adv-x="542" d="M157 220v23q0 50 18.5 81t61.5 55q52 29 76 52.5t24 58.5q0 32 -25 54t-76 22q-94 0 -138 -74q-32 7 -54.5 31.5t-22.5 53.5q0 36 25 64q20 23 70 43t135 20q123 0 187 -56.5t64 -143.5q0 -121 -107 -194q-5 -4 -18 -12.5t-17.5 -11.5t-13.5 -10.5t-12.5 -12t-8.5 -12 t-6.5 -15t-1.5 -16.5h-160zM141 76q0 37 28.5 64.5t67.5 27.5t67.5 -27.5t28.5 -64.5q0 -38 -28.5 -65.5t-67.5 -27.5t-67.5 27.5t-28.5 65.5z" />
<glyph unicode="@" horiz-adv-x="988" d="M703 -37l53 -123q-82 -41 -250 -41q-205 0 -335.5 127t-130.5 323q0 197 128.5 326t325.5 129t325.5 -128t128.5 -327q0 -110 -48 -227q-96 -13 -339 -13q-53 0 -89.5 2.5t-75 12t-61.5 26t-37.5 46t-14.5 70.5q0 150 211 150q18 0 63 -3q0 31 -20 48.5t-75 17.5 q-77 0 -112 -27q-8 5 -21 23t-13 40q0 42 37.5 60.5t121.5 18.5q222 0 222 -185v-191l93 4q15 49 15 127q0 143 -86.5 231t-224.5 88q-137 0 -224 -89.5t-87 -229.5q0 -142 91.5 -229t248.5 -87q65 0 114.5 10.5t65.5 19.5zM558 117v101q-25 5 -51 5q-53 0 -69.5 -13.5 t-16.5 -40.5t17 -41t67 -14q38 0 53 3z" />
<glyph unicode="A" horiz-adv-x="769" d="M178 0h-173q97 258 261 627q19 42 46 59.5t73 17.5q44 0 94 -30q39 -66 143.5 -319t141.5 -355h-184q-5 12 -23.5 61.5t-32.5 86.5h-291q-6 -17 -25 -68.5t-30 -79.5zM293 299h174q-63 171 -87 223q-20 -44 -87 -223z" />
<glyph unicode="B" horiz-adv-x="684" d="M70 0v597q0 78 69 88q59 11 179 11q173 0 243.5 -52t70.5 -145q0 -55 -23.5 -93t-56.5 -57q40 -15 71 -53.5t31 -101.5q0 -49 -14.5 -84t-50.5 -63.5t-102.5 -42.5t-165.5 -14q-37 0 -75.5 1t-68 2.5t-53.5 3t-38 2.5t-16 1zM233 417h145q86 0 86 65q0 32 -26 51.5 t-98 19.5q-65 0 -107 -6v-130zM233 272v-132q42 -6 119 -6q73 0 102 18t29 53q0 67 -92 67h-158z" />
<glyph unicode="C" horiz-adv-x="671" d="M658 51h2q-92 -69 -251 -69q-158 0 -263.5 94t-105.5 264q0 168 104 266t262 98q124 0 205 -51q43 -32 43 -74q0 -33 -22.5 -62.5t-41.5 -40.5q-75 75 -177 75q-88 0 -143 -57t-55 -154t58.5 -150t151.5 -53q98 0 158 43z" />
<glyph unicode="D" horiz-adv-x="751" d="M237 542v-394q32 -4 76 -4q104 0 163.5 49.5t59.5 150.5q0 92 -54.5 147t-160.5 55q-68 0 -84 -4zM70 0v597q0 78 69 88q55 11 163 11q189 0 299 -92t110 -260q0 -169 -108.5 -261.5t-316.5 -92.5q-166 0 -216 10z" />
<glyph unicode="E" horiz-adv-x="641" d="M70 0v591q0 95 99 95h342q85 0 85 -76q0 -47 -21 -80h-338v-107h261q85 0 85 -76q0 -47 -21 -80h-325v-111h354v-156h-521z" />
<glyph unicode="F" horiz-adv-x="593" d="M70 0v591q0 95 99 95h319q85 0 85 -76q0 -47 -21 -80h-315v-116h225q85 0 85 -76q0 -47 -21 -80h-289v-258h-167z" />
<glyph unicode="G" horiz-adv-x="720" d="M501 138v114h-61q-45 0 -65 18t-20 56q0 45 21 78h190q99 0 99 -95v-309q-10 -2 -38 -6t-80.5 -8t-101.5 -4q-186 0 -295.5 92.5t-109.5 267.5q0 165 106.5 263.5t274.5 98.5q128 0 201 -48q42 -26 42 -67q0 -54 -64 -101q-65 65 -176 65q-98 0 -154 -57t-56 -154 q0 -105 59 -156t167 -51q46 0 61 3z" />
<glyph unicode="H" horiz-adv-x="740" d="M237 0h-167v612q0 74 87 74q37 0 80 -16v-235h266v177q0 74 87 74q37 0 80 -16v-670h-167v277h-266v-277z" />
<glyph unicode="I" horiz-adv-x="307" d="M237 0h-167v612q0 74 87 74q37 0 80 -16v-670z" />
<glyph unicode="J" horiz-adv-x="599" d="M8 113l115 99q33 -47 68 -66q31 -15 67 -15q57 0 84 27.5t27 90.5v363q0 74 87 74q37 0 80 -16v-431q0 -119 -67.5 -188t-199.5 -69q-58 0 -109 17t-81.5 41.5t-47.5 42.5t-23 30z" />
<glyph unicode="K" horiz-adv-x="700" d="M237 0h-167v612q0 74 87 74q37 0 80 -16v-255q132 150 217 226q51 45 102 45q70 0 110 -47q-209 -209 -265 -273q154 -165 294 -366h-205q-132 178 -253 299v-299z" />
<glyph unicode="L" horiz-adv-x="559" d="M554 0h-484v612q0 74 87 74q37 0 80 -16v-514h317v-156z" />
<glyph unicode="M" horiz-adv-x="904" d="M65 0l34 600q4 86 98 86q69 0 102 -30q140 -289 156 -319q88 177 134 275q32 74 109 74q34 0 62.5 -9t40.5 -18l38 -659h-168l-23 410q-70 -142 -134 -287h-124q-42 104 -134 286l-22 -409h-169z" />
<glyph unicode="N" horiz-adv-x="739" d="M70 0v599q0 87 92 87q56 0 83 -24q14 -14 117 -165t142 -214v329q0 74 87 74q41 0 78 -16v-670h-157q-29 48 -127 198t-150 224v-422h-165z" />
<glyph unicode="O" horiz-adv-x="822" d="M40 343q0 152 107 256.5t264 104.5t264 -104.5t107 -256.5t-107 -256.5t-264 -104.5t-264 104.5t-107 256.5zM411 138q86 0 141 58.5t55 146.5t-55 146.5t-141 58.5t-141 -58.5t-55 -146.5t55 -146.5t141 -58.5z" />
<glyph unicode="P" horiz-adv-x="668" d="M233 549v-185q54 -6 82 -6q146 0 146 97q0 98 -144 98q-56 0 -84 -4zM70 0v597q0 78 69 88q59 11 179 11q166 0 240 -68.5t74 -172.5q0 -111 -73 -175t-224 -64q-21 0 -44.5 2t-39.5 3.5t-18 1.5v-223h-163z" />
<glyph unicode="Q" horiz-adv-x="822" d="M640 -109l-91 119q-56 -25 -138 -25q-157 0 -264 103t-107 255t107 256.5t264 104.5t264 -104.5t107 -256.5q0 -74 -28 -139t-77 -111l87 -107zM449 138l-23 29q-39 49 -39 73q0 30 21 49t44.5 25t48.5 6l74 -98q32 45 32 121q0 88 -55 146.5t-141 58.5t-141 -58.5 t-55 -146.5t55.5 -147.5t140.5 -59.5q31 0 38 2z" />
<glyph unicode="R" horiz-adv-x="690" d="M70 0v597q0 78 69 88q59 11 179 11q86 0 149 -19t98 -53t51 -74.5t16 -89.5q0 -131 -107 -189q72 -115 145 -271h-191q-87 186 -117 230q-13 -2 -59 -2q-56 0 -70 4v-232h-163zM233 550v-176q2 0 11.5 -1t29.5 -2.5t47 -1.5q140 0 140 90q0 95 -147 95q-53 0 -81 -4z" />
<glyph unicode="S" horiz-adv-x="682" d="M30 64l69 132q21 -17 91 -40.5t154 -23.5q73 0 97.5 17.5t24.5 46.5q0 25 -20.5 40t-71.5 24l-102 18q-45 8 -80.5 20.5t-70 35t-53.5 60.5t-19 88q0 98 72.5 160t210.5 62q151 0 229 -48q48 -27 48 -69q0 -30 -18 -56.5t-38 -41.5q-25 25 -84.5 47t-134.5 22 q-37 0 -61.5 -6t-35.5 -17t-14.5 -20.5t-3.5 -22.5q0 -21 17 -34.5t72 -24.5l106 -21q117 -23 172.5 -70t55.5 -137q0 -105 -78.5 -164t-221.5 -59q-77 0 -152.5 18.5t-112.5 36t-47 27.5z" />
<glyph unicode="T" horiz-adv-x="667" d="M250 0v530h-160q-85 0 -85 76q0 47 21 80h551q85 0 85 -76q0 -47 -21 -80h-224v-530h-167z" />
<glyph unicode="U" horiz-adv-x="760" d="M63 304v308q0 74 87 74q37 0 80 -16v-349q0 -94 34 -139.5t116 -45.5t116 45.5t34 139.5v291q0 74 87 74q37 0 80 -16v-366q0 -153 -82.5 -237.5t-234.5 -84.5t-234.5 84.5t-82.5 237.5z" />
<glyph unicode="V" horiz-adv-x="722" d="M438 0h-173q-62 122 -131.5 280.5t-92.5 216.5q-36 86 -36 120q0 69 82 69q49 0 80 -18q74 -214 187 -476q79 189 165 419q15 40 36.5 57.5t64.5 17.5q13 0 25.5 -2.5t22.5 -6t19 -8t14.5 -8t10.5 -7.5l5 -3q-29 -73 -125.5 -300.5t-153.5 -350.5z" />
<glyph unicode="W" horiz-adv-x="1010" d="M390 0h-177q-37 85 -94.5 245.5t-80.5 234.5q-3 10 -12 37t-11.5 37.5t-6 28t-3.5 31.5q0 34 21 53t60 19q48 0 80 -18q44 -178 137 -452q16 57 105 398q9 36 29 54t62 18q46 0 83 -21q51 -231 111 -448q63 191 114 390q11 43 33 61t66 18q12 0 25 -2t22.5 -5t19.5 -7 t15.5 -7t11.5 -6l5 -3q-78 -283 -229 -656h-178q-17 42 -49 156t-53 207q-80 -300 -106 -363z" />
<glyph unicode="X" horiz-adv-x="751" d="M203 0h-193q182 235 256 332q-121 147 -173 204q-41 47 -41 80t22 51.5t59 18.5q42 0 67 -16q130 -164 167 -210q121 162 123 165q28 36 49 48.5t56 12.5q61 0 106 -45q-87 -107 -235 -299q263 -326 275 -342h-203q-11 12 -70 87.5t-102 127.5q-41 -53 -97.5 -128 t-65.5 -87z" />
<glyph unicode="Y" horiz-adv-x="691" d="M252 0v253q-100 123 -177 229q-1 1 -8.5 11.5t-9.5 13.5t-9 13t-9.5 14.5t-8.5 14t-8.5 15t-6.5 14t-5.5 14.5t-3 13t-1.5 13q0 34 21.5 51t55.5 17q44 0 72 -16q102 -158 184 -268q42 56 149 223q41 61 105 61q32 0 57.5 -12.5t36.5 -23.5q-40 -86 -267 -397v-253h-167z " />
<glyph unicode="Z" horiz-adv-x="644" d="M10 0v143q109 104 225.5 219.5t162.5 167.5h-285q-85 0 -85 76q0 47 21 80h475q100 0 100 -84q0 -24 -12 -49.5t-24.5 -40.5t-39.5 -47q-136 -151 -299 -309h371v-156h-610z" />
<glyph unicode="[" horiz-adv-x="352" d="M70 -127v768q0 95 99 95h162q15 -30 15 -76q0 -76 -65 -76h-58v-559h114v-152h-267z" />
<glyph unicode="\" horiz-adv-x="368" d="M368 0h-153l-215 698q10 13 33 26t54 13t47 -15.5t26 -47.5z" />
<glyph unicode="]" horiz-adv-x="352" d="M282 -127h-267v152h114v559h-58q-65 0 -65 76q0 46 15 76h162q99 0 99 -95v-768z" />
<glyph unicode="^" horiz-adv-x="522" d="M20 331l148 285q21 40 41 55.5t51 15.5q44 0 73 -29l169 -327h-156l-87 175l-88 -175h-151z" />
<glyph unicode="_" horiz-adv-x="500" d="M0 -129v59h500v-59h-500z" />
<glyph unicode="`" horiz-adv-x="500" d="M333 570l-211 90q0 7 5.5 23.5t23.5 35t44 18.5q24 0 67 -28l115 -73z" />
<glyph unicode="a" horiz-adv-x="582" d="M527 305v-302q-16 -5 -86.5 -11t-150.5 -6q-260 0 -260 168q0 91 58.5 131t187.5 40q64 0 89 -4q0 75 -123 75q-94 0 -135 -30q-36 36 -36 71q0 87 178 87q278 0 278 -219zM366 105v107q-20 5 -79 5q-97 0 -97 -61q0 -56 99 -56q62 0 77 5z" />
<glyph unicode="b" horiz-adv-x="632" d="M43 278v388q0 71 84 71q36 0 76 -15v-253q55 55 147 55q104 0 175.5 -75t71.5 -194t-78.5 -194t-197.5 -75q-150 0 -228 102q-50 67 -50 190zM317 134q51 0 83 33t32 87t-32.5 88.5t-82.5 34.5t-82.5 -35.5t-32.5 -87.5q0 -55 32 -87.5t83 -32.5z" />
<glyph unicode="c" horiz-adv-x="518" d="M446 166l70 -122q-89 -58 -204 -58q-116 0 -196.5 70.5t-80.5 198.5q0 125 81 197t202 72q54 0 100 -13.5t69 -36.5q24 -24 24 -53t-18.5 -53t-37.5 -35q-49 49 -126 49q-55 0 -92 -33.5t-37 -93.5q0 -63 36.5 -93.5t94.5 -30.5q39 0 72.5 13t42.5 22z" />
<glyph unicode="d" horiz-adv-x="632" d="M589 722v-444q0 -123 -50 -190q-78 -102 -228 -102q-119 0 -197.5 75t-78.5 194t71.5 194t175.5 75q92 0 147 -55v197q0 71 84 71q36 0 76 -15zM315 134q51 0 83 32.5t32 87.5q0 52 -32.5 87.5t-82.5 35.5t-82.5 -34.5t-32.5 -88.5t32 -87t83 -33z" />
<glyph unicode="e" horiz-adv-x="561" d="M241 188h-35q4 -27 37 -47t95 -20q31 0 62.5 7t48 14t19.5 10l56 -112q-87 -54 -221 -54q-116 0 -192.5 72.5t-76.5 196.5q0 119 78 194t196 75q104 0 167 -52t63 -125q0 -53 -24 -86t-91 -53t-182 -20zM198 292q51 0 87 3.5t55 8t29 13t12 15t2 16.5q0 22 -19.5 37 t-56.5 15q-50 0 -78.5 -32t-30.5 -76z" />
<glyph unicode="f" horiz-adv-x="425" d="M60 0v526q0 107 57 159t157 52q84 0 128 -27q34 -19 34 -56q0 -22 -13 -41.5t-30 -28.5q-30 28 -90 28q-39 0 -60.5 -20.5t-21.5 -59.5v-22h111q44 0 63.5 -17.5t19.5 -54.5q0 -42 -20 -78h-174v-360h-161z" />
<glyph unicode="g" horiz-adv-x="632" d="M79 -165l44 115q5 -4 24 -10.5t57 -14t76 -7.5q148 0 148 136v11q-10 -10 -25 -20.5t-49 -22.5t-72 -12q-111 0 -179 66.5t-68 182.5q0 117 79 191t202 74q146 0 224 -102q49 -66 49 -184v-149q0 -150 -79.5 -224.5t-212.5 -74.5q-76 0 -137.5 16t-80.5 29zM200 259 q0 -55 31 -84t83 -29q49 0 81.5 31.5t32.5 81.5q0 51 -32.5 83.5t-81.5 32.5q-50 0 -82 -33.5t-32 -82.5z" />
<glyph unicode="h" horiz-adv-x="617" d="M55 0v666q0 71 84 71q36 0 76 -15v-242q49 45 137 45q94 0 152 -54t58 -160v-311h-161v278q0 97 -90 97q-95 0 -95 -111v-264h-161z" />
<glyph unicode="i" horiz-adv-x="281" d="M60 0v439q0 71 84 71q37 0 77 -15v-495h-161zM51 647q0 38 25.5 64t63.5 26t64 -26t26 -64t-26 -63.5t-64 -25.5t-63.5 25.5t-25.5 63.5z" />
<glyph unicode="j" horiz-adv-x="281" d="M-129 -179l40 119q32 -17 76 -17q73 0 73 72v444q0 71 84 71q37 0 77 -15v-487q0 -117 -58 -167.5t-150 -50.5q-40 0 -83.5 11t-58.5 20zM51 647q0 38 25.5 64t63.5 26t64 -26t26 -64t-26 -63.5t-64 -25.5t-63.5 25.5t-25.5 63.5z" />
<glyph unicode="k" horiz-adv-x="601" d="M55 0v666q0 71 84 71q37 0 77 -15v-382q20 17 74 61t70 59q25 21 36 29t30 14.5t45 6.5q35 0 63 -18t39 -37q-23 -24 -62.5 -57.5t-88.5 -72.5t-61 -49q136 -123 240 -276h-199q-45 61 -186 202v-202h-161z" />
<glyph unicode="l" horiz-adv-x="281" d="M60 0v666q0 71 84 71q37 0 77 -15v-722h-161z" />
<glyph unicode="m" horiz-adv-x="929" d="M55 0v327q0 94 63.5 145.5t164.5 51.5q121 0 183 -76q62 76 181 76q100 0 163.5 -51.5t63.5 -145.5v-327h-161v281q0 95 -80 95q-41 0 -64.5 -27t-23.5 -82v-267h-161v267q0 109 -87 109q-81 0 -81 -95v-281h-161z" />
<glyph unicode="n" horiz-adv-x="604" d="M40 0v309q0 101 72.5 158t182.5 57t182 -57t72 -158v-309h-161v272q0 104 -93 104q-94 0 -94 -104v-272h-161z" />
<glyph unicode="o" horiz-adv-x="634" d="M35 255q0 115 82 192t200 77t200 -77t82 -192t-82 -192t-200 -77t-200 77t-82 192zM317 130q51 0 84 35.5t33 89.5t-33 89.5t-84 35.5t-84 -35.5t-33 -89.5t33 -89.5t84 -35.5z" />
<glyph unicode="p" horiz-adv-x="632" d="M203 -200h-160v432q0 123 50 190q78 102 228 102q119 0 197.5 -75t78.5 -194t-71.5 -193t-175.5 -74q-94 0 -147 53v-241zM317 133q50 0 82.5 34.5t32.5 88.5t-32 87t-83 33t-83 -32.5t-32 -87.5q0 -52 32.5 -87.5t82.5 -35.5z" />
<glyph unicode="q" horiz-adv-x="632" d="M429 -200v241q-53 -53 -147 -53q-104 0 -175.5 74t-71.5 193t78.5 194t197.5 75q150 0 228 -102q50 -67 50 -190v-432h-160zM315 133q50 0 82.5 35.5t32.5 87.5q0 55 -32 87.5t-83 32.5t-83 -33t-32 -87t32.5 -88.5t82.5 -34.5z" />
<glyph unicode="r" horiz-adv-x="438" d="M55 0v320q0 96 61 150t161 54q101 0 142 -41q19 -21 19 -47q0 -41 -37 -78q-46 22 -94 22q-41 0 -66 -23.5t-25 -71.5v-285h-161z" />
<glyph unicode="s" horiz-adv-x="564" d="M25 52l57 104q22 -16 77.5 -32.5t119.5 -16.5q83 0 83 34q0 19 -15.5 26.5t-56.5 13.5l-52 6q-92 11 -145 47t-53 116q0 78 59 126t178 48q124 0 187 -33q42 -22 42 -60q0 -42 -47 -70q-7 7 -26 16.5t-61.5 19.5t-90.5 10q-80 0 -80 -38q0 -16 14 -23t50 -13l91 -13 q80 -11 127.5 -46t47.5 -110q0 -84 -64 -131t-177 -47q-71 0 -133 14t-89 27t-43 25z" />
<glyph unicode="t" horiz-adv-x="444" d="M55 168v421q0 71 84 71q37 0 77 -15v-135h115q44 0 63.5 -17.5t19.5 -54.5q0 -42 -20 -78h-178v-157q0 -71 76 -71q47 0 84 23l63 -110q-23 -20 -74 -39.5t-110 -19.5q-93 0 -146.5 49t-53.5 133z" />
<glyph unicode="u" d="M216 495v-257q0 -104 94 -104t94 104v201q0 71 84 71q37 0 77 -15v-287q0 -107 -71 -164.5t-184 -57.5t-184 57.5t-71 164.5v231q0 71 84 71q37 0 77 -15z" />
<glyph unicode="v" horiz-adv-x="590" d="M360 0h-149q-53 95 -107.5 208t-66.5 145q-27 66 -27 90q0 29 21 48t59 19q55 0 75 -15q62 -181 124 -312l105 257q14 35 34 52.5t60 17.5q45 0 92 -28q-11 -47 -91 -217.5t-129 -264.5z" />
<glyph unicode="w" horiz-adv-x="837" d="M328 0h-155q-91 199 -141 350q-22 60 -22 90t20.5 50t58.5 20q44 0 74 -15q70 -245 89 -301q23 69 72 250q10 34 27.5 50t57.5 16q43 0 75 -18l85 -298q31 90 68 227q13 48 34.5 68.5t64.5 20.5q15 0 29 -2.5t24.5 -6.5t18.5 -8t13 -7.5t6 -3.5q-14 -60 -74 -218 t-110 -264h-154q-8 23 -39 129t-42 140q-13 -41 -43.5 -146.5t-36.5 -122.5z" />
<glyph unicode="x" horiz-adv-x="638" d="M204 0h-194q4 5 196 237q-114 123 -126 137q-35 42 -35 75q0 26 21 43.5t61 17.5q38 0 75 -16q10 -17 112 -136q64 86 92 114q32 38 84 38q36 0 68 -16t40 -29q-117 -139 -182 -217l212 -248h-203q-13 17 -114 132z" />
<glyph unicode="y" d="M75 -173l39 118q16 -7 59 -17t90 -10q77 0 111 33t34 109q-18 -23 -57 -36.5t-79 -13.5q-97 0 -157 49t-60 145v235q0 71 84 71q37 0 77 -15v-258q0 -48 22.5 -69t70.5 -21q95 0 95 106v186q0 71 84 71q37 0 77 -15v-424q0 -281 -279 -281q-52 0 -103.5 8.5t-76.5 16.5 t-31 12z" />
<glyph unicode="z" horiz-adv-x="549" d="M19 0v125q242 212 270 238h-187q-45 0 -64 16.5t-19 52.5q0 42 20 78h396q36 0 58 -20t22 -57q0 -45 -46 -88q-19 -19 -112.5 -102t-122.5 -107h283v-136h-498z" />
<glyph unicode="{" horiz-adv-x="383" d="M362 -127h-89q-76 0 -119.5 43t-43.5 121v109q0 80 -69 80h-26v157h26q69 0 69 80v109q0 78 43.5 121t119.5 43h85q15 -30 15 -76q0 -76 -62 -76q-14 0 -23 -3.5t-13 -10t-5.5 -13.5t-1.5 -17v-103q0 -100 -60 -133q60 -31 60 -132v-103q0 -15 2 -23t12.5 -14.5 t30.5 -6.5h49v-152z" />
<glyph unicode="|" horiz-adv-x="284" d="M70 -132v806q0 63 76 63q38 0 68 -13v-856h-144z" />
<glyph unicode="}" horiz-adv-x="383" d="M21 -127v152h49q29 0 37 11t8 33v103q0 101 60 132q-60 33 -60 133v103q0 10 -1.5 17t-5.5 13.5t-13 10t-23 3.5q-62 0 -62 76q0 46 15 76h85q76 0 119.5 -43t43.5 -121v-109q0 -80 69 -80h26v-157h-26q-69 0 -69 -80v-109q0 -78 -43.5 -121t-119.5 -43h-89z" />
<glyph unicode="~" horiz-adv-x="630" d="M166 245h-125q0 193 161 193q18 0 39.5 -3.5t35.5 -7.5t39 -11.5l35 -10.5q53 -16 73 -16q18 0 27.5 11t11.5 40h125q0 -193 -161 -193q-18 0 -39.5 3.5t-35.5 7.5t-39 11.5l-35 10.5q-53 16 -73 16q-18 0 -27.5 -11t-11.5 -40z" />
<glyph unicode="&#xa1;" horiz-adv-x="278" d="M59 8v426h161v-370q0 -71 -84 -71q-37 0 -77 15zM43 603q0 38 28.5 65.5t67.5 27.5t67.5 -27.5t28.5 -65.5q0 -37 -28.5 -64.5t-67.5 -27.5t-67.5 27.5t-28.5 64.5z" />
<glyph unicode="&#xa2;" horiz-adv-x="547" d="M284 -36v112q-104 13 -171 81.5t-67 185.5q0 112 67 183t171 83v83q0 38 43 38q9 0 41 -8v-112q92 -11 130 -48q24 -24 24 -53t-18.5 -53t-37.5 -35q-37 37 -98 47v-248q60 9 89 34l70 -122q-69 -46 -159 -56v-112h-84zM284 228v231q-73 -29 -73 -116q0 -88 73 -115z" />
<glyph unicode="&#xa3;" horiz-adv-x="612" d="M85 0v445q0 125 73 192t201 67q63 0 113.5 -15.5t76.5 -38.5q27 -25 27 -55q0 -32 -21 -56t-45 -38q-57 53 -144 53q-62 0 -91.5 -30t-29.5 -82v-13h181q44 0 63.5 -18t19.5 -55q0 -43 -20 -79h-244v-125h331v-152h-491z" />
<glyph unicode="&#xa5;" horiz-adv-x="677" d="M245 0v158h-157q-48 0 -48 49q0 23 10 46h195q-24 29 -57 76h-100q-48 0 -48 49q0 23 10 46h73l-40 58q-27 40 -37 56t-19 37t-9 40q0 35 22 53t56 18q43 0 69 -13q10 -17 72.5 -121.5t93.5 -151.5q33 53 129 225q41 61 105 61q32 0 57.5 -12.5t36.5 -23.5 q-32 -66 -135 -226h48q48 0 48 -49q0 -29 -10 -46h-145l-53 -76h160q48 0 48 -49q0 -29 -10 -46h-198v-158h-167z" />
<glyph unicode="&#xa7;" horiz-adv-x="646" d="M43 -140l60 124q9 -6 32.5 -15.5t78 -22t110.5 -12.5q109 0 109 60q0 50 -88 64l-94 13q-95 15 -149.5 60t-54.5 118q0 95 83 142q-39 20 -61 63t-22 84q0 84 64 141.5t203 57.5t206 -36q46 -25 46 -66q0 -22 -12.5 -41t-22 -25.5t-16.5 -10.5q-7 7 -29.5 17t-67.5 20.5 t-93 10.5q-107 0 -107 -64q0 -45 76 -56l117 -17q192 -29 192 -168q0 -33 -11.5 -62t-28 -46.5t-29 -27t-19.5 -12.5q41 -26 64.5 -59t23.5 -91q0 -91 -70 -147t-206 -56q-28 0 -55.5 2t-50 5.5t-44 7.5t-39 9t-32 10t-26.5 9.5t-19.5 8t-12.5 6.5zM210 274q0 -79 145 -79 q37 0 61 19t24 54q0 79 -145 79q-37 0 -61 -19t-24 -54z" />
<glyph unicode="&#xa8;" horiz-adv-x="500" d="M70 642q0 27 22.5 49t52.5 22q29 0 51 -21.5t22 -49.5t-21.5 -50t-51.5 -22t-52.5 22t-22.5 50zM283 642q0 28 22 49.5t52 21.5t51.5 -21.5t21.5 -49.5t-21.5 -50t-51.5 -22t-52 22t-22 50z" />
<glyph unicode="&#xa9;" horiz-adv-x="816" d="M40 343q0 152 108 260t260 108t260 -108t108 -260t-108 -260t-260 -108t-260 108t-108 260zM408 70q110 0 187 79.5t77 193.5t-77 193.5t-187 79.5t-187 -79.5t-77 -193.5t77 -193.5t187 -79.5zM521 272l49 -86q-17 -15 -55 -29t-90 -14q-90 0 -150 52t-60 147t59.5 148 t150.5 53q82 0 123 -37q17 -14 17 -38q0 -22 -13 -39t-27 -25q-38 36 -92 36q-44 0 -69.5 -26t-25.5 -73q0 -45 27 -70t73 -25q45 0 83 26z" />
<glyph unicode="&#xaa;" horiz-adv-x="432" d="M389 541v-222q-98 -14 -173 -14q-202 0 -202 131q0 60 45 91.5t147 31.5q4 0 64 -3q0 53 -82 53q-28 0 -53.5 -6t-37 -11.5t-13.5 -7.5q-30 30 -30 52q0 25 26 44q33 24 109 24q200 0 200 -163zM270 401v74q-21 3 -60 3q-40 0 -57.5 -8.5t-17.5 -32.5q0 -21 19 -30.5 t67 -9.5q13 0 49 4z" />
<glyph unicode="&#xab;" horiz-adv-x="643" d="M321 103l-91 -84l-172 175q-28 30 -28 63q0 32 28 62l172 176l91 -84l-130 -154zM613 103l-91 -84l-172 175q-28 30 -28 63q0 32 28 62l172 176l91 -84l-130 -154z" />
<glyph unicode="&#xac;" horiz-adv-x="630" d="M67 508h440q71 0 71 -80v-250h-158v177h-297q-71 0 -71 80q0 38 15 73z" />
<glyph unicode="&#xad;" horiz-adv-x="337" d="M44 348h198q65 0 65 -78q0 -38 -14 -71h-198q-65 0 -65 78q0 38 14 71z" />
<glyph unicode="&#xae;" horiz-adv-x="816" d="M246 162v322q0 44 48 52q26 6 88 6q98 0 140.5 -36t42.5 -93q0 -69 -56 -99q29 -45 70 -152h-122q-29 87 -50 124q-5 -1 -25 -1q-26 0 -31 1v-124h-105zM351 458v-87q1 0 4.5 -0.5t12.5 -0.5h22q65 0 65 42q0 47 -69 47q-10 0 -18 -0.5t-12 -0.5h-5zM40 343 q0 152 108 260t260 108t260 -108t108 -260t-108 -260t-260 -108t-260 108t-108 260zM408 70q110 0 187 79.5t77 193.5t-77 193.5t-187 79.5t-187 -79.5t-77 -193.5t77 -193.5t187 -79.5z" />
<glyph unicode="&#xaf;" horiz-adv-x="500" d="M89 692h286q48 0 48 -49q0 -29 -10 -46h-286q-48 0 -48 49q0 23 10 46z" />
<glyph unicode="&#xb0;" horiz-adv-x="402" d="M18 557q0 75 53.5 127.5t129.5 52.5t129.5 -52.5t53.5 -127.5t-53.5 -127t-129.5 -52t-129.5 52t-53.5 127zM201 483q32 0 53.5 22t21.5 52q0 32 -21.5 54t-53.5 22q-30 0 -52 -22t-22 -54q0 -30 22 -52t52 -22z" />
<glyph unicode="&#xb1;" horiz-adv-x="630" d="M67 153h169v121h-113q-71 0 -71 80q0 38 15 73h169v107q0 71 83 71q35 0 75 -15v-163h113q71 0 71 -80q0 -38 -15 -73h-169v-121h113q71 0 71 -80q0 -38 -15 -73h-440q-71 0 -71 80q0 38 15 73z" />
<glyph unicode="&#xb4;" horiz-adv-x="500" d="M167 570l-44 66l115 73q43 28 67 28q26 0 44 -18.5t23.5 -35t5.5 -23.5z" />
<glyph unicode="&#xb5;" d="M215 -200h-160v639q0 71 84 71q37 0 77 -15v-271q0 -104 132 -104q41 0 56 5v314q0 71 84 71q37 0 77 -15v-495q-70 -14 -181 -14q-51 0 -91 10t-55.5 19t-22.5 18v-233z" />
<glyph unicode="&#xb6;" horiz-adv-x="618" d="M352 -200h-107v417q-99 10 -154 72.5t-55 165.5t70 172t220 69q94 0 153 -11q69 -10 69 -88v-797h-107v787q-24 3 -89 3v-790z" />
<glyph unicode="&#xb7;" horiz-adv-x="337" d="M169 246q-39 0 -67.5 28.5t-28.5 68.5q0 39 28.5 67.5t67.5 28.5t67.5 -28.5t28.5 -67.5q0 -40 -28.5 -68.5t-67.5 -28.5z" />
<glyph unicode="&#xb8;" horiz-adv-x="500" d="M116 -182l29 68q4 -4 35.5 -12.5t55.5 -8.5q38 0 38 23q0 13 -18 20.5t-41 7.5l17 59q61 0 106.5 -21.5t45.5 -66.5t-36.5 -71.5t-99.5 -26.5q-93 0 -132 29z" />
<glyph unicode="&#xba;" horiz-adv-x="465" d="M23 504q0 84 60.5 142t148.5 58t149 -58t61 -142q0 -83 -61 -141t-149 -58t-148.5 58t-60.5 141zM232 420q35 0 56.5 24t21.5 60t-21.5 60.5t-56.5 24.5q-34 0 -55.5 -24.5t-21.5 -60.5t21 -60t56 -24z" />
<glyph unicode="&#xbb;" horiz-adv-x="643" d="M322 103l130 154l-130 154l91 84l172 -176q28 -30 28 -62q0 -33 -28 -63l-172 -175zM30 103l130 154l-130 154l91 84l172 -176q28 -30 28 -62q0 -33 -28 -63l-172 -175z" />
<glyph unicode="&#xbf;" horiz-adv-x="542" d="M225 459h160v-23q0 -50 -18.5 -81t-61.5 -55q-52 -29 -76 -52.5t-24 -58.5q0 -32 25 -54t76 -22q94 0 138 74q32 -9 54.5 -33t22.5 -52q0 -36 -25 -64q-63 -63 -205 -63q-123 0 -187 56.5t-64 143.5q0 121 107 194q5 4 18 12.5t17.5 11.5t13.5 10.5t12.5 12t8.5 12 t6.5 15t1.5 16.5zM209 603q0 38 28.5 65.5t67.5 27.5t67.5 -27.5t28.5 -65.5q0 -37 -28.5 -64.5t-67.5 -27.5t-67.5 27.5t-28.5 64.5z" />
<glyph unicode="&#xc0;" horiz-adv-x="769" d="M178 0h-173q97 258 261 627q19 42 46 59.5t73 17.5q44 0 94 -30q39 -66 143.5 -319t141.5 -355h-184q-5 12 -23.5 61.5t-32.5 86.5h-291q-6 -17 -25 -68.5t-30 -79.5zM293 299h174q-63 171 -87 223q-20 -44 -87 -223zM483 747l-253 81q0 9 5 26t24.5 37.5t49.5 20.5 q28 0 74 -24l135 -68z" />
<glyph unicode="&#xc1;" horiz-adv-x="769" d="M178 0h-173q97 258 261 627q19 42 46 59.5t73 17.5q44 0 94 -30q39 -66 143.5 -319t141.5 -355h-184q-5 12 -23.5 61.5t-32.5 86.5h-291q-6 -17 -25 -68.5t-30 -79.5zM293 299h174q-63 171 -87 223q-20 -44 -87 -223zM313 747l-34 73l135 68q46 24 74 24q30 0 49.5 -20.5 t24.5 -37.5t5 -26z" />
<glyph unicode="&#xc2;" horiz-adv-x="769" d="M178 0h-173q97 258 261 627q19 42 46 59.5t73 17.5q44 0 94 -30q39 -66 143.5 -319t141.5 -355h-184q-5 12 -23.5 61.5t-32.5 86.5h-291q-6 -17 -25 -68.5t-30 -79.5zM293 299h174q-63 171 -87 223q-20 -44 -87 -223zM384 807l-156 -62l-40 63l109 68q60 36 87 36 q32 0 87 -36l109 -68l-40 -63z" />
<glyph unicode="&#xc3;" horiz-adv-x="769" d="M178 0h-173q97 258 261 627q19 42 46 59.5t73 17.5q44 0 94 -30q39 -66 143.5 -319t141.5 -355h-184q-5 12 -23.5 61.5t-32.5 86.5h-291q-6 -17 -25 -68.5t-30 -79.5zM293 299h174q-63 171 -87 223q-20 -44 -87 -223zM282 750l-90 19q9 48 39 80.5t80 32.5q33 0 74 -12 l25 -8q23 -6 36 -6q25 0 35 34l89 -18q-28 -113 -119 -113q-22 0 -76 14l-24 7q-22 6 -35 6q-25 0 -34 -36z" />
<glyph unicode="&#xc4;" horiz-adv-x="769" d="M178 0h-173q97 258 261 627q19 42 46 59.5t73 17.5q44 0 94 -30q39 -66 143.5 -319t141.5 -355h-184q-5 12 -23.5 61.5t-32.5 86.5h-291q-6 -17 -25 -68.5t-30 -79.5zM293 299h174q-63 171 -87 223q-20 -44 -87 -223zM425 829q0 29 22 51t53 22t53 -22t22 -51t-22 -51 t-53 -22t-53 22t-22 51zM193 829q0 28 23 50.5t53 22.5t52.5 -22.5t22.5 -50.5t-22.5 -50.5t-52.5 -22.5t-53 22.5t-23 50.5z" />
<glyph unicode="&#xc5;" horiz-adv-x="769" d="M178 0h-173q97 258 261 627q16 39 42 57q-38 33 -38 83q0 46 34 79.5t82 33.5q47 0 80.5 -33.5t33.5 -79.5q0 -50 -37 -82q17 -12 30 -36q29 -53 134 -307.5t137 -341.5h-184q-5 12 -23.5 61.5t-32.5 86.5h-291q-6 -17 -25 -68.5t-30 -79.5zM293 299h174q-63 171 -87 223 q-20 -44 -87 -223zM386 721q20 0 31.5 12.5t11.5 33.5t-11.5 33.5t-31.5 12.5q-21 0 -32.5 -12.5t-11.5 -33.5t11.5 -33.5t32.5 -12.5z" />
<glyph unicode="&#xc6;" horiz-adv-x="1087" d="M187 0h-182q145 268 343 594q34 55 65.5 73.5t79.5 18.5h464q85 0 85 -76q0 -47 -21 -80h-318v-107h241q85 0 85 -76q0 -47 -21 -80h-305v-111h334v-156h-501v166h-257q-22 -39 -53.5 -96.5t-38.5 -69.5zM364 317h172v210h-54z" />
<glyph unicode="&#xc7;" horiz-adv-x="671" d="M658 51h2q-92 -69 -251 -69q-158 0 -263.5 94t-105.5 264q0 168 104 266t262 98q124 0 205 -51q43 -32 43 -74q0 -33 -22.5 -62.5t-41.5 -40.5q-75 75 -177 75q-88 0 -143 -57t-55 -154t58.5 -150t151.5 -53q98 0 158 43zM218 -199l29 68q4 -4 35.5 -12.5t55.5 -8.5 q38 0 38 23q0 13 -18 20.5t-41 7.5l17 59q61 0 106.5 -21.5t45.5 -66.5t-36.5 -71.5t-99.5 -26.5q-93 0 -132 29z" />
<glyph unicode="&#xc8;" horiz-adv-x="641" d="M70 0v591q0 95 99 95h342q85 0 85 -76q0 -47 -21 -80h-338v-107h261q85 0 85 -76q0 -47 -21 -80h-325v-111h354v-156h-521zM429 747l-253 81q0 9 5 26t24.5 37.5t49.5 20.5q28 0 74 -24l135 -68z" />
<glyph unicode="&#xc9;" horiz-adv-x="641" d="M70 0v591q0 95 99 95h342q85 0 85 -76q0 -47 -21 -80h-338v-107h261q85 0 85 -76q0 -47 -21 -80h-325v-111h354v-156h-521zM242 747l-34 73l135 68q46 24 74 24q30 0 49.5 -20.5t24.5 -37.5t5 -26z" />
<glyph unicode="&#xca;" horiz-adv-x="641" d="M70 0v591q0 95 99 95h342q85 0 85 -76q0 -47 -21 -80h-338v-107h261q85 0 85 -76q0 -47 -21 -80h-325v-111h354v-156h-521zM340 807l-156 -62l-40 63l109 68q60 36 87 36q32 0 87 -36l109 -68l-40 -63z" />
<glyph unicode="&#xcb;" horiz-adv-x="641" d="M70 0v591q0 95 99 95h342q85 0 85 -76q0 -47 -21 -80h-338v-107h261q85 0 85 -76q0 -47 -21 -80h-325v-111h354v-156h-521zM361 829q0 29 22 51t53 22t53 -22t22 -51t-22 -51t-53 -22t-53 22t-22 51zM129 829q0 28 23 50.5t53 22.5t52.5 -22.5t22.5 -50.5t-22.5 -50.5 t-52.5 -22.5t-53 22.5t-23 50.5z" />
<glyph unicode="&#xcc;" horiz-adv-x="307" d="M237 0h-167v612q0 74 87 74q37 0 80 -16v-670zM272 747l-253 81q0 9 5 26t24.5 37.5t49.5 20.5q28 0 74 -24l135 -68z" />
<glyph unicode="&#xcd;" horiz-adv-x="307" d="M237 0h-167v612q0 74 87 74q37 0 80 -16v-670zM45 747l-34 73l135 68q46 24 74 24q30 0 49.5 -20.5t24.5 -37.5t5 -26z" />
<glyph unicode="&#xce;" horiz-adv-x="307" d="M237 0h-167v612q0 74 87 74q37 0 80 -16v-670zM155 807l-156 -62l-40 63l109 68q60 36 87 36q32 0 87 -36l109 -68l-40 -63z" />
<glyph unicode="&#xcf;" horiz-adv-x="307" d="M237 0h-167v612q0 74 87 74q37 0 80 -16v-670zM196 829q0 29 22 51t53 22t53 -22t22 -51t-22 -51t-53 -22t-53 22t-22 51zM-36 829q0 28 23 50.5t53 22.5t52.5 -22.5t22.5 -50.5t-22.5 -50.5t-52.5 -22.5t-53 22.5t-23 50.5z" />
<glyph unicode="&#xd0;" horiz-adv-x="779" d="M98 0v288h-25q-61 0 -61 67q0 34 14 56h72v186q0 78 69 88q55 11 163 11q189 0 299 -92t110 -260q0 -169 -108.5 -261.5t-316.5 -92.5q-166 0 -216 10zM265 288v-140q32 -4 76 -4q104 0 163.5 49.5t59.5 150.5q0 92 -54.5 147t-160.5 55q-68 0 -84 -4v-131h118 q61 0 61 -64q0 -37 -14 -59h-165z" />
<glyph unicode="&#xd1;" horiz-adv-x="739" d="M70 0v599q0 87 92 87q56 0 83 -24q14 -14 117 -165t142 -214v329q0 74 87 74q41 0 78 -16v-670h-157q-29 48 -127 198t-150 224v-422h-165zM284 745l-98 19q11 50 42 83t84 33q37 0 78 -12q40 -14 63 -14q25 0 35 34l96 -18q-26 -116 -126 -116q-41 0 -104 21 q-22 6 -36 6q-25 0 -34 -36z" />
<glyph unicode="&#xd2;" horiz-adv-x="822" d="M40 343q0 152 107 256.5t264 104.5t264 -104.5t107 -256.5t-107 -256.5t-264 -104.5t-264 104.5t-107 256.5zM411 138q86 0 141 58.5t55 146.5t-55 146.5t-141 58.5t-141 -58.5t-55 -146.5t55 -146.5t141 -58.5zM520 747l-253 81q0 9 5 26t24.5 37.5t49.5 20.5 q28 0 74 -24l135 -68z" />
<glyph unicode="&#xd3;" horiz-adv-x="822" d="M40 343q0 152 107 256.5t264 104.5t264 -104.5t107 -256.5t-107 -256.5t-264 -104.5t-264 104.5t-107 256.5zM411 138q86 0 141 58.5t55 146.5t-55 146.5t-141 58.5t-141 -58.5t-55 -146.5t55 -146.5t141 -58.5zM310 747l-34 73l135 68q46 24 74 24q30 0 49.5 -20.5 t24.5 -37.5t5 -26z" />
<glyph unicode="&#xd4;" horiz-adv-x="822" d="M40 343q0 152 107 256.5t264 104.5t264 -104.5t107 -256.5t-107 -256.5t-264 -104.5t-264 104.5t-107 256.5zM411 138q86 0 141 58.5t55 146.5t-55 146.5t-141 58.5t-141 -58.5t-55 -146.5t55 -146.5t141 -58.5zM411 807l-156 -62l-40 63l109 68q60 36 87 36q32 0 87 -36 l109 -68l-40 -63z" />
<glyph unicode="&#xd5;" horiz-adv-x="822" d="M40 343q0 152 107 256.5t264 104.5t264 -104.5t107 -256.5t-107 -256.5t-264 -104.5t-264 104.5t-107 256.5zM411 138q86 0 141 58.5t55 146.5t-55 146.5t-141 58.5t-141 -58.5t-55 -146.5t55 -146.5t141 -58.5zM310 745l-98 19q11 50 42 83t84 33q37 0 78 -12 q40 -14 63 -14q25 0 35 34l96 -18q-26 -116 -126 -116q-41 0 -104 21q-22 6 -36 6q-25 0 -34 -36z" />
<glyph unicode="&#xd6;" horiz-adv-x="822" d="M40 343q0 152 107 256.5t264 104.5t264 -104.5t107 -256.5t-107 -256.5t-264 -104.5t-264 104.5t-107 256.5zM411 138q86 0 141 58.5t55 146.5t-55 146.5t-141 58.5t-141 -58.5t-55 -146.5t55 -146.5t141 -58.5zM452 829q0 29 22 51t53 22t53 -22t22 -51t-22 -51t-53 -22 t-53 22t-22 51zM220 829q0 28 23 50.5t53 22.5t52.5 -22.5t22.5 -50.5t-22.5 -50.5t-52.5 -22.5t-53 22.5t-23 50.5z" />
<glyph unicode="&#xd8;" horiz-adv-x="822" d="M128 -98l68 144q-73 49 -114.5 127t-41.5 170q0 152 107 256.5t264 104.5q42 0 91 -11l20 43q13 26 29 37.5t47 11.5q29 0 53.5 -11.5t32.5 -19.5l-55 -117q71 -50 112 -126.5t41 -167.5q0 -152 -107 -256.5t-264 -104.5q-48 0 -88 10l-42 -90h-153zM268 199l164 348 q-1 0 -9 0.5t-12 0.5q-86 0 -141 -58.5t-55 -146.5t53 -144zM393 138h18q86 0 141 58.5t55 146.5q0 84 -51 141z" />
<glyph unicode="&#xd9;" horiz-adv-x="760" d="M63 304v308q0 74 87 74q37 0 80 -16v-349q0 -94 34 -139.5t116 -45.5t116 45.5t34 139.5v291q0 74 87 74q37 0 80 -16v-366q0 -153 -82.5 -237.5t-234.5 -84.5t-234.5 84.5t-82.5 237.5zM489 747l-253 81q0 9 5 26t24.5 37.5t49.5 20.5q28 0 74 -24l135 -68z" />
<glyph unicode="&#xda;" horiz-adv-x="760" d="M63 304v308q0 74 87 74q37 0 80 -16v-349q0 -94 34 -139.5t116 -45.5t116 45.5t34 139.5v291q0 74 87 74q37 0 80 -16v-366q0 -153 -82.5 -237.5t-234.5 -84.5t-234.5 84.5t-82.5 237.5zM292 747l-34 73l135 68q46 24 74 24q30 0 49.5 -20.5t24.5 -37.5t5 -26z" />
<glyph unicode="&#xdb;" horiz-adv-x="760" d="M63 304v308q0 74 87 74q37 0 80 -16v-349q0 -94 34 -139.5t116 -45.5t116 45.5t34 139.5v291q0 74 87 74q37 0 80 -16v-366q0 -153 -82.5 -237.5t-234.5 -84.5t-234.5 84.5t-82.5 237.5zM387 807l-156 -62l-40 63l109 68q60 36 87 36q32 0 87 -36l109 -68l-40 -63z" />
<glyph unicode="&#xdc;" horiz-adv-x="760" d="M63 304v308q0 74 87 74q37 0 80 -16v-349q0 -94 34 -139.5t116 -45.5t116 45.5t34 139.5v291q0 74 87 74q37 0 80 -16v-366q0 -153 -82.5 -237.5t-234.5 -84.5t-234.5 84.5t-82.5 237.5zM435 829q0 29 22 51t53 22t53 -22t22 -51t-22 -51t-53 -22t-53 22t-22 51zM203 829 q0 28 23 50.5t53 22.5t52.5 -22.5t22.5 -50.5t-22.5 -50.5t-52.5 -22.5t-53 22.5t-23 50.5z" />
<glyph unicode="&#xdd;" horiz-adv-x="691" d="M252 0v253q-100 123 -177 229q-1 1 -8.5 11.5t-9.5 13.5t-9 13t-9.5 14.5t-8.5 14t-8.5 15t-6.5 14t-5.5 14.5t-3 13t-1.5 13q0 34 21.5 51t55.5 17q44 0 72 -16q102 -158 184 -268q42 56 149 223q41 61 105 61q32 0 57.5 -12.5t36.5 -23.5q-40 -86 -267 -397v-253h-167z M279 750l-44 66l115 73q43 28 67 28q26 0 44 -18.5t23.5 -35t5.5 -23.5z" />
<glyph unicode="&#xde;" horiz-adv-x="668" d="M70 0v612q0 74 85 74q41 0 78 -16v-88q46 2 85 2q166 0 240 -68.5t74 -172.5q0 -111 -73 -175t-224 -64q-21 0 -44.5 2t-39.5 3.5t-18 1.5v-111h-163zM233 437v-185q54 -6 82 -6q146 0 146 97q0 98 -144 98q-56 0 -84 -4z" />
<glyph unicode="&#xdf;" horiz-adv-x="643" d="M215 0h-160v522q0 42 12 78t39 68t77 50.5t118 18.5q120 0 178 -54.5t58 -126.5q0 -53 -23 -90t-55 -51q65 -14 107 -62.5t42 -141.5q0 -106 -67.5 -165.5t-168.5 -59.5q-79 0 -102 14l17 129q19 -8 58 -8q98 0 98 98q0 53 -33.5 81.5t-88.5 28.5h-41v127h17 q37 0 59.5 20t22.5 57q0 40 -23.5 61t-57.5 21q-83 0 -83 -91v-524z" />
<glyph unicode="&#xe0;" horiz-adv-x="582" d="M527 305v-302q-16 -5 -86.5 -11t-150.5 -6q-260 0 -260 168q0 91 58.5 131t187.5 40q64 0 89 -4q0 75 -123 75q-94 0 -135 -30q-36 36 -36 71q0 87 178 87q278 0 278 -219zM366 105v107q-20 5 -79 5q-97 0 -97 -61q0 -56 99 -56q62 0 77 5zM383 570l-211 90q0 7 5.5 23.5 t23.5 35t44 18.5q24 0 67 -28l115 -73z" />
<glyph unicode="&#xe1;" horiz-adv-x="582" d="M527 305v-302q-16 -5 -86.5 -11t-150.5 -6q-260 0 -260 168q0 91 58.5 131t187.5 40q64 0 89 -4q0 75 -123 75q-94 0 -135 -30q-36 36 -36 71q0 87 178 87q278 0 278 -219zM366 105v107q-20 5 -79 5q-97 0 -97 -61q0 -56 99 -56q62 0 77 5zM246 570l-44 66l115 73 q43 28 67 28q26 0 44 -18.5t23.5 -35t5.5 -23.5z" />
<glyph unicode="&#xe2;" horiz-adv-x="582" d="M527 305v-302q-16 -5 -86.5 -11t-150.5 -6q-260 0 -260 168q0 91 58.5 131t187.5 40q64 0 89 -4q0 75 -123 75q-94 0 -135 -30q-36 36 -36 71q0 87 178 87q278 0 278 -219zM366 105v107q-20 5 -79 5q-97 0 -97 -61q0 -56 99 -56q62 0 77 5zM307 640l-128 -70l-50 63 l99 68q48 36 79 36t79 -36l99 -68l-50 -63z" />
<glyph unicode="&#xe3;" horiz-adv-x="582" d="M527 305v-302q-16 -5 -86.5 -11t-150.5 -6q-260 0 -260 168q0 91 58.5 131t187.5 40q64 0 89 -4q0 75 -123 75q-94 0 -135 -30q-36 36 -36 71q0 87 178 87q278 0 278 -219zM366 105v107q-20 5 -79 5q-97 0 -97 -61q0 -56 99 -56q62 0 77 5zM210 570l-90 19q9 48 39 80.5 t80 32.5q33 0 74 -12l25 -8q22 -6 36 -6q25 0 35 34l89 -18q-28 -113 -119 -113q-22 0 -76 14l-24 7q-22 6 -35 6q-25 0 -34 -36z" />
<glyph unicode="&#xe4;" horiz-adv-x="582" d="M527 305v-302q-16 -5 -86.5 -11t-150.5 -6q-260 0 -260 168q0 91 58.5 131t187.5 40q64 0 89 -4q0 75 -123 75q-94 0 -135 -30q-36 36 -36 71q0 87 178 87q278 0 278 -219zM366 105v107q-20 5 -79 5q-97 0 -97 -61q0 -56 99 -56q62 0 77 5zM125 642q0 27 22.5 49t52.5 22 t51.5 -21.5t21.5 -49.5t-21.5 -50t-51.5 -22t-52.5 22t-22.5 50zM338 642q0 28 22 49.5t52 21.5t51.5 -21.5t21.5 -49.5t-21.5 -50t-51.5 -22t-52 22t-22 50z" />
<glyph unicode="&#xe5;" horiz-adv-x="582" d="M527 305v-302q-16 -5 -86.5 -11t-150.5 -6q-260 0 -260 168q0 91 58.5 131t187.5 40q64 0 89 -4q0 75 -123 75q-94 0 -135 -30q-36 36 -36 71q0 87 178 87q278 0 278 -219zM366 105v107q-20 5 -79 5q-97 0 -97 -61q0 -56 99 -56q62 0 77 5zM198 666q0 41 30 71t73 30 t73 -30t30 -71t-30 -71t-73 -30t-73 30t-30 71zM301 622q42 0 42 44t-42 44t-42 -44t42 -44z" />
<glyph unicode="&#xe6;" horiz-adv-x="890" d="M797 152l56 -112q-87 -54 -221 -54q-98 0 -163 47q-6 -6 -23.5 -15t-65.5 -20.5t-106 -11.5q-130 0 -187 46t-57 122q0 91 56.5 131t177.5 40q82 0 101 -7q0 79 -123 79q-91 0 -135 -31q-36 36 -36 71q0 87 178 87q149 0 212 -73q19 23 67 48t115 25q100 0 162 -52.5 t62 -124.5q0 -78 -58.5 -118t-194.5 -40q-52 0 -79 3q4 -30 36.5 -50.5t95.5 -20.5q31 0 62.5 7t48 14t19.5 10zM392 122q-26 57 -26 90q-20 5 -79 5q-97 0 -97 -61q0 -57 99 -57q49 0 103 23zM527 294h39q50 0 81.5 4.5t44.5 13.5t16.5 16.5t3.5 19.5q0 22 -19.5 37 t-56.5 15q-49 0 -78 -31t-31 -73v-2z" />
<glyph unicode="&#xe7;" horiz-adv-x="518" d="M446 166l70 -122q-89 -58 -204 -58q-116 0 -196.5 70.5t-80.5 198.5q0 125 81 197t202 72q54 0 100 -13.5t69 -36.5q24 -24 24 -53t-18.5 -53t-37.5 -35q-49 49 -126 49q-55 0 -92 -33.5t-37 -93.5q0 -63 36.5 -93.5t94.5 -30.5q39 0 72.5 13t42.5 22zM133 -182l29 68 q4 -4 35.5 -12.5t55.5 -8.5q38 0 38 23q0 13 -18 20.5t-41 7.5l17 59q61 0 106.5 -21.5t45.5 -66.5t-36.5 -71.5t-99.5 -26.5q-93 0 -132 29z" />
<glyph unicode="&#xe8;" horiz-adv-x="561" d="M241 188h-35q4 -27 37 -47t95 -20q31 0 62.5 7t48 14t19.5 10l56 -112q-87 -54 -221 -54q-116 0 -192.5 72.5t-76.5 196.5q0 119 78 194t196 75q104 0 167 -52t63 -125q0 -53 -24 -86t-91 -53t-182 -20zM198 292q51 0 87 3.5t55 8t29 13t12 15t2 16.5q0 22 -19.5 37 t-56.5 15q-50 0 -78.5 -32t-30.5 -76zM397 570l-211 90q0 7 5.5 23.5t23.5 35t44 18.5q24 0 67 -28l115 -73z" />
<glyph unicode="&#xe9;" horiz-adv-x="561" d="M241 188h-35q4 -27 37 -47t95 -20q31 0 62.5 7t48 14t19.5 10l56 -112q-87 -54 -221 -54q-116 0 -192.5 72.5t-76.5 196.5q0 119 78 194t196 75q104 0 167 -52t63 -125q0 -53 -24 -86t-91 -53t-182 -20zM198 292q51 0 87 3.5t55 8t29 13t12 15t2 16.5q0 22 -19.5 37 t-56.5 15q-50 0 -78.5 -32t-30.5 -76zM255 570l-44 66l115 73q43 28 67 28q26 0 44 -18.5t23.5 -35t5.5 -23.5z" />
<glyph unicode="&#xea;" horiz-adv-x="561" d="M241 188h-35q4 -27 37 -47t95 -20q31 0 62.5 7t48 14t19.5 10l56 -112q-87 -54 -221 -54q-116 0 -192.5 72.5t-76.5 196.5q0 119 78 194t196 75q104 0 167 -52t63 -125q0 -53 -24 -86t-91 -53t-182 -20zM198 292q51 0 87 3.5t55 8t29 13t12 15t2 16.5q0 22 -19.5 37 t-56.5 15q-50 0 -78.5 -32t-30.5 -76zM312 640l-128 -70l-50 63l99 68q48 36 79 36t79 -36l99 -68l-50 -63z" />
<glyph unicode="&#xeb;" horiz-adv-x="561" d="M241 188h-35q4 -27 37 -47t95 -20q31 0 62.5 7t48 14t19.5 10l56 -112q-87 -54 -221 -54q-116 0 -192.5 72.5t-76.5 196.5q0 119 78 194t196 75q104 0 167 -52t63 -125q0 -53 -24 -86t-91 -53t-182 -20zM198 292q51 0 87 3.5t55 8t29 13t12 15t2 16.5q0 22 -19.5 37 t-56.5 15q-50 0 -78.5 -32t-30.5 -76zM123 642q0 27 22.5 49t52.5 22t51.5 -21.5t21.5 -49.5t-21.5 -50t-51.5 -22t-52.5 22t-22.5 50zM336 642q0 28 22 49.5t52 21.5t51.5 -21.5t21.5 -49.5t-21.5 -50t-51.5 -22t-52 22t-22 50z" />
<glyph unicode="&#xec;" horiz-adv-x="281" d="M60 0v439q0 71 84 71q37 0 77 -15v-495h-161zM240 570l-211 90q0 7 5.5 23.5t23.5 35t44 18.5q24 0 67 -28l115 -73z" />
<glyph unicode="&#xed;" horiz-adv-x="281" d="M60 0v439q0 71 84 71q37 0 77 -15v-495h-161zM67 570l-44 66l115 73q43 28 67 28q26 0 44 -18.5t23.5 -35t5.5 -23.5z" />
<glyph unicode="&#xee;" horiz-adv-x="281" d="M60 0v439q0 71 84 71q37 0 77 -15v-495h-161zM142 640l-128 -70l-50 63l99 68q48 36 79 36t79 -36l99 -68l-50 -63z" />
<glyph unicode="&#xef;" horiz-adv-x="281" d="M60 0v439q0 71 84 71q37 0 77 -15v-495h-161zM-39 642q0 27 22.5 49t52.5 22t51.5 -21.5t21.5 -49.5t-21.5 -50t-51.5 -22t-52.5 22t-22.5 50zM174 642q0 28 22 49.5t52 21.5t51.5 -21.5t21.5 -49.5t-21.5 -50t-51.5 -22t-52 22t-22 50z" />
<glyph unicode="&#xf0;" horiz-adv-x="634" d="M185 493l-41 75l91 47q-26 14 -67 28l44 94q75 -23 143 -59l114 59l40 -75l-74 -39q164 -136 164 -344q0 -145 -75.5 -219t-206.5 -74q-126 0 -204 66t-78 176q0 107 70.5 172.5t165.5 65.5q104 0 142 -45q-28 79 -97 140zM200 228q0 -50 32 -81.5t85 -31.5t85 31.5 t32 81.5t-32 81.5t-85 31.5t-85 -31.5t-32 -81.5z" />
<glyph unicode="&#xf1;" horiz-adv-x="619" d="M55 0v309q0 101 72.5 158t182.5 57t182 -57t72 -158v-309h-161v272q0 104 -93 104q-94 0 -94 -104v-272h-161zM211 570l-90 19q9 48 39 80.5t80 32.5q33 0 74 -12l25 -8q22 -6 36 -6q25 0 35 34l89 -18q-28 -113 -119 -113q-22 0 -76 14l-24 7q-22 6 -35 6q-25 0 -34 -36 z" />
<glyph unicode="&#xf2;" horiz-adv-x="634" d="M35 255q0 115 82 192t200 77t200 -77t82 -192t-82 -192t-200 -77t-200 77t-82 192zM317 130q51 0 84 35.5t33 89.5t-33 89.5t-84 35.5t-84 -35.5t-33 -89.5t33 -89.5t84 -35.5zM391 570l-211 90q0 7 5.5 23.5t23.5 35t44 18.5q24 0 67 -28l115 -73z" />
<glyph unicode="&#xf3;" horiz-adv-x="634" d="M35 255q0 115 82 192t200 77t200 -77t82 -192t-82 -192t-200 -77t-200 77t-82 192zM317 130q51 0 84 35.5t33 89.5t-33 89.5t-84 35.5t-84 -35.5t-33 -89.5t33 -89.5t84 -35.5zM249 570l-44 66l115 73q43 28 67 28q26 0 44 -18.5t23.5 -35t5.5 -23.5z" />
<glyph unicode="&#xf4;" horiz-adv-x="634" d="M35 255q0 115 82 192t200 77t200 -77t82 -192t-82 -192t-200 -77t-200 77t-82 192zM317 130q51 0 84 35.5t33 89.5t-33 89.5t-84 35.5t-84 -35.5t-33 -89.5t33 -89.5t84 -35.5zM318 640l-128 -70l-50 63l99 68q48 36 79 36t79 -36l99 -68l-50 -63z" />
<glyph unicode="&#xf5;" horiz-adv-x="634" d="M35 255q0 115 82 192t200 77t200 -77t82 -192t-82 -192t-200 -77t-200 77t-82 192zM317 130q51 0 84 35.5t33 89.5t-33 89.5t-84 35.5t-84 -35.5t-33 -89.5t33 -89.5t84 -35.5zM218 570l-90 19q9 48 39 80.5t80 32.5q33 0 74 -12l25 -8q22 -6 36 -6q25 0 35 34l89 -18 q-28 -113 -119 -113q-22 0 -76 14l-24 7q-22 6 -35 6q-25 0 -34 -36z" />
<glyph unicode="&#xf6;" horiz-adv-x="634" d="M35 255q0 115 82 192t200 77t200 -77t82 -192t-82 -192t-200 -77t-200 77t-82 192zM317 130q51 0 84 35.5t33 89.5t-33 89.5t-84 35.5t-84 -35.5t-33 -89.5t33 -89.5t84 -35.5zM137 642q0 27 22.5 49t52.5 22t51.5 -21.5t21.5 -49.5t-21.5 -50t-51.5 -22t-52.5 22 t-22.5 50zM350 642q0 28 22 49.5t52 21.5t51.5 -21.5t21.5 -49.5t-21.5 -50t-51.5 -22t-52 22t-22 50z" />
<glyph unicode="&#xf7;" horiz-adv-x="630" d="M67 417h440q71 0 71 -80q0 -38 -15 -73h-440q-71 0 -71 80q0 38 15 73zM226 546q0 38 25.5 64t63.5 26t64 -26t26 -64t-26 -63.5t-64 -25.5t-63.5 25.5t-25.5 63.5zM226 134q0 38 25.5 64t63.5 26t64 -26t26 -64t-26 -63.5t-64 -25.5t-63.5 25.5t-25.5 63.5z" />
<glyph unicode="&#xf8;" horiz-adv-x="634" d="M105 -76l52 107q-57 37 -89.5 95t-32.5 129q0 115 82 192t200 77q42 0 76 -10l19 40q16 33 52 33q30 0 58 -21l-44 -89q56 -37 88.5 -94.5t32.5 -127.5q0 -115 -82 -192t-200 -77q-39 0 -75 9l-35 -71h-102zM225 169l103 213q-2 1 -11 1q-52 0 -86.5 -36.5t-34.5 -91.5 q0 -51 29 -86zM307 127h10q52 0 86.5 36.5t34.5 91.5q0 49 -28 83z" />
<glyph unicode="&#xf9;" d="M216 495v-257q0 -104 94 -104t94 104v201q0 71 84 71q37 0 77 -15v-287q0 -107 -71 -164.5t-184 -57.5t-184 57.5t-71 164.5v231q0 71 84 71q37 0 77 -15zM367 570l-211 90q0 7 5.5 23.5t23.5 35t44 18.5q24 0 67 -28l115 -73z" />
<glyph unicode="&#xfa;" d="M216 495v-257q0 -104 94 -104t94 104v201q0 71 84 71q37 0 77 -15v-287q0 -107 -71 -164.5t-184 -57.5t-184 57.5t-71 164.5v231q0 71 84 71q37 0 77 -15zM265 570l-44 66l115 73q43 28 67 28q26 0 44 -18.5t23.5 -35t5.5 -23.5z" />
<glyph unicode="&#xfb;" d="M216 495v-257q0 -104 94 -104t94 104v201q0 71 84 71q37 0 77 -15v-287q0 -107 -71 -164.5t-184 -57.5t-184 57.5t-71 164.5v231q0 71 84 71q37 0 77 -15zM310 640l-128 -70l-50 63l99 68q48 36 79 36t79 -36l99 -68l-50 -63z" />
<glyph unicode="&#xfc;" d="M216 495v-257q0 -104 94 -104t94 104v201q0 71 84 71q37 0 77 -15v-287q0 -107 -71 -164.5t-184 -57.5t-184 57.5t-71 164.5v231q0 71 84 71q37 0 77 -15zM130 642q0 27 22.5 49t52.5 22q29 0 51 -21.5t22 -49.5t-21.5 -50t-51.5 -22t-52.5 22t-22.5 50zM343 642 q0 28 22 49.5t52 21.5t51.5 -21.5t21.5 -49.5t-21.5 -50t-51.5 -22t-52 22t-22 50z" />
<glyph unicode="&#xfd;" d="M75 -173l39 118q16 -7 59 -17t90 -10q77 0 111 33t34 109q-18 -23 -57 -36.5t-79 -13.5q-97 0 -157 49t-60 145v235q0 71 84 71q37 0 77 -15v-258q0 -48 22.5 -69t70.5 -21q95 0 95 106v186q0 71 84 71q37 0 77 -15v-424q0 -281 -279 -281q-52 0 -103.5 8.5t-76.5 16.5 t-31 12zM267 570l-44 66l115 73q43 28 67 28q26 0 44 -18.5t23.5 -35t5.5 -23.5z" />
<glyph unicode="&#xfe;" horiz-adv-x="632" d="M203 -200h-160v866q0 71 85 71q36 0 76 -15v-250q52 52 146 52q104 0 175.5 -74t71.5 -193q0 -120 -71 -194.5t-176 -74.5q-94 0 -147 53v-241zM317 133q50 0 82.5 34.5t32.5 88.5t-32 87t-83 33t-83 -32.5t-32 -87.5q0 -52 32.5 -87.5t82.5 -35.5z" />
<glyph unicode="&#xff;" d="M75 -173l39 118q16 -7 59 -17t90 -10q77 0 111 33t34 109q-18 -23 -57 -36.5t-79 -13.5q-97 0 -157 49t-60 145v235q0 71 84 71q37 0 77 -15v-258q0 -48 22.5 -69t70.5 -21q95 0 95 106v186q0 71 84 71q37 0 77 -15v-424q0 -281 -279 -281q-52 0 -103.5 8.5t-76.5 16.5 t-31 12zM137 642q0 27 22.5 49t52.5 22t51.5 -21.5t21.5 -49.5t-21.5 -50t-51.5 -22t-52.5 22t-22.5 50zM350 642q0 28 22 49.5t52 21.5t51.5 -21.5t21.5 -49.5t-21.5 -50t-51.5 -22t-52 22t-22 50z" />
<glyph unicode="&#x131;" horiz-adv-x="281" d="M60 0v439q0 71 84 71q37 0 77 -15v-495h-161z" />
<glyph unicode="&#x152;" horiz-adv-x="1168" d="M607 0v69q-27 -35 -85.5 -59t-125.5 -24q-149 0 -252.5 100.5t-103.5 256.5t103.5 256.5t252.5 100.5q60 0 111 -18.5t75 -37.5t27 -31q0 26 23.5 49.5t64.5 23.5h341q85 0 85 -76q0 -47 -21 -80h-331v-107h254q85 0 85 -76q0 -47 -21 -80h-318v-111h347v-156h-511z M411 142q86 0 141 57t55 144q0 88 -55 144.5t-141 56.5q-87 0 -141.5 -55t-54.5 -146q0 -90 54.5 -145.5t141.5 -55.5z" />
<glyph unicode="&#x153;" horiz-adv-x="958" d="M638 188h-35q4 -27 37 -47t95 -20q31 0 62.5 7t48 14t19.5 10l56 -112q-87 -54 -221 -54q-57 0 -109 21.5t-82 58.5q-72 -80 -201 -80q-112 0 -192.5 76.5t-80.5 192.5q0 118 80.5 193.5t196.5 75.5q61 0 115 -23t84 -61q32 40 83.5 62t110.5 22q104 0 167 -52t63 -125 q0 -53 -24 -86t-91 -53t-182 -20zM317 130q51 0 84 35.5t33 89.5t-33 89.5t-84 35.5t-84 -35.5t-33 -89.5t33 -89.5t84 -35.5zM595 292q51 0 87 3.5t55 8t29 13t12 15t2 16.5q0 22 -19.5 37t-56.5 15q-50 0 -78.5 -32t-30.5 -76z" />
<glyph unicode="&#x178;" horiz-adv-x="691" d="M252 0v253q-100 123 -177 229q-1 1 -8.5 11.5t-9.5 13.5t-9 13t-9.5 14.5t-8.5 14t-8.5 15t-6.5 14t-5.5 14.5t-3 13t-1.5 13q0 34 21.5 51t55.5 17q44 0 72 -16q102 -158 184 -268q42 56 149 223q41 61 105 61q32 0 57.5 -12.5t36.5 -23.5q-40 -86 -267 -397v-253h-167z M168 822q0 27 22.5 49t52.5 22q29 0 51 -21.5t22 -49.5t-21.5 -50t-51.5 -22t-52.5 22t-22.5 50zM381 822q0 28 22 49.5t52 21.5t51.5 -21.5t21.5 -49.5t-21.5 -50t-51.5 -22t-52 22t-22 50z" />
<glyph unicode="&#x192;" horiz-adv-x="538" d="M-150 -179l52 117q28 -15 69 -15q73 0 83 71l72 518q33 225 245 225q82 0 123 -28q27 -17 27 -50q0 -25 -16 -45t-36 -30q-28 28 -86 28q-82 0 -94 -80l-3 -22h101q44 0 63.5 -17.5t19.5 -54.5q0 -42 -20 -78h-185l-49 -352q-17 -117 -79.5 -167.5t-148.5 -50.5 q-47 0 -84.5 10.5t-53.5 20.5z" />
<glyph unicode="&#x2c6;" horiz-adv-x="500" d="M250 640l-128 -70l-50 63l99 68q48 36 79 36t79 -36l99 -68l-50 -63z" />
<glyph unicode="&#x2c7;" horiz-adv-x="500" d="M171 606l-97 68l46 63l130 -70l130 70l46 -63l-97 -68q-48 -36 -79 -36t-79 36z" />
<glyph unicode="&#x2d8;" horiz-adv-x="500" d="M99 720l75 10q17 -68 76 -68t76 68l75 -10q-1 -24 -9 -47t-24 -47t-46.5 -38.5t-71.5 -14.5t-72 14.5t-47 38.5t-23.5 47t-8.5 47z" />
<glyph unicode="&#x2d9;" horiz-adv-x="500" d="M179 642q0 27 22 47.5t50 20.5t49 -20.5t21 -47.5t-20.5 -48t-49.5 -21q-28 0 -50 21t-22 48z" />
<glyph unicode="&#x2da;" horiz-adv-x="500" d="M147 666q0 41 30 71t73 30t73 -30t30 -71t-30 -71t-73 -30t-73 30t-30 71zM250 622q42 0 42 44t-42 44t-42 -44t42 -44z" />
<glyph unicode="&#x2db;" horiz-adv-x="500" d="M205 0h120q-33 -6 -63.5 -23.5t-30.5 -48.5q0 -33 43 -33q36 0 66 18l29 -64q-48 -28 -121 -28q-116 0 -116 84q0 30 18 53.5t34 32.5t21 9z" />
<glyph unicode="&#x2dc;" horiz-adv-x="500" d="M151 570l-90 19q9 48 39 80.5t80 32.5q33 0 74 -12l25 -8q22 -6 36 -6q25 0 35 34l89 -18q-28 -113 -119 -113q-22 0 -76 14l-24 7q-22 6 -35 6q-25 0 -34 -36z" />
<glyph unicode="&#x2dd;" horiz-adv-x="500" d="M308 570l-47 61l93 78q31 28 62 28q37 0 53 -34q6 -13 8 -33zM69 570l-47 61l93 78q31 28 62 28q37 0 53 -34q6 -13 8 -33z" />
<glyph unicode="&#x3a9;" horiz-adv-x="840" d="M50 0v138h117q-97 90 -97 235q0 69 20.5 128t61 105t109.5 72t159 26t159 -26t109.5 -72t61 -105t20.5 -128q0 -145 -97 -235h117v-138h-320v137q125 63 125 218q0 89 -43 145t-132 56t-132 -56t-43 -145q0 -155 125 -218v-137h-320z" />
<glyph unicode="&#x3c0;" horiz-adv-x="706" d="M591 360v-360h-161v360h-150v-360h-161v360h-23q-81 0 -81 73q0 33 20 77h575q43 0 62 -18.5t19 -55.5q0 -32 -20 -76h-80z" />
<glyph unicode="&#x400;" horiz-adv-x="641" d="M70 0v591q0 95 99 95h342q85 0 85 -76q0 -47 -21 -80h-338v-107h261q85 0 85 -76q0 -47 -21 -80h-325v-111h354v-156h-521zM428 747l-253 81q0 9 5 26t24.5 37.5t49.5 20.5q28 0 74 -24l135 -68z" />
<glyph unicode="&#x401;" horiz-adv-x="641" d="M70 0v591q0 95 99 95h342q85 0 85 -76q0 -47 -21 -80h-338v-107h261q85 0 85 -76q0 -47 -21 -80h-325v-111h354v-156h-521zM361 829q0 29 22 51t53 22t53 -22t22 -51t-22 -51t-53 -22t-53 22t-22 51zM129 829q0 28 23 50.5t53 22.5t52.5 -22.5t22.5 -50.5t-22.5 -50.5 t-52.5 -22.5t-53 22.5t-23 50.5z" />
<glyph unicode="&#x402;" horiz-adv-x="798" d="M763 225q0 -97 -64.5 -162.5t-192.5 -65.5q-27 0 -57 3v148q9 -2 34 -2q99 0 99 78q0 38 -28 58.5t-77 20.5q-54 0 -84 -30.5t-30 -87.5v-185h-168v530h-105q-85 0 -85 76q0 47 21 80h449q85 0 85 -76q0 -47 -21 -80h-176v-121q53 45 154 45q107 0 176.5 -57.5 t69.5 -171.5z" />
<glyph unicode="&#x403;" horiz-adv-x="593" d="M70 0v591q0 95 99 95h319q85 0 85 -76q0 -47 -21 -80h-315v-530h-167zM233 747l-34 73l135 68q46 24 74 24q30 0 49.5 -20.5t24.5 -37.5t5 -26z" />
<glyph unicode="&#x404;" horiz-adv-x="671" d="M658 51h2q-92 -69 -251 -69q-158 0 -263.5 94t-105.5 264q0 168 104 266t262 98q124 0 205 -51q43 -32 43 -74q0 -33 -22.5 -62.5t-41.5 -40.5q-75 75 -177 75q-68 0 -117 -34t-69 -95h181q85 0 85 -76q0 -47 -21 -80h-247q20 -64 73 -96.5t127 -32.5q98 0 158 43z" />
<glyph unicode="&#x405;" horiz-adv-x="682" d="M30 64l69 132q21 -17 91 -40.5t154 -23.5q73 0 97.5 17.5t24.5 46.5q0 25 -20.5 40t-71.5 24l-102 18q-45 8 -80.5 20.5t-70 35t-53.5 60.5t-19 88q0 98 72.5 160t210.5 62q151 0 229 -48q48 -27 48 -69q0 -30 -18 -56.5t-38 -41.5q-25 25 -84.5 47t-134.5 22 q-37 0 -61.5 -6t-35.5 -17t-14.5 -20.5t-3.5 -22.5q0 -21 17 -34.5t72 -24.5l106 -21q117 -23 172.5 -70t55.5 -137q0 -105 -78.5 -164t-221.5 -59q-77 0 -152.5 18.5t-112.5 36t-47 27.5z" />
<glyph unicode="&#x406;" horiz-adv-x="307" d="M237 0h-167v612q0 74 87 74q37 0 80 -16v-670z" />
<glyph unicode="&#x407;" horiz-adv-x="307" d="M237 0h-167v612q0 74 87 74q37 0 80 -16v-670zM196 829q0 29 22 51t53 22t53 -22t22 -51t-22 -51t-53 -22t-53 22t-22 51zM-36 829q0 28 23 50.5t53 22.5t52.5 -22.5t22.5 -50.5t-22.5 -50.5t-52.5 -22.5t-53 22.5t-23 50.5z" />
<glyph unicode="&#x408;" horiz-adv-x="599" d="M8 113l115 99q33 -47 68 -66q31 -15 67 -15q57 0 84 27.5t27 90.5v363q0 74 87 74q37 0 80 -16v-431q0 -119 -67.5 -188t-199.5 -69q-58 0 -109 17t-81.5 41.5t-47.5 42.5t-23 30z" />
<glyph unicode="&#x409;" horiz-adv-x="1089" d="M657 301v-163q19 -3 81 -3q137 0 137 90q0 51 -31 66t-106 15q-49 0 -81 -5zM757 449q142 0 217 -51t75 -172q0 -124 -87.5 -180t-261.5 -56q-157 0 -210 10v534q-8 3 -41 3q-54 0 -82.5 -23.5t-45.5 -95.5l-51 -221q-27 -121 -72 -197h-190q56 92 92 217q6 20 55 235 q31 135 101 189.5t197 54.5q76 0 135 -11q69 -10 69 -88v-153q40 5 100 5z" />
<glyph unicode="&#x40a;" horiz-adv-x="1102" d="M888 225q0 51 -32 68t-105 17q-56 0 -81 -4v-168q19 -3 81 -3q60 0 98.5 21.5t38.5 68.5zM1062 227q0 -123 -88 -180t-261 -57q-157 0 -210 10v308h-266v-308h-167v612q0 74 87 74q37 0 80 -16v-221h266v163q0 74 87 74q37 0 80 -16v-221q40 5 100 5q141 0 216.5 -52.5 t75.5 -174.5z" />
<glyph unicode="&#x40b;" horiz-adv-x="780" d="M195 0v530h-105q-85 0 -85 76q0 47 21 80h449q85 0 85 -76q0 -47 -21 -80h-176v-121q49 45 149 45q101 0 162 -51t61 -163v-240h-167v199q0 97 -100 97q-105 0 -105 -111v-185h-168z" />
<glyph unicode="&#x40c;" horiz-adv-x="703" d="M269 262h-32v-262h-167v612q0 74 87 74q37 0 80 -16v-256h21q63 0 94 31q34 34 74 107.5t51 88.5q34 45 91 45q61 0 105 -35q-53 -102 -143 -245q-25 -40 -56 -68q117 -154 214 -338h-197q-108 183 -173 265q-24 -3 -49 -3zM242 747l-34 73l135 68q46 24 74 24 q30 0 49.5 -20.5t24.5 -37.5t5 -26z" />
<glyph unicode="&#x40d;" horiz-adv-x="740" d="M236 670v-387l241 339q25 35 50 49.5t63 14.5t80 -15v-671h-165v414q-61 -87 -157 -230t-120 -184h-157v612q0 74 86 74q36 0 79 -16zM477 747l-253 81q0 9 5 26t24.5 37.5t49.5 20.5q28 0 74 -24l135 -68z" />
<glyph unicode="&#x40e;" horiz-adv-x="667" d="M299 -13h-186q47 72 131 214q-150 235 -187 305q-7 13 -18 32t-15 27t-7.5 20.5t-3.5 25.5q0 78 78 78q55 0 78 -18q51 -107 165 -306q66 118 129 249q19 39 40 55.5t60 16.5q38 0 64 -13t35 -25q-147 -318 -363 -661zM148 900l96 11q23 -71 100 -71q81 0 100 70l95 -10 q-1 -25 -11 -50t-31 -50.5t-60.5 -41t-92.5 -15.5t-93 15.5t-61 41t-31 50.5t-11 50z" />
<glyph unicode="&#x40f;" horiz-adv-x="743" d="M70 0v612q0 74 87 74q37 0 80 -16v-512h269v454q0 74 87 74q37 0 80 -16v-670h-218v-180h-167v180h-218z" />
<glyph unicode="&#x410;" horiz-adv-x="769" d="M178 0h-173q97 258 261 627q19 42 46 59.5t73 17.5q44 0 94 -30q39 -66 143.5 -319t141.5 -355h-184q-5 12 -23.5 61.5t-32.5 86.5h-291q-6 -17 -25 -68.5t-30 -79.5zM293 299h174q-63 171 -87 223q-20 -44 -87 -223z" />
<glyph unicode="&#x411;" horiz-adv-x="669" d="M237 530v-92q24 3 100 3q292 0 292 -218q0 -233 -349 -233q-157 0 -210 10v591q0 95 99 95h330q85 0 85 -76q0 -47 -21 -80h-326zM237 295v-157q19 -3 81 -3q58 0 97.5 22t39.5 65q0 44 -32.5 60t-104.5 16q-62 0 -81 -3z" />
<glyph unicode="&#x412;" horiz-adv-x="684" d="M70 0v597q0 78 69 88q59 11 179 11q173 0 243.5 -52t70.5 -145q0 -55 -23.5 -93t-56.5 -57q40 -15 71 -53.5t31 -101.5q0 -49 -14.5 -84t-50.5 -63.5t-102.5 -42.5t-165.5 -14q-37 0 -75.5 1t-68 2.5t-53.5 3t-38 2.5t-16 1zM233 417h145q86 0 86 65q0 32 -26 51.5 t-98 19.5q-65 0 -107 -6v-130zM233 272v-132q42 -6 119 -6q73 0 102 18t29 53q0 67 -92 67h-158z" />
<glyph unicode="&#x413;" horiz-adv-x="583" d="M70 0v591q0 95 99 95h319q85 0 85 -76q0 -47 -21 -80h-315v-530h-167z" />
<glyph unicode="&#x414;" horiz-adv-x="754" d="M737 81v-262h-167v181h-386v-181h-167v262q0 36 20.5 56.5t56.5 20.5q8 34 30 130t39 164q31 136 99.5 190t194.5 54q72 0 131 -11q69 -10 69 -88v-439h3q36 0 56.5 -20.5t20.5 -56.5zM329 418l-61 -260h222v381q-8 3 -37 3q-53 0 -80 -25.5t-44 -98.5z" />
<glyph unicode="&#x415;" horiz-adv-x="641" d="M70 0v591q0 95 99 95h342q85 0 85 -76q0 -47 -21 -80h-338v-107h261q85 0 85 -76q0 -47 -21 -80h-325v-111h354v-156h-521z" />
<glyph unicode="&#x416;" horiz-adv-x="1047" d="M210 670q10 -17 40 -70t55.5 -93.5t45.5 -61.5q28 -31 77 -31h12v198q0 74 87 74q37 0 80 -16v-256h12q49 0 77 31q29 32 70 105t55 91q34 45 91 45q61 0 105 -35q-61 -115 -143 -245q-21 -36 -60 -70q133 -176 218 -336h-197q-106 179 -172 265q-19 -3 -40 -3h-16v-262 h-167v262h-16q-20 0 -40 3q-66 -86 -172 -265h-197q83 159 218 336q-39 34 -60 70q-52 82 -85 139q-29 48 -29 73q0 34 22 51t56 17q45 0 73 -16z" />
<glyph unicode="&#x417;" horiz-adv-x="629" d="M170 424h127q111 0 111 67q0 30 -29 51t-92 21q-66 0 -111 -27t-53 -52q-34 6 -58.5 31.5t-24.5 56.5q0 35 25 63q20 24 78.5 46.5t154.5 22.5q131 0 203.5 -56t72.5 -139q0 -53 -27 -92.5t-70 -62.5q108 -44 108 -158q0 -97 -78.5 -155t-198.5 -58q-80 0 -149 16.5 t-95.5 30t-45.5 27.5l73 123q23 -17 76 -34t121 -17q66 0 97.5 21t31.5 54q0 72 -127 72h-54q-86 0 -86 71q0 41 20 77z" />
<glyph unicode="&#x418;" horiz-adv-x="740" d="M236 670v-387l241 339q25 35 50 49.5t63 14.5t80 -15v-671h-165v414q-61 -87 -157 -230t-120 -184h-157v612q0 74 86 74q36 0 79 -16z" />
<glyph unicode="&#x419;" horiz-adv-x="740" d="M236 670v-387l241 339q25 35 50 49.5t63 14.5t80 -15v-671h-165v414q-61 -87 -157 -230t-120 -184h-157v612q0 74 86 74q36 0 79 -16zM173 900l96 11q23 -71 100 -71q81 0 100 70l95 -10q-1 -25 -11 -50t-31 -50.5t-60.5 -41t-92.5 -15.5t-93 15.5t-61 41t-31 50.5 t-11 50z" />
<glyph unicode="&#x41a;" horiz-adv-x="703" d="M269 262h-32v-262h-167v612q0 74 87 74q37 0 80 -16v-256h21q63 0 94 31q34 34 74 107.5t51 88.5q34 45 91 45q61 0 105 -35q-53 -102 -143 -245q-25 -40 -56 -68q117 -154 214 -338h-197q-108 183 -173 265q-24 -3 -49 -3z" />
<glyph unicode="&#x41b;" horiz-adv-x="727" d="M453 696q76 0 135 -11q69 -10 69 -88v-597h-167v534q-8 3 -41 3q-54 0 -82.5 -23.5t-45.5 -95.5l-51 -221q-27 -121 -72 -197h-190q56 92 92 217q6 20 55 235q31 135 101 189.5t197 54.5z" />
<glyph unicode="&#x41c;" horiz-adv-x="904" d="M65 0l34 600q4 86 98 86q69 0 102 -30q140 -289 156 -319q88 177 134 275q32 74 109 74q34 0 62.5 -9t40.5 -18l38 -659h-168l-23 410q-70 -142 -134 -287h-124q-42 104 -134 286l-22 -409h-169z" />
<glyph unicode="&#x41d;" horiz-adv-x="740" d="M237 0h-167v612q0 74 87 74q37 0 80 -16v-235h266v177q0 74 87 74q37 0 80 -16v-670h-167v277h-266v-277z" />
<glyph unicode="&#x41e;" horiz-adv-x="822" d="M40 343q0 152 107 256.5t264 104.5t264 -104.5t107 -256.5t-107 -256.5t-264 -104.5t-264 104.5t-107 256.5zM411 138q86 0 141 58.5t55 146.5t-55 146.5t-141 58.5t-141 -58.5t-55 -146.5t55 -146.5t141 -58.5z" />
<glyph unicode="&#x41f;" horiz-adv-x="738" d="M668 0h-167v530h-264v-530h-167v591q0 95 99 95h400q99 0 99 -95v-591z" />
<glyph unicode="&#x420;" horiz-adv-x="668" d="M233 549v-185q54 -6 82 -6q146 0 146 97q0 98 -144 98q-56 0 -84 -4zM70 0v597q0 78 69 88q59 11 179 11q166 0 240 -68.5t74 -172.5q0 -111 -73 -175t-224 -64q-21 0 -44.5 2t-39.5 3.5t-18 1.5v-223h-163z" />
<glyph unicode="&#x421;" horiz-adv-x="671" d="M658 51h2q-92 -69 -251 -69q-158 0 -263.5 94t-105.5 264q0 168 104 266t262 98q124 0 205 -51q43 -32 43 -74q0 -33 -22.5 -62.5t-41.5 -40.5q-75 75 -177 75q-88 0 -143 -57t-55 -154t58.5 -150t151.5 -53q98 0 158 43z" />
<glyph unicode="&#x422;" horiz-adv-x="667" d="M250 0v530h-160q-85 0 -85 76q0 47 21 80h551q85 0 85 -76q0 -47 -21 -80h-224v-530h-167z" />
<glyph unicode="&#x423;" horiz-adv-x="667" d="M299 -13h-186q47 72 131 214q-150 235 -187 305q-7 13 -18 32t-15 27t-7.5 20.5t-3.5 25.5q0 78 78 78q55 0 78 -18q51 -107 165 -306q66 118 129 249q19 39 40 55.5t60 16.5q38 0 64 -13t35 -25q-147 -318 -363 -661z" />
<glyph unicode="&#x424;" horiz-adv-x="852" d="M506 -13h-163v58q-137 19 -220 95.5t-83 198.5q0 123 83 198t220 94v5q0 68 85 68q46 0 78 -16v-56q138 -19 222 -95t84 -198q0 -124 -84 -199.5t-222 -94.5v-58zM632 339q0 116 -126 144v-289q126 28 126 145zM220 339q0 -116 123 -144v288q-123 -28 -123 -144z" />
<glyph unicode="&#x425;" horiz-adv-x="751" d="M203 0h-193q182 235 256 332q-121 147 -173 204q-41 47 -41 80t22 51.5t59 18.5q42 0 67 -16q130 -164 167 -210q121 162 123 165q28 36 49 48.5t56 12.5q61 0 106 -45q-87 -107 -235 -299q263 -326 275 -342h-203q-11 12 -70 87.5t-102 127.5q-41 -53 -97.5 -128 t-65.5 -87z" />
<glyph unicode="&#x426;" horiz-adv-x="770" d="M673 670v-512h3q36 0 56.5 -20.5t20.5 -56.5v-262h-167v181h-516v612q0 74 87 74q37 0 80 -16v-512h269v454q0 74 87 74q37 0 80 -16z" />
<glyph unicode="&#x427;" horiz-adv-x="679" d="M442 0v241q-68 -16 -147 -16q-41 0 -72 3.5t-67.5 17.5t-60 38t-39.5 68t-16 105v155q0 74 87 74q37 0 80 -16v-131q0 -98 21 -129t99 -31q66 0 115 15v218q0 74 87 74q37 0 80 -16v-670h-167z" />
<glyph unicode="&#x428;" horiz-adv-x="1027" d="M597 670v-512h193v454q0 74 87 74q37 0 80 -16v-670h-887v612q0 74 87 74q37 0 80 -16v-512h193v454q0 74 87 74q37 0 80 -16z" />
<glyph unicode="&#x429;" horiz-adv-x="1053" d="M956 670v-512h3q36 0 56.5 -20.5t20.5 -56.5v-262h-167v181h-800v612q0 74 87 74q37 0 80 -16v-512h193v454q0 74 87 74q37 0 80 -16v-512h193v454q0 74 87 74q37 0 80 -16z" />
<glyph unicode="&#x42a;" horiz-adv-x="746" d="M147 530h-57q-85 0 -85 76q0 47 21 80h189q99 0 99 -95v-127q32 4 100 4q292 0 292 -232q0 -246 -349 -246q-157 0 -210 10v530zM314 321v-183q19 -3 81 -3q59 0 98 24.5t39 75.5t-32.5 70.5t-104.5 19.5q-56 0 -81 -4z" />
<glyph unicode="&#x42b;" horiz-adv-x="986" d="M237 670v-206q32 4 103 4q299 0 299 -232q0 -246 -359 -246q-160 0 -210 10v612q0 74 87 74q37 0 80 -16zM237 321v-183q19 -3 84 -3q62 0 103 24.5t41 75.5t-34 70.5t-110 19.5q-59 0 -84 -4zM916 0h-167v612q0 74 87 74q37 0 80 -16v-670z" />
<glyph unicode="&#x42c;" horiz-adv-x="679" d="M237 670v-206q32 4 103 4q299 0 299 -232q0 -246 -359 -246q-160 0 -210 10v612q0 74 87 74q37 0 80 -16zM237 321v-183q19 -3 84 -3q62 0 103 24.5t41 75.5t-34 70.5t-110 19.5q-59 0 -84 -4z" />
<glyph unicode="&#x42d;" horiz-adv-x="680" d="M454 266h-182q-85 0 -85 76q0 47 21 80h244q-20 61 -69 95t-116 34q-102 0 -177 -75q-19 11 -41.5 40.5t-22.5 62.5q0 42 43 74q81 51 205 51q158 0 262 -98t104 -266q0 -170 -105.5 -264t-263.5 -94q-92 0 -156.5 22.5t-94.5 46.5l77 129q60 -43 158 -43 q74 0 126.5 32.5t72.5 96.5z" />
<glyph unicode="&#x42e;" horiz-adv-x="1135" d="M253 277v-277h-167v612q0 74 87 74q37 0 80 -16v-235h111q30 119 130 194t230 75q157 0 264 -104.5t107 -256.5t-107 -256.5t-264 -104.5q-140 0 -240.5 82.5t-124.5 212.5h-106zM724 138q86 0 141 58.5t55 146.5t-55 146.5t-141 58.5t-141 -58.5t-55 -146.5t55 -146.5 t141 -58.5z" />
<glyph unicode="&#x42f;" horiz-adv-x="690" d="M620 597v-597h-163v232q-14 -4 -70 -4q-46 0 -59 2q-24 -33 -65 -116t-52 -114h-191q73 156 145 271q-107 58 -107 189q0 49 16 89.5t51 74.5t98 53t149 19q120 0 179 -11q69 -10 69 -88zM457 374v176q-28 4 -81 4q-147 0 -147 -95q0 -90 140 -90q27 0 47 1.5t29.5 2.5 t11.5 1z" />
<glyph unicode="&#x430;" horiz-adv-x="582" d="M527 305v-302q-16 -5 -86.5 -11t-150.5 -6q-260 0 -260 168q0 91 58.5 131t187.5 40q64 0 89 -4q0 75 -123 75q-94 0 -135 -30q-36 36 -36 71q0 87 178 87q278 0 278 -219zM366 105v107q-20 5 -79 5q-97 0 -97 -61q0 -56 99 -56q62 0 77 5z" />
<glyph unicode="&#x431;" horiz-adv-x="631" d="M210 428q52 46 136 46q120 0 185 -64.5t65 -162.5q0 -116 -78.5 -188.5t-201.5 -72.5q-134 0 -207.5 74t-73.5 214q0 171 99 282q47 53 112 84t178 66q10 3 23.5 8.5t29 12t23.5 9.5q34 -36 34 -76q0 -34 -23.5 -56.5t-76.5 -38.5q-193 -58 -224 -137zM201 229 q0 -50 32 -82t83 -32q53 0 84 31.5t31 82.5t-32 83.5t-83 32.5t-83 -33t-32 -83z" />
<glyph unicode="&#x432;" horiz-adv-x="609" d="M60 0v445q0 61 63 71q44 10 154 10q277 0 277 -150q0 -40 -20.5 -69t-50.5 -42q17 -6 30 -13t28.5 -20.5t24 -35t8.5 -50.5q0 -77 -64 -116t-230 -39q-50 0 -102.5 2t-85.5 5zM219 316h108q59 0 59 48q0 45 -93 45q-55 0 -74 -3v-90zM219 205v-93q45 -3 83 -3 q55 0 76.5 12t21.5 35q0 49 -68 49h-113z" />
<glyph unicode="&#x433;" horiz-adv-x="495" d="M60 0v418q0 92 96 92h247q44 0 63 -18t19 -54q0 -47 -20 -78h-244v-360h-161z" />
<glyph unicode="&#x434;" horiz-adv-x="657" d="M567 418v-278q34 -2 53.5 -22t19.5 -55v-231h-150v168h-323v-168h-150v231q0 35 19 55t53 22l47 189q25 106 85 148t159 42q52 0 109 -9q47 -8 62.5 -27t15.5 -65zM286 298q-22 -100 -34 -158h154v239q-22 2 -34 2q-40 0 -58 -20t-28 -63z" />
<glyph unicode="&#x435;" horiz-adv-x="561" d="M241 188h-35q4 -27 37 -47t95 -20q31 0 62.5 7t48 14t19.5 10l56 -112q-87 -54 -221 -54q-116 0 -192.5 72.5t-76.5 196.5q0 119 78 194t196 75q104 0 167 -52t63 -125q0 -53 -24 -86t-91 -53t-182 -20zM198 292q51 0 87 3.5t55 8t29 13t12 15t2 16.5q0 22 -19.5 37 t-56.5 15q-50 0 -78.5 -32t-30.5 -76z" />
<glyph unicode="&#x436;" horiz-adv-x="898" d="M373 0v184h-29q-19 0 -28 1q-57 -80 -121 -185h-180q48 90 162 248q-25 22 -57 69q-75 100 -75 134q0 65 81 65q38 0 65 -17q17 -25 34.5 -53.5t30.5 -48t35 -46.5q15 -18 25.5 -24t34.5 -6h22v124q0 71 83 71q42 0 77 -15v-180h17q24 0 34.5 6t25.5 24q28 35 51.5 72 t32.5 50q29 43 88 43q60 0 101 -34q-60 -106 -102 -165q-32 -47 -58 -70q109 -156 154 -247h-180q-19 29 -55 91.5t-56 93.5q-9 -1 -29 -1h-24v-184h-160z" />
<glyph unicode="&#x437;" horiz-adv-x="559" d="M165 310h104q42 0 58 11t16 33q0 39 -95 39q-58 0 -95 -18t-45 -36q-31 5 -49.5 26t-18.5 48q0 32 23 51q62 52 194 52q119 0 187 -40t68 -107q0 -34 -21 -63.5t-52 -45.5q83 -37 83 -119q0 -68 -73.5 -111.5t-187.5 -43.5q-69 0 -126.5 12t-82.5 23t-40 22l55 112 q71 -41 175 -41q109 0 109 41q0 23 -19.5 33t-64.5 10h-44q-79 0 -79 52q0 39 21 60z" />
<glyph unicode="&#x438;" horiz-adv-x="663" d="M223 0h-163v439q0 71 84 71q37 0 77 -15v-308q24 33 203 264q42 59 101 59q39 0 78 -15v-495h-161v275q-114 -131 -219 -275z" />
<glyph unicode="&#x439;" horiz-adv-x="663" d="M223 0h-163v439q0 71 84 71q37 0 77 -15v-308q24 33 203 264q42 59 101 59q39 0 78 -15v-495h-161v275q-114 -131 -219 -275zM159 714l96 11q23 -71 100 -71q81 0 100 70l95 -10q-1 -25 -11 -50t-31 -50.5t-60.5 -41t-92.5 -15.5t-93 15.5t-61 41t-31 50.5t-11 50z" />
<glyph unicode="&#x43a;" horiz-adv-x="621" d="M259 183h-39v-183h-160v445q0 71 83 71q42 0 77 -15v-177h32q55 0 80 30q23 26 36 44.5t25.5 39t23.5 35.5q29 43 88 43q60 0 101 -34q-56 -99 -103 -165q-28 -40 -61 -66q113 -151 169 -251h-183q-51 83 -131 185q-24 -2 -38 -2z" />
<glyph unicode="&#x43b;" horiz-adv-x="605" d="M350 374q-38 0 -57.5 -18t-28.5 -58q-10 -43 -22 -102t-15 -70q-24 -95 -39 -126h-173q28 57 55 164q7 28 20 81.5t20 83.5q25 106 86.5 148t161.5 42q52 0 109 -9q47 -8 62.5 -27t15.5 -65v-418h-161v372q-22 2 -34 2z" />
<glyph unicode="&#x43c;" horiz-adv-x="743" d="M55 0l28 441q4 69 88 69q56 0 89 -24q82 -161 113 -219q19 34 51 97t46 88q30 58 96 58q40 0 91 -23l31 -487h-154l-16 265q-55 -98 -92 -182h-109q-52 113 -91 183l-16 -266h-155z" />
<glyph unicode="&#x43d;" horiz-adv-x="651" d="M60 0v439q0 71 84 71q37 0 77 -15v-166h209v110q0 71 84 71q37 0 77 -15v-495h-161v185h-209v-185h-161z" />
<glyph unicode="&#x43e;" horiz-adv-x="634" d="M35 255q0 115 82 192t200 77t200 -77t82 -192t-82 -192t-200 -77t-200 77t-82 192zM317 130q51 0 84 35.5t33 89.5t-33 89.5t-84 35.5t-84 -35.5t-33 -89.5t33 -89.5t84 -35.5z" />
<glyph unicode="&#x43f;" horiz-adv-x="619" d="M55 0v309q0 101 72.5 158t182.5 57t182 -57t72 -158v-309h-161v272q0 104 -93 104q-94 0 -94 -104v-272h-161z" />
<glyph unicode="&#x440;" horiz-adv-x="632" d="M203 -200h-160v432q0 123 50 190q78 102 228 102q119 0 197.5 -75t78.5 -194t-71.5 -193t-175.5 -74q-94 0 -147 53v-241zM317 133q50 0 82.5 34.5t32.5 88.5t-32 87t-83 33t-83 -32.5t-32 -87.5q0 -52 32.5 -87.5t82.5 -35.5z" />
<glyph unicode="&#x441;" horiz-adv-x="518" d="M446 166l70 -122q-89 -58 -204 -58q-116 0 -196.5 70.5t-80.5 198.5q0 125 81 197t202 72q54 0 100 -13.5t69 -36.5q24 -24 24 -53t-18.5 -53t-37.5 -35q-49 49 -126 49q-55 0 -92 -33.5t-37 -93.5q0 -63 36.5 -93.5t94.5 -30.5q39 0 72.5 13t42.5 22z" />
<glyph unicode="&#x442;" horiz-adv-x="590" d="M10 430q0 44 20 80h468q44 0 63 -18t19 -54q0 -47 -20 -78h-184v-360h-161v360h-122q-44 0 -63.5 16.5t-19.5 53.5z" />
<glyph unicode="&#x443;" d="M75 -173l39 118q16 -7 59 -17t90 -10q77 0 111 33t34 109q-18 -23 -57 -36.5t-79 -13.5q-97 0 -157 49t-60 145v235q0 71 84 71q37 0 77 -15v-258q0 -48 22.5 -69t70.5 -21q95 0 95 106v186q0 71 84 71q37 0 77 -15v-424q0 -281 -279 -281q-52 0 -103.5 8.5t-76.5 16.5 t-31 12z" />
<glyph unicode="&#x444;" horiz-adv-x="792" d="M320 -200v187q-121 9 -203 82t-82 186t82 186t203 82v143q0 71 80 71q38 0 73 -15v-200q119 -9 201.5 -82t82.5 -185q0 -113 -82 -186t-202 -82v-187h-153zM203 255q0 -53 31.5 -89.5t85.5 -38.5v256q-54 -2 -85.5 -38.5t-31.5 -89.5zM589 255q0 53 -31.5 89t-84.5 39 v-256q54 6 85 41t31 87z" />
<glyph unicode="&#x445;" horiz-adv-x="638" d="M204 0h-194q4 5 196 237q-114 123 -126 137q-35 42 -35 75q0 26 21 43.5t61 17.5q38 0 75 -16q10 -17 112 -136q64 86 92 114q32 38 84 38q36 0 68 -16t40 -29q-117 -139 -182 -217l212 -248h-203q-13 17 -114 132z" />
<glyph unicode="&#x446;" horiz-adv-x="653" d="M478 -4h-168q-114 0 -184.5 57t-70.5 164v222q0 71 84 71q37 0 77 -15v-252q0 -104 94 -104t94 104v196q0 71 84 71q37 0 77 -15v-217q0 -91 -32 -142h18q36 0 56.5 -20.5t20.5 -56.5v-227h-150v164z" />
<glyph unicode="&#x447;" horiz-adv-x="607" d="M387 0v156q-55 -15 -122 -15q-235 0 -235 231v73q0 71 83 71q42 0 77 -15v-100q0 -58 22 -85t74 -27q57 0 101 16v140q0 71 83 71q42 0 77 -15v-501h-160z" />
<glyph unicode="&#x448;" horiz-adv-x="929" d="M545 495v-252q0 -109 87 -109q81 0 81 95v210q0 71 84 71q37 0 77 -15v-312q0 -95 -63 -146t-165 -51q-121 0 -183 76q-62 -76 -181 -76q-100 0 -163.5 51t-63.5 146v256q0 71 84 71q37 0 77 -15v-266q0 -95 80 -95q41 0 64.5 27t23.5 82v196q0 71 84 71q37 0 77 -15z " />
<glyph unicode="&#x449;" horiz-adv-x="962" d="M787 -4h-153q-110 0 -171 75q-64 -79 -181 -79q-100 0 -163.5 52.5t-63.5 147.5v247q0 71 84 71q37 0 77 -15v-261q0 -95 80 -95q41 0 64.5 27t23.5 82v191q0 71 84 71q37 0 77 -15v-247q0 -109 87 -109q81 0 81 95v205q0 71 84 71q37 0 77 -15v-224q0 -86 -29 -135h15 q36 0 56.5 -20.5t20.5 -56.5v-227h-150v164z" />
<glyph unicode="&#x44a;" horiz-adv-x="647" d="M131 376h-43q-45 0 -64 15.5t-19 51.5q0 41 20 67h171q96 0 96 -89v-48q48 22 103 22q91 0 154 -58t63 -145q0 -89 -67 -147.5t-174 -58.5q-98 0 -169 56.5t-71 132.5v201zM292 195q0 -34 22.5 -56.5t56.5 -22.5q35 0 57.5 22.5t22.5 56.5q0 33 -22.5 54.5t-57.5 21.5 q-34 0 -56.5 -21.5t-22.5 -54.5z" />
<glyph unicode="&#x44b;" horiz-adv-x="848" d="M55 175v7v257q0 71 84 71q37 0 77 -15v-122q48 22 103 22q91 0 154 -58t63 -145q0 -89 -67 -147.5t-174 -58.5q-98 0 -169 56.5t-71 132.5zM216 195q0 -34 22.5 -56.5t56.5 -22.5q35 0 57.5 22.5t22.5 56.5q0 33 -22.5 54.5t-57.5 21.5q-34 0 -56.5 -21.5t-22.5 -54.5z M627 0v439q0 71 84 71q37 0 77 -15v-495h-161z" />
<glyph unicode="&#x44c;" horiz-adv-x="571" d="M55 175v7v257q0 71 84 71q37 0 77 -15v-122q48 22 103 22q91 0 154 -58t63 -145q0 -89 -67 -147.5t-174 -58.5q-98 0 -169 56.5t-71 132.5zM216 195q0 -34 22.5 -56.5t56.5 -22.5q35 0 57.5 22.5t22.5 56.5q0 33 -22.5 54.5t-57.5 21.5q-34 0 -56.5 -21.5t-22.5 -54.5z " />
<glyph unicode="&#x44d;" horiz-adv-x="536" d="M206 125q102 0 124 74h-121q-79 0 -79 52q0 39 21 60h179q-27 75 -123 75q-82 0 -126 -44q-56 32 -56 83q0 29 24 50q55 49 169 49q117 0 200 -72.5t83 -196.5q0 -127 -82 -198t-195 -71q-120 0 -204 57l70 116q10 -10 43 -22t73 -12z" />
<glyph unicode="&#x44e;" horiz-adv-x="897" d="M60 0v439q0 71 84 71q37 0 77 -15v-165h87q26 88 100 141t172 53q118 0 200 -77t82 -192t-82 -192t-200 -77q-98 0 -172 53t-100 141h-87v-180h-161zM580 130q51 0 84 35.5t33 89.5t-33 89.5t-84 35.5t-84 -35.5t-33 -89.5t33 -89.5t84 -35.5z" />
<glyph unicode="&#x44f;" horiz-adv-x="627" d="M52 325q0 191 294 191q96 0 160 -8q61 -10 61 -66v-442h-161v137q-6 -3 -62 -3q-41 0 -55 2q-68 -89 -93 -136h-178q66 106 123 174q-89 49 -89 151zM405 262v126q-20 4 -70 4q-73 0 -99.5 -19t-26.5 -51q0 -31 25.5 -48t94.5 -17q41 0 76 5z" />
<glyph unicode="&#x450;" horiz-adv-x="561" d="M241 188h-35q4 -27 37 -47t95 -20q31 0 62.5 7t48 14t19.5 10l56 -112q-87 -54 -221 -54q-116 0 -192.5 72.5t-76.5 196.5q0 119 78 194t196 75q104 0 167 -52t63 -125q0 -53 -24 -86t-91 -53t-182 -20zM198 292q51 0 87 3.5t55 8t29 13t12 15t2 16.5q0 22 -19.5 37 t-56.5 15q-50 0 -78.5 -32t-30.5 -76zM364 570l-211 90q0 7 5.5 23.5t23.5 35t44 18.5q24 0 67 -28l115 -73z" />
<glyph unicode="&#x451;" horiz-adv-x="561" d="M241 188h-35q4 -27 37 -47t95 -20q31 0 62.5 7t48 14t19.5 10l56 -112q-87 -54 -221 -54q-116 0 -192.5 72.5t-76.5 196.5q0 119 78 194t196 75q104 0 167 -52t63 -125q0 -53 -24 -86t-91 -53t-182 -20zM198 292q51 0 87 3.5t55 8t29 13t12 15t2 16.5q0 22 -19.5 37 t-56.5 15q-50 0 -78.5 -32t-30.5 -76zM123 642q0 27 22.5 49t52.5 22t51.5 -21.5t21.5 -49.5t-21.5 -50t-51.5 -22t-52.5 22t-22.5 50zM336 642q0 28 22 49.5t52 21.5t51.5 -21.5t21.5 -49.5t-21.5 -50t-51.5 -22t-52 22t-22 50z" />
<glyph unicode="&#x452;" horiz-adv-x="678" d="M94 0v555h-41q-53 0 -53 50q0 28 8 52h86v9q0 71 84 71q36 0 76 -15v-65h99q30 0 41 -14t11 -41q0 -26 -9 -47h-142v-105q49 45 146 45q105 0 174 -69.5t69 -204.5q0 -126 -71 -247t-170 -181l-100 112q167 129 167 299q0 141 -105 141q-46 0 -74 -24q-35 -29 -35 -114 v-207h-161z" />
<glyph unicode="&#x453;" horiz-adv-x="515" d="M80 0v418q0 92 96 92h247q44 0 63 -18t19 -54q0 -47 -20 -78h-244v-360h-161zM232 570l-44 66l115 73q43 28 67 28q26 0 44 -18.5t23.5 -35t5.5 -23.5z" />
<glyph unicode="&#x454;" horiz-adv-x="526" d="M384 200h-179q27 -75 126 -75q39 0 72.5 12.5t42.5 21.5l70 -116q-90 -57 -204 -57q-113 0 -195 71t-82 198q0 124 83 196.5t200 72.5q114 0 169 -49q24 -21 24 -50q0 -51 -56 -83q-44 44 -126 44q-102 0 -124 -74h121q79 0 79 -52q0 -39 -21 -60z" />
<glyph unicode="&#x455;" horiz-adv-x="564" d="M25 52l57 104q22 -16 77.5 -32.5t119.5 -16.5q83 0 83 34q0 19 -15.5 26.5t-56.5 13.5l-52 6q-92 11 -145 47t-53 116q0 78 59 126t178 48q124 0 187 -33q42 -22 42 -60q0 -42 -47 -70q-7 7 -26 16.5t-61.5 19.5t-90.5 10q-80 0 -80 -38q0 -16 14 -23t50 -13l91 -13 q80 -11 127.5 -46t47.5 -110q0 -84 -64 -131t-177 -47q-71 0 -133 14t-89 27t-43 25z" />
<glyph unicode="&#x456;" horiz-adv-x="281" d="M60 0v439q0 71 84 71q37 0 77 -15v-495h-161zM51 647q0 38 25.5 64t63.5 26t64 -26t26 -64t-26 -63.5t-64 -25.5t-63.5 25.5t-25.5 63.5z" />
<glyph unicode="&#x457;" horiz-adv-x="281" d="M60 0v439q0 71 84 71q37 0 77 -15v-495h-161zM-39 654q0 27 22.5 49t52.5 22t51.5 -21.5t21.5 -49.5t-21.5 -50t-51.5 -22t-52.5 22t-22.5 50zM174 654q0 28 22 49.5t52 21.5t51.5 -21.5t21.5 -49.5t-21.5 -50t-51.5 -22t-52 22t-22 50z" />
<glyph unicode="&#x458;" horiz-adv-x="281" d="M-129 -179l40 119q32 -17 76 -17q73 0 73 72v444q0 71 84 71q37 0 77 -15v-487q0 -117 -58 -167.5t-150 -50.5q-40 0 -83.5 11t-58.5 20zM51 647q0 38 25.5 64t63.5 26t64 -26t26 -64t-26 -63.5t-64 -25.5t-63.5 25.5t-25.5 63.5z" />
<glyph unicode="&#x459;" horiz-adv-x="898" d="M384 175v197q-22 2 -34 2q-38 0 -57.5 -18t-28.5 -58q-10 -43 -22 -102t-15 -70q-24 -95 -39 -126h-173q28 57 55 164q7 28 20 81.5t20 83.5q25 106 86.5 148t161.5 42q52 0 109 -9q47 -8 62.5 -27t15.5 -65v-45q48 22 103 22q91 0 154 -58t63 -145q0 -89 -67 -147.5 t-174 -58.5q-98 0 -169 56.5t-71 132.5zM622 271q-29 0 -50 -15.5t-27 -41.5v-39q6 -26 27 -42.5t50 -16.5q35 0 57.5 22.5t22.5 56.5q0 33 -22.5 54.5t-57.5 21.5z" />
<glyph unicode="&#x45a;" horiz-adv-x="926" d="M410 175v10h-189v-185h-161v439q0 71 84 71q37 0 77 -15v-166h189v110q0 71 84 71q37 0 77 -15v-122q48 22 103 22q91 0 154 -58t63 -145q0 -89 -67 -147.5t-174 -58.5q-98 0 -169 56.5t-71 132.5zM571 198v-3q0 -34 22.5 -56.5t56.5 -22.5q35 0 57.5 22.5t22.5 56.5 q0 33 -22.5 54.5t-57.5 21.5q-33 0 -55.5 -20.5t-23.5 -52.5z" />
<glyph unicode="&#x45b;" horiz-adv-x="617" d="M55 0v555h-41q-53 0 -53 50q0 28 8 52h86v9q0 71 84 71q36 0 76 -15v-65h99q30 0 41 -14t11 -41q0 -26 -9 -47h-142v-105q49 45 137 45q94 0 152 -54t58 -160v-281h-161v248q0 97 -90 97q-95 0 -95 -111v-234h-161z" />
<glyph unicode="&#x45c;" horiz-adv-x="621" d="M259 183h-39v-183h-160v445q0 71 83 71q42 0 77 -15v-177h32q55 0 80 30q23 26 36 44.5t25.5 39t23.5 35.5q29 43 88 43q60 0 101 -34q-56 -99 -103 -165q-28 -40 -61 -66q113 -151 169 -251h-183q-51 83 -131 185q-24 -2 -38 -2zM206 570l-44 66l115 73q43 28 67 28 q26 0 44 -18.5t23.5 -35t5.5 -23.5z" />
<glyph unicode="&#x45d;" horiz-adv-x="663" d="M223 0h-163v439q0 71 84 71q37 0 77 -15v-308q24 33 203 264q42 59 101 59q39 0 78 -15v-495h-161v275q-114 -131 -219 -275zM415 570l-211 90q0 7 5.5 23.5t23.5 35t44 18.5q24 0 67 -28l115 -73z" />
<glyph unicode="&#x45e;" d="M75 -173l39 118q16 -7 59 -17t90 -10q77 0 111 33t34 109q-18 -23 -57 -36.5t-79 -13.5q-97 0 -157 49t-60 145v235q0 71 84 71q37 0 77 -15v-258q0 -48 22.5 -69t70.5 -21q95 0 95 106v186q0 71 84 71q37 0 77 -15v-424q0 -281 -279 -281q-52 0 -103.5 8.5t-76.5 16.5 t-31 12zM121 714l96 11q23 -71 100 -71q81 0 100 70l95 -10q-1 -25 -11 -50t-31 -50.5t-60.5 -41t-92.5 -15.5t-93 15.5t-61 41t-31 50.5t-11 50z" />
<glyph unicode="&#x45f;" d="M216 495v-257q0 -104 94 -104t94 104v201q0 71 84 71q37 0 77 -15v-287q0 -88 -48.5 -143t-131.5 -71v-152h-151v152q-83 16 -131 71t-48 143v231q0 71 84 71q37 0 77 -15z" />
<glyph unicode="&#x462;" horiz-adv-x="783" d="M376 670v-37h216q27 0 36.5 -14.5t9.5 -44.5q0 -32 -7 -51h-255v-59q32 4 103 4q299 0 299 -232q0 -246 -359 -246q-160 0 -210 10v523h-157q-47 0 -47 53q0 29 7 57h199q11 53 85 53q37 0 80 -16zM376 321v-183q19 -3 84 -3q62 0 103 24.5t41 75.5t-34 70.5t-110 19.5 q-59 0 -84 -4z" />
<glyph unicode="&#x463;" horiz-adv-x="689" d="M558 410h-224v-55q48 19 103 19q97 0 157 -50t60 -137q0 -88 -67 -144.5t-174 -56.5q-98 0 -169 55t-71 129v240h-115q-53 0 -53 49q0 27 8 51h160v156q0 71 84 71q37 0 77 -15v-212h181q30 0 41 -13.5t11 -40.5q0 -25 -9 -46zM334 189q0 -33 22.5 -54.5t56.5 -21.5 q35 0 57.5 21.5t22.5 54.5q0 32 -22.5 52.5t-57.5 20.5q-34 0 -56.5 -20.5t-22.5 -52.5z" />
<glyph unicode="&#x472;" horiz-adv-x="822" d="M40 343q0 152 107 256.5t264 104.5t264 -104.5t107 -256.5t-107 -256.5t-264 -104.5t-264 104.5t-107 256.5zM532 339q33 0 74 23q-6 81 -60.5 133.5t-134.5 52.5q-56 0 -100.5 -26.5t-69.5 -72.5q33 7 57 7q44 0 79 -18.5t74 -53.5q48 -45 81 -45zM411 138q54 0 97.5 25 t68.5 68q-17 -4 -45 -4q-75 0 -155 73q-47 44 -79 44q-38 0 -82 -24q8 -79 62 -130.5t133 -51.5z" />
<glyph unicode="&#x473;" horiz-adv-x="634" d="M35 255q0 115 82 192t200 77t200 -77t82 -192t-82 -192t-200 -77t-200 77t-82 192zM405 263q17 0 32 7q-5 51 -38.5 83t-81.5 32q-60 0 -97 -50q7 1 18 1q34 0 61.5 -11.5t42 -25t31.5 -25t32 -11.5zM317 124q56 0 89 41h-4q-41 0 -73.5 18.5t-55.5 36.5t-40 18 q-14 0 -35 -8q8 -47 40.5 -76.5t78.5 -29.5z" />
<glyph unicode="&#x474;" horiz-adv-x="764" d="M639 460q-35 -80 -110.5 -253t-90.5 -207h-173q-62 122 -131.5 280.5t-92.5 216.5q-36 86 -36 120q0 69 82 69q49 0 80 -18q74 -214 187 -476q21 51 130 327q33 84 70.5 126t102.5 42q42 0 68 -25t34 -53q-84 -60 -120 -149z" />
<glyph unicode="&#x475;" horiz-adv-x="623" d="M497 279l-137 -279h-149q-53 95 -107.5 208t-66.5 145q-27 66 -27 90q0 29 21 48t59 19q55 0 75 -15q62 -181 124 -312l67 163q68 164 161 164q47 0 72 -20.5t29 -48.5q-36 -19 -60 -54.5t-61 -107.5z" />
<glyph unicode="&#x48a;" horiz-adv-x="769" d="M236 670v-387l241 339q25 35 50 49.5t63 14.5t80 -15v-582h86l-56 -270h-149l38 181h-84v414q-61 -87 -157 -230t-120 -184h-157v612q0 74 86 74q36 0 79 -16zM175 891l96 11q23 -71 100 -71q81 0 100 70l95 -10q-1 -25 -11 -50t-31 -50.5t-60.5 -41t-92.5 -15.5 t-93 15.5t-61 41t-31 50.5t-11 50z" />
<glyph unicode="&#x48b;" horiz-adv-x="693" d="M223 0h-163v439q0 71 84 71q37 0 77 -15v-308q24 33 203 264q42 59 101 59q39 0 78 -15v-406h73l-56 -270h-139l38 181h-77v275q-114 -131 -219 -275zM136 714l96 11q23 -71 100 -71q81 0 100 70l95 -10q-1 -25 -11 -50t-31 -50.5t-60.5 -41t-92.5 -15.5t-93 15.5t-61 41 t-31 50.5t-11 50z" />
<glyph unicode="&#x48c;" horiz-adv-x="717" d="M275 670v-37h138q27 0 36.5 -14.5t9.5 -44.5q0 -32 -7 -51h-177v-63q32 4 103 4q145 0 222 -53.5t77 -176.5q0 -244 -359 -244q-160 0 -210 10v523h-56q-47 0 -47 53q0 29 7 57h98q11 53 85 53q37 0 80 -16zM275 317v-179q19 -3 84 -3q62 0 103 24t41 74q0 51 -34 69.5 t-110 18.5q-59 0 -84 -4z" />
<glyph unicode="&#x48d;" horiz-adv-x="583" d="M228 378v-50q49 17 103 17q97 0 157 -46t60 -127t-67 -133.5t-174 -52.5q-98 0 -169 50.5t-71 119.5v6v216h-26q-53 0 -53 45q0 25 8 47h72q11 47 83 47q40 0 77 -14v-33h116q30 0 41 -12.5t11 -37.5q0 -21 -9 -42h-159zM228 173q0 -30 22.5 -50t56.5 -20q35 0 57.5 20 t22.5 50t-22.5 49t-57.5 19q-34 0 -56.5 -19t-22.5 -49z" />
<glyph unicode="&#x48e;" horiz-adv-x="668" d="M70 0v597q0 78 69 88q59 11 179 11q166 0 240 -68.5t74 -172.5q0 -146 -117 -204l50 -77l-94 -61l-70 107q-27 -4 -66 -4q-21 0 -44.5 2t-39.5 3.5t-18 1.5v-223h-163zM233 549v-185q54 -6 78 -6l-9 14q-13 22 -13 38q0 28 29 48q22 13 56 9l54 -83q33 23 33 71 q0 98 -144 98q-56 0 -84 -4z" />
<glyph unicode="&#x48f;" horiz-adv-x="632" d="M191 -200h-160v432q0 123 50 190q78 102 228 102q119 0 197.5 -75t78.5 -194q0 -136 -94 -214l52 -81l-95 -61l-61 94q-27 -5 -49 -5q-94 0 -147 53v-241zM360 246l39 -62q21 32 21 72q0 54 -32 87t-83 33t-83 -32.5t-32 -87.5q0 -51 30 -85.5t77 -37.5l-11 18 q-13 22 -13 38q0 28 29 48q20 12 58 9z" />
<glyph unicode="&#x490;" horiz-adv-x="593" d="M564 831v-301h-327v-530h-167v591q0 95 99 95h228v87q0 74 87 74q37 0 80 -16z" />
<glyph unicode="&#x491;" horiz-adv-x="499" d="M328 510v79q0 71 84 71q31 0 67 -12v-288h-258v-360h-161v418q0 92 96 92h172z" />
<glyph unicode="&#x492;" horiz-adv-x="617" d="M104 0v261h-38q-61 0 -61 67q0 34 14 56h85v207q0 95 99 95h319q85 0 85 -76q0 -47 -21 -80h-315v-146h146q61 0 61 -64q0 -37 -14 -59h-193v-261h-167z" />
<glyph unicode="&#x493;" horiz-adv-x="508" d="M73 0v181h-7q-61 0 -61 47q0 24 14 57h54v133q0 92 96 92h247q44 0 63 -18t19 -54q0 -47 -20 -78h-244v-75h92q61 0 61 -53q0 -23 -12 -51h-141v-181h-161z" />
<glyph unicode="&#x494;" horiz-adv-x="706" d="M70 0v591q0 95 99 95h319q85 0 85 -76q0 -47 -21 -80h-315v-130q57 22 115 22q154 0 234 -85.5t80 -231.5q0 -81 -27 -143t-73.5 -98.5t-104.5 -55t-124 -18.5q-112 0 -198 46l63 126q55 -26 125 -26q76 0 122 42.5t46 126.5q0 76 -41.5 121t-115.5 45q-54 0 -101 -27 v-244h-167z" />
<glyph unicode="&#x495;" horiz-adv-x="577" d="M129 -167l52 115q44 -23 106 -23q54 0 83.5 32.5t29.5 89.5q0 116 -109 116q-37 0 -70 -16v-147h-161v418q0 92 96 92h247q44 0 63 -18t19 -54q0 -47 -20 -78h-244v-81q39 16 94 16q117 0 182 -69t65 -178q0 -126 -73 -190.5t-189 -64.5q-109 0 -171 40z" />
<glyph unicode="&#x496;" horiz-adv-x="1074" d="M210 670q10 -17 40 -70t55.5 -93.5t45.5 -61.5q28 -31 77 -31h12v198q0 74 87 74q37 0 80 -16v-256h12q49 0 77 31q29 32 70 105t55 91q34 45 91 45q61 0 105 -35q-61 -115 -143 -245q-21 -36 -60 -70q53 -71 124 -178h46q34 0 54.5 -20.5t20.5 -56.5v-262h-167v181h-57 q-106 179 -172 265q-19 -3 -40 -3h-16v-262h-167v262h-16q-20 0 -40 3q-66 -86 -172 -265h-197q83 159 218 336q-39 34 -60 70q-52 82 -85 139q-29 48 -29 73q0 34 22 51t56 17q45 0 73 -16z" />
<glyph unicode="&#x497;" horiz-adv-x="917" d="M373 0v184h-29q-19 0 -28 1q-57 -80 -121 -185h-180q48 90 162 248q-25 22 -57 69q-75 100 -75 134q0 65 81 65q38 0 65 -17q17 -25 34.5 -53.5t30.5 -48t35 -46.5q15 -18 25.5 -24t34.5 -6h22v124q0 71 83 71q42 0 77 -15v-180h17q24 0 34.5 6t25.5 24q28 35 51.5 72 t32.5 50q29 43 88 43q60 0 101 -34q-60 -106 -102 -165q-32 -47 -58 -70q53 -78 72 -107h30q36 0 56.5 -20.5t20.5 -56.5v-231h-150v168h-55q-19 29 -55 91.5t-56 93.5q-9 -1 -29 -1h-24v-184h-160z" />
<glyph unicode="&#x498;" horiz-adv-x="619" d="M170 424h127q111 0 111 67q0 30 -29 51t-92 21q-66 0 -111 -27t-53 -52q-34 6 -58.5 31.5t-24.5 56.5q0 35 25 63q20 24 78.5 46.5t154.5 22.5q131 0 203.5 -56t72.5 -139q0 -53 -27 -92.5t-70 -62.5q108 -44 108 -158q0 -97 -78.5 -155t-198.5 -58q-80 0 -149 16.5 t-95.5 30t-45.5 27.5l73 123q23 -17 76 -34t121 -17q66 0 97.5 21t31.5 54q0 72 -127 72h-54q-86 0 -86 71q0 41 20 77zM162 -199l29 68q4 -4 35.5 -12.5t55.5 -8.5q38 0 38 23q0 13 -18 20.5t-41 7.5l17 59q61 0 106.5 -21.5t45.5 -66.5t-36.5 -71.5t-99.5 -26.5 q-93 0 -132 29z" />
<glyph unicode="&#x499;" horiz-adv-x="559" d="M165 310h104q42 0 58 11t16 33q0 39 -95 39q-58 0 -95 -18t-45 -36q-31 5 -49.5 26t-18.5 48q0 32 23 51q62 52 194 52q119 0 187 -40t68 -107q0 -34 -21 -63.5t-52 -45.5q83 -37 83 -119q0 -68 -73.5 -111.5t-187.5 -43.5q-69 0 -126.5 12t-82.5 23t-40 22l55 112 q71 -41 175 -41q109 0 109 41q0 23 -19.5 33t-64.5 10h-44q-79 0 -79 52q0 39 21 60zM124 -182l29 68q4 -4 35.5 -12.5t55.5 -8.5q38 0 38 23q0 13 -18 20.5t-41 7.5l17 59q61 0 106.5 -21.5t45.5 -66.5t-36.5 -71.5t-99.5 -26.5q-93 0 -132 29z" />
<glyph unicode="&#x49a;" horiz-adv-x="730" d="M269 262h-32v-262h-167v612q0 74 87 74q37 0 80 -16v-256h21q63 0 94 31q34 34 74 107.5t51 88.5q34 45 91 45q61 0 105 -35q-53 -102 -143 -245q-25 -40 -56 -68q62 -80 122 -180h44q34 0 54.5 -20.5t20.5 -56.5v-262h-167v181h-57q-108 183 -173 265q-24 -3 -49 -3z " />
<glyph unicode="&#x49b;" horiz-adv-x="648" d="M259 183h-39v-183h-160v445q0 71 83 71q42 0 77 -15v-177h32q55 0 80 30q23 26 36 44.5t25.5 39t23.5 35.5q29 43 88 43q60 0 101 -34q-56 -99 -103 -165q-28 -40 -61 -66q31 -40 80 -111h34q36 0 56.5 -20.5t20.5 -56.5v-231h-150v168h-55q-51 83 -131 185 q-24 -2 -38 -2z" />
<glyph unicode="&#x49c;" horiz-adv-x="811" d="M297 414v93q0 60 67 60q34 0 62 -12v-132q19 7 34 22q34 34 74 107.5t51 88.5q34 45 91 45q61 0 105 -35q-53 -102 -143 -245q-25 -40 -56 -68q117 -154 214 -338h-197q-108 183 -173 265v-155h-129v152h-60v-262h-167v612q0 74 87 74q37 0 80 -16v-256h60z" />
<glyph unicode="&#x49d;" horiz-adv-x="716" d="M277 324v37q0 58 60 58q28 0 56 -12v-76q20 8 34 23q23 26 36 44.5t25.5 39t23.5 35.5q29 43 88 43q60 0 101 -34q-56 -99 -103 -165q-28 -40 -61 -66q113 -151 169 -251h-183q-55 89 -130 185v-101h-116v99h-57v-183h-160v445q0 71 83 71q42 0 77 -15v-177h57z" />
<glyph unicode="&#x49e;" horiz-adv-x="741" d="M307 262h-32v-262h-167v506h-56q-47 0 -47 53q0 29 7 57h96q1 70 87 70q37 0 80 -16v-54h67q27 0 36.5 -14.5t9.5 -44.5q0 -32 -7 -51h-106v-92h21q63 0 94 31q34 34 74 107.5t51 88.5q34 45 91 45q61 0 105 -35q-53 -102 -143 -245q-25 -40 -56 -68q117 -154 214 -338 h-197q-108 183 -173 265q-24 -3 -49 -3z" />
<glyph unicode="&#x49f;" horiz-adv-x="645" d="M283 183h-39v-183h-160v366h-32q-47 0 -47 43q0 20 7 46h72q6 61 83 61q42 0 77 -15v-46h38q27 0 36.5 -12t9.5 -36q0 -25 -7 -41h-77v-42h32q55 0 80 30q23 26 36 44.5t25.5 39t23.5 35.5q29 43 88 43q60 0 101 -34q-56 -99 -103 -165q-28 -40 -61 -66 q113 -151 169 -251h-183q-51 83 -131 185q-24 -2 -38 -2z" />
<glyph unicode="&#x4a0;" horiz-adv-x="780" d="M314 591v-177h21q63 0 94 31q34 34 74 107.5t51 88.5q34 45 91 45q61 0 105 -35q-53 -102 -143 -245q-25 -40 -56 -68q117 -154 214 -338h-197q-108 183 -173 265q-24 -3 -49 -3h-32v-262h-167v530h-57q-85 0 -85 76q0 47 21 80h189q99 0 99 -95z" />
<glyph unicode="&#x4a1;" horiz-adv-x="693" d="M292 421v-97h32q55 0 80 30q23 26 36 44.5t25.5 39t23.5 35.5q29 43 88 43q60 0 101 -34q-56 -99 -103 -165q-28 -40 -61 -66q113 -151 169 -251h-183q-51 83 -131 185q-24 -2 -38 -2h-39v-183h-160v376h-44q-45 0 -64 15.5t-19 51.5q0 41 20 67h171q96 0 96 -89z" />
<glyph unicode="&#x4a2;" horiz-adv-x="765" d="M237 0h-167v612q0 74 87 74q37 0 80 -16v-235h266v177q0 74 87 74q37 0 80 -16v-512h3q34 0 54.5 -20.5t20.5 -56.5v-262h-167v181h-78v277h-266v-277z" />
<glyph unicode="&#x4a3;" horiz-adv-x="681" d="M60 0v439q0 71 84 71q37 0 77 -15v-166h209v110q0 71 84 71q37 0 77 -15v-355q34 -2 53.5 -22t19.5 -55v-231h-150v168h-84v185h-209v-185h-161z" />
<glyph unicode="&#x4a4;" horiz-adv-x="930" d="M670 530v-530h-167v277h-266v-277h-167v612q0 74 87 74q37 0 80 -16v-235h266v177q0 74 87 74h250q85 0 85 -76q0 -47 -21 -80h-234z" />
<glyph unicode="&#x4a5;" horiz-adv-x="805" d="M514 510h199q44 0 63 -18t19 -54q0 -47 -20 -78h-184v-360h-161v185h-209v-185h-161v439q0 71 84 71q37 0 77 -15v-166h209v110q0 71 84 71z" />
<glyph unicode="&#x4a6;" horiz-adv-x="1138" d="M668 0h-167v530h-264v-530h-167v591q0 95 99 95h400q99 0 99 -95v-191q57 22 116 22q154 0 234 -85.5t80 -231.5q0 -81 -27 -143t-73.5 -98.5t-104.5 -55t-124 -18.5q-112 0 -198 46l63 126q55 -26 125 -26q76 0 122 42.5t46 126.5q0 76 -41.5 121t-115.5 45 q-55 0 -102 -27v-244z" />
<glyph unicode="&#x4a7;" horiz-adv-x="920" d="M472 -167l52 115q44 -23 106 -23q54 0 83.5 32.5t29.5 89.5q0 116 -109 116q-37 0 -70 -16v-147h-161v272q0 104 -93 104q-94 0 -94 -104v-272h-161v309q0 101 72.5 158t182.5 57t182 -57t72 -158v-30q39 16 94 16q117 0 182 -69t65 -178q0 -126 -73 -190.5t-189 -64.5 q-109 0 -171 40z" />
<glyph unicode="&#x4a8;" horiz-adv-x="830" d="M205 332q0 -64 32 -122t94 -86q-40 75 -40 154q0 112 64.5 187t193.5 75q50 0 93 -13t80 -40t58 -75.5t21 -113.5q0 -63 -40.5 -136.5t-117.5 -121.5q87 -40 148 -40l-28 -139q-173 23 -306 123q-26 -2 -38 -2q-101 0 -185.5 38.5t-139 120t-54.5 191.5q0 167 106.5 269 t257.5 102q43 0 64 -23.5t21 -55.5q0 -29 -20 -61h-26q-106 0 -172 -60t-66 -171zM447 278q0 -87 71 -155q57 25 92 75.5t35 98.5q0 52 -28 77t-68 25q-46 0 -74 -32.5t-28 -88.5z" />
<glyph unicode="&#x4a9;" horiz-adv-x="671" d="M186 239q0 -103 83 -141q-21 41 -21 89q0 83 49 138t147 55q82 0 137 -41.5t55 -135.5q0 -50 -29.5 -96.5t-84.5 -78.5q66 -32 109 -34l-24 -119q-141 20 -248 108q-11 -1 -27 -1q-122 0 -209.5 68.5t-87.5 188.5q0 129 77.5 207t199.5 78q38 0 56 -19.5t18 -48.5 q0 -24 -14 -54q-186 -9 -186 -163zM497 202q0 61 -53 61q-26 0 -42 -20t-16 -55q0 -48 34 -85q35 17 56 44.5t21 54.5z" />
<glyph unicode="&#x4aa;" horiz-adv-x="700" d="M658 51h2q-27 -22 -86.5 -43.5t-142.5 -24.5q-41 -21 -41 -55q0 -33 43 -33q36 0 66 18l29 -64q-48 -28 -121 -28q-116 0 -116 84q0 48 47 82q-132 21 -215 112t-83 241q0 168 104 266t262 98q124 0 205 -51q43 -32 43 -74q0 -33 -22.5 -62.5t-41.5 -40.5q-75 75 -177 75 q-88 0 -143 -57t-55 -154t58.5 -150t151.5 -53q98 0 158 43z" />
<glyph unicode="&#x4ab;" horiz-adv-x="555" d="M446 166l70 -122q-69 -49 -177 -57q-50 -22 -50 -59q0 -33 43 -33q36 0 66 18l29 -64q-48 -28 -121 -28q-116 0 -116 84q0 52 56 88q-94 19 -152.5 86t-58.5 176q0 125 81 197t202 72q54 0 100 -13.5t69 -36.5q24 -24 24 -53t-18.5 -53t-37.5 -35q-49 49 -126 49 q-55 0 -92 -33.5t-37 -93.5q0 -63 36.5 -93.5t94.5 -30.5q39 0 72.5 13t42.5 22z" />
<glyph unicode="&#x4ac;" horiz-adv-x="667" d="M250 0v530h-160q-85 0 -85 76q0 47 21 80h551q85 0 85 -76q0 -47 -21 -80h-224v-372h3q34 0 54.5 -20.5t20.5 -56.5v-262h-167v181h-78z" />
<glyph unicode="&#x4ad;" horiz-adv-x="590" d="M10 430q0 44 20 80h468q44 0 63 -18t19 -54q0 -47 -20 -78h-184v-220q34 -2 53.5 -22t19.5 -55v-231h-150v168h-84v360h-122q-44 0 -63.5 16.5t-19.5 53.5z" />
<glyph unicode="&#x4ae;" horiz-adv-x="691" d="M252 0v253q-100 123 -177 229q-1 1 -8.5 11.5t-9.5 13.5t-9 13t-9.5 14.5t-8.5 14t-8.5 15t-6.5 14t-5.5 14.5t-3 13t-1.5 13q0 34 21.5 51t55.5 17q44 0 72 -16q102 -158 184 -268q42 56 149 223q41 61 105 61q32 0 57.5 -12.5t36.5 -23.5q-40 -86 -267 -397v-253h-167z " />
<glyph unicode="&#x4af;" horiz-adv-x="590" d="M205 -199v209q-96 173 -168 343q-27 66 -27 90q0 29 21 48t59 19q55 0 75 -15q62 -181 124 -312l105 257q14 35 34 52.5t60 17.5q45 0 92 -28q-11 -46 -90 -216.5t-125 -256.5v-208h-160z" />
<glyph unicode="&#x4b0;" horiz-adv-x="701" d="M257 0v101h-136q-61 0 -61 67q0 34 14 56h183v29q-100 123 -177 229q-1 1 -8.5 11.5t-9.5 13.5t-9 13t-9.5 14.5t-8.5 14t-8.5 15t-6.5 14t-5.5 14.5t-3 13t-1.5 13q0 34 21.5 51t55.5 17q44 0 72 -16q102 -158 184 -268q42 56 149 223q41 61 105 61q32 0 57.5 -12.5 t36.5 -23.5q-40 -86 -267 -397v-29h136q61 0 61 -64q0 -37 -14 -59h-183v-101h-167z" />
<glyph unicode="&#x4b1;" horiz-adv-x="590" d="M205 -199v199h-92q-61 0 -61 47q0 24 14 57h89q-91 174 -118 249q-27 66 -27 90q0 29 21 48t59 19q55 0 75 -15q62 -181 124 -312l105 257q14 35 34 52.5t60 17.5q45 0 92 -28q-18 -73 -167 -378h45q61 0 61 -53q0 -23 -12 -51h-142v-199h-160z" />
<glyph unicode="&#x4b2;" horiz-adv-x="777" d="M203 0h-193q182 235 256 332q-121 147 -173 204q-41 47 -41 80t22 51.5t59 18.5q42 0 67 -16q130 -164 167 -210q121 162 123 165q28 36 49 48.5t56 12.5q61 0 106 -45q-87 -107 -235 -299l149 -184h72q34 0 54.5 -20.5t20.5 -56.5v-262h-167v181h-57q-11 12 -70 87.5 t-102 127.5q-41 -53 -97.5 -128t-65.5 -87z" />
<glyph unicode="&#x4b3;" horiz-adv-x="645" d="M204 0h-194q4 5 196 237q-114 123 -126 137q-35 42 -35 75q0 26 21 43.5t61 17.5q38 0 75 -16q10 -17 112 -136q64 86 92 114q32 38 84 38q36 0 68 -16t40 -29q-117 -139 -182 -217l92 -108h45q36 0 56.5 -20.5t20.5 -56.5v-231h-150v168h-55q-13 17 -114 132z" />
<glyph unicode="&#x4b4;" horiz-adv-x="867" d="M480 530h-146v-372h269v454q0 74 87 74q37 0 80 -16v-512h3q36 0 56.5 -20.5t20.5 -56.5v-262h-167v181h-516v530h-77q-85 0 -85 76q0 47 21 80h390q85 0 85 -76q0 -47 -21 -80z" />
<glyph unicode="&#x4b5;" horiz-adv-x="729" d="M292 360v-117q0 -104 94 -104t94 104v196q0 71 84 71q37 0 77 -15v-217q0 -91 -32 -142h18q36 0 56.5 -20.5t20.5 -56.5v-227h-150v164h-168q-114 0 -184.5 57t-70.5 164v143h-43q-44 0 -63.5 16.5t-19.5 53.5q0 44 20 80h308q44 0 63 -18t19 -54q0 -47 -20 -78h-103z " />
<glyph unicode="&#x4b6;" horiz-adv-x="704" d="M442 0v241q-68 -16 -147 -16q-41 0 -72 3.5t-67.5 17.5t-60 38t-39.5 68t-16 105v155q0 74 87 74q37 0 80 -16v-131q0 -98 21 -129t99 -31q66 0 115 15v218q0 74 87 74q37 0 80 -16v-512h3q34 0 54.5 -20.5t20.5 -56.5v-262h-167v181h-78z" />
<glyph unicode="&#x4b7;" horiz-adv-x="637" d="M387 0v156q-55 -15 -122 -15q-235 0 -235 231v73q0 71 83 71q42 0 77 -15v-100q0 -58 22 -85t74 -27q57 0 101 16v140q0 71 83 71q42 0 77 -15v-391q34 -2 53.5 -22t19.5 -55v-201h-150v168h-83z" />
<glyph unicode="&#x4b8;" horiz-adv-x="699" d="M272 96v130q-37 1 -67.5 6.5t-62 21t-53 40t-35.5 66t-14 97.5v155q0 74 87 74q37 0 80 -16v-131q0 -78 12.5 -111.5t52.5 -42.5v108q0 60 67 60q34 0 62 -12v-159q34 3 61 12v218q0 74 87 74q37 0 80 -16v-670h-167v241q-21 -5 -61 -11v-134h-129z" />
<glyph unicode="&#x4b9;" horiz-adv-x="637" d="M417 0v158q-19 -6 -57 -11v-83h-116v78q-100 7 -157 59.5t-57 170.5v73q0 71 83 71q42 0 77 -15v-100q0 -85 54 -106v46q0 58 60 58q28 0 56 -12v-93q42 6 57 13v138q0 71 83 71q42 0 77 -15v-501h-160z" />
<glyph unicode="&#x4ba;" horiz-adv-x="679" d="M237 670v-225q68 16 147 16q41 0 72 -3.5t67.5 -17.5t60 -38t39.5 -68t16 -105v-229h-167v147q0 98 -21 129t-99 31q-66 0 -115 -15v-292h-167v612q0 74 87 74q37 0 80 -16z" />
<glyph unicode="&#x4bb;" horiz-adv-x="617" d="M55 0v666q0 71 84 71q36 0 76 -15v-242q49 45 137 45q94 0 152 -54t58 -160v-311h-161v278q0 97 -90 97q-95 0 -95 -111v-264h-161z" />
<glyph unicode="&#x4bc;" horiz-adv-x="892" d="M8 446q0 52 22 90t62 38q63 0 89 -53q-26 -33 -26 -58q0 -20 10 -29t37 -16q24 129 118 207.5t234 78.5q145 0 224 -68t79 -163q0 -217 -344 -217q-59 0 -131 7q7 -48 57.5 -89.5t134.5 -41.5q110 0 172 46l73 -125q-97 -71 -259 -71q-144 0 -242 77.5t-118 216.5 q-192 28 -192 170zM377 397q60 -7 123 -7q185 0 185 84q0 39 -33.5 60.5t-95.5 21.5q-65 0 -117.5 -49.5t-61.5 -109.5z" />
<glyph unicode="&#x4bd;" horiz-adv-x="710" d="M8 329q0 39 25 70t62 31q41 0 73 -42q-32 -35 -32 -58q0 -18 11 -27t38 -11q12 104 88 168t184 64q104 0 167 -52t63 -125q0 -53 -24 -86t-91 -53t-182 -20h-35q4 -27 37 -47t95 -20q31 0 62.5 7t48 14t19.5 10l56 -112q-87 -54 -221 -54q-100 0 -171.5 54t-91.5 150 q-98 4 -139.5 38t-41.5 101zM347 292q51 0 87 3.5t55 8t29 13t12 15t2 16.5q0 22 -19.5 37t-56.5 15q-50 0 -78.5 -32t-30.5 -76z" />
<glyph unicode="&#x4be;" horiz-adv-x="892" d="M8 446q0 52 22 90t62 38q63 0 89 -53q-26 -33 -26 -58q0 -20 10 -29t37 -16q24 129 118 207.5t234 78.5q145 0 224 -68t79 -163q0 -217 -344 -217q-59 0 -131 7q7 -48 57.5 -89.5t134.5 -41.5q110 0 172 46l73 -125q-56 -42 -142 -59q-66 -24 -66 -64q0 -30 40 -30 q37 0 67 18l31 -67q-50 -29 -123 -29q-54 0 -86 21.5t-32 64.5q0 46 36 74q-138 4 -231 81.5t-113 212.5q-192 28 -192 170zM377 397q60 -7 123 -7q185 0 185 84q0 39 -33.5 60.5t-95.5 21.5q-65 0 -117.5 -49.5t-61.5 -109.5z" />
<glyph unicode="&#x4bf;" horiz-adv-x="710" d="M8 329q0 39 25 70t62 31q41 0 73 -42q-32 -35 -32 -58q0 -18 11 -27t38 -11q12 104 88 168t184 64q104 0 167 -52t63 -125q0 -53 -24 -86t-91 -53t-182 -20h-35q4 -27 37 -47t95 -20q31 0 62.5 7t48 14t19.5 10l56 -112q-32 -22 -116 -43q-31 -8 -54.5 -25t-23.5 -44 q0 -33 43 -33q36 0 66 18l29 -64q-48 -28 -121 -28q-116 0 -116 84q0 49 46 82q-91 7 -155 60t-82 143q-98 4 -139.5 38t-41.5 101zM347 292q51 0 87 3.5t55 8t29 13t12 15t2 16.5q0 22 -19.5 37t-56.5 15q-50 0 -78.5 -32t-30.5 -76z" />
<glyph unicode="&#x4c0;" horiz-adv-x="307" d="M237 0h-167v612q0 74 87 74q37 0 80 -16v-670z" />
<glyph unicode="&#x4c1;" horiz-adv-x="1047" d="M210 670q10 -17 40 -70t55.5 -93.5t45.5 -61.5q28 -31 77 -31h12v198q0 74 87 74q37 0 80 -16v-256h12q49 0 77 31q29 32 70 105t55 91q34 45 91 45q61 0 105 -35q-61 -115 -143 -245q-21 -36 -60 -70q133 -176 218 -336h-197q-106 179 -172 265q-19 -3 -40 -3h-16v-262 h-167v262h-16q-20 0 -40 3q-66 -86 -172 -265h-197q83 159 218 336q-39 34 -60 70q-52 82 -85 139q-29 48 -29 73q0 34 22 51t56 17q45 0 73 -16zM327 900l96 11q23 -71 100 -71q81 0 100 70l95 -10q-1 -25 -11 -50t-31 -50.5t-60.5 -41t-92.5 -15.5t-93 15.5t-61 41 t-31 50.5t-11 50z" />
<glyph unicode="&#x4c2;" horiz-adv-x="898" d="M373 0v184h-29q-19 0 -28 1q-57 -80 -121 -185h-180q48 90 162 248q-25 22 -57 69q-75 100 -75 134q0 65 81 65q38 0 65 -17q17 -25 34.5 -53.5t30.5 -48t35 -46.5q15 -18 25.5 -24t34.5 -6h22v124q0 71 83 71q42 0 77 -15v-180h17q24 0 34.5 6t25.5 24q28 35 51.5 72 t32.5 50q29 43 88 43q60 0 101 -34q-60 -106 -102 -165q-32 -47 -58 -70q109 -156 154 -247h-180q-19 29 -55 91.5t-56 93.5q-9 -1 -29 -1h-24v-184h-160zM256 714l96 11q23 -71 100 -71q81 0 100 70l95 -10q-1 -25 -11 -50t-31 -50.5t-60.5 -41t-92.5 -15.5t-93 15.5 t-61 41t-31 50.5t-11 50z" />
<glyph unicode="&#x4c3;" horiz-adv-x="703" d="M492 0q-105 178 -174 265q-24 -3 -49 -3h-32v-262h-167v612q0 74 87 74q37 0 80 -16v-256h21q63 0 94 31q34 34 74 107.5t51 88.5q34 45 91 45q61 0 105 -35q-53 -102 -143 -245q-25 -40 -56 -68q104 -137 192 -298q-2 -117 -70.5 -183.5t-189.5 -66.5q-109 0 -188 50 l56 123q51 -28 116 -28q39 0 68 18.5t34 46.5z" />
<glyph unicode="&#x4c4;" horiz-adv-x="621" d="M596 27q-2 -116 -68 -175t-174 -59q-98 0 -159 40l52 115q44 -23 90 -23q37 0 61.5 20t29.5 55q-51 83 -131 185q-24 -2 -38 -2h-39v-183h-160v445q0 71 83 71q42 0 77 -15v-177h32q55 0 80 30q23 26 36 44.5t25.5 39t23.5 35.5q29 43 88 43q60 0 101 -34 q-56 -99 -103 -165q-28 -40 -61 -66q110 -150 154 -224z" />
<glyph unicode="&#x4c5;" horiz-adv-x="754" d="M453 696q76 0 135 -11q69 -10 69 -88v-508h84l-56 -270h-149l38 181h-84v534q-8 3 -41 3q-54 0 -82.5 -23.5t-45.5 -95.5l-51 -221q-27 -121 -72 -197h-190q56 92 92 217q6 20 55 235q31 135 101 189.5t197 54.5z" />
<glyph unicode="&#x4c6;" horiz-adv-x="635" d="M350 374q-38 0 -57.5 -18t-28.5 -58q-10 -43 -22 -102t-15 -70q-24 -95 -39 -126h-173q28 57 55 164q7 28 20 81.5t20 83.5q25 106 86.5 148t161.5 42q52 0 109 -9q47 -8 62.5 -27t15.5 -65v-329h73l-56 -270h-139l38 181h-77v372q-22 2 -34 2z" />
<glyph unicode="&#x4c7;" horiz-adv-x="740" d="M670 670v-626q0 -120 -65 -187t-188 -67q-109 0 -188 50l56 123q51 -28 116 -28q44 0 73 21.5t29 61.5v259h-266v-277h-167v612q0 74 87 74q37 0 80 -16v-235h266v177q0 74 87 74q37 0 80 -16z" />
<glyph unicode="&#x4c8;" horiz-adv-x="651" d="M591 495v-466q0 -118 -63.5 -177t-171.5 -59q-98 0 -159 40l52 115q44 -23 90 -23q39 0 65 23.5t26 61.5v175h-209v-185h-161v439q0 71 84 71q37 0 77 -15v-166h209v110q0 71 84 71q37 0 77 -15z" />
<glyph unicode="&#x4c9;" horiz-adv-x="767" d="M237 0h-167v612q0 74 87 74q37 0 80 -16v-235h266v177q0 74 87 74q37 0 80 -16v-581h84l-56 -270h-149l38 181h-84v277h-266v-277z" />
<glyph unicode="&#x4ca;" horiz-adv-x="681" d="M60 0v439q0 71 84 71q37 0 77 -15v-166h209v110q0 71 84 71q37 0 77 -15v-406h73l-56 -270h-139l38 181h-77v185h-209v-185h-161z" />
<glyph unicode="&#x4cb;" horiz-adv-x="679" d="M439 158h3v83q-68 -16 -147 -16q-41 0 -72 3.5t-67.5 17.5t-60 38t-39.5 68t-16 105v155q0 74 87 74q37 0 80 -16v-131q0 -98 21 -129t99 -31q66 0 115 15v218q0 74 87 74q37 0 80 -16v-670h-78v-181h-167v262q0 36 20.5 56.5t54.5 20.5z" />
<glyph unicode="&#x4cc;" horiz-adv-x="607" d="M314 -168v201q0 35 19.5 55t53.5 22v46q-55 -15 -122 -15q-235 0 -235 231v73q0 71 83 71q42 0 77 -15v-100q0 -58 22 -85t74 -27q57 0 101 16v140q0 71 83 71q42 0 77 -15v-501h-83v-168h-150z" />
<glyph unicode="&#x4cd;" horiz-adv-x="930" d="M65 0l34 600q4 86 98 86q69 0 102 -30q140 -289 156 -319q88 177 134 275q32 74 109 74q34 0 62.5 -9t40.5 -18l33 -570h83l-56 -270h-149l38 181h-79l-5 89l-18 321q-70 -142 -134 -287h-124q-42 104 -134 286l-22 -409h-169z" />
<glyph unicode="&#x4ce;" horiz-adv-x="780" d="M55 0l28 441q4 69 88 69q56 0 89 -24q82 -161 113 -219q19 34 51 97t46 88q30 58 96 58q40 0 91 -23l25 -398h81l-56 -270h-139l38 181h-72l-16 265q-55 -98 -92 -182h-109q-52 113 -91 183l-16 -266h-155z" />
<glyph unicode="&#x4cf;" horiz-adv-x="307" d="M237 0h-167v612q0 74 87 74q37 0 80 -16v-670z" />
<glyph unicode="&#x4d0;" horiz-adv-x="769" d="M178 0h-173q97 258 261 627q19 42 46 59.5t73 17.5q44 0 94 -30q39 -66 143.5 -319t141.5 -355h-184q-5 12 -23.5 61.5t-32.5 86.5h-291q-6 -17 -25 -68.5t-30 -79.5zM293 299h174q-63 171 -87 223q-20 -44 -87 -223zM217 897l84 10q21 -68 85 -68q66 0 85 67l83 -9 q-1 -24 -9.5 -48t-26.5 -48t-52 -39t-80 -15t-80.5 15t-52.5 39t-26.5 47.5t-9.5 48.5z" />
<glyph unicode="&#x4d1;" horiz-adv-x="582" d="M527 305v-302q-16 -5 -86.5 -11t-150.5 -6q-260 0 -260 168q0 91 58.5 131t187.5 40q64 0 89 -4q0 75 -123 75q-94 0 -135 -30q-36 36 -36 71q0 87 178 87q278 0 278 -219zM366 105v107q-20 5 -79 5q-97 0 -97 -61q0 -56 99 -56q62 0 77 5zM130 720l75 10q17 -68 76 -68 t76 68l75 -10q-1 -24 -9 -47t-24 -47t-46.5 -38.5t-71.5 -14.5t-72 14.5t-47 38.5t-23.5 47t-8.5 47z" />
<glyph unicode="&#x4d2;" horiz-adv-x="769" d="M178 0h-173q97 258 261 627q19 42 46 59.5t73 17.5q44 0 94 -30q39 -66 143.5 -319t141.5 -355h-184q-5 12 -23.5 61.5t-32.5 86.5h-291q-6 -17 -25 -68.5t-30 -79.5zM293 299h174q-63 171 -87 223q-20 -44 -87 -223zM425 829q0 29 22 51t53 22t53 -22t22 -51t-22 -51 t-53 -22t-53 22t-22 51zM193 829q0 28 23 50.5t53 22.5t52.5 -22.5t22.5 -50.5t-22.5 -50.5t-52.5 -22.5t-53 22.5t-23 50.5z" />
<glyph unicode="&#x4d3;" horiz-adv-x="582" d="M527 305v-302q-16 -5 -86.5 -11t-150.5 -6q-260 0 -260 168q0 91 58.5 131t187.5 40q64 0 89 -4q0 75 -123 75q-94 0 -135 -30q-36 36 -36 71q0 87 178 87q278 0 278 -219zM366 105v107q-20 5 -79 5q-97 0 -97 -61q0 -56 99 -56q62 0 77 5zM125 642q0 27 22.5 49t52.5 22 t51.5 -21.5t21.5 -49.5t-21.5 -50t-51.5 -22t-52.5 22t-22.5 50zM338 642q0 28 22 49.5t52 21.5t51.5 -21.5t21.5 -49.5t-21.5 -50t-51.5 -22t-52 22t-22 50z" />
<glyph unicode="&#x4d4;" horiz-adv-x="1087" d="M187 0h-182q145 268 343 594q34 55 65.5 73.5t79.5 18.5h464q85 0 85 -76q0 -47 -21 -80h-318v-107h241q85 0 85 -76q0 -47 -21 -80h-305v-111h334v-156h-501v166h-257q-22 -39 -53.5 -96.5t-38.5 -69.5zM364 317h172v210h-54z" />
<glyph unicode="&#x4d5;" horiz-adv-x="890" d="M797 152l56 -112q-87 -54 -221 -54q-98 0 -163 47q-6 -6 -23.5 -15t-65.5 -20.5t-106 -11.5q-130 0 -187 46t-57 122q0 91 56.5 131t177.5 40q82 0 101 -7q0 79 -123 79q-91 0 -135 -31q-36 36 -36 71q0 87 178 87q149 0 212 -73q19 23 67 48t115 25q100 0 162 -52.5 t62 -124.5q0 -78 -58.5 -118t-194.5 -40q-52 0 -79 3q4 -30 36.5 -50.5t95.5 -20.5q31 0 62.5 7t48 14t19.5 10zM392 122q-26 57 -26 90q-20 5 -79 5q-97 0 -97 -61q0 -57 99 -57q49 0 103 23zM527 294h39q50 0 81.5 4.5t44.5 13.5t16.5 16.5t3.5 19.5q0 22 -19.5 37 t-56.5 15q-49 0 -78 -31t-31 -73v-2z" />
<glyph unicode="&#x4d6;" horiz-adv-x="641" d="M70 0v591q0 95 99 95h342q85 0 85 -76q0 -47 -21 -80h-338v-107h261q85 0 85 -76q0 -47 -21 -80h-325v-111h354v-156h-521zM166 897l84 10q21 -68 85 -68q66 0 85 67l83 -9q-1 -24 -9.5 -48t-26.5 -48t-52 -39t-80 -15t-80.5 15t-52.5 39t-26.5 47.5t-9.5 48.5z" />
<glyph unicode="&#x4d7;" horiz-adv-x="561" d="M241 188h-35q4 -27 37 -47t95 -20q31 0 62.5 7t48 14t19.5 10l56 -112q-87 -54 -221 -54q-116 0 -192.5 72.5t-76.5 196.5q0 119 78 194t196 75q104 0 167 -52t63 -125q0 -53 -24 -86t-91 -53t-182 -20zM198 292q51 0 87 3.5t55 8t29 13t12 15t2 16.5q0 22 -19.5 37 t-56.5 15q-50 0 -78.5 -32t-30.5 -76zM158 720l75 10q17 -68 76 -68t76 68l75 -10q-1 -24 -9 -47t-24 -47t-46.5 -38.5t-71.5 -14.5t-72 14.5t-47 38.5t-23.5 47t-8.5 47z" />
<glyph unicode="&#x4d8;" horiz-adv-x="736" d="M515 289q-60 7 -123 7q-185 0 -185 -84q0 -39 33.5 -60.5t95.5 -21.5q66 0 117.5 49t61.5 110zM335 704q161 0 261 -96t100 -265q0 -158 -99 -259.5t-259 -101.5q-145 0 -224 67.5t-79 163.5q0 217 344 217q59 0 131 -7q-7 47 -58 90t-134 43q-111 0 -176 -65 q-61 42 -61 98q0 41 42 67q76 48 212 48z" />
<glyph unicode="&#x4d9;" horiz-adv-x="561" d="M363 214q-51 0 -87 -3.5t-55 -8t-29 -13t-12 -15t-2 -16.5q0 -22 19.5 -37t56.5 -15q50 0 78.5 32t30.5 76zM56 424q0 30 21 50.5t55.5 29.5t64 12.5t61.5 3.5q113 0 190 -72t77 -197q0 -118 -73.5 -193.5t-191.5 -75.5q-110 0 -173.5 52t-63.5 125q0 53 24 86t91 53 t182 20h35q-4 27 -37 47.5t-95 20.5q-65 0 -131 -33q-36 36 -36 71z" />
<glyph unicode="&#x4da;" horiz-adv-x="736" d="M515 289q-60 7 -123 7q-185 0 -185 -84q0 -39 33.5 -60.5t95.5 -21.5q66 0 117.5 49t61.5 110zM335 704q161 0 261 -96t100 -265q0 -158 -99 -259.5t-259 -101.5q-145 0 -224 67.5t-79 163.5q0 217 344 217q59 0 131 -7q-7 47 -58 90t-134 43q-111 0 -176 -65 q-61 42 -61 98q0 41 42 67q76 48 212 48zM376 829q0 29 22 51t53 22t53 -22t22 -51t-22 -51t-53 -22t-53 22t-22 51zM144 829q0 28 23 50.5t53 22.5t52.5 -22.5t22.5 -50.5t-22.5 -50.5t-52.5 -22.5t-53 22.5t-23 50.5z" />
<glyph unicode="&#x4db;" horiz-adv-x="561" d="M363 214q-51 0 -87 -3.5t-55 -8t-29 -13t-12 -15t-2 -16.5q0 -22 19.5 -37t56.5 -15q50 0 78.5 32t30.5 76zM56 424q0 30 21 50.5t55.5 29.5t64 12.5t61.5 3.5q113 0 190 -72t77 -197q0 -118 -73.5 -193.5t-191.5 -75.5q-110 0 -173.5 52t-63.5 125q0 53 24 86t91 53 t182 20h35q-4 27 -37 47.5t-95 20.5q-65 0 -131 -33q-36 36 -36 71zM76 642q0 27 22.5 49t52.5 22q29 0 51 -21.5t22 -49.5t-21.5 -50t-51.5 -22t-52.5 22t-22.5 50zM289 642q0 28 22 49.5t52 21.5t51.5 -21.5t21.5 -49.5t-21.5 -50t-51.5 -22t-52 22t-22 50z" />
<glyph unicode="&#x4dc;" horiz-adv-x="1047" d="M210 670q10 -17 40 -70t55.5 -93.5t45.5 -61.5q28 -31 77 -31h12v198q0 74 87 74q37 0 80 -16v-256h12q49 0 77 31q29 32 70 105t55 91q34 45 91 45q61 0 105 -35q-61 -115 -143 -245q-21 -36 -60 -70q133 -176 218 -336h-197q-106 179 -172 265q-19 -3 -40 -3h-16v-262 h-167v262h-16q-20 0 -40 3q-66 -86 -172 -265h-197q83 159 218 336q-39 34 -60 70q-52 82 -85 139q-29 48 -29 73q0 34 22 51t56 17q45 0 73 -16zM564 829q0 29 22 51t53 22t53 -22t22 -51t-22 -51t-53 -22t-53 22t-22 51zM332 829q0 28 23 50.5t53 22.5t52.5 -22.5 t22.5 -50.5t-22.5 -50.5t-52.5 -22.5t-53 22.5t-23 50.5z" />
<glyph unicode="&#x4dd;" horiz-adv-x="898" d="M373 0v184h-29q-19 0 -28 1q-57 -80 -121 -185h-180q48 90 162 248q-25 22 -57 69q-75 100 -75 134q0 65 81 65q38 0 65 -17q17 -25 34.5 -53.5t30.5 -48t35 -46.5q15 -18 25.5 -24t34.5 -6h22v124q0 71 83 71q42 0 77 -15v-180h17q24 0 34.5 6t25.5 24q28 35 51.5 72 t32.5 50q29 43 88 43q60 0 101 -34q-60 -106 -102 -165q-32 -47 -58 -70q109 -156 154 -247h-180q-19 29 -55 91.5t-56 93.5q-9 -1 -29 -1h-24v-184h-160zM271 642q0 27 22.5 49t52.5 22t51.5 -21.5t21.5 -49.5t-21.5 -50t-51.5 -22t-52.5 22t-22.5 50zM484 642 q0 28 22 49.5t52 21.5t51.5 -21.5t21.5 -49.5t-21.5 -50t-51.5 -22t-52 22t-22 50z" />
<glyph unicode="&#x4de;" horiz-adv-x="619" d="M170 424h127q111 0 111 67q0 30 -29 51t-92 21q-66 0 -111 -27t-53 -52q-34 6 -58.5 31.5t-24.5 56.5q0 35 25 63q20 24 78.5 46.5t154.5 22.5q131 0 203.5 -56t72.5 -139q0 -53 -27 -92.5t-70 -62.5q108 -44 108 -158q0 -97 -78.5 -155t-198.5 -58q-80 0 -149 16.5 t-95.5 30t-45.5 27.5l73 123q23 -17 76 -34t121 -17q66 0 97.5 21t31.5 54q0 72 -127 72h-54q-86 0 -86 71q0 41 20 77zM336 829q0 29 22 51t53 22t53 -22t22 -51t-22 -51t-53 -22t-53 22t-22 51zM104 829q0 28 23 50.5t53 22.5t52.5 -22.5t22.5 -50.5t-22.5 -50.5 t-52.5 -22.5t-53 22.5t-23 50.5z" />
<glyph unicode="&#x4df;" horiz-adv-x="559" d="M165 310h104q42 0 58 11t16 33q0 39 -95 39q-58 0 -95 -18t-45 -36q-31 5 -49.5 26t-18.5 48q0 32 23 51q62 52 194 52q119 0 187 -40t68 -107q0 -34 -21 -63.5t-52 -45.5q83 -37 83 -119q0 -68 -73.5 -111.5t-187.5 -43.5q-69 0 -126.5 12t-82.5 23t-40 22l55 112 q71 -41 175 -41q109 0 109 41q0 23 -19.5 33t-64.5 10h-44q-79 0 -79 52q0 39 21 60zM87 642q0 27 22.5 49t52.5 22t51.5 -21.5t21.5 -49.5t-21.5 -50t-51.5 -22t-52.5 22t-22.5 50zM300 642q0 28 22 49.5t52 21.5t51.5 -21.5t21.5 -49.5t-21.5 -50t-51.5 -22t-52 22t-22 50 z" />
<glyph unicode="&#x4e0;" horiz-adv-x="629" d="M492 473l-107 -79q200 -28 200 -198q0 -97 -78.5 -155t-198.5 -58q-80 0 -149 16.5t-95.5 30t-45.5 27.5l73 123q23 -17 76 -34t121 -17q66 0 97.5 21t31.5 54q0 72 -127 72h-120q-20 36 -20 77q0 37 32 58l192 119h-251q-85 0 -85 76q0 47 21 80h422q100 0 100 -84 q0 -40 -21 -67.5t-68 -61.5z" />
<glyph unicode="&#x4e1;" horiz-adv-x="547" d="M314 226q87 -12 144 -66t57 -131q0 -108 -71.5 -173.5t-205.5 -65.5q-165 0 -261 59l64 127q86 -48 182 -48q59 0 92 24.5t33 66.5q0 54 -49.5 76t-159.5 22h-22q-7 7 -15 26t-8 38q0 26 27 48q159 130 164 134h-185q-45 0 -64 16.5t-19 52.5q0 42 20 78h386q36 0 58 -20 t22 -57q0 -23 -13 -42t-42 -46q-75 -75 -134 -119z" />
<glyph unicode="&#x4e2;" horiz-adv-x="740" d="M236 670v-387l241 339q25 35 50 49.5t63 14.5t80 -15v-671h-165v414q-61 -87 -157 -230t-120 -184h-157v612q0 74 86 74q36 0 79 -16zM179 866h335q30 0 41 -14t11 -41q0 -26 -9 -47h-333q-53 0 -53 50q0 28 8 52z" />
<glyph unicode="&#x4e3;" horiz-adv-x="663" d="M223 0h-163v439q0 71 84 71q37 0 77 -15v-308q24 33 203 264q42 59 101 59q39 0 78 -15v-495h-161v275q-114 -131 -219 -275zM169 692h286q48 0 48 -49q0 -29 -10 -46h-286q-48 0 -48 49q0 23 10 46z" />
<glyph unicode="&#x4e4;" horiz-adv-x="740" d="M236 670v-387l241 339q25 35 50 49.5t63 14.5t80 -15v-671h-165v414q-61 -87 -157 -230t-120 -184h-157v612q0 74 86 74q36 0 79 -16zM411 829q0 29 22 51t53 22t53 -22t22 -51t-22 -51t-53 -22t-53 22t-22 51zM179 829q0 28 23 50.5t53 22.5t52.5 -22.5t22.5 -50.5 t-22.5 -50.5t-52.5 -22.5t-53 22.5t-23 50.5z" />
<glyph unicode="&#x4e5;" horiz-adv-x="663" d="M223 0h-163v439q0 71 84 71q37 0 77 -15v-308q24 33 203 264q42 59 101 59q39 0 78 -15v-495h-161v275q-114 -131 -219 -275zM151 642q0 27 22.5 49t52.5 22t51.5 -21.5t21.5 -49.5t-21.5 -50t-51.5 -22t-52.5 22t-22.5 50zM364 642q0 28 22 49.5t52 21.5t51.5 -21.5 t21.5 -49.5t-21.5 -50t-51.5 -22t-52 22t-22 50z" />
<glyph unicode="&#x4e6;" horiz-adv-x="822" d="M40 343q0 152 107 256.5t264 104.5t264 -104.5t107 -256.5t-107 -256.5t-264 -104.5t-264 104.5t-107 256.5zM411 138q86 0 141 58.5t55 146.5t-55 146.5t-141 58.5t-141 -58.5t-55 -146.5t55 -146.5t141 -58.5zM452 829q0 29 22 51t53 22t53 -22t22 -51t-22 -51t-53 -22 t-53 22t-22 51zM220 829q0 28 23 50.5t53 22.5t52.5 -22.5t22.5 -50.5t-22.5 -50.5t-52.5 -22.5t-53 22.5t-23 50.5z" />
<glyph unicode="&#x4e7;" horiz-adv-x="634" d="M35 255q0 115 82 192t200 77t200 -77t82 -192t-82 -192t-200 -77t-200 77t-82 192zM317 130q51 0 84 35.5t33 89.5t-33 89.5t-84 35.5t-84 -35.5t-33 -89.5t33 -89.5t84 -35.5zM137 642q0 27 22.5 49t52.5 22t51.5 -21.5t21.5 -49.5t-21.5 -50t-51.5 -22t-52.5 22 t-22.5 50zM350 642q0 28 22 49.5t52 21.5t51.5 -21.5t21.5 -49.5t-21.5 -50t-51.5 -22t-52 22t-22 50z" />
<glyph unicode="&#x4e8;" horiz-adv-x="822" d="M40 343q0 152 107 256.5t264 104.5t264 -104.5t107 -256.5t-107 -256.5t-264 -104.5t-264 104.5t-107 256.5zM411 138q69 0 120.5 41t67.5 107h-377q18 -67 68 -107.5t121 -40.5zM411 548q-70 0 -120.5 -39.5t-67.5 -105.5h376q-17 66 -68 105.5t-120 39.5z" />
<glyph unicode="&#x4e9;" horiz-adv-x="634" d="M35 255q0 115 82 192t200 77t200 -77t82 -192t-82 -192t-200 -77t-200 77t-82 192zM317 130q38 0 67 20.5t42 55.5h-218q12 -35 41 -55.5t68 -20.5zM317 380q-39 0 -68 -20.5t-41 -55.5h218q-13 35 -42 55.5t-67 20.5z" />
<glyph unicode="&#x4ea;" horiz-adv-x="822" d="M40 343q0 152 107 256.5t264 104.5t264 -104.5t107 -256.5t-107 -256.5t-264 -104.5t-264 104.5t-107 256.5zM411 138q69 0 120.5 41t67.5 107h-377q18 -67 68 -107.5t121 -40.5zM411 548q-70 0 -120.5 -39.5t-67.5 -105.5h376q-17 66 -68 105.5t-120 39.5zM452 829 q0 29 22 51t53 22t53 -22t22 -51t-22 -51t-53 -22t-53 22t-22 51zM220 829q0 28 23 50.5t53 22.5t52.5 -22.5t22.5 -50.5t-22.5 -50.5t-52.5 -22.5t-53 22.5t-23 50.5z" />
<glyph unicode="&#x4eb;" horiz-adv-x="634" d="M35 255q0 115 82 192t200 77t200 -77t82 -192t-82 -192t-200 -77t-200 77t-82 192zM317 130q38 0 67 20.5t42 55.5h-218q12 -35 41 -55.5t68 -20.5zM317 380q-39 0 -68 -20.5t-41 -55.5h218q-13 35 -42 55.5t-67 20.5zM137 642q0 27 22.5 49t52.5 22t51.5 -21.5 t21.5 -49.5t-21.5 -50t-51.5 -22t-52.5 22t-22.5 50zM350 642q0 28 22 49.5t52 21.5t51.5 -21.5t21.5 -49.5t-21.5 -50t-51.5 -22t-52 22t-22 50z" />
<glyph unicode="&#x4ec;" horiz-adv-x="680" d="M454 266h-182q-85 0 -85 76q0 47 21 80h244q-20 61 -69 95t-116 34q-102 0 -177 -75q-19 11 -41.5 40.5t-22.5 62.5q0 42 43 74q81 51 205 51q158 0 262 -98t104 -266q0 -170 -105.5 -264t-263.5 -94q-92 0 -156.5 22.5t-94.5 46.5l77 129q60 -43 158 -43 q74 0 126.5 32.5t72.5 96.5zM327 829q0 29 22 51t53 22t53 -22t22 -51t-22 -51t-53 -22t-53 22t-22 51zM95 829q0 28 23 50.5t53 22.5t52.5 -22.5t22.5 -50.5t-22.5 -50.5t-52.5 -22.5t-53 22.5t-23 50.5z" />
<glyph unicode="&#x4ed;" horiz-adv-x="536" d="M206 125q102 0 124 74h-121q-79 0 -79 52q0 39 21 60h179q-27 75 -123 75q-82 0 -126 -44q-56 32 -56 83q0 29 24 50q55 49 169 49q117 0 200 -72.5t83 -196.5q0 -127 -82 -198t-195 -71q-120 0 -204 57l70 116q10 -10 43 -22t73 -12zM51 642q0 27 22.5 49t52.5 22 t51.5 -21.5t21.5 -49.5t-21.5 -50t-51.5 -22t-52.5 22t-22.5 50zM264 642q0 28 22 49.5t52 21.5t51.5 -21.5t21.5 -49.5t-21.5 -50t-51.5 -22t-52 22t-22 50z" />
<glyph unicode="&#x4ee;" horiz-adv-x="667" d="M299 -13h-186q47 72 131 214q-150 235 -187 305q-7 13 -18 32t-15 27t-7.5 20.5t-3.5 25.5q0 78 78 78q55 0 78 -18q51 -107 165 -306q66 118 129 249q19 39 40 55.5t60 16.5q38 0 64 -13t35 -25q-147 -318 -363 -661zM146 866h335q30 0 41 -14t11 -41q0 -26 -9 -47h-333 q-53 0 -53 50q0 28 8 52z" />
<glyph unicode="&#x4ef;" d="M75 -173l39 118q16 -7 59 -17t90 -10q77 0 111 33t34 109q-18 -23 -57 -36.5t-79 -13.5q-97 0 -157 49t-60 145v235q0 71 84 71q37 0 77 -15v-258q0 -48 22.5 -69t70.5 -21q95 0 95 106v186q0 71 84 71q37 0 77 -15v-424q0 -281 -279 -281q-52 0 -103.5 8.5t-76.5 16.5 t-31 12zM148 692h286q48 0 48 -49q0 -29 -10 -46h-286q-48 0 -48 49q0 23 10 46z" />
<glyph unicode="&#x4f0;" horiz-adv-x="667" d="M299 -13h-186q47 72 131 214q-150 235 -187 305q-7 13 -18 32t-15 27t-7.5 20.5t-3.5 25.5q0 78 78 78q55 0 78 -18q51 -107 165 -306q66 118 129 249q19 39 40 55.5t60 16.5q38 0 64 -13t35 -25q-147 -318 -363 -661zM378 829q0 29 22 51t53 22t53 -22t22 -51t-22 -51 t-53 -22t-53 22t-22 51zM146 829q0 28 23 50.5t53 22.5t52.5 -22.5t22.5 -50.5t-22.5 -50.5t-52.5 -22.5t-53 22.5t-23 50.5z" />
<glyph unicode="&#x4f1;" d="M75 -173l39 118q16 -7 59 -17t90 -10q77 0 111 33t34 109q-18 -23 -57 -36.5t-79 -13.5q-97 0 -157 49t-60 145v235q0 71 84 71q37 0 77 -15v-258q0 -48 22.5 -69t70.5 -21q95 0 95 106v186q0 71 84 71q37 0 77 -15v-424q0 -281 -279 -281q-52 0 -103.5 8.5t-76.5 16.5 t-31 12zM130 642q0 27 22.5 49t52.5 22q29 0 51 -21.5t22 -49.5t-21.5 -50t-51.5 -22t-52.5 22t-22.5 50zM343 642q0 28 22 49.5t52 21.5t51.5 -21.5t21.5 -49.5t-21.5 -50t-51.5 -22t-52 22t-22 50z" />
<glyph unicode="&#x4f2;" horiz-adv-x="667" d="M299 -13h-186q47 72 131 214q-150 235 -187 305q-7 13 -18 32t-15 27t-7.5 20.5t-3.5 25.5q0 78 78 78q55 0 78 -18q51 -107 165 -306q66 118 129 249q19 39 40 55.5t60 16.5q38 0 64 -13t35 -25q-147 -318 -363 -661zM169 757l-39 66l108 75q34 24 72 24q21 0 35.5 -10 t20 -25t7.5 -24t2 -15zM444 757l-39 66l108 75q35 24 72 24q21 0 35.5 -10t20 -25t7.5 -24t2 -15z" />
<glyph unicode="&#x4f3;" d="M75 -173l39 118q16 -7 59 -17t90 -10q77 0 111 33t34 109q-18 -23 -57 -36.5t-79 -13.5q-97 0 -157 49t-60 145v235q0 71 84 71q37 0 77 -15v-258q0 -48 22.5 -69t70.5 -21q95 0 95 106v186q0 71 84 71q37 0 77 -15v-424q0 -281 -279 -281q-52 0 -103.5 8.5t-76.5 16.5 t-31 12zM411 570l-47 61l93 78q31 28 62 28q37 0 53 -34q6 -13 8 -33zM172 570l-47 61l93 78q31 28 62 28q37 0 53 -34q6 -13 8 -33z" />
<glyph unicode="&#x4f4;" horiz-adv-x="679" d="M442 0v241q-68 -16 -147 -16q-41 0 -72 3.5t-67.5 17.5t-60 38t-39.5 68t-16 105v155q0 74 87 74q37 0 80 -16v-131q0 -98 21 -129t99 -31q66 0 115 15v218q0 74 87 74q37 0 80 -16v-670h-167zM159 828q0 27 22.5 49t52.5 22t51.5 -21.5t21.5 -49.5t-21.5 -50t-51.5 -22 t-52.5 22t-22.5 50zM372 828q0 28 22 49.5t52 21.5t51.5 -21.5t21.5 -49.5t-21.5 -50t-51.5 -22t-52 22t-22 50z" />
<glyph unicode="&#x4f5;" horiz-adv-x="607" d="M387 0v156q-55 -15 -122 -15q-235 0 -235 231v73q0 71 83 71q42 0 77 -15v-100q0 -58 22 -85t74 -27q57 0 101 16v140q0 71 83 71q42 0 77 -15v-501h-160zM123 642q0 27 22.5 49t52.5 22t51.5 -21.5t21.5 -49.5t-21.5 -50t-51.5 -22t-52.5 22t-22.5 50zM336 642 q0 28 22 49.5t52 21.5t51.5 -21.5t21.5 -49.5t-21.5 -50t-51.5 -22t-52 22t-22 50z" />
<glyph unicode="&#x4f6;" horiz-adv-x="583" d="M70 0v591q0 95 99 95h319q85 0 85 -76q0 -47 -21 -80h-315v-372h3q34 0 54.5 -20.5t20.5 -56.5v-262h-167v181h-78z" />
<glyph unicode="&#x4f7;" horiz-adv-x="495" d="M60 0v418q0 92 96 92h247q44 0 63 -18t19 -54q0 -47 -20 -78h-244v-220q34 -2 53.5 -22t19.5 -55v-231h-150v168h-84z" />
<glyph unicode="&#x4f8;" horiz-adv-x="986" d="M237 670v-206q32 4 103 4q299 0 299 -232q0 -246 -359 -246q-160 0 -210 10v612q0 74 87 74q37 0 80 -16zM237 321v-183q19 -3 84 -3q62 0 103 24.5t41 75.5t-34 70.5t-110 19.5q-59 0 -84 -4zM916 0h-167v612q0 74 87 74q37 0 80 -16v-670zM534 829q0 29 22 51t53 22 t53 -22t22 -51t-22 -51t-53 -22t-53 22t-22 51zM302 829q0 28 23 50.5t53 22.5t52.5 -22.5t22.5 -50.5t-22.5 -50.5t-52.5 -22.5t-53 22.5t-23 50.5z" />
<glyph unicode="&#x4f9;" horiz-adv-x="853" d="M60 175v7v257q0 71 84 71q37 0 77 -15v-122q48 22 103 22q91 0 154 -58t63 -145q0 -89 -67 -147.5t-174 -58.5q-98 0 -169 56.5t-71 132.5zM221 195q0 -34 22.5 -56.5t56.5 -22.5q35 0 57.5 22.5t22.5 56.5q0 33 -22.5 54.5t-57.5 21.5q-34 0 -56.5 -21.5t-22.5 -54.5z M632 0v439q0 71 84 71q37 0 77 -15v-495h-161zM246 642q0 27 22.5 49t52.5 22q29 0 51 -21.5t22 -49.5t-21.5 -50t-51.5 -22t-52.5 22t-22.5 50zM459 642q0 28 22 49.5t52 21.5t51.5 -21.5t21.5 -49.5t-21.5 -50t-51.5 -22t-52 22t-22 50z" />
<glyph unicode="&#x2000;" horiz-adv-x="461" />
<glyph unicode="&#x2001;" horiz-adv-x="922" />
<glyph unicode="&#x2002;" horiz-adv-x="461" />
<glyph unicode="&#x2003;" horiz-adv-x="922" />
<glyph unicode="&#x2004;" horiz-adv-x="307" />
<glyph unicode="&#x2005;" horiz-adv-x="230" />
<glyph unicode="&#x2006;" horiz-adv-x="153" />
<glyph unicode="&#x2007;" horiz-adv-x="153" />
<glyph unicode="&#x2008;" horiz-adv-x="115" />
<glyph unicode="&#x2009;" horiz-adv-x="184" />
<glyph unicode="&#x200a;" horiz-adv-x="51" />
<glyph unicode="&#x2010;" horiz-adv-x="337" d="M44 348h198q65 0 65 -78q0 -38 -14 -71h-198q-65 0 -65 78q0 38 14 71z" />
<glyph unicode="&#x2011;" horiz-adv-x="337" d="M44 348h198q65 0 65 -78q0 -38 -14 -71h-198q-65 0 -65 78q0 38 14 71z" />
<glyph unicode="&#x2012;" horiz-adv-x="337" d="M44 348h198q65 0 65 -78q0 -38 -14 -71h-198q-65 0 -65 78q0 38 14 71z" />
<glyph unicode="&#x2013;" horiz-adv-x="500" d="M14 348h421q65 0 65 -78q0 -38 -14 -71h-421q-65 0 -65 78q0 38 14 71z" />
<glyph unicode="&#x2014;" horiz-adv-x="1000" d="M14 348h921q65 0 65 -78q0 -38 -14 -71h-921q-65 0 -65 78q0 38 14 71z" />
<glyph unicode="&#x2018;" horiz-adv-x="337" d="M278 435l-111 -42l-131 302q42 42 94 42q34 0 52 -17t28 -52z" />
<glyph unicode="&#x2019;" horiz-adv-x="337" d="M59 435l68 233q10 35 28 52t52 17q52 0 94 -42l-131 -302z" />
<glyph unicode="&#x201a;" horiz-adv-x="351" d="M32 -126l68 233q10 35 28 52t52 17q52 0 94 -42l-131 -302z" />
<glyph unicode="&#x201c;" horiz-adv-x="573" d="M513 435l-111 -42l-131 302q42 42 94 42q34 0 52 -17t28 -52zM278 435l-111 -42l-131 302q42 42 94 42q34 0 52 -17t28 -52z" />
<glyph unicode="&#x201d;" horiz-adv-x="573" d="M60 435l68 233q10 35 28 52t52 17q52 0 94 -42l-131 -302zM295 435l68 233q10 35 28 52t52 17q52 0 94 -42l-131 -302z" />
<glyph unicode="&#x201e;" horiz-adv-x="573" d="M60 -126l68 233q10 35 28 52t52 17q52 0 94 -42l-131 -302zM295 -126l68 233q10 35 28 52t52 17q52 0 94 -42l-131 -302z" />
<glyph unicode="&#x2020;" horiz-adv-x="539" d="M189 -200v560h-101q-44 0 -63.5 17.5t-19.5 54.5q0 42 20 78h164v156q0 71 84 71q37 0 77 -15v-212h101q44 0 63.5 -17.5t19.5 -54.5q0 -42 -20 -78h-164v-560h-161z" />
<glyph unicode="&#x2021;" horiz-adv-x="585" d="M212 -200v179h-101q-44 0 -63.5 17.5t-19.5 54.5q0 42 20 78h164v231h-101q-44 0 -63.5 17.5t-19.5 54.5q0 42 20 78h164v156q0 71 84 71q37 0 77 -15v-212h101q44 0 63.5 -17.5t19.5 -54.5q0 -42 -20 -78h-164v-231h101q44 0 63.5 -17.5t19.5 -54.5q0 -42 -20 -78h-164 v-179h-161z" />
<glyph unicode="&#x2022;" horiz-adv-x="533" d="M123 342q0 60 41.5 102t102.5 42t102 -42t41 -102q0 -59 -41 -101t-102 -42t-102.5 42t-41.5 101z" />
<glyph unicode="&#x2026;" horiz-adv-x="1012" d="M169 -17q-39 0 -67.5 28.5t-28.5 68.5q0 39 28.5 67.5t67.5 28.5t67.5 -28.5t28.5 -67.5q0 -40 -28.5 -68.5t-67.5 -28.5zM506 -17q-39 0 -67.5 28.5t-28.5 68.5q0 39 28.5 67.5t67.5 28.5t67.5 -28.5t28.5 -67.5q0 -40 -28.5 -68.5t-67.5 -28.5zM843 -17 q-39 0 -67.5 28.5t-28.5 68.5q0 39 28.5 67.5t67.5 28.5t67.5 -28.5t28.5 -67.5q0 -40 -28.5 -68.5t-67.5 -28.5z" />
<glyph unicode="&#x202f;" horiz-adv-x="184" />
<glyph unicode="&#x2030;" horiz-adv-x="1470" d="M216 0l398 686q10 17 17.5 26.5t23.5 17t38 7.5q13 0 25.5 -2.5t22.5 -7t17 -8t12.5 -7.5t6.5 -4l-411 -708h-150zM222 338q-86 0 -141.5 57.5t-55.5 141.5q0 85 55.5 142.5t141.5 57.5q87 0 142.5 -57.5t55.5 -142.5q0 -84 -55.5 -141.5t-142.5 -57.5zM222 456 q30 0 47.5 23.5t17.5 57.5q0 35 -17.5 58.5t-47.5 23.5t-47.5 -23.5t-17.5 -58.5q0 -34 17.5 -57.5t47.5 -23.5zM778 -17q-86 0 -141.5 57.5t-55.5 141.5q0 85 55.5 142.5t141.5 57.5q87 0 142.5 -57.5t55.5 -142.5q0 -84 -55.5 -141.5t-142.5 -57.5zM778 101 q30 0 47.5 23.5t17.5 57.5q0 35 -17.5 58.5t-47.5 23.5t-47.5 -23.5t-17.5 -58.5q0 -34 17.5 -57.5t47.5 -23.5zM1247 -17q-86 0 -141.5 57.5t-55.5 141.5q0 85 55.5 142.5t141.5 57.5q87 0 142.5 -57.5t55.5 -142.5q0 -84 -55.5 -141.5t-142.5 -57.5zM1247 101 q30 0 47.5 23.5t17.5 57.5q0 35 -17.5 58.5t-47.5 23.5t-47.5 -23.5t-17.5 -58.5q0 -34 17.5 -57.5t47.5 -23.5z" />
<glyph unicode="&#x2039;" horiz-adv-x="351" d="M321 103l-91 -84l-172 175q-28 30 -28 63q0 32 28 62l172 176l91 -84l-130 -154z" />
<glyph unicode="&#x203a;" horiz-adv-x="351" d="M30 103l130 154l-130 154l91 84l172 -176q28 -30 28 -62q0 -33 -28 -63l-172 -175z" />
<glyph unicode="&#x2044;" horiz-adv-x="92" d="M-238 0l398 686q10 17 17.5 26.5t23.5 17t38 7.5q13 0 25.5 -2.5t22.5 -7t17 -8t12.5 -7.5t6.5 -4l-411 -708h-150z" />
<glyph unicode="&#x205f;" horiz-adv-x="230" />
<glyph unicode="&#x20ac;" horiz-adv-x="641" d="M31 209v89h65q-1 11 -1 36q0 21 1 32h-65v89h76q27 121 106.5 185t204.5 64q97 0 155 -33q46 -28 46 -69q0 -31 -21 -58t-41 -41q-49 49 -133 49q-110 0 -144 -97h185q48 0 48 -43q0 -29 -10 -46h-238q-1 -11 -1 -32q0 -25 1 -36h175q48 0 48 -43q0 -29 -10 -46h-190 q39 -74 142 -74q35 0 69 9t49.5 17t23.5 14l64 -124q-1 0 -12 -7.5t-22 -14t-32 -16t-42.5 -16t-52.5 -11t-64 -4.5q-68 0 -126 21t-106 74t-69 132h-79z" />
<glyph unicode="&#x2122;" horiz-adv-x="996" d="M157 268v313h-90q-57 0 -57 50q0 31 14 55h343q57 0 57 -50q0 -30 -14 -55h-133v-313h-120zM462 268l20 360q4 58 67 58q46 0 72 -20q8 -17 38 -84.5t46 -100.5q15 30 40 86t33 73q20 46 74 46q41 0 71 -19l23 -399h-121l-11 220q-22 -42 -66 -151h-88q0 1 -25 60.5 t-41 90.5l-11 -220h-121z" />
<glyph unicode="&#x2202;" horiz-adv-x="634" d="M166 564l-91 82q9 13 24 26t41 29t67.5 26t90.5 10q81 0 141 -34t94 -93.5t50 -131t16 -156.5q0 -171 -76 -253.5t-213 -82.5q-121 0 -198 67t-77 179q0 109 70.5 175.5t165.5 66.5q42 0 78.5 -11.5t50.5 -20.5t22 -17q-4 83 -43 135t-108 52q-27 0 -52 -11t-37 -21 t-16 -16zM317 115q53 0 85 33.5t32 83.5t-32 83.5t-85 33.5t-85 -33.5t-32 -83.5t32 -83.5t85 -33.5z" />
<glyph unicode="&#x2206;" horiz-adv-x="769" d="M379 507l-146 -360h291zM764 0h-759l296 704h169z" />
<glyph unicode="&#x220f;" horiz-adv-x="740" d="M237 -122h-167v734q0 74 87 74h426q87 0 87 -74v-734h-167v650h-266v-650z" />
<glyph unicode="&#x2211;" horiz-adv-x="651" d="M631 -122h-611v143l285 266l-197 188q-31 28 -46 43t-27.5 38t-12.5 46q0 84 100 84h415q85 0 85 -75q0 -46 -21 -79h-330l263 -245l-278 -254h375v-155z" />
<glyph unicode="&#x221a;" horiz-adv-x="660" d="M271 -13l-144 413l-70 -33l-35 80l224 103l107 -320l222 663h158l-313 -906h-149z" />
<glyph unicode="&#x221e;" horiz-adv-x="803" d="M479 340q50 -61 101 -61q27 0 44.5 16t17.5 49q0 34 -18.5 51t-48.5 17q-28 0 -49 -18t-47 -54zM321 329q-49 80 -97 80q-28 0 -46.5 -18t-18.5 -50q0 -34 20 -50.5t50 -16.5q43 0 92 55zM403 218q-87 -80 -172 -80q-86 0 -143.5 54t-57.5 148q0 84 54 145.5t149 61.5 q56 0 94.5 -21.5t73.5 -65.5q76 88 170 88q92 0 147 -58.5t55 -138.5q0 -102 -55.5 -157t-145.5 -55q-93 0 -169 79z" />
<glyph unicode="&#x222b;" horiz-adv-x="481" d="M10 -171l52 115q5 -5 23 -12.5t36 -7.5q49 0 49 49q0 41 -1 58l-17 416q-2 35 -2 124q0 77 45 121.5t130 44.5q83 0 146 -39l-52 -115q-5 5 -23 12.5t-36 7.5q-49 0 -49 -49q0 -41 1 -58l16 -416q2 -35 2 -124q0 -77 -44.5 -121.5t-129.5 -44.5q-35 0 -69.5 8.5 t-51.5 16.5t-25 14z" />
<glyph unicode="&#x2248;" horiz-adv-x="630" d="M166 121h-125q0 193 161 193q18 0 39.5 -3.5t35.5 -7.5t39 -11.5l35 -10.5q53 -16 73 -16q18 0 27.5 11t11.5 40h125q0 -193 -161 -193q-18 0 -39.5 3.5t-35.5 7.5t-39 11.5l-35 10.5q-53 16 -73 16q-18 0 -27.5 -11t-11.5 -40zM166 370h-125q0 193 161 193 q18 0 39.5 -3.5t35.5 -7.5t39 -11.5l35 -10.5q53 -16 73 -16q18 0 27.5 11t11.5 40h125q0 -193 -161 -193q-18 0 -39.5 3.5t-35.5 7.5t-39 11.5l-35 10.5q-53 16 -73 16q-18 0 -27.5 -11t-11.5 -40z" />
<glyph unicode="&#x2260;" horiz-adv-x="630" d="M112 27l48 115h-37q-71 0 -71 80q0 38 15 73h156l40 96h-140q-71 0 -71 80q0 38 15 73h260l26 61q14 34 30.5 49.5t47.5 15.5q32 0 56 -13.5t34 -26.5l-37 -86h23q71 0 71 -80q0 -38 -15 -73h-145l-41 -96h130q71 0 71 -80q0 -38 -15 -73h-252l-49 -115h-150z" />
<glyph unicode="&#x2264;" horiz-adv-x="630" d="M67 153h440q71 0 71 -80q0 -38 -15 -73h-440q-71 0 -71 80q0 38 15 73zM103 506l458 144v-156l-262 -66l262 -66v-156l-434 133q-58 20 -58 89q0 48 34 78z" />
<glyph unicode="&#x2265;" horiz-adv-x="630" d="M67 153h440q71 0 71 -80q0 -38 -15 -73h-440q-71 0 -71 80q0 38 15 73zM69 206v156l263 66l-263 66v156l434 -133q58 -20 58 -89q0 -48 -34 -78z" />
<glyph unicode="&#x25ca;" horiz-adv-x="656" d="M217 343l111 -188l111 188l-111 189zM407 -17h-158l-216 360l216 361h158l216 -361z" />
<glyph unicode="&#x25fc;" horiz-adv-x="510" d="M0 510h510v-510h-510v510z" />
</font>
</defs>
</svg>
