<?xml version="1.0" standalone="no"?>
<!DOCTYPE svg PUBLIC "-//W3C//DTD SVG 1.1//EN" "http://www.w3.org/Graphics/SVG/1.1/DTD/svg11.dtd" >
<svg xmlns="http://www.w3.org/2000/svg" xmlns:xlink="http://www.w3.org/1999/xlink" version="1.1">
<metadata></metadata>
<defs>
<font id="encode_sans_expandedsemibold" horiz-adv-x="1433" >
<font-face units-per-em="2048" ascent="1638" descent="-410" />
<missing-glyph horiz-adv-x="580" />
<glyph unicode="&#xfb01;" horiz-adv-x="1507" d="M38 888v229h213v77q0 152 60 260t174 164.5t273 56.5q92 0 175 -16v-224q-58 13 -132 13q-133 0 -197 -58.5t-64 -184.5v-88h360v-229h-360v-888h-289v888h-213zM1025 1454q0 72 45.5 110t135.5 38t136 -38t46 -110t-46 -109t-136 -37t-135.5 37t-45.5 109zM1062 0v1117 h289v-1117h-289z" />
<glyph unicode="&#xfb02;" horiz-adv-x="1507" d="M38 888v229h213v77q0 152 60 260t174 164.5t273 56.5q92 0 175 -16v-224q-58 13 -132 13q-133 0 -197 -58.5t-64 -184.5v-88h360v-229h-360v-888h-289v888h-213zM1062 0v1655h289v-1655h-289z" />
<glyph horiz-adv-x="0" />
<glyph unicode="&#xd;" horiz-adv-x="580" />
<glyph horiz-adv-x="0" />
<glyph horiz-adv-x="0" />
<glyph unicode=" "  horiz-adv-x="580" />
<glyph unicode="&#x09;" horiz-adv-x="580" />
<glyph unicode="&#xa0;" horiz-adv-x="580" />
<glyph unicode="!" horiz-adv-x="638" d="M130 144q0 75 50 118t139 43t139.5 -44t50.5 -117q0 -74 -50.5 -116.5t-139.5 -42.5q-88 0 -138.5 42.5t-50.5 116.5zM168 970v546h303v-546l-61 -527h-178z" />
<glyph unicode="&#x22;" horiz-adv-x="972" d="M121 1655h280l-53 -771h-174zM572 1655h280l-53 -771h-174z" />
<glyph unicode="#" horiz-adv-x="1361" d="M113 410v222h208l30 252h-238v222h266l51 410h226l-51 -410h237l51 410h227l-51 -410h180v-222h-208l-30 -252h238v-222h-266l-51 -410h-227l51 410h-237l-51 -410h-226l51 410h-180zM547 632h236l31 252h-236z" />
<glyph unicode="$" horiz-adv-x="1305" d="M83 1084q0 173 109 284.5t324 148.5v244h274v-226q197 -6 356 -48v-237q-85 26 -188 40t-199 14q-203 0 -293.5 -53.5t-90.5 -155.5q0 -56 22.5 -94t75 -64t145.5 -44l114 -22q176 -35 284 -92.5t157.5 -141.5t49.5 -199q0 -174 -113 -287.5t-320 -151.5v-245h-274v228 q-214 8 -401 64v236q103 -34 230.5 -52t227.5 -18q189 0 273.5 53t84.5 159q0 58 -26 96.5t-85 64t-164 46.5l-113 21q-241 47 -350.5 152t-109.5 280z" />
<glyph unicode="%" horiz-adv-x="2266" d="M114 1060q0 155 53 261.5t148.5 160t221.5 53.5q127 0 222 -53.5t148.5 -160.5t53.5 -261q0 -156 -53.5 -262.5t-149 -159t-221.5 -52.5t-221.5 52.5t-148.5 159t-53 262.5zM340 1061q0 -153 52.5 -224t144.5 -71t144.5 69.5t52.5 223.5t-52.5 225t-144.5 71 q-91 0 -144 -71t-53 -223zM632 0l759 1516h243l-758 -1516h-244zM1306 456q0 156 53 262.5t148.5 160t222.5 53.5q126 0 221 -53.5t148 -160.5t53 -262t-53 -261.5t-148.5 -159.5t-220.5 -53q-126 0 -222 53t-149 159.5t-53 261.5zM1532 457q0 -153 53 -224t145 -71 q91 0 143.5 70t52.5 223q0 154 -52.5 225t-143.5 71t-144.5 -71t-53.5 -223z" />
<glyph unicode="&#x26;" horiz-adv-x="1783" d="M140 413q0 132 73 233.5t199 157.5q-58 67 -82.5 134t-24.5 141q0 218 165 337t494 119q159 0 300 -28v-235q-136 32 -284 32q-208 0 -295.5 -60.5t-87.5 -176.5q0 -52 19.5 -94t68 -87.5t138.5 -106.5l457 -281q7 40 7 93q0 124 -44 268h232q41 -134 41 -266 q0 -119 -32 -220l300 -186l-117 -207l-306 188q-91 -92 -234.5 -139t-331.5 -47q-217 0 -363.5 53.5t-219 150.5t-72.5 227zM432 442q0 -121 98.5 -190t296.5 -69q227 1 344 103l-464 285q-93 57 -153 103q-122 -86 -122 -232z" />
<glyph unicode="'" horiz-adv-x="522" d="M121 1655h280l-53 -771h-174z" />
<glyph unicode="(" horiz-adv-x="793" d="M132 602q0 660 411 1053h317q-232 -233 -333.5 -487t-101.5 -566t101.5 -565.5t333.5 -487.5h-317q-411 393 -411 1053z" />
<glyph unicode=")" horiz-adv-x="793" d="M-67 -451q233 234 334.5 487.5t101.5 565.5t-101.5 565.5t-334.5 487.5h318q411 -392 411 -1053q0 -660 -411 -1053h-318z" />
<glyph unicode="*" horiz-adv-x="1044" d="M31 1272l58 177l196 -64l175 -89l-31 194v165h187v-165l-30 -194l174 89l196 64l58 -177l-197 -64l-185 -30l135 -137l102 -141l-151 -109l-103 140l-93 185l-93 -185l-102 -140l-152 109l103 141l135 137l-186 30z" />
<glyph unicode="+" horiz-adv-x="1183" d="M153 669v219h324v341h230v-341h324v-219h-324v-341h-230v341h-324z" />
<glyph unicode="," horiz-adv-x="598" d="M110 156q0 79 49 125t136 46q94 0 142.5 -56t48.5 -168q0 -117 -39 -233t-108 -210h-163q44 95 68 173t30 153q-78 6 -121 51.5t-43 118.5z" />
<glyph unicode="-" horiz-adv-x="1069" d="M153 461v236h763v-236h-763z" />
<glyph unicode="." horiz-adv-x="598" d="M110 155q0 80 50 126t139 46t139 -47t50 -125t-50.5 -124t-138.5 -46t-138.5 45.5t-50.5 124.5z" />
<glyph unicode="/" horiz-adv-x="875" d="M0 -246l586 1901h290l-586 -1901h-290z" />
<glyph unicode="0" horiz-adv-x="1511" d="M122 758q0 394 166.5 585.5t466.5 191.5q301 0 468 -192t167 -585q0 -264 -77.5 -438t-219.5 -256.5t-338 -82.5q-299 0 -466 192t-167 585zM412 760q0 -201 41 -319.5t116.5 -169t186.5 -50.5q109 0 185 50.5t117.5 168t41.5 316.5q0 201 -41.5 319.5t-117 168.5 t-185.5 50t-185.5 -50t-117 -168t-41.5 -316z" />
<glyph unicode="1" horiz-adv-x="966" d="M40 851v279l545 391h198v-1521h-296v1169z" />
<glyph unicode="2" horiz-adv-x="1212" d="M47 1238v236q79 27 192 44t221 17q303 0 449.5 -106.5t146.5 -325.5q0 -86 -24.5 -164t-81 -162t-151.5 -186l-334 -358h680v-233h-1079v153l490 538q116 127 162.5 213t46.5 167q0 120 -77 176.5t-248 56.5q-105 0 -207.5 -18t-185.5 -48z" />
<glyph unicode="3" horiz-adv-x="1221" d="M60 41v214q101 -29 213.5 -45t215.5 -16q198 0 289.5 62.5t91.5 184.5q0 113 -82.5 170.5t-265.5 57.5h-263v214h178q190 0 280.5 55.5t90.5 168.5q0 103 -80 159t-239 56q-96 0 -197.5 -15.5t-192.5 -44.5v215q86 27 198 42.5t217 15.5q284 0 431 -106.5t147 -300.5 q0 -125 -72.5 -214.5t-197.5 -128.5q156 -30 240 -121t84 -239q0 -211 -158 -327.5t-485 -116.5q-117 0 -230 15.5t-213 44.5z" />
<glyph unicode="4" horiz-adv-x="1419" d="M46 323v156l614 1037h288l-569 -964h509l28 452h240v-452h222v-229h-222v-323h-268v323h-842z" />
<glyph unicode="5" horiz-adv-x="1236" d="M86 45v214q100 -29 212.5 -45t217.5 -16q196 0 288.5 62.5t92.5 184.5q0 80 -45 131t-156 80.5t-311 40.5l-241 13l58 806h906v-217h-644l-29 -390l31 -2q257 -13 412.5 -67.5t225.5 -150.5t70 -239q0 -228 -160.5 -348.5t-484.5 -120.5q-116 0 -229 16.5t-214 47.5z" />
<glyph unicode="6" horiz-adv-x="1395" d="M130 705q0 407 194.5 618.5t571.5 211.5q207 0 347 -52v-219q-71 27 -158 40.5t-170 13.5q-488 0 -499 -510q75 42 175 66.5t200 24.5q251 0 392 -114t141 -343q0 -142 -66.5 -246t-192 -159.5t-298.5 -55.5q-197 0 -339.5 78.5t-220 240.5t-77.5 405zM417 611 q9 -227 97 -326t253 -99q135 0 212.5 63.5t77.5 186.5q0 129 -83 193t-240 64q-81 0 -164.5 -21t-152.5 -61z" />
<glyph unicode="7" horiz-adv-x="1147" d="M14 1282v234h1072v-153l-577 -1363h-302l562 1282h-755z" />
<glyph unicode="8" horiz-adv-x="1511" d="M106 376q0 131 77 227.5t220 149.5q-130 63 -188 153.5t-58 210.5q0 126 69 220t207 146t341 52q183 0 313 -45.5t197 -131t67 -204.5q0 -251 -260 -362q165 -62 237.5 -153.5t72.5 -222.5q0 -127 -69.5 -225.5t-213.5 -154t-357 -55.5q-333 0 -494 104t-161 291z M383 416q0 -116 94.5 -176t285.5 -60q183 0 273 56t90 161q0 68 -37 114.5t-126.5 81.5t-248.5 64q-53 9 -115 26q-110 -44 -163 -113.5t-53 -153.5zM435 1128q0 -70 35.5 -116.5t125.5 -84t257 -70.5l25 -5q114 51 164.5 116t50.5 153q0 104 -83 159t-244 55 q-168 0 -249.5 -55t-81.5 -152z" />
<glyph unicode="9" horiz-adv-x="1395" d="M72 1073q0 142 66.5 246t192 160t298.5 56q196 0 339 -79t220.5 -240.5t77.5 -404.5q0 -407 -194.5 -618.5t-571.5 -211.5q-207 0 -347 52v219q71 -27 157.5 -40.5t169.5 -13.5q488 0 500 510q-75 -42 -175 -67t-200 -25q-252 0 -392.5 114.5t-140.5 342.5zM339 1079 q0 -129 83 -193t240 -64q81 0 164 21t153 61q-9 227 -97 326t-253 99q-135 0 -212.5 -63.5t-77.5 -186.5z" />
<glyph unicode=":" horiz-adv-x="598" d="M110 155q0 80 50 126t139 46t139 -47t50 -125t-50.5 -124t-138.5 -46t-138.5 45.5t-50.5 124.5zM110 961q0 80 50 126t139 46t139 -47t50 -125t-50.5 -124t-138.5 -46t-138.5 45.5t-50.5 124.5z" />
<glyph unicode=";" horiz-adv-x="598" d="M110 156q0 79 49 125t136 46q94 0 142.5 -56t48.5 -168q0 -117 -39 -233t-108 -210h-163q44 95 68 173t30 153q-78 6 -121 51.5t-43 118.5zM110 961q0 80 50 126t139 46t139 -47t50 -125t-50.5 -124t-138.5 -46t-138.5 45.5t-50.5 124.5z" />
<glyph unicode="&#x3c;" horiz-adv-x="1183" d="M153 647v262l878 335v-222l-658 -241l658 -246v-223z" />
<glyph unicode="=" horiz-adv-x="1183" d="M153 445v219h878v-219h-878zM153 893v218h878v-218h-878z" />
<glyph unicode="&#x3e;" horiz-adv-x="1183" d="M153 312v223l658 246l-658 241v222l878 -335v-262z" />
<glyph unicode="?" horiz-adv-x="1102" d="M46 1250v227q85 27 196.5 42.5t218.5 15.5q284 0 430 -107t146 -306q0 -167 -102 -271.5t-319 -168.5l-20 -247h-176l-50 391q145 30 229.5 70t120 90.5t35.5 118.5q0 99 -80.5 153t-241.5 54q-95 0 -195.5 -16t-191.5 -46zM318 144q0 75 50.5 118t139.5 43t139.5 -44 t50.5 -117t-51 -116t-139 -43t-139 43t-51 116z" />
<glyph unicode="@" horiz-adv-x="2326" d="M112 532q0 499 272 750.5t786 251.5q338 0 571.5 -107.5t353.5 -318t120 -516.5q0 -317 -124.5 -464t-344.5 -147q-234 0 -321 153h-17q-47 -76 -140.5 -114.5t-207.5 -38.5q-128 0 -218 38.5t-136 110.5t-46 169q0 152 116 235t365 104l262 26v11q0 90 -31.5 141 t-96 72.5t-171.5 21.5q-76 0 -167 -14.5t-171 -42.5v211q86 29 187 44t197 15q187 0 304 -43.5t174.5 -143.5t57.5 -271v-359q0 -79 32 -113t96 -34q205 0 204 412q0 397 -208 588.5t-640 191.5q-287 0 -474 -87t-279.5 -267.5t-92.5 -461.5q0 -287 95 -468.5t291.5 -268 t506.5 -86.5q250 0 503 58v-185q-246 -56 -503 -56q-546 1 -825.5 251t-279.5 752zM948 324q0 -73 51.5 -110.5t144.5 -37.5q66 0 138.5 24.5t120.5 69.5v236l-240 -23q-114 -12 -164.5 -49.5t-50.5 -109.5z" />
<glyph unicode="A" horiz-adv-x="1652" d="M32 0l583 1516h422l584 -1516h-293l-162 433h-683l-162 -433h-289zM567 658h514l-257 685z" />
<glyph unicode="B" horiz-adv-x="1473" d="M174 14v1463q117 27 251 41.5t267 14.5q348 0 507.5 -105.5t159.5 -314.5q0 -125 -67 -212.5t-191 -119.5q145 -26 222.5 -117.5t77.5 -237.5q0 -144 -74.5 -241.5t-245 -148.5t-453.5 -51q-105 0 -224.5 7.5t-229.5 21.5zM463 206q103 -13 238 -13q164 0 258.5 27 t132.5 79.5t38 136.5q0 123 -80 179t-260 56h-327v-465zM463 882h298q167 0 244 53t77 167q0 79 -35 128t-114 72t-210 23h-11q-134 0 -249 -23v-420z" />
<glyph unicode="C" horiz-adv-x="1422" d="M112 755q0 253 101 427.5t295.5 263.5t473.5 89q194 0 375 -43v-240q-170 41 -355 41q-294 0 -437.5 -130t-143.5 -404q0 -281 141 -409t423 -128q189 0 372 51v-239q-180 -53 -389 -53q-416 0 -636 189.5t-220 584.5z" />
<glyph unicode="D" horiz-adv-x="1716" d="M174 15v1462q112 26 253.5 39.5t271.5 13.5q905 0 906 -772q0 -267 -107 -437t-321.5 -251.5t-543.5 -81.5h-17q-232 0 -442 27zM469 236q99 -12 237 -13q306 0 451.5 129.5t145.5 407.5q0 274 -147 404.5t-447 130.5q-111 0 -240 -21v-1038z" />
<glyph unicode="E" d="M174 0v1516h1151v-225h-859v-403h753v-224h-753v-440h869v-224h-1161z" />
<glyph unicode="F" horiz-adv-x="1398" d="M174 0v1516h1146v-231h-851v-421h741v-230h-741v-634h-295z" />
<glyph unicode="G" horiz-adv-x="1632" d="M112 753q0 254 107.5 429t312.5 264t497 89q187 0 381 -43v-240q-176 41 -359 41q-314 -1 -473 -132.5t-159 -407.5q0 -529 606 -530q83 0 160 6v508h276v-717q-115 -18 -215 -26.5t-206 -8.5q-464 0 -695.5 193t-232.5 575z" />
<glyph unicode="H" horiz-adv-x="1734" d="M174 0v1516h295v-613h797v613h295v-1516h-295v649h-797v-649h-295z" />
<glyph unicode="I" horiz-adv-x="643" d="M174 0v1516h295v-1516h-295z" />
<glyph unicode="J" horiz-adv-x="643" d="M-5 -232q97 116 139 241t42 293v1214h293v-1222q-5 -191 -70.5 -345t-219.5 -307z" />
<glyph unicode="K" horiz-adv-x="1479" d="M174 0v1516h295v-613h209l459 613h315l-548 -734l596 -782h-328l-495 649h-208v-649h-295z" />
<glyph unicode="L" horiz-adv-x="1301" d="M174 0v1516h295v-1282h815v-234h-1110z" />
<glyph unicode="M" horiz-adv-x="2082" d="M178 0v1516h354l515 -1022l504 1022h355v-1516h-277v1142l-461 -926h-253l-460 901v-1117h-277z" />
<glyph unicode="N" horiz-adv-x="1754" d="M174 0v1516h298l830 -1112v1112h278v-1516h-298l-829 1111v-1111h-279z" />
<glyph unicode="O" horiz-adv-x="1786" d="M112 758q0 251 95.5 425.5t271 263t414.5 88.5q240 0 416 -89t271 -263.5t95 -424.5t-96 -424.5t-271.5 -263.5t-414.5 -89q-240 0 -415.5 88.5t-270.5 263t-95 425.5zM413 764q0 -280 125.5 -414t354.5 -134t354.5 133t125.5 403q0 278 -126.5 412.5t-353.5 134.5 t-353.5 -132.5t-126.5 -402.5z" />
<glyph unicode="P" horiz-adv-x="1464" d="M174 0v1487q121 24 238.5 35t249.5 11q355 0 532 -130t177 -406q0 -538 -702 -538h-3q-77 0 -197 7v-466h-295zM469 683q94 -13 199 -13q147 0 238.5 34.5t134 106.5t42.5 185q0 169 -96.5 247.5t-299.5 78.5q-116 0 -218 -17v-622z" />
<glyph unicode="Q" horiz-adv-x="1786" d="M112 746q0 256 95.5 433t271 266.5t414.5 89.5q240 0 415.5 -88t271 -262t95.5 -427q0 -315 -148 -509.5t-437 -236.5q243 -57 566 -90l-42 -225q-577 71 -906 209.5t-462.5 343t-133.5 496.5zM413 764q0 -282 124.5 -415t355.5 -133q229 0 354.5 133t125.5 403 q0 278 -126.5 412.5t-353.5 134.5t-353.5 -132.5t-126.5 -402.5z" />
<glyph unicode="R" horiz-adv-x="1537" d="M174 0v1477q111 26 244 41t261 15q346 0 515.5 -114t169.5 -360q0 -169 -91 -280t-266 -161l487 -618h-330l-451 579h-36q-95 0 -213 8v-587h-290zM464 803q117 -12 225 -12q208 0 304 64t96 202q0 96 -40.5 154.5t-125 85t-221.5 26.5q-119 0 -238 -23v-497z" />
<glyph unicode="S" horiz-adv-x="1305" d="M83 1084q0 215 167 333t492 118q222 0 404 -51v-236q-86 27 -190 41.5t-208 14.5q-196 0 -284.5 -54t-88.5 -155q0 -56 22.5 -94t75 -64t145.5 -44l114 -22q176 -35 284 -92.5t157.5 -141.5t49.5 -199q0 -143 -76.5 -246t-221 -157t-343.5 -54h-7q-246 0 -460 68v236 q104 -35 232 -54t238 -19q182 0 264 53.5t82 158.5q0 58 -26 96.5t-85 64t-164 46.5l-113 21q-241 47 -350.5 152t-109.5 280z" />
<glyph unicode="T" d="M22 1281v235h1390v-235h-548v-1281h-295v1281h-547z" />
<glyph unicode="U" horiz-adv-x="1698" d="M167 650v866h295v-891q0 -210 95.5 -308t294.5 -98q200 0 295.5 98t95.5 308v891h290v-866q0 -336 -165 -502.5t-516 -166.5q-354 0 -519.5 166.5t-165.5 502.5z" />
<glyph unicode="V" horiz-adv-x="1618" d="M14 1516h314l489 -1297l495 1297h293l-583 -1516h-425z" />
<glyph unicode="W" horiz-adv-x="2588" d="M52 1516h300l381 -1260l403 1260h331l397 -1272l389 1272h283l-473 -1516h-376l-390 1232l-395 -1232h-376z" />
<glyph unicode="X" horiz-adv-x="1524" d="M-19 0l605 779l-576 737h335l419 -538l418 538h322l-569 -732l609 -784h-334l-453 586l-452 -586h-324z" />
<glyph unicode="Y" d="M-41 1516h320l445 -631l436 631h299l-593 -864v-652h-295v649z" />
<glyph unicode="Z" horiz-adv-x="1411" d="M80 0v160l855 1122h-844v234h1229v-160l-856 -1123h868v-233h-1252z" />
<glyph unicode="[" horiz-adv-x="793" d="M195 -451v2106h629v-230h-341v-1646h331v-230h-619z" />
<glyph unicode="\" horiz-adv-x="879" d="M0 1655h292l588 -1901h-292z" />
<glyph unicode="]" horiz-adv-x="793" d="M-31 1425v230h631v-2106h-619v230h330v1646h-342z" />
<glyph unicode="^" horiz-adv-x="1361" d="M73 758l456 758h301l459 -758h-294l-314 523l-314 -523h-294z" />
<glyph unicode="_" horiz-adv-x="1376" d="M97 -1h1183v-229h-1183v229z" />
<glyph unicode="`" horiz-adv-x="1228" d="M164 1655h321l268 -385h-277z" />
<glyph unicode="a" horiz-adv-x="1264" d="M95 299q0 154 118 238.5t373 102.5l252 24v22q0 91 -32 142t-98 72.5t-178 21.5q-78 0 -169.5 -13t-173.5 -39v210q86 27 190 41t200 14q191 0 309.5 -44t176 -146.5t57.5 -279.5v-665h-240l-20 113h-14q-61 -63 -153.5 -97.5t-197.5 -34.5q-128 0 -218 39.5t-136 111.5 t-46 167zM383 322q0 -70 49 -109t148 -39q70 0 136.5 23.5t121.5 70.5v233l-229 -21q-122 -12 -174 -50.5t-52 -107.5z" />
<glyph unicode="b" horiz-adv-x="1402" d="M157 42v1613h288v-650h14q66 63 154.5 96.5t198.5 33.5q140 0 252 -59.5t177 -183t65 -307.5q0 -298 -172 -451.5t-508 -153.5q-261 0 -469 62zM445 224q91 -25 199 -25h8q185 0 275.5 89.5t90.5 274.5q0 178 -80 258.5t-222 80.5q-77 0 -147 -24.5t-124 -74.5v-579z" />
<glyph unicode="c" horiz-adv-x="1107" d="M96 556q0 284 168.5 431.5t491.5 147.5q162 0 291 -34v-224q-74 15 -136 22t-129 7q-201 0 -295.5 -84.5t-94.5 -263.5q0 -178 91 -264t271 -86q67 0 135 10t158 35v-225q-146 -48 -323 -48q-305 0 -466.5 146t-161.5 430z" />
<glyph unicode="d" horiz-adv-x="1402" d="M96 535q0 194 76 328.5t220.5 204t348.5 69.5q93 0 216 -17v535h289v-1655h-241l-17 121h-15q-65 -66 -156.5 -102.5t-201.5 -36.5q-150 0 -267 58.5t-184.5 182.5t-67.5 312zM384 555q0 -341 305 -341q77 0 147 26.5t121 84.5v570q-91 21 -189 21h-9q-189 0 -282 -89 t-93 -272z" />
<glyph unicode="e" horiz-adv-x="1260" d="M96 556q0 182 65 312t190.5 198.5t301.5 68.5q256 0 391.5 -153t135.5 -434v-71h-797q6 -103 48.5 -166t130.5 -92.5t234 -29.5q142 0 317 40v-207q-178 -42 -359 -42q-333 0 -495.5 140.5t-162.5 435.5zM382 641h529q-4 160 -69.5 236t-193.5 76t-195 -76t-71 -236z" />
<glyph unicode="f" horiz-adv-x="905" d="M38 888v229h213v73q0 154 61 263t177 165.5t282 56.5q84 0 180 -13v-224q-68 10 -137 10q-142 0 -208 -59t-66 -188v-84h360v-229h-360v-888h-289v888h-213z" />
<glyph unicode="g" horiz-adv-x="1402" d="M96 535q0 290 173 445t508 155q119 0 243 -16.5t226 -46.5v-969q0 -201 -69.5 -327.5t-212.5 -186.5t-365 -60q-226 0 -424 55v225q217 -60 406 -61q135 0 217.5 31t120.5 97t38 174v75h-14q-66 -63 -155 -96.5t-197 -33.5q-139 0 -251.5 60t-178 181.5t-65.5 298.5z M384 558q0 -174 80.5 -252.5t222.5 -78.5q76 0 146.5 24.5t123.5 75.5v565q-92 23 -196 23h-9q-368 0 -368 -357z" />
<glyph unicode="h" horiz-adv-x="1394" d="M157 0v1655h288v-651h14q73 65 168 98t200 33q195 0 309.5 -114t114.5 -351v-670h-288v654q0 127 -57.5 181.5t-168.5 54.5q-82 0 -159 -30t-133 -87v-773h-288z" />
<glyph unicode="i" horiz-adv-x="602" d="M119 1454q0 72 45.5 110t136.5 38q90 0 135.5 -38t45.5 -110t-45.5 -109t-135.5 -37q-91 0 -136.5 37t-45.5 109zM157 0v1117h288v-1117h-288z" />
<glyph unicode="j" horiz-adv-x="602" d="M-25 -356q97 116 139.5 241t42.5 293v939h288v-929q0 -195 -67 -354t-220 -314zM113 1460q0 72 45.5 110t136.5 38q90 0 135.5 -38t45.5 -110t-45.5 -109t-135.5 -37q-91 0 -136.5 37t-45.5 109z" />
<glyph unicode="k" horiz-adv-x="1314" d="M157 0v1655h288v-964h202l342 426h314l-421 -537l456 -580h-318l-371 455h-204v-455h-288z" />
<glyph unicode="l" horiz-adv-x="602" d="M157 0v1655h288v-1655h-288z" />
<glyph unicode="m" horiz-adv-x="2030" d="M157 0v1117h237l19 -117h14q67 65 157 100t194 35t185 -38t132 -115q85 80 183 116.5t200 36.5q191 0 299.5 -113.5t108.5 -351.5v-670h-287v654q0 126 -51.5 181.5t-145.5 55.5q-71 0 -132.5 -25.5t-107.5 -78.5q7 -50 7 -114v-673h-283v654q0 127 -48 182t-142 55 q-73 0 -138 -31t-113 -89v-771h-288z" />
<glyph unicode="n" horiz-adv-x="1394" d="M157 0v1117h237l19 -117h14q76 65 175.5 100t211.5 35q204 0 320.5 -114.5t116.5 -354.5v-666h-288v652q0 128 -57 183.5t-169 55.5q-80 0 -158 -30t-134 -88v-773h-288z" />
<glyph unicode="o" horiz-adv-x="1377" d="M96 558q0 187 71.5 316.5t204 195t316.5 65.5q185 0 318 -65t203.5 -193.5t70.5 -318.5q0 -185 -73 -315t-207 -196.5t-312 -66.5q-180 0 -313 65.5t-206 195.5t-73 317zM384 559q0 -356 304 -356t304 354q0 184 -77.5 268.5t-226.5 84.5q-147 0 -225.5 -84t-78.5 -267z " />
<glyph unicode="p" horiz-adv-x="1402" d="M157 -451v1568h241l18 -122h13q66 66 157.5 103t200.5 37q150 0 266 -58t184.5 -182t68.5 -313q0 -194 -75.5 -329t-220.5 -204t-350 -69q-83 0 -215 15v-446h-288zM445 221q89 -21 190 -21h9q190 0 282 89t92 272q0 341 -305 341q-77 0 -146.5 -26.5t-121.5 -83.5v-571z " />
<glyph unicode="q" horiz-adv-x="1402" d="M96 529q0 298 172 452t509 154q119 0 243 -16.5t226 -46.5v-1523h-289v561h-14q-66 -63 -155 -96.5t-197 -33.5q-140 0 -252 59t-177.5 182.5t-65.5 307.5zM384 551q0 -339 303 -339q77 0 147 24.5t123 74.5v581q-92 23 -197 23h-9q-367 0 -367 -364z" />
<glyph unicode="r" horiz-adv-x="897" d="M157 0v1117h236l23 -138h14q57 73 148.5 112t195.5 39q58 0 109 -9v-256q-50 9 -124 9q-86 0 -173 -30.5t-141 -90.5v-753h-288z" />
<glyph unicode="s" horiz-adv-x="1133" d="M96 783q0 164 139 258t423 94q89 0 178 -11.5t159 -30.5v-202q-156 44 -335 44q-162 0 -225 -37t-63 -102q0 -47 30.5 -77t107.5 -43l209 -31q174 -26 257 -98.5t83 -216.5q0 -109 -61 -188t-181.5 -120.5t-294.5 -41.5q-227 0 -402 50v201q190 -53 401 -53q140 0 201 35 t61 102q0 52 -30.5 80t-111.5 40l-209 31q-178 27 -257 105.5t-79 211.5z" />
<glyph unicode="t" horiz-adv-x="941" d="M30 888v229h213l51 399h237v-399h361v-229h-361v-438q0 -129 55.5 -183.5t174.5 -54.5q57 0 142 16v-224q-106 -24 -212 -24h-8q-216 0 -328 103t-112 312v493h-213z" />
<glyph unicode="u" horiz-adv-x="1384" d="M143 446v671h289v-655q0 -127 56.5 -182t162.5 -55q79 0 156 30.5t132 87.5v774h289v-1117h-238l-18 114h-13q-76 -63 -172 -97.5t-200 -34.5q-207 0 -325.5 113t-118.5 351z" />
<glyph unicode="v" horiz-adv-x="1320" d="M10 1117h306l356 -870l355 870h284l-475 -1117h-353z" />
<glyph unicode="w" horiz-adv-x="2038" d="M75 1117h280l247 -832l259 832h329l254 -825l252 825h268l-344 -1117h-329l-269 861l-272 -861h-329z" />
<glyph unicode="x" horiz-adv-x="1266" d="M13 0l451 562l-441 555h325l289 -362l288 362h315l-439 -550l452 -567h-324l-298 375l-300 -375h-318z" />
<glyph unicode="y" horiz-adv-x="1320" d="M10 1117h306l353 -878l358 878h284l-667 -1568h-284l193 451h-70z" />
<glyph unicode="z" horiz-adv-x="1170" d="M83 0v185l622 703h-610v229h996v-185l-622 -703h633v-229h-1019z" />
<glyph unicode="{" horiz-adv-x="834" d="M26 527v230h53q76 0 116.5 40t40.5 117v348q0 204 114.5 308.5t340.5 104.5q91 0 174 -12v-221h-128q-109 0 -161 -45.5t-52 -151.5v-331q0 -111 -46 -178t-145 -93q99 -27 145 -94t46 -178v-412q0 -105 52.5 -151t160.5 -46h128v-221q-83 -12 -174 -12 q-226 0 -340.5 105t-114.5 309v428q0 78 -40.5 117t-116.5 39h-53z" />
<glyph unicode="|" horiz-adv-x="611" d="M174 -451v2106h264v-2106h-264z" />
<glyph unicode="}" horiz-adv-x="834" d="M-31 -238h128q109 0 161.5 46t52.5 151v412q0 112 46 178.5t145 93.5q-98 26 -144.5 93t-46.5 178v331q0 105 -52.5 151t-161.5 46h-128v221q83 12 175 12q225 0 340.5 -105t115.5 -308v-348q0 -79 40 -118t117 -39h53v-230h-53q-77 0 -117 -38.5t-40 -117.5v-428 q0 -204 -115 -309t-341 -105q-92 0 -175 12v221z" />
<glyph unicode="~" horiz-adv-x="1183" d="M153 616v228q45 50 103.5 74.5t134.5 24.5q55 0 103.5 -16t120.5 -48q57 -28 98 -42t81 -14q69 0 125.5 27t111.5 85v-228q-46 -50 -105 -74.5t-133 -24.5q-56 0 -106 17t-120 49q-59 28 -98.5 41t-78.5 13q-69 0 -126 -27t-111 -85z" />
<glyph unicode="&#xa1;" horiz-adv-x="638" d="M130 962q0 79 50.5 125t138.5 46q89 0 139.5 -47t50.5 -124q0 -78 -50 -124.5t-140 -46.5q-89 0 -139 46t-50 125zM168 136l64 515h178l61 -515v-525h-303v525z" />
<glyph unicode="&#xa2;" horiz-adv-x="1120" d="M96 556q0 239 120 381.5t351 182.5v243h252v-229q124 -6 228 -33v-224q-76 15 -137.5 22t-128.5 7q-201 0 -295 -84.5t-94 -263.5q0 -178 91 -264t271 -86q67 0 135 10t158 35v-225q-101 -34 -228 -44v-230h-252v237q-230 35 -350.5 177.5t-120.5 387.5z" />
<glyph unicode="&#xa3;" horiz-adv-x="1533" d="M87 0v224h234v441h-234v206h234v140q0 264 166.5 394t502.5 130q216 0 399 -48v-237q-85 26 -188 40t-200 14q-144 0 -230 -27.5t-126.5 -88t-40.5 -163.5v-154h557v-206h-557v-441h839v-224h-1356z" />
<glyph unicode="&#xa4;" horiz-adv-x="1361" d="M135 1166l136 137l122 -126l89 -106q85 53 199 53q113 0 199 -53l88 106l123 126l136 -137l-127 -122l-106 -89q50 -87 50 -197q0 -112 -50 -199l106 -88l126 -122l-136 -136l-123 126l-87 103q-85 -53 -199 -53t-200 53l-87 -103l-123 -126l-135 136l125 122l107 88 q-50 86 -51 199q0 111 51 197l-107 89zM480 758q0 -67 25.5 -115.5t71.5 -74.5t104 -26t103.5 25.5t71.5 74.5t26 116q0 62 -24 111.5t-69.5 77t-105.5 27.5q-59 0 -105.5 -26t-72 -75t-25.5 -115z" />
<glyph unicode="&#xa5;" horiz-adv-x="1454" d="M-29 1516h320l443 -631l438 631h299l-493 -716h242v-169h-343v-189h343v-169h-343v-273h-295v273h-343v169h343v189h-343v169h237z" />
<glyph unicode="&#xa6;" horiz-adv-x="611" d="M174 348h264v-799h-264v799zM174 856v799h264v-799h-264z" />
<glyph unicode="&#xa7;" horiz-adv-x="1274" d="M127 781q0 133 114 221q-74 71 -74 184q0 163 137.5 255t434.5 92q80 0 162 -9.5t153 -25.5v-192q-143 36 -294 35q-185 0 -258 -37t-73 -102q0 -49 32.5 -79.5t108.5 -44.5l259 -40q159 -25 238.5 -98.5t79.5 -203.5q0 -138 -119 -228q69 -69 69 -181q0 -165 -136 -256 t-411 -91q-97 0 -196.5 11.5t-184.5 34.5v192q179 -47 380 -47q157 0 221 35t64 101q0 53 -32 82.5t-112 42.5l-247 41q-316 54 -316 308zM370 800q0 -54 36 -90.5t123 -52.5l248 -42q33 -5 77 -16q27 25 39 51.5t12 58.5q0 59 -37 94t-127 50l-246 42q-48 9 -77 16 q-48 -49 -48 -111z" />
<glyph unicode="&#xa8;" horiz-adv-x="1228" d="M185 1454q0 69 39.5 107t118.5 38t119 -38t40 -107t-40 -106.5t-119 -37.5t-118.5 37.5t-39.5 106.5zM727 1454q0 69 40 107t119 38t119 -38t40 -107t-40 -106.5t-119 -37.5t-119 37.5t-40 106.5z" />
<glyph unicode="&#xa9;" horiz-adv-x="1753" d="M112 758q0 232 95 408.5t268.5 274t401.5 97.5q227 0 400.5 -97.5t268.5 -274t95 -408.5t-95 -409t-268.5 -274.5t-400.5 -97.5q-228 0 -401.5 97.5t-268.5 274t-95 409.5zM266 758q0 -191 74 -333.5t211.5 -220t325.5 -77.5q187 0 324.5 77.5t211.5 219.5t74 334 q0 191 -74 333.5t-211.5 220t-324.5 77.5t-325 -77.5t-212 -220t-74 -333.5zM504 751q0 132 53 226.5t153.5 144t239.5 49.5q106 0 197 -25v-169q-101 22 -180 21q-263 0 -264 -245q0 -123 64 -185.5t182 -62.5q45 0 91.5 7.5t106.5 25.5v-169q-89 -37 -215 -37 q-130 0 -226.5 48.5t-149 142.5t-52.5 228z" />
<glyph unicode="&#xaa;" horiz-adv-x="1065" d="M68 865q0 126 95 192t303 80l222 17v28q0 61 -24 96t-78.5 50t-149.5 15q-68 0 -144.5 -10t-145.5 -30v186q76 23 164 33.5t170 10.5q168 0 271.5 -37t154 -122.5t50.5 -231.5v-517h-225l-19 91h-14q-49 -51 -126.5 -79.5t-165.5 -28.5q-167 0 -252.5 70t-85.5 187z M334 892q0 -53 39 -83t120 -30q52 0 103 17t92 49v180l-180 -14q-93 -8 -133.5 -37.5t-40.5 -81.5z" />
<glyph unicode="&#xab;" horiz-adv-x="1358" d="M109 579l317 441h303l-317 -441l317 -441h-303zM671 579l317 441h303l-317 -441l317 -441h-303z" />
<glyph unicode="&#xac;" horiz-adv-x="1460" d="M153 669v219h1164v-681h-230v462h-934z" />
<glyph unicode="&#xad;" horiz-adv-x="1069" d="M153 461v236h763v-236h-763z" />
<glyph unicode="&#xae;" horiz-adv-x="1542" d="M146 903q0 184 79 327.5t221 223.5t325 80t325 -80t221 -223.5t79 -327.5t-79 -327t-221 -222.5t-325 -79.5t-325 79.5t-221 222.5t-79 327zM271 903q0 -154 61.5 -269.5t175 -178.5t263.5 -63t263 63t175 179t62 269q0 155 -62 270.5t-175 179t-263 63.5 q-151 0 -264 -63.5t-174.5 -179t-61.5 -270.5zM550 614v607h210q130 0 195.5 -51t65.5 -149q0 -138 -127 -179l156 -228h-137l-144 209h-9h-84l-3 -209h-123zM676 926h104q60 0 90 23.5t30 71.5q0 97 -120 97h-104v-192z" />
<glyph unicode="&#xaf;" horiz-adv-x="1228" d="M236 1372v167h757v-167h-757z" />
<glyph unicode="&#xb0;" horiz-adv-x="1063" d="M146 1153q0 110 50 196.5t137.5 135.5t197.5 49q111 0 199 -49t138 -135.5t50 -196.5t-50 -197t-138 -136t-199 -49q-110 0 -197.5 49t-137.5 136t-50 197zM324 1153q0 -65 26.5 -114t74 -75t106.5 -26q61 0 108.5 26t74 75.5t26.5 113.5q0 66 -27 114t-74 74t-108 26 q-59 0 -106 -26t-74 -74t-27 -114z" />
<glyph unicode="&#xb1;" horiz-adv-x="1183" d="M153 0v218h878v-218h-878zM153 684v218h324v309h230v-309h324v-218h-324v-308h-230v308h-324z" />
<glyph unicode="&#xb2;" horiz-adv-x="927" d="M71 676v181q60 19 139 30t164 11q214 0 319 -73t105 -223q0 -84 -41.5 -160.5t-140.5 -178.5l-216 -221h455v-181h-772v117l342 360q78 82 110 135.5t32 103.5q0 74 -52 109t-170 35q-72 0 -144 -13t-130 -32z" />
<glyph unicode="&#xb3;" horiz-adv-x="927" d="M68 53q73 -22 152 -32.5t151 -10.5q131 0 191.5 39t60.5 114q0 70 -53.5 105t-170.5 35h-201v164h150q119 0 175.5 34t56.5 101q0 63 -54 98.5t-162 35.5q-65 0 -137.5 -11t-134.5 -32v166q57 17 137.5 28t156.5 11q206 0 311 -72t105 -208q0 -82 -47.5 -141t-130.5 -85 q102 -21 159 -82.5t57 -159.5q0 -144 -112 -223.5t-346 -79.5q-170 0 -314 40v166z" />
<glyph unicode="&#xb4;" horiz-adv-x="1228" d="M476 1270l269 385h320l-312 -385h-277z" />
<glyph unicode="&#xb5;" horiz-adv-x="1384" d="M143 -451v1567h289v-654q0 -127 56.5 -182t162.5 -55q79 0 156 30.5t132 87.5v774h289v-1117h-238l-18 114h-13q-67 -63 -150.5 -97.5t-173.5 -34.5q-123 0 -203 53v-486h-289z" />
<glyph unicode="&#xb6;" horiz-adv-x="1464" d="M93 997q0 275 127 405.5t386 130.5q173 0 332 -17v-1516h-208v466q-75 -7 -134 -7q-255 0 -379 135.5t-124 402.5zM1082 0v1516h208v-1516h-208z" />
<glyph unicode="&#xb7;" horiz-adv-x="598" d="M110 572q0 80 50 126t139 46t139 -46.5t50 -125.5q0 -78 -50.5 -124.5t-138.5 -46.5t-138.5 46.5t-50.5 124.5z" />
<glyph unicode="&#xb8;" horiz-adv-x="1228" d="M417 -295q42 -18 92.5 -27.5t95.5 -9.5q57 0 86 18t29 58q0 41 -28.5 59t-86.5 18h-52v199h138v-113q89 -11 134.5 -56.5t45.5 -117.5q0 -83 -65.5 -129t-187.5 -46q-55 0 -108 9t-93 26v112z" />
<glyph unicode="&#xb9;" horiz-adv-x="927" d="M139 42h257v597l-257 -169v201l333 218h159v-847h242v-181h-734v181z" />
<glyph unicode="&#xba;" horiz-adv-x="1167" d="M73 1073q0 146 61 249.5t175.5 157t274.5 53.5q159 0 274 -53.5t176.5 -156.5t61.5 -250q0 -146 -61.5 -250.5t-177 -159.5t-273.5 -55q-159 0 -274 55t-176 159.5t-61 250.5zM340 1073q0 -131 64.5 -196t179.5 -65t179 65t64 196t-63.5 193.5t-179.5 62.5t-180 -62.5 t-64 -193.5z" />
<glyph unicode="&#xbb;" horiz-adv-x="1358" d="M68 138l317 441l-317 441h303l317 -441l-317 -441h-303zM630 138l317 441l-317 441h303l317 -441l-317 -441h-303z" />
<glyph unicode="&#xbc;" horiz-adv-x="2264" d="M139 631v181h257v597l-257 -169v201l333 218h159v-847h242v-181h-734zM562 -139l898 1794h242l-897 -1794h-243zM1363 69v121l362 695h214l-333 -639h285l33 293h173v-293h144v-177h-144v-208h-206v208h-528z" />
<glyph unicode="&#xbd;" horiz-adv-x="2264" d="M139 631v181h257v597l-257 -169v201l333 218h159v-847h242v-181h-734zM562 -139l898 1794h242l-897 -1794h-243zM1407 676v181q60 19 139 30t164 11q214 0 319 -73t105 -223q0 -84 -41.5 -160.5t-140.5 -178.5l-216 -221h455v-181h-772v117l342 360q78 82 110 135.5 t32 103.5q0 74 -52 109t-170 35q-72 0 -144 -13t-130 -32z" />
<glyph unicode="&#xbe;" horiz-adv-x="2264" d="M68 657v166q73 -22 152 -32.5t151 -10.5q131 0 191.5 39t60.5 114q0 70 -53.5 105t-170.5 35h-201v164h150q119 0 175.5 34t56.5 101q0 63 -54 98.5t-162 35.5q-65 0 -137.5 -11t-134.5 -32v166q57 17 137.5 28t156.5 11q206 0 311 -72t105 -207q0 -82 -47.5 -141.5 t-130.5 -85.5q102 -21 159 -82.5t57 -159.5q0 -144 -112 -223.5t-346 -79.5q-170 0 -314 40zM562 -139l898 1794h242l-897 -1794h-243zM1363 69v121l362 695h214l-333 -639h285l33 293h173v-293h144v-177h-144v-208h-206v208h-528z" />
<glyph unicode="&#xbf;" horiz-adv-x="1102" d="M66 -2q0 165 102 269.5t318 167.5l21 246h176l50 -390q-145 -30 -229.5 -70t-120 -90t-35.5 -116q0 -95 81 -148t241 -53q94 0 195.5 15.5t191.5 45.5v-226q-86 -27 -197 -43t-218 -16q-284 0 -430 106.5t-146 301.5zM404 973q0 72 51.5 116t138.5 44q88 0 139 -43 t51 -117q0 -75 -50.5 -118t-139.5 -43t-139.5 44t-50.5 117z" />
<glyph unicode="&#xc0;" horiz-adv-x="1652" d="M32 0l583 1516h422l584 -1516h-293l-162 433h-683l-162 -433h-289zM431 1942h311l217 -304h-267zM567 658h514l-257 685z" />
<glyph unicode="&#xc1;" horiz-adv-x="1652" d="M32 0l583 1516h422l584 -1516h-293l-162 433h-683l-162 -433h-289zM567 658h514l-257 685zM690 1638l218 304h310l-261 -304h-267z" />
<glyph unicode="&#xc2;" horiz-adv-x="1652" d="M32 0l583 1516h422l584 -1516h-293l-162 433h-683l-162 -433h-289zM384 1638l318 304h248l317 -304h-245l-196 193l-197 -193h-245zM567 658h514l-257 685z" />
<glyph unicode="&#xc3;" horiz-adv-x="1652" d="M32 0l583 1516h422l584 -1516h-293l-162 433h-683l-162 -433h-289zM422 1683v160q42 37 94 54t124 17q51 0 94.5 -10.5t107.5 -29.5q55 -17 94.5 -26.5t80.5 -9.5q65 0 114 16.5t98 52.5v-161q-42 -36 -94 -53t-124 -17q-50 0 -92.5 9.5t-109.5 29.5q-55 17 -94.5 26.5 t-80.5 9.5q-65 0 -113.5 -16t-98.5 -52zM567 658h514l-257 685z" />
<glyph unicode="&#xc4;" horiz-adv-x="1652" d="M32 0l583 1516h422l584 -1516h-293l-162 433h-683l-162 -433h-289zM384 1793q0 61 39 95.5t117 34.5q77 0 116 -34.5t39 -95.5t-38.5 -95t-116.5 -34t-117 34t-39 95zM567 658h514l-257 685zM957 1793q0 61 38.5 95.5t115.5 34.5q78 0 117 -34.5t39 -95.5t-39 -95 t-117 -34t-116 34t-38 95z" />
<glyph unicode="&#xc5;" horiz-adv-x="1652" d="M32 0l583 1516h422l584 -1516h-293l-162 433h-683l-162 -433h-289zM567 658h514l-257 685zM613 1836q0 59 27.5 107t76 74.5t109.5 26.5q60 0 108.5 -26.5t76.5 -74.5t28 -107t-28 -107t-76.5 -75t-108.5 -27q-61 0 -109.5 27t-76 75t-27.5 107zM721 1836q0 -49 28.5 -78 t76.5 -29q47 0 75.5 29t28.5 78t-29 78.5t-75 29.5t-75.5 -29.5t-29.5 -78.5z" />
<glyph unicode="&#xc6;" horiz-adv-x="2242" d="M32 0l589 1516h1513v-225h-858l37 -403h716v-224h-696l40 -440h771v-224h-1047l-37 433h-575l-164 -433h-289zM571 658h469l-53 633h-175z" />
<glyph unicode="&#xc7;" horiz-adv-x="1422" d="M112 755q0 253 101 427.5t295.5 263.5t473.5 89q194 0 375 -43v-240q-170 41 -355 41q-293 0 -437 -130t-144 -404q0 -281 141 -409t423 -128q189 0 372 51v-239q-180 -53 -389 -53q-40 0 -60 1v-74q99 -10 149 -53.5t50 -118.5q0 -86 -70 -132t-202 -46q-123 0 -222 35 v112q103 -37 209 -37q67 0 100.5 18t33.5 57q0 41 -33 59.5t-101 18.5h-52v172q-322 42 -490 230t-168 532z" />
<glyph unicode="&#xc8;" d="M174 0v1516h1151v-225h-859v-403h753v-224h-753v-440h869v-224h-1161zM376 1942h311l217 -304h-267z" />
<glyph unicode="&#xc9;" d="M174 0v1516h1151v-225h-859v-403h753v-224h-753v-440h869v-224h-1161zM635 1638l218 304h310l-261 -304h-267z" />
<glyph unicode="&#xca;" d="M174 0v1516h1151v-225h-859v-403h753v-224h-753v-440h869v-224h-1161zM329 1638l318 304h248l317 -304h-245l-196 193l-197 -193h-245z" />
<glyph unicode="&#xcb;" d="M174 0v1516h1151v-225h-859v-403h753v-224h-753v-440h869v-224h-1161zM329 1793q0 61 39 95.5t117 34.5q77 0 116 -34.5t39 -95.5t-38.5 -95t-116.5 -34t-117 34t-39 95zM902 1793q0 61 38.5 95.5t115.5 34.5q78 0 117 -34.5t39 -95.5t-39 -95t-117 -34t-116 34t-38 95z " />
<glyph unicode="&#xcc;" horiz-adv-x="643" d="M-73 1942h311l217 -304h-267zM174 0v1516h295v-1516h-295z" />
<glyph unicode="&#xcd;" horiz-adv-x="643" d="M174 0v1516h295v-1516h-295zM186 1638l218 304h310l-261 -304h-267z" />
<glyph unicode="&#xce;" horiz-adv-x="643" d="M-120 1638l318 304h248l317 -304h-245l-196 193l-197 -193h-245zM174 0v1516h295v-1516h-295z" />
<glyph unicode="&#xcf;" horiz-adv-x="643" d="M-120 1793q0 61 39 95.5t117 34.5q77 0 116 -34.5t39 -95.5t-38.5 -95t-116.5 -34t-117 34t-39 95zM174 0v1516h295v-1516h-295zM453 1793q0 61 38.5 95.5t115.5 34.5q78 0 117 -34.5t39 -95.5t-39 -95t-117 -34t-116 34t-38 95z" />
<glyph unicode="&#xd0;" horiz-adv-x="1716" d="M9 688v183h165v606q112 26 253.5 39.5t271.5 13.5q906 0 906 -772q0 -267 -107 -437t-321.5 -251.5t-543.5 -81.5q-242 0 -459 27v673h-165zM469 236q99 -12 237 -13q306 0 451.5 129.5t145.5 407.5q0 274 -147 404.5t-447 130.5q-111 0 -240 -21v-403h354v-183h-354 v-452z" />
<glyph unicode="&#xd1;" horiz-adv-x="1754" d="M174 0v1516h298l830 -1112v1112h278v-1516h-298l-829 1111v-1111h-279zM474 1683v160q42 37 94 54t124 17q51 0 94.5 -10.5t107.5 -29.5q55 -17 94.5 -26.5t80.5 -9.5q65 0 114 16.5t98 52.5v-161q-42 -36 -94 -53t-124 -17q-50 0 -92.5 9.5t-109.5 29.5 q-55 17 -94.5 26.5t-80.5 9.5q-65 0 -113.5 -16t-98.5 -52z" />
<glyph unicode="&#xd2;" horiz-adv-x="1786" d="M112 758q0 251 95.5 425.5t271 263t414.5 88.5q240 0 416 -89t271 -263.5t95 -424.5t-96 -424.5t-271.5 -263.5t-414.5 -89q-240 0 -415.5 88.5t-270.5 263t-95 425.5zM413 764q0 -280 125.5 -414t354.5 -134t354.5 133t125.5 403q0 278 -126.5 412.5t-353.5 134.5 t-353.5 -132.5t-126.5 -402.5zM498 1942h311l217 -304h-267z" />
<glyph unicode="&#xd3;" horiz-adv-x="1786" d="M112 758q0 251 95.5 425.5t271 263t414.5 88.5q240 0 416 -89t271 -263.5t95 -424.5t-96 -424.5t-271.5 -263.5t-414.5 -89q-240 0 -415.5 88.5t-270.5 263t-95 425.5zM413 764q0 -280 125.5 -414t354.5 -134t354.5 133t125.5 403q0 278 -126.5 412.5t-353.5 134.5 t-353.5 -132.5t-126.5 -402.5zM757 1638l218 304h310l-261 -304h-267z" />
<glyph unicode="&#xd4;" horiz-adv-x="1786" d="M112 758q0 251 95.5 425.5t271 263t414.5 88.5q240 0 416 -89t271 -263.5t95 -424.5t-96 -424.5t-271.5 -263.5t-414.5 -89q-240 0 -415.5 88.5t-270.5 263t-95 425.5zM413 764q0 -280 125.5 -414t354.5 -134t354.5 133t125.5 403q0 278 -126.5 412.5t-353.5 134.5 t-353.5 -132.5t-126.5 -402.5zM451 1638l318 304h248l317 -304h-245l-196 193l-197 -193h-245z" />
<glyph unicode="&#xd5;" horiz-adv-x="1786" d="M112 758q0 251 95.5 425.5t271 263t414.5 88.5q240 0 416 -89t271 -263.5t95 -424.5t-96 -424.5t-271.5 -263.5t-414.5 -89q-240 0 -415.5 88.5t-270.5 263t-95 425.5zM413 764q0 -280 125.5 -414t354.5 -134t354.5 133t125.5 403q0 278 -126.5 412.5t-353.5 134.5 t-353.5 -132.5t-126.5 -402.5zM489 1683v160q42 37 94 54t124 17q51 0 94.5 -10.5t107.5 -29.5q55 -17 94.5 -26.5t80.5 -9.5q65 0 114 16.5t98 52.5v-161q-42 -36 -94 -53t-124 -17q-50 0 -92.5 9.5t-109.5 29.5q-55 17 -94.5 26.5t-80.5 9.5q-65 0 -113.5 -16t-98.5 -52z " />
<glyph unicode="&#xd6;" horiz-adv-x="1786" d="M112 758q0 251 95.5 425.5t271 263t414.5 88.5q240 0 416 -89t271 -263.5t95 -424.5t-96 -424.5t-271.5 -263.5t-414.5 -89q-240 0 -415.5 88.5t-270.5 263t-95 425.5zM413 764q0 -280 125.5 -414t354.5 -134t354.5 133t125.5 403q0 278 -126.5 412.5t-353.5 134.5 t-353.5 -132.5t-126.5 -402.5zM451 1793q0 61 39 95.5t117 34.5q77 0 116 -34.5t39 -95.5t-38.5 -95t-116.5 -34t-117 34t-39 95zM1024 1793q0 61 38.5 95.5t115.5 34.5q78 0 117 -34.5t39 -95.5t-39 -95t-117 -34t-116 34t-38 95z" />
<glyph unicode="&#xd7;" horiz-adv-x="1096" d="M112 495l283 283l-283 284l153 153l284 -283l282 283l154 -153l-284 -284l284 -283l-154 -154l-282 284l-284 -284z" />
<glyph unicode="&#xd8;" horiz-adv-x="1786" d="M112 758q0 251 95.5 425.5t271 263t414.5 88.5q287 0 478 -125l132 148l116 -105l-129 -144q90 -100 137.5 -238t47.5 -313q0 -250 -96 -424.5t-271.5 -263.5t-414.5 -89q-287 0 -478 124l-132 -147l-116 104l129 145q-90 98 -137 237t-47 314zM413 764q-1 -211 74 -343 l707 791q-116 87 -301 87q-227 0 -353.5 -132.5t-126.5 -402.5zM591 302q116 -86 302 -86q229 0 354.5 133t125.5 403q0 211 -76 342z" />
<glyph unicode="&#xd9;" horiz-adv-x="1698" d="M167 650v866h295v-891q0 -210 95.5 -308t294.5 -98q200 0 295.5 98t95.5 308v891h290v-866q0 -336 -165 -502.5t-516 -166.5q-354 0 -519.5 166.5t-165.5 502.5zM457 1942h311l217 -304h-267z" />
<glyph unicode="&#xda;" horiz-adv-x="1698" d="M167 650v866h295v-891q0 -210 95.5 -308t294.5 -98q200 0 295.5 98t95.5 308v891h290v-866q0 -336 -165 -502.5t-516 -166.5q-354 0 -519.5 166.5t-165.5 502.5zM716 1638l218 304h310l-261 -304h-267z" />
<glyph unicode="&#xdb;" horiz-adv-x="1698" d="M167 650v866h295v-891q0 -210 95.5 -308t294.5 -98q200 0 295.5 98t95.5 308v891h290v-866q0 -336 -165 -502.5t-516 -166.5q-354 0 -519.5 166.5t-165.5 502.5zM410 1638l318 304h248l317 -304h-245l-196 193l-197 -193h-245z" />
<glyph unicode="&#xdc;" horiz-adv-x="1698" d="M167 650v866h295v-891q0 -210 95.5 -308t294.5 -98q200 0 295.5 98t95.5 308v891h290v-866q0 -336 -165 -502.5t-516 -166.5q-354 0 -519.5 166.5t-165.5 502.5zM410 1793q0 61 39 95.5t117 34.5q77 0 116 -34.5t39 -95.5t-38.5 -95t-116.5 -34t-117 34t-39 95zM983 1793 q0 61 38.5 95.5t115.5 34.5q78 0 117 -34.5t39 -95.5t-39 -95t-117 -34t-116 34t-38 95z" />
<glyph unicode="&#xdd;" d="M-41 1516h320l445 -631l436 631h299l-593 -864v-652h-295v649zM580 1638l218 304h310l-261 -304h-267z" />
<glyph unicode="&#xde;" horiz-adv-x="1474" d="M174 0v1517h295v-215q109 14 198 14q353 0 528.5 -130t175.5 -406q0 -266 -174.5 -402.5t-528.5 -136.5q-89 0 -199 8v-249h-295zM469 464q103 -11 199 -11q147 0 238.5 34t134 106t42.5 186q0 169 -96.5 247t-299.5 78q-124 0 -218 -18v-622z" />
<glyph unicode="&#xdf;" horiz-adv-x="1755" d="M38 880v237h215q11 179 92 304t226.5 189.5t347.5 64.5q179 0 312 -59.5t206.5 -180t73.5 -298.5q0 -90 -30 -211q-87 9 -182 9q-173 0 -239.5 -37t-66.5 -102q0 -47 31 -77t108 -43l208 -31q176 -27 258 -99t82 -216q0 -166 -140.5 -258t-417.5 -92q-95 0 -195.5 11.5 t-185.5 34.5v201q87 -23 188.5 -36t190.5 -13q156 0 220.5 34.5t64.5 102.5q0 52 -31 80t-111 40l-209 31q-178 27 -257 105t-79 211q0 162 135 253t399 91q31 0 50 -1q2 35 2 50q0 157 -97 231.5t-266 74.5q-202 0 -301.5 -102t-99.5 -313v-1066h-289v880h-213z" />
<glyph unicode="&#xe0;" horiz-adv-x="1264" d="M95 299q0 154 118 238.5t373 102.5l252 24v22q0 91 -32 142t-98 72.5t-178 21.5q-78 0 -169.5 -13t-173.5 -39v210q86 27 190 41t200 14q191 0 309.5 -44t176 -146.5t57.5 -279.5v-665h-240l-20 113h-14q-61 -63 -153.5 -97.5t-197.5 -34.5q-128 0 -218 39.5t-136 111.5 t-46 167zM178 1655h321l268 -385h-277zM383 322q0 -70 49 -109t148 -39q70 0 136.5 23.5t121.5 70.5v233l-229 -21q-122 -12 -174 -50.5t-52 -107.5z" />
<glyph unicode="&#xe1;" horiz-adv-x="1264" d="M95 299q0 154 118 238.5t373 102.5l252 24v22q0 91 -32 142t-98 72.5t-178 21.5q-78 0 -169.5 -13t-173.5 -39v210q86 27 190 41t200 14q191 0 309.5 -44t176 -146.5t57.5 -279.5v-665h-240l-20 113h-14q-61 -63 -153.5 -97.5t-197.5 -34.5q-128 0 -218 39.5t-136 111.5 t-46 167zM383 322q0 -70 49 -109t148 -39q70 0 136.5 23.5t121.5 70.5v233l-229 -21q-122 -12 -174 -50.5t-52 -107.5zM490 1270l269 385h320l-312 -385h-277z" />
<glyph unicode="&#xe2;" horiz-adv-x="1264" d="M95 299q0 154 118 238.5t373 102.5l252 24v22q0 91 -32 142t-98 72.5t-178 21.5q-78 0 -169.5 -13t-173.5 -39v210q86 27 190 41t200 14q191 0 309.5 -44t176 -146.5t57.5 -279.5v-665h-240l-20 113h-14q-61 -63 -153.5 -97.5t-197.5 -34.5q-128 0 -218 39.5t-136 111.5 t-46 167zM231 1270l281 385h233l281 -385h-222l-175 247l-176 -247h-222zM383 322q0 -70 49 -109t148 -39q70 0 136.5 23.5t121.5 70.5v233l-229 -21q-122 -12 -174 -50.5t-52 -107.5z" />
<glyph unicode="&#xe3;" horiz-adv-x="1264" d="M95 299q0 154 118 238.5t373 102.5l252 24v22q0 91 -32 142t-98 72.5t-178 21.5q-78 0 -169.5 -13t-173.5 -39v210q86 27 190 41t200 14q191 0 309.5 -44t176 -146.5t57.5 -279.5v-665h-240l-20 113h-14q-61 -63 -153.5 -97.5t-197.5 -34.5q-128 0 -218 39.5t-136 111.5 t-46 167zM250 1343v177q41 39 92 57t118 18q45 0 86.5 -12t98.5 -36q57 -23 90.5 -33t69.5 -10q58 0 106 20t96 64v-177q-42 -39 -93 -57.5t-116 -18.5q-45 0 -86.5 12.5t-99.5 35.5q-57 23 -90.5 33t-69.5 10q-58 0 -106 -19t-96 -64zM383 322q0 -70 49 -109t148 -39 q70 0 136.5 23.5t121.5 70.5v233l-229 -21q-122 -12 -174 -50.5t-52 -107.5z" />
<glyph unicode="&#xe4;" horiz-adv-x="1264" d="M95 299q0 154 118 238.5t373 102.5l252 24v22q0 91 -32 142t-98 72.5t-178 21.5q-78 0 -169.5 -13t-173.5 -39v210q86 27 190 41t200 14q191 0 309.5 -44t176 -146.5t57.5 -279.5v-665h-240l-20 113h-14q-61 -63 -153.5 -97.5t-197.5 -34.5q-128 0 -218 39.5t-136 111.5 t-46 167zM199 1454q0 69 39.5 107t118.5 38t119 -38t40 -107t-40 -106.5t-119 -37.5t-118.5 37.5t-39.5 106.5zM383 322q0 -70 49 -109t148 -39q70 0 136.5 23.5t121.5 70.5v233l-229 -21q-122 -12 -174 -50.5t-52 -107.5zM741 1454q0 69 40 107t119 38t119 -38t40 -107 t-40 -106.5t-119 -37.5t-119 37.5t-40 106.5z" />
<glyph unicode="&#xe5;" horiz-adv-x="1264" d="M95 299q0 154 118 238.5t373 102.5l252 24v22q0 91 -32 142t-98 72.5t-178 21.5q-78 0 -169.5 -13t-173.5 -39v210q86 27 190 41t200 14q191 0 309.5 -44t176 -146.5t57.5 -279.5v-665h-240l-20 113h-14q-61 -63 -153.5 -97.5t-197.5 -34.5q-128 0 -218 39.5t-136 111.5 t-46 167zM383 322q0 -70 49 -109t148 -39q70 0 136.5 23.5t121.5 70.5v233l-229 -21q-122 -12 -174 -50.5t-52 -107.5zM416 1474q0 59 27.5 106t76 74t109.5 27q60 0 108.5 -27t76.5 -74t28 -106t-28 -107t-76.5 -75t-108.5 -27q-61 0 -109.5 27t-76 74.5t-27.5 107.5z M524 1474q0 -49 28.5 -78.5t76.5 -29.5q47 0 75.5 29t28.5 79q0 49 -29 78t-75 29t-75.5 -29t-29.5 -78z" />
<glyph unicode="&#xe6;" horiz-adv-x="1991" d="M95 301q0 160 123.5 250t382.5 90h237v45q0 91 -32 142t-98 72.5t-178 21.5q-78 0 -169.5 -13t-173.5 -39v210q87 27 186 41t192 14q165 0 273.5 -37t168.5 -121q69 77 168 117.5t224 40.5q163 0 277.5 -69t174.5 -200.5t60 -316.5v-72h-790q6 -103 48.5 -166 t129.5 -92.5t230 -29.5q142 0 315 40v-207q-176 -42 -358 -42q-184 0 -315 43.5t-209 133.5q-188 -176 -444 -176q-138 0 -233 39.5t-142.5 112t-47.5 168.5zM383 322q0 -71 50 -109.5t149 -38.5q82 0 155.5 29t140.5 97q-30 80 -37 179h-219q-239 0 -239 -157zM1120 641 h521q-4 159 -68.5 235.5t-189.5 76.5q-126 0 -192.5 -76t-70.5 -236z" />
<glyph unicode="&#xe7;" horiz-adv-x="1107" d="M96 556q0 284 168.5 431.5t491.5 147.5q162 0 291 -34v-224q-74 15 -136 22t-129 7q-200 0 -295 -84.5t-95 -263.5q0 -178 91 -264t271 -86q67 0 135 10t158 35v-225q-146 -48 -323 -48h-6v-73q89 -11 134 -56.5t45 -117.5q0 -83 -65.5 -129t-187.5 -46q-55 0 -108 9 t-93 26v112q42 -18 93 -27.5t96 -9.5q57 0 85.5 18t28.5 58q0 41 -28.5 59t-85.5 18h-52v168q-237 33 -360.5 176t-123.5 391z" />
<glyph unicode="&#xe8;" horiz-adv-x="1260" d="M96 556q0 182 65 312t190.5 198.5t301.5 68.5q256 0 391.5 -153t135.5 -434v-71h-797q6 -103 48.5 -166t130.5 -92.5t234 -29.5q142 0 317 40v-207q-178 -42 -359 -42q-333 0 -495.5 140.5t-162.5 435.5zM201 1655h321l268 -385h-277zM382 641h529q-4 160 -69.5 236 t-193.5 76t-195 -76t-71 -236z" />
<glyph unicode="&#xe9;" horiz-adv-x="1260" d="M96 556q0 182 65 312t190.5 198.5t301.5 68.5q256 0 391.5 -153t135.5 -434v-71h-797q6 -103 48.5 -166t130.5 -92.5t234 -29.5q142 0 317 40v-207q-178 -42 -359 -42q-333 0 -495.5 140.5t-162.5 435.5zM382 641h529q-4 160 -69.5 236t-193.5 76t-195 -76t-71 -236z M513 1270l269 385h320l-312 -385h-277z" />
<glyph unicode="&#xea;" horiz-adv-x="1260" d="M96 556q0 182 65 312t190.5 198.5t301.5 68.5q256 0 391.5 -153t135.5 -434v-71h-797q6 -103 48.5 -166t130.5 -92.5t234 -29.5q142 0 317 40v-207q-178 -42 -359 -42q-333 0 -495.5 140.5t-162.5 435.5zM254 1270l281 385h233l281 -385h-222l-175 247l-176 -247h-222z M382 641h529q-4 160 -69.5 236t-193.5 76t-195 -76t-71 -236z" />
<glyph unicode="&#xeb;" horiz-adv-x="1260" d="M96 556q0 182 65 312t190.5 198.5t301.5 68.5q256 0 391.5 -153t135.5 -434v-71h-797q6 -103 48.5 -166t130.5 -92.5t234 -29.5q142 0 317 40v-207q-178 -42 -359 -42q-333 0 -495.5 140.5t-162.5 435.5zM222 1454q0 69 39.5 107t118.5 38t119 -38t40 -107t-40 -106.5 t-119 -37.5t-118.5 37.5t-39.5 106.5zM382 641h529q-4 160 -69.5 236t-193.5 76t-195 -76t-71 -236zM764 1454q0 69 40 107t119 38t119 -38t40 -107t-40 -106.5t-119 -37.5t-119 37.5t-40 106.5z" />
<glyph unicode="&#xec;" horiz-adv-x="602" d="M-150 1655h321l268 -385h-277zM157 0v1117h288v-1117h-288z" />
<glyph unicode="&#xed;" horiz-adv-x="602" d="M157 0v1117h288v-1117h-288zM162 1270l269 385h320l-312 -385h-277z" />
<glyph unicode="&#xee;" horiz-adv-x="602" d="M-97 1270l281 385h233l281 -385h-222l-175 247l-176 -247h-222zM157 0v1117h288v-1117h-288z" />
<glyph unicode="&#xef;" horiz-adv-x="602" d="M-129 1454q0 69 39.5 107t118.5 38t119 -38t40 -107t-40 -106.5t-119 -37.5t-118.5 37.5t-39.5 106.5zM157 0v1117h288v-1117h-288zM413 1454q0 69 40 107t119 38t119 -38t40 -107t-40 -106.5t-119 -37.5t-119 37.5t-40 106.5z" />
<glyph unicode="&#xf0;" horiz-adv-x="1377" d="M96 558q0 185 70.5 312.5t197 191.5t295.5 64q121 0 209 -41q-58 110 -136 207l-510 -80l-26 164l400 63q-126 120 -280 216h368q108 -73 205 -170l332 51l26 -164l-230 -36q125 -165 195 -351.5t70 -368.5q0 -211 -71 -353t-204 -212.5t-318 -70.5q-181 0 -314.5 66 t-206 196t-72.5 316zM384 559q0 -183 78 -269.5t227 -86.5q148 0 225.5 87t77.5 267q0 184 -77.5 270t-226.5 86q-148 0 -226 -86t-78 -268z" />
<glyph unicode="&#xf1;" horiz-adv-x="1394" d="M157 0v1117h237l19 -117h14q76 65 175.5 100t211.5 35q204 0 320.5 -114.5t116.5 -354.5v-666h-288v652q0 128 -57 183.5t-169 55.5q-80 0 -158 -30t-134 -88v-773h-288zM326 1343v177q41 39 92 57t118 18q45 0 86.5 -12t98.5 -36q57 -23 90.5 -33t69.5 -10q58 0 106 20 t96 64v-177q-42 -39 -93 -57.5t-116 -18.5q-45 0 -86.5 12.5t-99.5 35.5q-57 23 -90.5 33t-69.5 10q-58 0 -106 -19t-96 -64z" />
<glyph unicode="&#xf2;" horiz-adv-x="1377" d="M96 558q0 187 71.5 316.5t204 195t316.5 65.5q185 0 318 -65t203.5 -193.5t70.5 -318.5q0 -185 -73 -315t-207 -196.5t-312 -66.5q-180 0 -313 65.5t-206 195.5t-73 317zM238 1655h321l268 -385h-277zM384 559q0 -356 304 -356t304 354q0 184 -77.5 268.5t-226.5 84.5 q-147 0 -225.5 -84t-78.5 -267z" />
<glyph unicode="&#xf3;" horiz-adv-x="1377" d="M96 558q0 187 71.5 316.5t204 195t316.5 65.5q185 0 318 -65t203.5 -193.5t70.5 -318.5q0 -185 -73 -315t-207 -196.5t-312 -66.5q-180 0 -313 65.5t-206 195.5t-73 317zM384 559q0 -356 304 -356t304 354q0 184 -77.5 268.5t-226.5 84.5q-147 0 -225.5 -84t-78.5 -267z M550 1270l269 385h320l-312 -385h-277z" />
<glyph unicode="&#xf4;" horiz-adv-x="1377" d="M96 558q0 187 71.5 316.5t204 195t316.5 65.5q185 0 318 -65t203.5 -193.5t70.5 -318.5q0 -185 -73 -315t-207 -196.5t-312 -66.5q-180 0 -313 65.5t-206 195.5t-73 317zM291 1270l281 385h233l281 -385h-222l-175 247l-176 -247h-222zM384 559q0 -356 304 -356t304 354 q0 184 -77.5 268.5t-226.5 84.5q-147 0 -225.5 -84t-78.5 -267z" />
<glyph unicode="&#xf5;" horiz-adv-x="1377" d="M96 558q0 187 71.5 316.5t204 195t316.5 65.5q185 0 318 -65t203.5 -193.5t70.5 -318.5q0 -185 -73 -315t-207 -196.5t-312 -66.5q-180 0 -313 65.5t-206 195.5t-73 317zM310 1343v177q41 39 92 57t118 18q45 0 86.5 -12t98.5 -36q57 -23 90.5 -33t69.5 -10q58 0 106 20 t96 64v-177q-42 -39 -93 -57.5t-116 -18.5q-45 0 -86.5 12.5t-99.5 35.5q-57 23 -90.5 33t-69.5 10q-58 0 -106 -19t-96 -64zM384 559q0 -356 304 -356t304 354q0 184 -77.5 268.5t-226.5 84.5q-147 0 -225.5 -84t-78.5 -267z" />
<glyph unicode="&#xf6;" horiz-adv-x="1377" d="M96 558q0 187 71.5 316.5t204 195t316.5 65.5q185 0 318 -65t203.5 -193.5t70.5 -318.5q0 -185 -73 -315t-207 -196.5t-312 -66.5q-180 0 -313 65.5t-206 195.5t-73 317zM259 1454q0 69 39.5 107t118.5 38t119 -38t40 -107t-40 -106.5t-119 -37.5t-118.5 37.5 t-39.5 106.5zM384 559q0 -356 304 -356t304 354q0 184 -77.5 268.5t-226.5 84.5q-147 0 -225.5 -84t-78.5 -267zM801 1454q0 69 40 107t119 38t119 -38t40 -107t-40 -106.5t-119 -37.5t-119 37.5t-40 106.5z" />
<glyph unicode="&#xf7;" horiz-adv-x="1183" d="M153 669v219h878v-219h-878zM414 362q0 75 47 118t131 43q83 0 130 -43.5t47 -117.5q0 -73 -47.5 -116t-129.5 -43q-83 0 -130.5 43t-47.5 116zM414 1193q0 75 47 118t131 43q83 0 130 -44t47 -117t-47.5 -116.5t-129.5 -43.5q-83 0 -130.5 42.5t-47.5 117.5z" />
<glyph unicode="&#xf8;" horiz-adv-x="1377" d="M96 558q0 187 71.5 316.5t204 195t316.5 65.5q182 0 314 -64l82 104l111 -92l-74 -92q159 -149 159 -433q0 -185 -73 -315t-207 -196.5t-312 -66.5q-179 0 -313 65l-81 -102l-111 91l74 93q-78 74 -119.5 182.5t-41.5 248.5zM382 559q0 -142 47 -227l429 544 q-69 38 -170 37q-149 0 -227.5 -85t-78.5 -269zM519 240q68 -39 169 -39q150 0 228.5 85.5t78.5 270.5q0 143 -48 227z" />
<glyph unicode="&#xf9;" horiz-adv-x="1384" d="M143 446v671h289v-655q0 -127 56.5 -182t162.5 -55q79 0 156 30.5t132 87.5v774h289v-1117h-238l-18 114h-13q-76 -63 -172 -97.5t-200 -34.5q-207 0 -325.5 113t-118.5 351zM235 1655h321l268 -385h-277z" />
<glyph unicode="&#xfa;" horiz-adv-x="1384" d="M143 446v671h289v-655q0 -127 56.5 -182t162.5 -55q79 0 156 30.5t132 87.5v774h289v-1117h-238l-18 114h-13q-76 -63 -172 -97.5t-200 -34.5q-207 0 -325.5 113t-118.5 351zM547 1270l269 385h320l-312 -385h-277z" />
<glyph unicode="&#xfb;" horiz-adv-x="1384" d="M143 446v671h289v-655q0 -127 56.5 -182t162.5 -55q79 0 156 30.5t132 87.5v774h289v-1117h-238l-18 114h-13q-76 -63 -172 -97.5t-200 -34.5q-207 0 -325.5 113t-118.5 351zM288 1270l281 385h233l281 -385h-222l-175 247l-176 -247h-222z" />
<glyph unicode="&#xfc;" horiz-adv-x="1384" d="M143 446v671h289v-655q0 -127 56.5 -182t162.5 -55q79 0 156 30.5t132 87.5v774h289v-1117h-238l-18 114h-13q-76 -63 -172 -97.5t-200 -34.5q-207 0 -325.5 113t-118.5 351zM256 1454q0 69 39.5 107t118.5 38t119 -38t40 -107t-40 -106.5t-119 -37.5t-118.5 37.5 t-39.5 106.5zM798 1454q0 69 40 107t119 38t119 -38t40 -107t-40 -106.5t-119 -37.5t-119 37.5t-40 106.5z" />
<glyph unicode="&#xfd;" horiz-adv-x="1320" d="M10 1117h306l353 -878l358 878h284l-667 -1568h-284l193 451h-70zM523 1270l269 385h320l-312 -385h-277z" />
<glyph unicode="&#xfe;" horiz-adv-x="1402" d="M157 -451v2106h288v-653h14q66 65 154 99t197 34q141 0 253 -59.5t177.5 -184t65.5 -309.5q0 -194 -75.5 -329t-220.5 -204t-350 -69q-83 0 -215 15v-446h-288zM445 221q93 -22 199 -21q190 0 282 89t92 272q0 179 -80.5 260t-222.5 81q-77 0 -147.5 -26.5t-122.5 -82.5 v-572z" />
<glyph unicode="&#xff;" horiz-adv-x="1320" d="M10 1117h306l353 -878l358 878h284l-667 -1568h-284l193 451h-70zM232 1454q0 69 39.5 107t118.5 38t119 -38t40 -107t-40 -106.5t-119 -37.5t-118.5 37.5t-39.5 106.5zM774 1454q0 69 40 107t119 38t119 -38t40 -107t-40 -106.5t-119 -37.5t-119 37.5t-40 106.5z" />
<glyph unicode="&#x100;" horiz-adv-x="1652" d="M32 0l583 1516h422l584 -1516h-293l-162 433h-683l-162 -433h-289zM439 1707v167h774v-167h-774zM567 658h514l-257 685z" />
<glyph unicode="&#x101;" horiz-adv-x="1264" d="M95 299q0 154 118 238.5t373 102.5l252 24v22q0 91 -32 142t-98 72.5t-178 21.5q-78 0 -169.5 -13t-173.5 -39v210q86 27 190 41t200 14q191 0 309.5 -44t176 -146.5t57.5 -279.5v-665h-240l-20 113h-14q-61 -63 -153.5 -97.5t-197.5 -34.5q-128 0 -218 39.5t-136 111.5 t-46 167zM250 1372v167h757v-167h-757zM383 322q0 -70 49 -109t148 -39q70 0 136.5 23.5t121.5 70.5v233l-229 -21q-122 -12 -174 -50.5t-52 -107.5z" />
<glyph unicode="&#x102;" horiz-adv-x="1652" d="M32 0l583 1516h422l584 -1516h-293l-162 433h-683l-162 -433h-289zM406 1928h180q32 -141 241 -141q112 0 167.5 37.5t70.5 103.5h180q-19 -128 -122 -206t-296 -78q-194 0 -298 78t-123 206zM567 658h514l-257 685z" />
<glyph unicode="&#x103;" horiz-adv-x="1264" d="M95 299q0 154 118 238.5t373 102.5l252 24v22q0 91 -32 142t-98 72.5t-178 21.5q-78 0 -169.5 -13t-173.5 -39v210q86 27 190 41t200 14q191 0 309.5 -44t176 -146.5t57.5 -279.5v-665h-240l-20 113h-14q-61 -63 -153.5 -97.5t-197.5 -34.5q-128 0 -218 39.5t-136 111.5 t-46 167zM232 1630h177q18 -205 221 -205q200 0 218 205h177q-8 -164 -109.5 -258t-285.5 -94q-185 0 -287 94.5t-111 257.5zM383 322q0 -70 49 -109t148 -39q70 0 136.5 23.5t121.5 70.5v233l-229 -21q-122 -12 -174 -50.5t-52 -107.5z" />
<glyph unicode="&#x104;" horiz-adv-x="1652" d="M32 0l583 1516h422l584 -1516q-131 -51 -184.5 -102.5t-53.5 -113.5q0 -52 40 -81.5t118 -29.5q35 0 73.5 8t89.5 25v-114q-93 -35 -201 -34q-141 0 -214.5 54t-73.5 150q0 71 39.5 130.5t129.5 107.5h-56l-162 433h-683l-162 -433h-289zM567 658h514l-257 685z" />
<glyph unicode="&#x105;" horiz-adv-x="1264" d="M95 299q0 154 118 238.5t373 102.5l252 24v22q0 91 -32 142t-98 72.5t-178 21.5q-78 0 -169.5 -13t-173.5 -39v210q86 27 190 41t200 14q191 0 309.5 -44t176 -146.5t57.5 -279.5v-665q-118 -49 -167.5 -101t-49.5 -117q0 -50 36 -79.5t101 -29.5q71 0 147 35v-115 q-86 -36 -185 -35q-129 0 -198 54.5t-69 149.5q0 72 37.5 131.5t119.5 106.5h-12l-20 113h-14q-61 -63 -153.5 -97.5t-197.5 -34.5q-128 0 -218 39.5t-136 111.5t-46 167zM383 322q0 -70 49 -109t148 -39q70 0 136.5 23.5t121.5 70.5v233l-229 -21q-122 -12 -174 -50.5 t-52 -107.5z" />
<glyph unicode="&#x106;" horiz-adv-x="1422" d="M112 755q0 253 101 427.5t295.5 263.5t473.5 89q194 0 375 -43v-240q-170 41 -355 41q-294 0 -437.5 -130t-143.5 -404q0 -281 141 -409t423 -128q189 0 372 51v-239q-180 -53 -389 -53q-416 0 -636 189.5t-220 584.5zM709 1638l218 304h310l-261 -304h-267z" />
<glyph unicode="&#x107;" horiz-adv-x="1107" d="M96 556q0 284 168.5 431.5t491.5 147.5q162 0 291 -34v-224q-74 15 -136 22t-129 7q-201 0 -295.5 -84.5t-94.5 -263.5q0 -178 91 -264t271 -86q67 0 135 10t158 35v-225q-146 -48 -323 -48q-305 0 -466.5 146t-161.5 430zM490 1270l269 385h320l-312 -385h-277z" />
<glyph unicode="&#x108;" horiz-adv-x="1422" d="M112 755q0 253 101 427.5t295.5 263.5t473.5 89q194 0 375 -43v-240q-170 41 -355 41q-294 0 -437.5 -130t-143.5 -404q0 -281 141 -409t423 -128q189 0 372 51v-239q-180 -53 -389 -53q-416 0 -636 189.5t-220 584.5zM403 1638l318 304h248l317 -304h-245l-196 193 l-197 -193h-245z" />
<glyph unicode="&#x109;" horiz-adv-x="1107" d="M96 556q0 284 168.5 431.5t491.5 147.5q162 0 291 -34v-224q-74 15 -136 22t-129 7q-201 0 -295.5 -84.5t-94.5 -263.5q0 -178 91 -264t271 -86q67 0 135 10t158 35v-225q-146 -48 -323 -48q-305 0 -466.5 146t-161.5 430zM231 1270l281 385h233l281 -385h-222l-175 247 l-176 -247h-222z" />
<glyph unicode="&#x10a;" horiz-adv-x="1422" d="M112 755q0 253 101 427.5t295.5 263.5t473.5 89q194 0 375 -43v-240q-170 41 -355 41q-294 0 -437.5 -130t-143.5 -404q0 -281 141 -409t423 -128q189 0 372 51v-239q-180 -53 -389 -53q-416 0 -636 189.5t-220 584.5zM667 1793q0 60 44.5 95t133.5 35t133 -35t44 -95 t-44 -94.5t-133 -34.5t-133.5 34.5t-44.5 94.5z" />
<glyph unicode="&#x10b;" horiz-adv-x="1107" d="M96 556q0 284 168.5 431.5t491.5 147.5q162 0 291 -34v-224q-74 15 -136 22t-129 7q-201 0 -295.5 -84.5t-94.5 -263.5q0 -178 91 -264t271 -86q67 0 135 10t158 35v-225q-146 -48 -323 -48q-305 0 -466.5 146t-161.5 430zM447 1454q0 72 45.5 110t136.5 38 q90 0 135.5 -38t45.5 -110t-45.5 -109t-135.5 -37q-91 0 -136.5 37t-45.5 109z" />
<glyph unicode="&#x10c;" horiz-adv-x="1422" d="M112 755q0 253 101 427.5t295.5 263.5t473.5 89q194 0 375 -43v-240q-170 41 -355 41q-294 0 -437.5 -130t-143.5 -404q0 -281 141 -409t423 -128q189 0 372 51v-239q-180 -53 -389 -53q-416 0 -636 189.5t-220 584.5zM403 1942h245l197 -193l196 193h245l-317 -304h-248 z" />
<glyph unicode="&#x10d;" horiz-adv-x="1107" d="M96 556q0 284 168.5 431.5t491.5 147.5q162 0 291 -34v-224q-74 15 -136 22t-129 7q-201 0 -295.5 -84.5t-94.5 -263.5q0 -178 91 -264t271 -86q67 0 135 10t158 35v-225q-146 -48 -323 -48q-305 0 -466.5 146t-161.5 430zM228 1655h221l180 -248l179 248h221l-284 -385 h-233z" />
<glyph unicode="&#x10e;" horiz-adv-x="1716" d="M174 15v1462q112 26 253.5 39.5t271.5 13.5q905 0 906 -772q0 -267 -107 -437t-321.5 -251.5t-543.5 -81.5q-242 -1 -459 27zM319 1942h245l197 -193l196 193h245l-317 -304h-248zM469 236q99 -12 237 -13q306 0 451.5 129.5t145.5 407.5q0 274 -147 404.5t-447 130.5 q-111 0 -240 -21v-1038z" />
<glyph unicode="&#x10f;" horiz-adv-x="1402" d="M96 535q0 194 76 328.5t220.5 204t348.5 69.5q93 0 216 -17v535h289v-1655h-241l-17 121h-15q-65 -66 -156.5 -102.5t-201.5 -36.5q-150 0 -267 58.5t-184.5 182.5t-67.5 312zM384 555q0 -341 305 -341q77 0 147 26.5t121 84.5v570q-95 22 -198 21q-189 0 -282 -89 t-93 -272zM1338 1208q29 193 29 447h192q0 -118 -17.5 -234.5t-48.5 -212.5h-155z" />
<glyph unicode="&#x110;" horiz-adv-x="1716" d="M9 688v183h165v606q112 26 253.5 39.5t271.5 13.5q906 0 906 -772q0 -267 -107 -437t-321.5 -251.5t-543.5 -81.5q-242 0 -459 27v673h-165zM469 236q99 -12 237 -13q306 0 451.5 129.5t145.5 407.5q0 274 -147 404.5t-447 130.5q-111 0 -240 -21v-403h354v-183h-354 v-452z" />
<glyph unicode="&#x111;" horiz-adv-x="1402" d="M96 535q0 194 76 328.5t220.5 204t348.5 69.5q93 0 216 -17v183h-435v172h435v180h289v-180h148v-172h-148v-1303h-241l-17 121h-15q-65 -66 -156.5 -102.5t-201.5 -36.5q-151 0 -267.5 58.5t-184 182.5t-67.5 312zM384 555q0 -341 305 -341q77 0 147 26.5t121 84.5v570 q-95 22 -198 21q-189 0 -282 -89t-93 -272z" />
<glyph unicode="&#x112;" d="M174 0v1516h1151v-225h-859v-403h753v-224h-753v-440h869v-224h-1161zM384 1707v167h774v-167h-774z" />
<glyph unicode="&#x113;" horiz-adv-x="1260" d="M96 556q0 182 65 312t190.5 198.5t301.5 68.5q256 0 391.5 -153t135.5 -434v-71h-797q6 -103 48.5 -166t130.5 -92.5t234 -29.5q142 0 317 40v-207q-178 -42 -359 -42q-333 0 -495.5 140.5t-162.5 435.5zM273 1372v167h757v-167h-757zM382 641h529q-4 160 -69.5 236 t-193.5 76t-195 -76t-71 -236z" />
<glyph unicode="&#x114;" d="M174 0v1516h1151v-225h-859v-403h753v-224h-753v-440h869v-224h-1161zM351 1928h180q32 -141 241 -141q112 0 167.5 37.5t70.5 103.5h180q-19 -128 -122 -206t-296 -78q-194 0 -298 78t-123 206z" />
<glyph unicode="&#x115;" horiz-adv-x="1260" d="M96 556q0 182 65 312t190.5 198.5t301.5 68.5q256 0 391.5 -153t135.5 -434v-71h-797q6 -103 48.5 -166t130.5 -92.5t234 -29.5q142 0 317 40v-207q-178 -42 -359 -42q-333 0 -495.5 140.5t-162.5 435.5zM255 1630h177q18 -205 221 -205q200 0 218 205h177 q-8 -164 -109.5 -258t-285.5 -94q-185 0 -287 94.5t-111 257.5zM382 641h529q-4 160 -69.5 236t-193.5 76t-195 -76t-71 -236z" />
<glyph unicode="&#x116;" d="M174 0v1516h1151v-225h-859v-403h753v-224h-753v-440h869v-224h-1161zM593 1793q0 60 44.5 95t133.5 35t133 -35t44 -95t-44 -94.5t-133 -34.5t-133.5 34.5t-44.5 94.5z" />
<glyph unicode="&#x117;" horiz-adv-x="1260" d="M96 556q0 182 65 312t190.5 198.5t301.5 68.5q256 0 391.5 -153t135.5 -434v-71h-797q6 -103 48.5 -166t130.5 -92.5t234 -29.5q142 0 317 40v-207q-178 -42 -359 -42q-333 0 -495.5 140.5t-162.5 435.5zM382 641h529q-4 160 -69.5 236t-193.5 76t-195 -76t-71 -236z M470 1454q0 72 45.5 110t136.5 38q90 0 135.5 -38t45.5 -110t-45.5 -109t-135.5 -37q-91 0 -136.5 37t-45.5 109z" />
<glyph unicode="&#x118;" d="M174 0v1516h1151v-225h-859v-403h753v-224h-753v-440h869v-224h-93q-131 -51 -184 -102.5t-53 -113.5q0 -52 39.5 -81.5t117.5 -29.5q35 0 73.5 8t89.5 25v-114q-93 -35 -201 -34q-141 0 -214 54t-73 150q0 71 39 130.5t130 107.5h-832z" />
<glyph unicode="&#x119;" horiz-adv-x="1260" d="M96 556q0 182 65 312t190.5 198.5t301.5 68.5q256 0 391.5 -153t135.5 -434v-71h-797q6 -103 48.5 -166t130.5 -92.5t234 -29.5q142 0 317 40v-207q-155 -46 -219 -107t-64 -132q0 -50 36 -80t102 -30q72 0 145 35v-115q-85 -36 -184 -35q-128 0 -197 54.5t-69 149.5 q0 65 31 120.5t97 97.5h-37q-333 0 -495.5 140.5t-162.5 435.5zM382 635h529q-4 160 -69.5 236t-193.5 76q-129 0 -195.5 -76t-70.5 -236z" />
<glyph unicode="&#x11a;" d="M174 0v1516h1151v-225h-859v-403h753v-224h-753v-440h869v-224h-1161zM329 1942h245l197 -193l196 193h245l-317 -304h-248z" />
<glyph unicode="&#x11b;" horiz-adv-x="1260" d="M96 556q0 182 65 312t190.5 198.5t301.5 68.5q256 0 391.5 -153t135.5 -434v-71h-797q6 -103 48.5 -166t130.5 -92.5t234 -29.5q142 0 317 40v-207q-178 -42 -359 -42q-333 0 -495.5 140.5t-162.5 435.5zM251 1655h221l180 -248l179 248h221l-284 -385h-233zM382 641h529 q-4 160 -69.5 236t-193.5 76t-195 -76t-71 -236z" />
<glyph unicode="&#x11c;" horiz-adv-x="1632" d="M112 753q0 254 107.5 429t312.5 264t497 89q187 0 381 -43v-240q-176 41 -359 41q-314 -1 -473 -132.5t-159 -407.5q0 -529 606 -530q83 0 160 6v508h276v-717q-115 -18 -215 -26.5t-206 -8.5q-464 0 -695.5 193t-232.5 575zM455 1638l318 304h248l317 -304h-245 l-196 193l-197 -193h-245z" />
<glyph unicode="&#x11d;" horiz-adv-x="1402" d="M96 535q0 290 173 445t508 155q119 0 243 -16.5t226 -46.5v-969q0 -201 -69.5 -327.5t-212.5 -186.5t-365 -60q-226 0 -424 55v225q217 -60 406 -61q135 0 217.5 31t120.5 97t38 174v75h-14q-66 -63 -155 -96.5t-197 -33.5q-139 0 -251.5 60t-178 181.5t-65.5 298.5z M330 1270l281 385h233l281 -385h-222l-175 247l-176 -247h-222zM384 558q0 -174 80.5 -252.5t222.5 -78.5q76 0 146.5 24.5t123.5 75.5v565q-96 24 -205 23q-368 0 -368 -357z" />
<glyph unicode="&#x11e;" horiz-adv-x="1632" d="M112 753q0 254 107.5 429t312.5 264t497 89q187 0 381 -43v-240q-176 41 -359 41q-314 -1 -473 -132.5t-159 -407.5q0 -529 606 -530q83 0 160 6v508h276v-717q-115 -18 -215 -26.5t-206 -8.5q-464 0 -695.5 193t-232.5 575zM477 1928h180q32 -141 241 -141 q112 0 167.5 37.5t70.5 103.5h180q-19 -128 -122 -206t-296 -78q-194 0 -298 78t-123 206z" />
<glyph unicode="&#x11f;" horiz-adv-x="1402" d="M96 535q0 290 173 445t508 155q119 0 243 -16.5t226 -46.5v-969q0 -201 -69.5 -327.5t-212.5 -186.5t-365 -60q-226 0 -424 55v225q217 -60 406 -61q135 0 217.5 31t120.5 97t38 174v75h-14q-66 -63 -155 -96.5t-197 -33.5q-139 0 -251.5 60t-178 181.5t-65.5 298.5z M331 1630h177q18 -205 221 -205q200 0 218 205h177q-8 -164 -109.5 -258t-285.5 -94q-185 0 -287 94.5t-111 257.5zM384 558q0 -174 80.5 -252.5t222.5 -78.5q76 0 146.5 24.5t123.5 75.5v565q-96 24 -205 23q-368 0 -368 -357z" />
<glyph unicode="&#x120;" horiz-adv-x="1632" d="M112 753q0 254 107.5 429t312.5 264t497 89q187 0 381 -43v-240q-176 41 -359 41q-314 -1 -473 -132.5t-159 -407.5q0 -529 606 -530q83 0 160 6v508h276v-717q-115 -18 -215 -26.5t-206 -8.5q-464 0 -695.5 193t-232.5 575zM719 1793q0 60 44.5 95t133.5 35t133 -35 t44 -95t-44 -94.5t-133 -34.5t-133.5 34.5t-44.5 94.5z" />
<glyph unicode="&#x121;" horiz-adv-x="1402" d="M96 535q0 290 173 445t508 155q119 0 243 -16.5t226 -46.5v-969q0 -201 -69.5 -327.5t-212.5 -186.5t-365 -60q-226 0 -424 55v225q217 -60 406 -61q135 0 217.5 31t120.5 97t38 174v75h-14q-66 -63 -155 -96.5t-197 -33.5q-139 0 -251.5 60t-178 181.5t-65.5 298.5z M384 558q0 -174 80.5 -252.5t222.5 -78.5q76 0 146.5 24.5t123.5 75.5v565q-96 24 -205 23q-368 0 -368 -357zM546 1454q0 72 45.5 110t136.5 38q90 0 135.5 -38t45.5 -110t-45.5 -109t-135.5 -37q-91 0 -136.5 37t-45.5 109z" />
<glyph unicode="&#x122;" horiz-adv-x="1632" d="M112 753q0 254 107.5 429t312.5 264t497 89q187 0 381 -43v-240q-176 41 -359 41q-314 -1 -473 -132.5t-159 -407.5q0 -529 606 -530q83 0 160 6v508h276v-717q-115 -18 -215 -26.5t-206 -8.5q-464 0 -695.5 193t-232.5 575zM730 -249q0 50 41 77.5t124 27.5 q169 -1 169 -139q0 -52 -20 -111t-55 -105h-175q42 85 51 147q-135 10 -135 103z" />
<glyph unicode="&#x123;" horiz-adv-x="1402" d="M96 535q0 290 173 445t508 155q119 0 243 -16.5t226 -46.5v-969q0 -201 -69.5 -327.5t-212.5 -186.5t-365 -60q-226 0 -424 55v225q217 -60 406 -61q135 0 217.5 31t120.5 97t38 174v75h-14q-66 -63 -155 -96.5t-197 -33.5q-139 0 -251.5 60t-178 181.5t-65.5 298.5z M384 558q0 -174 80.5 -252.5t222.5 -78.5q76 0 146.5 24.5t123.5 75.5v565q-96 24 -205 23q-368 0 -368 -357zM561 1450q0 51 20 110t54 105h176q-42 -85 -52 -146q136 -11 136 -104q0 -50 -41 -77t-124 -27q-169 0 -169 139z" />
<glyph unicode="&#x124;" horiz-adv-x="1734" d="M174 0v1516h295v-613h797v613h295v-1516h-295v649h-797v-649h-295zM426 1638l318 304h248l317 -304h-245l-196 193l-197 -193h-245z" />
<glyph unicode="&#x125;" horiz-adv-x="1394" d="M157 0v1655h288v-651h14q73 65 168 98t200 33q195 0 309.5 -114t114.5 -351v-670h-288v654q0 127 -57.5 181.5t-168.5 54.5q-82 0 -159 -30t-133 -87v-773h-288zM263 1736l318 304h248l317 -304h-245l-196 193l-197 -193h-245z" />
<glyph unicode="&#x126;" horiz-adv-x="1734" d="M8 1120v184h166v212h295v-212h797v212h295v-212h165v-184h-165v-1120h-295v649h-797v-649h-295v1120h-166zM469 903h797v217h-797v-217z" />
<glyph unicode="&#x127;" horiz-adv-x="1394" d="M8 1299v172h149v184h288v-184h435v-172h-435v-295h14q73 65 168 98t200 33q195 0 309.5 -114t114.5 -351v-670h-288v654q0 127 -57.5 181.5t-168.5 54.5q-82 0 -159 -30t-133 -87v-773h-288v1299h-149z" />
<glyph unicode="&#x128;" horiz-adv-x="643" d="M-82 1683v160q42 37 94 54t124 17q51 0 94.5 -10.5t107.5 -29.5q55 -17 94.5 -26.5t80.5 -9.5q65 0 114 16.5t98 52.5v-161q-42 -36 -94 -53t-124 -17q-50 0 -92.5 9.5t-109.5 29.5q-55 17 -94.5 26.5t-80.5 9.5q-65 0 -113.5 -16t-98.5 -52zM174 0v1516h295v-1516h-295z " />
<glyph unicode="&#x129;" horiz-adv-x="602" d="M-78 1343v177q41 39 92 57t118 18q45 0 86.5 -12t98.5 -36q57 -23 90.5 -33t69.5 -10q58 0 106 20t96 64v-177q-42 -39 -93 -57.5t-116 -18.5q-45 0 -86.5 12.5t-99.5 35.5q-57 23 -90.5 33t-69.5 10q-58 0 -106 -19t-96 -64zM157 0v1117h288v-1117h-288z" />
<glyph unicode="&#x12a;" horiz-adv-x="643" d="M-65 1707v167h774v-167h-774zM174 0v1516h295v-1516h-295z" />
<glyph unicode="&#x12b;" horiz-adv-x="602" d="M-78 1372v167h757v-167h-757zM157 0v1117h288v-1117h-288z" />
<glyph unicode="&#x12c;" horiz-adv-x="643" d="M-98 1928h180q32 -141 241 -141q112 0 167.5 37.5t70.5 103.5h180q-19 -128 -122 -206t-296 -78q-194 0 -298 78t-123 206zM174 0v1516h295v-1516h-295z" />
<glyph unicode="&#x12d;" horiz-adv-x="602" d="M-96 1630h177q18 -205 221 -205q200 0 218 205h177q-8 -164 -109.5 -258t-285.5 -94q-185 0 -287 94.5t-111 257.5zM157 0v1117h288v-1117h-288z" />
<glyph unicode="&#x12e;" horiz-adv-x="643" d="M63 -238q0 71 39.5 130.5t129.5 107.5h-58v1516h295v-1516q-131 -51 -184.5 -102.5t-53.5 -113.5q0 -52 40 -81.5t118 -29.5q35 0 73.5 8t89.5 25v-114q-93 -35 -201 -34q-141 0 -214.5 54t-73.5 150z" />
<glyph unicode="&#x12f;" horiz-adv-x="602" d="M60 -238q0 72 37.5 131.5t119.5 106.5h-60v1117h288v-1117q-118 -49 -167.5 -101t-49.5 -117q0 -50 36 -79.5t102 -29.5q70 0 146 35v-115q-86 -36 -184 -35q-129 0 -198.5 54.5t-69.5 149.5zM120 1454q0 72 45.5 110t135.5 38t135.5 -38t45.5 -110t-45.5 -109 t-135.5 -37t-135.5 37t-45.5 109z" />
<glyph unicode="&#x130;" horiz-adv-x="643" d="M144 1793q0 60 44.5 95t133.5 35t133 -35t44 -95t-44 -94.5t-133 -34.5t-133.5 34.5t-44.5 94.5zM174 0v1516h295v-1516h-295z" />
<glyph unicode="&#x131;" horiz-adv-x="602" d="M157 0v1117h288v-1117h-288z" />
<glyph unicode="&#x134;" horiz-adv-x="643" d="M-119 1638l318 304h248l317 -304h-245l-196 193l-197 -193h-245zM-5 -232q97 116 139 241t42 293v1214h293v-1222q-5 -191 -70.5 -345t-219.5 -307z" />
<glyph unicode="&#x135;" horiz-adv-x="602" d="M-103 1276l281 385h233l281 -385h-222l-175 247l-176 -247h-222zM-25 -356q97 116 139.5 241t42.5 293v939h288v-929q0 -195 -67 -354t-220 -314z" />
<glyph unicode="&#x136;" horiz-adv-x="1479" d="M174 0v1516h295v-613h209l459 613h315l-548 -734l596 -782h-328l-495 649h-208v-649h-295zM603 -249q0 50 41 77.5t124 27.5q169 -1 169 -139q0 -52 -20 -111t-55 -105h-175q42 85 51 147q-135 10 -135 103z" />
<glyph unicode="&#x137;" horiz-adv-x="1314" d="M157 0v1655h288v-964h202l342 426h314l-421 -537l456 -580h-318l-371 455h-204v-455h-288zM518 -249q0 50 41 77.5t124 27.5q169 -1 169 -139q0 -52 -20 -111t-55 -105h-175q42 85 51 147q-135 10 -135 103z" />
<glyph unicode="&#x138;" horiz-adv-x="1314" d="M157 0v1117h288v-426h202l342 426h314l-421 -537l456 -580h-318l-371 455h-204v-455h-288z" />
<glyph unicode="&#x139;" horiz-adv-x="1301" d="M174 0v1516h295v-1282h815v-234h-1110zM186 1638l218 304h310l-261 -304h-267z" />
<glyph unicode="&#x13a;" horiz-adv-x="602" d="M157 0v1655h288v-1655h-288zM165 1736l218 304h310l-261 -304h-267z" />
<glyph unicode="&#x13b;" horiz-adv-x="1301" d="M174 0v1516h295v-1282h815v-234h-1110zM562 -249q0 50 41 77.5t124 27.5q169 -1 169 -139q0 -52 -20 -111t-55 -105h-175q42 85 51 147q-135 10 -135 103z" />
<glyph unicode="&#x13c;" horiz-adv-x="602" d="M133 -249q0 50 41 77.5t124 27.5q169 -1 169 -139q0 -52 -20 -111t-55 -105h-175q42 85 51 147q-135 10 -135 103zM157 0v1655h288v-1655h-288z" />
<glyph unicode="&#x13d;" horiz-adv-x="1301" d="M174 0v1516h295v-1282h815v-234h-1110zM836 1167q15 108 21 221t6 267h192q0 -281 -64 -488h-155z" />
<glyph unicode="&#x13e;" horiz-adv-x="602" d="M157 0v1655h288v-1655h-288zM538 1208q29 193 29 447h192q0 -118 -17.5 -234.5t-48.5 -212.5h-155z" />
<glyph unicode="&#x13f;" horiz-adv-x="1301" d="M174 0v1516h295v-1282h815v-234h-1110zM776 878q0 72 46 109.5t136 37.5t135 -38t45 -109q0 -72 -45 -109.5t-135 -37.5t-136 37.5t-46 109.5z" />
<glyph unicode="&#x140;" horiz-adv-x="849" d="M157 0v1655h288v-1655h-288zM537 812q0 72 45 109.5t135 37.5t135.5 -37.5t45.5 -109.5t-45.5 -109t-135.5 -37t-135 37t-45 109z" />
<glyph unicode="&#x141;" horiz-adv-x="1301" d="M-33 733l207 121v662h295v-491l311 181l86 -160l-397 -232v-580h815v-234h-1110v643l-121 -71z" />
<glyph unicode="&#x142;" horiz-adv-x="646" d="M-15 640l194 111v904h289v-740l111 64l84 -157l-195 -110v-712h-289v547l-111 -64z" />
<glyph unicode="&#x143;" horiz-adv-x="1754" d="M174 0v1516h298l830 -1112v1112h278v-1516h-298l-829 1111v-1111h-279zM742 1638l218 304h310l-261 -304h-267z" />
<glyph unicode="&#x144;" horiz-adv-x="1394" d="M157 0v1117h237l19 -117h14q76 65 175.5 100t211.5 35q204 0 320.5 -114.5t116.5 -354.5v-666h-288v652q0 128 -57 183.5t-169 55.5q-80 0 -158 -30t-134 -88v-773h-288zM566 1270l269 385h320l-312 -385h-277z" />
<glyph unicode="&#x145;" horiz-adv-x="1754" d="M174 0v1516h298l830 -1112v1112h278v-1516h-298l-829 1111v-1111h-279zM711 -249q0 50 41 77.5t124 27.5q169 -1 169 -139q0 -52 -20 -111t-55 -105h-175q42 85 51 147q-135 10 -135 103z" />
<glyph unicode="&#x146;" horiz-adv-x="1394" d="M157 0v1117h237l19 -117h14q76 65 175.5 100t211.5 35q204 0 320.5 -114.5t116.5 -354.5v-666h-288v652q0 128 -57 183.5t-169 55.5q-80 0 -158 -30t-134 -88v-773h-288zM538 -249q0 50 41 77.5t124 27.5q169 -1 169 -139q0 -52 -20 -111t-55 -105h-175q42 85 51 147 q-135 10 -135 103z" />
<glyph unicode="&#x147;" horiz-adv-x="1754" d="M174 0v1516h298l830 -1112v1112h278v-1516h-298l-829 1111v-1111h-279zM436 1942h245l197 -193l196 193h245l-317 -304h-248z" />
<glyph unicode="&#x148;" horiz-adv-x="1394" d="M157 0v1117h237l19 -117h14q76 65 175.5 100t211.5 35q204 0 320.5 -114.5t116.5 -354.5v-666h-288v652q0 128 -57 183.5t-169 55.5q-80 0 -158 -30t-134 -88v-773h-288zM304 1655h221l180 -248l179 248h221l-284 -385h-233z" />
<glyph unicode="&#x149;" horiz-adv-x="1394" d="M14 1561q0 50 41 77t124 27q168 0 168 -139q0 -51 -20 -110t-54 -105h-176q42 84 53 146q-135 10 -136 104zM157 0v1117h237l19 -117h14q76 65 175.5 100t211.5 35q204 0 320.5 -114.5t116.5 -354.5v-666h-288v652q0 128 -57 183.5t-169 55.5q-80 0 -158 -30t-134 -88 v-773h-288z" />
<glyph unicode="&#x14a;" horiz-adv-x="1754" d="M174 0v1516h298l830 -1110v1110h278v-1305q0 -211 -66 -373t-221 -318l-182 124q70 83 112.5 169t61.5 184l-832 1113v-1110h-279z" />
<glyph unicode="&#x14b;" horiz-adv-x="1394" d="M157 0v1117h237l19 -117h14q75 66 174.5 100.5t213.5 34.5q203 0 319.5 -114t116.5 -351v-500q-5 -190 -70.5 -343.5t-216.5 -306.5l-183 124q97 116 139.5 241t42.5 293v476q0 127 -57.5 182t-168.5 55q-82 0 -159 -30.5t-133 -87.5v-773h-288z" />
<glyph unicode="&#x14c;" horiz-adv-x="1786" d="M112 758q0 251 95.5 425.5t271 263t414.5 88.5q240 0 416 -89t271 -263.5t95 -424.5t-96 -424.5t-271.5 -263.5t-414.5 -89q-240 0 -415.5 88.5t-270.5 263t-95 425.5zM413 764q0 -280 125.5 -414t354.5 -134t354.5 133t125.5 403q0 278 -126.5 412.5t-353.5 134.5 t-353.5 -132.5t-126.5 -402.5zM506 1707v167h774v-167h-774z" />
<glyph unicode="&#x14d;" horiz-adv-x="1377" d="M96 558q0 187 71.5 316.5t204 195t316.5 65.5q185 0 318 -65t203.5 -193.5t70.5 -318.5q0 -185 -73 -315t-207 -196.5t-312 -66.5q-180 0 -313 65.5t-206 195.5t-73 317zM310 1372v167h757v-167h-757zM384 559q0 -356 304 -356t304 354q0 184 -77.5 268.5t-226.5 84.5 q-147 0 -225.5 -84t-78.5 -267z" />
<glyph unicode="&#x14e;" horiz-adv-x="1786" d="M112 758q0 251 95.5 425.5t271 263t414.5 88.5q240 0 416 -89t271 -263.5t95 -424.5t-96 -424.5t-271.5 -263.5t-414.5 -89q-240 0 -415.5 88.5t-270.5 263t-95 425.5zM413 764q0 -280 125.5 -414t354.5 -134t354.5 133t125.5 403q0 278 -126.5 412.5t-353.5 134.5 t-353.5 -132.5t-126.5 -402.5zM473 1928h180q32 -141 241 -141q112 0 167.5 37.5t70.5 103.5h180q-19 -128 -122 -206t-296 -78q-194 0 -298 78t-123 206z" />
<glyph unicode="&#x14f;" horiz-adv-x="1377" d="M96 558q0 187 71.5 316.5t204 195t316.5 65.5q185 0 318 -65t203.5 -193.5t70.5 -318.5q0 -185 -73 -315t-207 -196.5t-312 -66.5q-180 0 -313 65.5t-206 195.5t-73 317zM292 1630h177q18 -205 221 -205q200 0 218 205h177q-8 -164 -109.5 -258t-285.5 -94 q-185 0 -287 94.5t-111 257.5zM384 559q0 -356 304 -356t304 354q0 184 -77.5 268.5t-226.5 84.5q-147 0 -225.5 -84t-78.5 -267z" />
<glyph unicode="&#x150;" horiz-adv-x="1786" d="M112 758q0 251 95.5 425.5t271 263t414.5 88.5q240 0 416 -89t271 -263.5t95 -424.5t-96 -424.5t-271.5 -263.5t-414.5 -89q-240 0 -415.5 88.5t-270.5 263t-95 425.5zM413 764q0 -280 125.5 -414t354.5 -134t354.5 133t125.5 403q0 278 -126.5 412.5t-353.5 134.5 t-353.5 -132.5t-126.5 -402.5zM577 1638l166 304h226l-181 -304h-211zM997 1638l166 304h226l-181 -304h-211z" />
<glyph unicode="&#x151;" horiz-adv-x="1377" d="M96 558q0 187 71.5 316.5t204 195t316.5 65.5q185 0 318 -65t203.5 -193.5t70.5 -318.5q0 -185 -73 -315t-207 -196.5t-312 -66.5q-180 0 -313 65.5t-206 195.5t-73 317zM375 1270l176 385h226l-193 -385h-209zM384 559q0 -356 304 -356t304 354q0 184 -77.5 268.5 t-226.5 84.5q-147 0 -225.5 -84t-78.5 -267zM793 1270l176 385h225l-192 -385h-209z" />
<glyph unicode="&#x152;" horiz-adv-x="2438" d="M112 758q0 391 235.5 581.5t702.5 190.5q73 0 185 -7q19 -1 82 -4t114 -3h899v-225h-819v-403h713v-224h-713v-440h829v-224h-900q-60 0 -194 -6q-129 -6 -181 -6q-325 0 -535.5 81t-314 251t-103.5 438zM412 756q0 -272 143.5 -402t436.5 -130q151 0 228 8v1051 q-103 10 -228 10q-293 0 -436.5 -131t-143.5 -406z" />
<glyph unicode="&#x153;" horiz-adv-x="2146" d="M96 558q0 186 71 316t201 195.5t308 65.5q316 0 454 -201q69 96 177 148.5t246 52.5q163 0 278 -69t174.5 -200.5t59.5 -316.5v-72h-789q6 -103 48.5 -166t129.5 -92.5t229 -29.5t316 40v-207q-176 -42 -359 -42q-188 0 -317 48t-204 145q-70 -95 -182 -144t-261 -49 q-174 0 -304.5 66t-203 195.5t-72.5 316.5zM384 559q0 -356 302 -356q303 0 303 354q0 184 -77.5 268.5t-225.5 84.5q-146 0 -224 -84.5t-78 -266.5zM1275 641h521q-4 159 -69 235.5t-189 76.5q-126 0 -192.5 -76t-70.5 -236z" />
<glyph unicode="&#x154;" horiz-adv-x="1537" d="M174 0v1477q111 26 244 41t261 15q346 0 515.5 -114t169.5 -360q0 -169 -91 -280t-266 -161l487 -618h-330l-451 579h-36q-95 0 -213 8v-587h-290zM464 803q117 -12 225 -12q208 0 304 64t96 202q0 96 -40.5 154.5t-125 85t-221.5 26.5q-119 0 -238 -23v-497zM624 1638 l218 304h310l-261 -304h-267z" />
<glyph unicode="&#x155;" horiz-adv-x="897" d="M157 0v1117h236l23 -138h14q57 73 148.5 112t195.5 39q58 0 109 -9v-256q-50 9 -124 9q-86 0 -173 -30.5t-141 -90.5v-753h-288zM382 1270l269 385h320l-312 -385h-277z" />
<glyph unicode="&#x156;" horiz-adv-x="1537" d="M174 0v1477q111 26 244 41t261 15q346 0 515.5 -114t169.5 -360q0 -169 -91 -280t-266 -161l487 -618h-330l-451 579h-36q-95 0 -213 8v-587h-290zM464 803q117 -12 225 -12q208 0 304 64t96 202q0 96 -40.5 154.5t-125 85t-221.5 26.5q-119 0 -238 -23v-497zM627 -249 q0 50 41 77.5t124 27.5q169 -1 169 -139q0 -52 -20 -111t-55 -105h-175q42 85 51 147q-135 10 -135 103z" />
<glyph unicode="&#x157;" horiz-adv-x="897" d="M134 -249q0 50 41 77.5t124 27.5q169 -1 169 -139q0 -52 -20 -111t-55 -105h-175q42 85 51 147q-135 10 -135 103zM157 0v1117h236l23 -138h14q57 73 148.5 112t195.5 39q58 0 109 -9v-256q-50 9 -124 9q-86 0 -173 -30.5t-141 -90.5v-753h-288z" />
<glyph unicode="&#x158;" horiz-adv-x="1537" d="M174 0v1477q111 26 244 41t261 15q346 0 515.5 -114t169.5 -360q0 -169 -91 -280t-266 -161l487 -618h-330l-451 579h-36q-95 0 -213 8v-587h-290zM318 1942h245l197 -193l196 193h245l-317 -304h-248zM464 803q117 -12 225 -12q208 0 304 64t96 202q0 96 -40.5 154.5 t-125 85t-221.5 26.5q-119 0 -238 -23v-497z" />
<glyph unicode="&#x159;" horiz-adv-x="897" d="M120 1655h221l180 -248l179 248h221l-284 -385h-233zM157 0v1117h236l23 -138h14q57 73 148.5 112t195.5 39q58 0 109 -9v-256q-50 9 -124 9q-86 0 -173 -30.5t-141 -90.5v-753h-288z" />
<glyph unicode="&#x15a;" horiz-adv-x="1305" d="M83 1084q0 215 167 333t492 118q222 0 404 -51v-236q-86 27 -190 41.5t-208 14.5q-196 0 -284.5 -54t-88.5 -155q0 -56 22.5 -94t75 -64t145.5 -44l114 -22q176 -35 284 -92.5t157.5 -141.5t49.5 -199q0 -143 -76.5 -246t-221 -157t-343.5 -54q-250 -1 -467 68v236 q104 -35 232 -54t238 -19q182 0 264 53.5t82 158.5q0 58 -26 96.5t-85 64t-164 46.5l-113 21q-241 47 -350.5 152t-109.5 280zM529 1638l218 304h310l-261 -304h-267z" />
<glyph unicode="&#x15b;" horiz-adv-x="1133" d="M96 783q0 164 139 258t423 94q89 0 178 -11.5t159 -30.5v-202q-156 44 -335 44q-162 0 -225 -37t-63 -102q0 -47 30.5 -77t107.5 -43l209 -31q174 -26 257 -98.5t83 -216.5q0 -109 -61 -188t-181.5 -120.5t-294.5 -41.5q-227 0 -402 50v201q190 -53 401 -53q140 0 201 35 t61 102q0 52 -30.5 80t-111.5 40l-209 31q-178 27 -257 105.5t-79 211.5zM438 1270l269 385h320l-312 -385h-277z" />
<glyph unicode="&#x15c;" horiz-adv-x="1305" d="M83 1084q0 215 167 333t492 118q222 0 404 -51v-236q-86 27 -190 41.5t-208 14.5q-196 0 -284.5 -54t-88.5 -155q0 -56 22.5 -94t75 -64t145.5 -44l114 -22q176 -35 284 -92.5t157.5 -141.5t49.5 -199q0 -143 -76.5 -246t-221 -157t-343.5 -54q-250 -1 -467 68v236 q104 -35 232 -54t238 -19q182 0 264 53.5t82 158.5q0 58 -26 96.5t-85 64t-164 46.5l-113 21q-241 47 -350.5 152t-109.5 280zM223 1638l318 304h248l317 -304h-245l-196 193l-197 -193h-245z" />
<glyph unicode="&#x15d;" horiz-adv-x="1133" d="M96 783q0 164 139 258t423 94q89 0 178 -11.5t159 -30.5v-202q-156 44 -335 44q-162 0 -225 -37t-63 -102q0 -47 30.5 -77t107.5 -43l209 -31q174 -26 257 -98.5t83 -216.5q0 -109 -61 -188t-181.5 -120.5t-294.5 -41.5q-227 0 -402 50v201q190 -53 401 -53q140 0 201 35 t61 102q0 52 -30.5 80t-111.5 40l-209 31q-178 27 -257 105.5t-79 211.5zM179 1270l281 385h233l281 -385h-222l-175 247l-176 -247h-222z" />
<glyph unicode="&#x15e;" horiz-adv-x="1305" d="M83 1084q0 215 167 333t492 118q222 0 404 -51v-236q-86 27 -190 41.5t-208 14.5q-196 0 -284.5 -54t-88.5 -155q0 -56 22.5 -94t75 -64t145.5 -44l114 -22q176 -35 284 -92.5t157.5 -141.5t49.5 -199q0 -126 -59.5 -221t-172.5 -153.5t-272 -75.5v-80q99 -10 149 -53.5 t50 -118.5q0 -86 -70.5 -132t-202.5 -46q-123 0 -221 35v112q103 -37 209 -37q67 0 100.5 18t33.5 57q0 41 -33.5 59.5t-100.5 18.5h-52v160q-249 0 -466 68v236q104 -35 232 -54t238 -19q182 0 264 53.5t82 158.5q0 58 -26 96.5t-85 64t-164 46.5l-113 21 q-241 47 -350.5 152t-109.5 280z" />
<glyph unicode="&#x15f;" horiz-adv-x="1133" d="M96 783q0 164 139 258t423 94q89 0 178 -11.5t159 -30.5v-202q-156 44 -335 44q-162 0 -225 -37t-63 -102q0 -47 30.5 -77t107.5 -43l209 -31q174 -26 257 -98.5t83 -216.5q0 -143 -103.5 -232.5t-302.5 -110.5v-80q89 -11 134.5 -56.5t45.5 -117.5q0 -83 -66 -129 t-187 -46q-55 0 -108 9t-93 26v112q42 -18 92.5 -27.5t95.5 -9.5q57 0 86 18t29 58q0 41 -28.5 59t-86.5 18h-52v159q-224 2 -395 50v201q190 -53 401 -53q140 0 201 35t61 102q0 52 -30.5 80t-111.5 40l-209 31q-178 27 -257 105.5t-79 211.5z" />
<glyph unicode="&#x160;" horiz-adv-x="1305" d="M83 1084q0 215 167 333t492 118q222 0 404 -51v-236q-86 27 -190 41.5t-208 14.5q-196 0 -284.5 -54t-88.5 -155q0 -56 22.5 -94t75 -64t145.5 -44l114 -22q176 -35 284 -92.5t157.5 -141.5t49.5 -199q0 -143 -76.5 -246t-221 -157t-343.5 -54q-250 -1 -467 68v236 q104 -35 232 -54t238 -19q182 0 264 53.5t82 158.5q0 58 -26 96.5t-85 64t-164 46.5l-113 21q-241 47 -350.5 152t-109.5 280zM223 1942h245l197 -193l196 193h245l-317 -304h-248z" />
<glyph unicode="&#x161;" horiz-adv-x="1133" d="M96 783q0 164 139 258t423 94q89 0 178 -11.5t159 -30.5v-202q-156 44 -335 44q-162 0 -225 -37t-63 -102q0 -47 30.5 -77t107.5 -43l209 -31q174 -26 257 -98.5t83 -216.5q0 -109 -61 -188t-181.5 -120.5t-294.5 -41.5q-227 0 -402 50v201q190 -53 401 -53q140 0 201 35 t61 102q0 52 -30.5 80t-111.5 40l-209 31q-178 27 -257 105.5t-79 211.5zM176 1655h221l180 -248l179 248h221l-284 -385h-233z" />
<glyph unicode="&#x162;" d="M22 1281v235h1390v-235h-548v-1281h-93v-92q99 -10 149 -53.5t50 -118.5q0 -86 -70.5 -132t-202.5 -46q-123 0 -221 35v112q103 -37 209 -37q67 0 100.5 18t33.5 57q0 41 -33 59.5t-101 18.5h-52v179h-64v1281h-547z" />
<glyph unicode="&#x163;" horiz-adv-x="941" d="M30 888v229h213l51 399h237v-399h361v-229h-361v-438q0 -129 55.5 -183.5t174.5 -54.5q57 0 142 16v-224q-110 -25 -220 -24q-23 0 -33 1v-74q89 -11 134 -56.5t45 -117.5q0 -83 -65.5 -129t-186.5 -46q-55 0 -108 9t-93 26v112q42 -18 92.5 -27.5t95.5 -9.5q57 0 86 18 t29 58q0 41 -28.5 59t-86.5 18h-52v179q-269 73 -269 395v493h-213z" />
<glyph unicode="&#x164;" d="M22 1281v235h1390v-235h-548v-1281h-295v1281h-547zM275 1942h245l197 -193l196 193h245l-317 -304h-248z" />
<glyph unicode="&#x165;" horiz-adv-x="941" d="M30 888v229h213l51 399h237v-399h361v-229h-361v-438q0 -129 55.5 -183.5t174.5 -54.5q57 0 142 16v-224q-110 -25 -220 -24q-216 0 -328 103t-112 312v493h-213zM655 1208q29 193 29 447h192q0 -118 -17.5 -234.5t-48.5 -212.5h-155z" />
<glyph unicode="&#x166;" d="M22 1281v235h1390v-235h-548v-426h359v-182h-359v-673h-295v673h-358v182h358v426h-547z" />
<glyph unicode="&#x167;" horiz-adv-x="941" d="M30 888v229h213l51 399h237v-399h361v-229h-361v-193h298v-160h-298v-85q0 -129 55.5 -183.5t174.5 -54.5q57 0 142 16v-224q-110 -25 -220 -24q-216 0 -328 103t-112 312v140h-149v160h149v193h-213z" />
<glyph unicode="&#x168;" horiz-adv-x="1698" d="M167 650v866h295v-891q0 -210 95.5 -308t294.5 -98q200 0 295.5 98t95.5 308v891h290v-866q0 -336 -165 -502.5t-516 -166.5q-354 0 -519.5 166.5t-165.5 502.5zM448 1683v160q42 37 94 54t124 17q51 0 94.5 -10.5t107.5 -29.5q55 -17 94.5 -26.5t80.5 -9.5 q65 0 114 16.5t98 52.5v-161q-42 -36 -94 -53t-124 -17q-50 0 -92.5 9.5t-109.5 29.5q-55 17 -94.5 26.5t-80.5 9.5q-65 0 -113.5 -16t-98.5 -52z" />
<glyph unicode="&#x169;" horiz-adv-x="1384" d="M143 446v671h289v-655q0 -127 56.5 -182t162.5 -55q79 0 156 30.5t132 87.5v774h289v-1117h-238l-18 114h-13q-76 -63 -172 -97.5t-200 -34.5q-207 0 -325.5 113t-118.5 351zM307 1343v177q41 39 92 57t118 18q45 0 86.5 -12t98.5 -36q57 -23 90.5 -33t69.5 -10 q58 0 106 20t96 64v-177q-42 -39 -93 -57.5t-116 -18.5q-45 0 -86.5 12.5t-99.5 35.5q-57 23 -90.5 33t-69.5 10q-58 0 -106 -19t-96 -64z" />
<glyph unicode="&#x16a;" horiz-adv-x="1698" d="M167 650v866h295v-891q0 -210 95.5 -308t294.5 -98q200 0 295.5 98t95.5 308v891h290v-866q0 -336 -165 -502.5t-516 -166.5q-354 0 -519.5 166.5t-165.5 502.5zM465 1707v167h774v-167h-774z" />
<glyph unicode="&#x16b;" horiz-adv-x="1384" d="M143 446v671h289v-655q0 -127 56.5 -182t162.5 -55q79 0 156 30.5t132 87.5v774h289v-1117h-238l-18 114h-13q-76 -63 -172 -97.5t-200 -34.5q-207 0 -325.5 113t-118.5 351zM307 1372v167h757v-167h-757z" />
<glyph unicode="&#x16c;" horiz-adv-x="1698" d="M167 650v866h295v-891q0 -210 95.5 -308t294.5 -98q200 0 295.5 98t95.5 308v891h290v-866q0 -336 -165 -502.5t-516 -166.5q-354 0 -519.5 166.5t-165.5 502.5zM432 1928h180q32 -141 241 -141q112 0 167.5 37.5t70.5 103.5h180q-19 -128 -122 -206t-296 -78 q-194 0 -298 78t-123 206z" />
<glyph unicode="&#x16d;" horiz-adv-x="1384" d="M143 446v671h289v-655q0 -127 56.5 -182t162.5 -55q79 0 156 30.5t132 87.5v774h289v-1117h-238l-18 114h-13q-76 -63 -172 -97.5t-200 -34.5q-207 0 -325.5 113t-118.5 351zM289 1630h177q18 -205 221 -205q200 0 218 205h177q-8 -164 -109.5 -258t-285.5 -94 q-185 0 -287 94.5t-111 257.5z" />
<glyph unicode="&#x16e;" horiz-adv-x="1698" d="M167 650v866h295v-891q0 -210 95.5 -308t294.5 -98q200 0 295.5 98t95.5 308v891h290v-866q0 -336 -165 -502.5t-516 -166.5q-354 0 -519.5 166.5t-165.5 502.5zM639 1836q0 59 27.5 107t76 74.5t109.5 26.5q60 0 108.5 -26.5t76.5 -74.5t28 -107t-28 -107t-76.5 -75 t-108.5 -27q-61 0 -109.5 27t-76 75t-27.5 107zM747 1836q0 -49 28.5 -78t76.5 -29q47 0 75.5 29t28.5 78t-29 78.5t-75 29.5t-75.5 -29.5t-29.5 -78.5z" />
<glyph unicode="&#x16f;" horiz-adv-x="1384" d="M143 446v671h289v-655q0 -127 56.5 -182t162.5 -55q79 0 156 30.5t132 87.5v774h289v-1117h-238l-18 114h-13q-76 -63 -172 -97.5t-200 -34.5q-207 0 -325.5 113t-118.5 351zM473 1474q0 59 27.5 106t76 74t109.5 27q60 0 108.5 -27t76.5 -74t28 -106t-28 -107t-76.5 -75 t-108.5 -27q-61 0 -109.5 27t-76 74.5t-27.5 107.5zM581 1474q0 -49 28.5 -78.5t76.5 -29.5q47 0 75.5 29t28.5 79q0 49 -29 78t-75 29t-75.5 -29t-29.5 -78z" />
<glyph unicode="&#x170;" horiz-adv-x="1698" d="M167 650v866h295v-891q0 -210 95.5 -308t294.5 -98q200 0 295.5 98t95.5 308v891h290v-866q0 -336 -165 -502.5t-516 -166.5q-354 0 -519.5 166.5t-165.5 502.5zM536 1638l166 304h226l-181 -304h-211zM956 1638l166 304h226l-181 -304h-211z" />
<glyph unicode="&#x171;" horiz-adv-x="1384" d="M143 446v671h289v-655q0 -127 56.5 -182t162.5 -55q79 0 156 30.5t132 87.5v774h289v-1117h-238l-18 114h-13q-76 -63 -172 -97.5t-200 -34.5q-207 0 -325.5 113t-118.5 351zM372 1270l176 385h226l-193 -385h-209zM790 1270l176 385h225l-192 -385h-209z" />
<glyph unicode="&#x172;" horiz-adv-x="1698" d="M167 650v866h295v-891q0 -210 95.5 -308t294.5 -98q200 0 295.5 98t95.5 308v891h290v-866q0 -261 -98.5 -419t-305.5 -217q-163 -46 -231.5 -101t-68.5 -125q0 -54 39.5 -83.5t118.5 -29.5q35 0 73.5 8t89.5 25v-114q-96 -36 -201 -35q-142 0 -214.5 54.5t-72.5 154.5 q0 133 139 214q-327 12 -480.5 178.5t-153.5 489.5z" />
<glyph unicode="&#x173;" horiz-adv-x="1384" d="M143 446v671h289v-655q0 -127 56.5 -182t162.5 -55q79 0 156 30.5t132 87.5v774h289v-1117q-118 -49 -167.5 -101t-49.5 -117q0 -50 35.5 -79.5t101.5 -29.5q70 0 146 35v-115q-86 -36 -184 -35q-129 0 -198 54.5t-69 149.5q0 72 37.5 131.5t118.5 106.5h-9l-18 114h-13 q-76 -63 -172 -97.5t-200 -34.5q-207 0 -325.5 113t-118.5 351z" />
<glyph unicode="&#x174;" horiz-adv-x="2588" d="M52 1516h300l381 -1260l403 1260h331l397 -1272l389 1272h283l-473 -1516h-376l-390 1232l-395 -1232h-376zM854 1638l318 304h248l317 -304h-245l-196 193l-197 -193h-245z" />
<glyph unicode="&#x175;" horiz-adv-x="2038" d="M75 1117h280l247 -832l259 832h329l254 -825l252 825h268l-344 -1117h-329l-269 861l-272 -861h-329zM623 1270l281 385h233l281 -385h-222l-175 247l-176 -247h-222z" />
<glyph unicode="&#x176;" d="M-41 1516h320l445 -631l436 631h299l-593 -864v-652h-295v649zM274 1638l318 304h248l317 -304h-245l-196 193l-197 -193h-245z" />
<glyph unicode="&#x177;" horiz-adv-x="1320" d="M10 1117h306l353 -878l358 878h284l-667 -1568h-284l193 451h-70zM264 1270l281 385h233l281 -385h-222l-175 247l-176 -247h-222z" />
<glyph unicode="&#x178;" d="M-41 1516h320l445 -631l436 631h299l-593 -864v-652h-295v649zM274 1793q0 61 39 95.5t117 34.5q77 0 116 -34.5t39 -95.5t-38.5 -95t-116.5 -34t-117 34t-39 95zM847 1793q0 61 38.5 95.5t115.5 34.5q78 0 117 -34.5t39 -95.5t-39 -95t-117 -34t-116 34t-38 95z" />
<glyph unicode="&#x179;" horiz-adv-x="1411" d="M80 0v160l855 1122h-844v234h1229v-160l-856 -1123h868v-233h-1252zM571 1638l218 304h310l-261 -304h-267z" />
<glyph unicode="&#x17a;" horiz-adv-x="1170" d="M83 0v185l622 703h-610v229h996v-185l-622 -703h633v-229h-1019zM454 1270l269 385h320l-312 -385h-277z" />
<glyph unicode="&#x17b;" horiz-adv-x="1411" d="M80 0v160l855 1122h-844v234h1229v-160l-856 -1123h868v-233h-1252zM529 1793q0 60 44.5 95t133.5 35t133 -35t44 -95t-44 -94.5t-133 -34.5t-133.5 34.5t-44.5 94.5z" />
<glyph unicode="&#x17c;" horiz-adv-x="1170" d="M83 0v185l622 703h-610v229h996v-185l-622 -703h633v-229h-1019zM411 1454q0 72 45.5 110t136.5 38q90 0 135.5 -38t45.5 -110t-45.5 -109t-135.5 -37q-91 0 -136.5 37t-45.5 109z" />
<glyph unicode="&#x17d;" horiz-adv-x="1411" d="M80 0v160l855 1122h-844v234h1229v-160l-856 -1123h868v-233h-1252zM265 1942h245l197 -193l196 193h245l-317 -304h-248z" />
<glyph unicode="&#x17e;" horiz-adv-x="1170" d="M83 0v185l622 703h-610v229h996v-185l-622 -703h633v-229h-1019zM192 1655h221l180 -248l179 248h221l-284 -385h-233z" />
<glyph unicode="&#x18f;" horiz-adv-x="1768" d="M101 749v101h1260q-32 239 -205 345.5t-483 106.5q-113 0 -236.5 -13t-230.5 -39v237q224 48 485 48q478 0 722.5 -193t244.5 -597q0 -247 -92.5 -418.5t-264.5 -258.5t-407 -87q-244 0 -422 87t-274.5 259t-96.5 422zM404 640q22 -228 145.5 -332.5t347.5 -104.5 q208 0 327 103.5t140 333.5h-960z" />
<glyph unicode="&#x192;" horiz-adv-x="905" d="M-162 -233q82 -10 140 -11q139 0 206 56t67 176v899h-213v230h213v88q0 147 61 253.5t177 161.5t280 55q90 0 182 -13v-224q-81 10 -139 10q-140 0 -206 -56t-66 -175v-100h360v-230h-360v-888q0 -147 -61 -253t-178 -161.5t-281 -55.5q-90 0 -182 13v225z" />
<glyph unicode="&#x1a0;" horiz-adv-x="1786" d="M112 758q0 251 95.5 425.5t271 263t414.5 88.5q51 0 110 -5t71 -6q127 -12 192 -13q114 0 168.5 39t54.5 124q0 63 -19 145h192q12 -42 17 -77t5 -75q0 -126 -68.5 -200.5t-194.5 -91.5q123 -97 188.5 -252.5t65.5 -364.5q0 -253 -95 -427t-270.5 -262t-416.5 -88 q-240 0 -415.5 88.5t-270.5 263t-95 425.5zM413 764q0 -280 125.5 -414t354.5 -134t354.5 133t125.5 403q0 278 -126.5 412.5t-353.5 134.5t-353.5 -132.5t-126.5 -402.5z" />
<glyph unicode="&#x1a1;" horiz-adv-x="1377" d="M96 558q0 187 72 316.5t207 195t324 65.5q50 0 146 -8q51 -5 83 -5q106 0 159.5 38.5t53.5 124.5q0 63 -19 145h183q12 -42 16.5 -77t4.5 -75q0 -113 -54.5 -185t-156.5 -98q165 -147 165 -437q0 -185 -73 -315t-207 -196.5t-312 -66.5q-180 0 -313 65.5t-206 195.5 t-73 317zM384 559q0 -356 304 -356t304 354q0 184 -77.5 268.5t-226.5 84.5q-147 0 -225.5 -84t-78.5 -267z" />
<glyph unicode="&#x1af;" horiz-adv-x="1698" d="M167 650v866h295v-891q0 -210 95.5 -308t294.5 -98q200 0 295.5 98t95.5 308v891h91q115 0 170 36.5t55 121.5q0 34 -5 67t-15 78h192q12 -42 17 -77t5 -75q0 -112 -57 -182.5t-163 -91.5v-743q0 -336 -165 -502.5t-516 -166.5q-354 0 -519.5 166.5t-165.5 502.5z" />
<glyph unicode="&#x1b0;" horiz-adv-x="1416" d="M143 446v671h289v-655q0 -127 56.5 -182t162.5 -55q79 0 156 30.5t132 87.5v774h118q106 0 159.5 38.5t53.5 124.5q0 63 -19 144h182q12 -42 17 -76.5t5 -74.5q0 -118 -59 -190.5t-168 -96.5v-986h-238l-18 114h-13q-76 -63 -172 -97.5t-200 -34.5q-207 0 -325.5 113 t-118.5 351z" />
<glyph unicode="&#x1c4;" horiz-adv-x="3067" d="M174 15v1462q112 26 253.5 39.5t271.5 13.5q905 0 906 -772q0 -267 -107 -437t-321.5 -251.5t-543.5 -81.5q-242 -1 -459 27zM469 236q99 -12 237 -13q306 0 451.5 129.5t145.5 407.5q0 274 -147 404.5t-447 130.5q-111 0 -240 -21v-1038zM1737 0v160l855 1122h-844v234 h1229v-160l-856 -1123h868v-233h-1252zM1922 1942h245l197 -193l196 193h245l-317 -304h-248z" />
<glyph unicode="&#x1c5;" horiz-adv-x="2886" d="M174 15v1462q112 26 253.5 39.5t271.5 13.5q905 0 906 -772q0 -267 -107 -437t-321.5 -251.5t-543.5 -81.5q-242 -1 -459 27zM469 236q99 -12 237 -13q306 0 451.5 129.5t145.5 407.5q0 274 -147 404.5t-447 130.5q-111 0 -240 -21v-1038zM1799 0v185l622 703h-610v229 h996v-185l-622 -703h633v-229h-1019zM1868 1614h245l197 -193l196 193h245l-317 -304h-248z" />
<glyph unicode="&#x1c6;" horiz-adv-x="2573" d="M96 535q0 194 76 328.5t220.5 204t348.5 69.5q93 0 216 -17v535h289v-1655h-241l-17 121h-15q-65 -66 -156.5 -102.5t-201.5 -36.5q-150 0 -267 58.5t-184.5 182.5t-67.5 312zM384 555q0 -341 305 -341q77 0 147 26.5t121 84.5v570q-95 22 -198 21q-189 0 -282 -89 t-93 -272zM1486 0v185l622 703h-610v229h996v-185l-622 -703h633v-229h-1019zM1595 1655h221l180 -248l179 248h221l-284 -385h-233z" />
<glyph unicode="&#x1c7;" horiz-adv-x="1944" d="M174 0v1516h295v-1282h815v-234h-1110zM1297 -232q97 116 139 241t42 293v1214h293v-1222q-5 -191 -70.5 -345t-219.5 -307z" />
<glyph unicode="&#x1c8;" horiz-adv-x="1903" d="M174 0v1516h295v-1282h815v-234h-1110zM1277 -356q97 116 139.5 241t42.5 293v939h288v-929q0 -195 -67 -354t-220 -314zM1415 1460q0 72 45.5 110t136.5 38q90 0 135.5 -38t45.5 -110t-45.5 -109t-135.5 -37q-91 0 -136.5 37t-45.5 109z" />
<glyph unicode="&#x1c9;" horiz-adv-x="1204" d="M157 0v1655h288v-1655h-288zM577 -356q97 116 139.5 241t42.5 293v939h288v-929q0 -195 -67 -354t-220 -314zM715 1460q0 72 45.5 110t136.5 38q90 0 135.5 -38t45.5 -110t-45.5 -109t-135.5 -37q-91 0 -136.5 37t-45.5 109z" />
<glyph unicode="&#x1ca;" horiz-adv-x="2397" d="M174 0v1516h298l830 -1112v1112h278v-1516h-298l-829 1111v-1111h-279zM1749 -232q97 116 139 241t42 293v1214h293v-1222q-5 -191 -70.5 -345t-219.5 -307z" />
<glyph unicode="&#x1cb;" horiz-adv-x="2356" d="M174 0v1516h298l830 -1112v1112h278v-1516h-298l-829 1111v-1111h-279zM1729 -356q97 116 139.5 241t42.5 293v939h288v-929q0 -195 -67 -354t-220 -314zM1867 1460q0 72 45.5 110t136.5 38q90 0 135.5 -38t45.5 -110t-45.5 -109t-135.5 -37q-91 0 -136.5 37t-45.5 109z " />
<glyph unicode="&#x1cc;" horiz-adv-x="1996" d="M157 0v1117h237l19 -117h14q76 65 175.5 100t211.5 35q204 0 320.5 -114.5t116.5 -354.5v-666h-288v652q0 128 -57 183.5t-169 55.5q-80 0 -158 -30t-134 -88v-773h-288zM1370 -356q97 116 139.5 241t42.5 293v939h288v-929q0 -195 -67 -354t-220 -314zM1508 1460 q0 72 45.5 110t136.5 38q90 0 135.5 -38t45.5 -110t-45.5 -109t-135.5 -37q-91 0 -136.5 37t-45.5 109z" />
<glyph unicode="&#x1e6;" horiz-adv-x="1632" d="M112 753q0 254 107.5 429t312.5 264t497 89q187 0 381 -43v-240q-176 41 -359 41q-314 -1 -473 -132.5t-159 -407.5q0 -529 606 -530q83 0 160 6v508h276v-717q-115 -18 -215 -26.5t-206 -8.5q-464 0 -695.5 193t-232.5 575zM455 1942h245l197 -193l196 193h245 l-317 -304h-248z" />
<glyph unicode="&#x1e7;" horiz-adv-x="1402" d="M96 535q0 290 173 445t508 155q119 0 243 -16.5t226 -46.5v-969q0 -201 -69.5 -327.5t-212.5 -186.5t-365 -60q-226 0 -424 55v225q217 -60 406 -61q135 0 217.5 31t120.5 97t38 174v75h-14q-66 -63 -155 -96.5t-197 -33.5q-139 0 -251.5 60t-178 181.5t-65.5 298.5z M327 1655h221l180 -248l179 248h221l-284 -385h-233zM384 558q0 -174 80.5 -252.5t222.5 -78.5q76 0 146.5 24.5t123.5 75.5v565q-96 24 -205 23q-368 0 -368 -357z" />
<glyph unicode="&#x1ea;" horiz-adv-x="1786" d="M112 758q0 251 95.5 425.5t271 263t414.5 88.5q240 0 415.5 -88t271 -262t95.5 -427q0 -212 -68 -366t-184.5 -247.5t-266.5 -132.5q-164 -44 -228.5 -101.5t-64.5 -126.5q0 -52 39.5 -81.5t117.5 -29.5q66 0 164 33v-114q-95 -35 -202 -34q-140 0 -214 54t-74 150 q0 137 140 220q-223 11 -385 103t-249.5 262t-87.5 411zM413 764q0 -280 125.5 -414t354.5 -134t354.5 133t125.5 403q0 278 -126.5 412.5t-353.5 134.5t-353.5 -132.5t-126.5 -402.5z" />
<glyph unicode="&#x1eb;" horiz-adv-x="1377" d="M96 558q0 187 71.5 316.5t204 195t316.5 65.5q185 0 318 -65t203.5 -193.5t70.5 -318.5q0 -217 -98 -356.5t-272 -191.5q-150 -45 -208 -101.5t-58 -123.5q0 -52 36 -82t100 -30q69 0 138 31l9 -112q-84 -35 -185 -34q-128 0 -197 54.5t-69 149.5q0 137 133 221 q-158 14 -273 83.5t-177.5 194t-62.5 297.5zM384 559q0 -356 304 -356t304 354q0 184 -77.5 268.5t-226.5 84.5q-147 0 -225.5 -84t-78.5 -267z" />
<glyph unicode="&#x1f1;" horiz-adv-x="3067" d="M174 15v1462q112 26 253.5 39.5t271.5 13.5q905 0 906 -772q0 -267 -107 -437t-321.5 -251.5t-543.5 -81.5q-242 -1 -459 27zM469 236q99 -12 237 -13q306 0 451.5 129.5t145.5 407.5q0 274 -147 404.5t-447 130.5q-111 0 -240 -21v-1038zM1737 0v160l855 1122h-844v234 h1229v-160l-856 -1123h868v-233h-1252z" />
<glyph unicode="&#x1f2;" horiz-adv-x="2886" d="M174 15v1462q112 26 253.5 39.5t271.5 13.5q905 0 906 -772q0 -267 -107 -437t-321.5 -251.5t-543.5 -81.5q-242 -1 -459 27zM469 236q99 -12 237 -13q306 0 451.5 129.5t145.5 407.5q0 274 -147 404.5t-447 130.5q-111 0 -240 -21v-1038zM1799 0v185l622 703h-610v229 h996v-185l-622 -703h633v-229h-1019z" />
<glyph unicode="&#x1f3;" horiz-adv-x="2573" d="M96 535q0 194 76 328.5t220.5 204t348.5 69.5q93 0 216 -17v535h289v-1655h-241l-17 121h-15q-65 -66 -156.5 -102.5t-201.5 -36.5q-150 0 -267 58.5t-184.5 182.5t-67.5 312zM384 555q0 -341 305 -341q77 0 147 26.5t121 84.5v570q-95 22 -198 21q-189 0 -282 -89 t-93 -272zM1486 0v185l622 703h-610v229h996v-185l-622 -703h633v-229h-1019z" />
<glyph unicode="&#x1f4;" horiz-adv-x="1632" d="M112 753q0 254 107.5 429t312.5 264t497 89q187 0 381 -43v-240q-176 41 -359 41q-314 -1 -473 -132.5t-159 -407.5q0 -529 606 -530q83 0 160 6v508h276v-717q-115 -18 -215 -26.5t-206 -8.5q-464 0 -695.5 193t-232.5 575zM761 1638l218 304h310l-261 -304h-267z" />
<glyph unicode="&#x1f5;" horiz-adv-x="1402" d="M96 535q0 290 173 445t508 155q119 0 243 -16.5t226 -46.5v-969q0 -201 -69.5 -327.5t-212.5 -186.5t-365 -60q-226 0 -424 55v225q217 -60 406 -61q135 0 217.5 31t120.5 97t38 174v75h-14q-66 -63 -155 -96.5t-197 -33.5q-139 0 -251.5 60t-178 181.5t-65.5 298.5z M384 558q0 -174 80.5 -252.5t222.5 -78.5q76 0 146.5 24.5t123.5 75.5v565q-96 24 -205 23q-368 0 -368 -357zM589 1270l269 385h320l-312 -385h-277z" />
<glyph unicode="&#x1fa;" horiz-adv-x="1652" d="M32 0l583 1516h422l584 -1516h-293l-162 433h-683l-162 -433h-289zM567 658h514l-257 685zM613 1836q0 59 27.5 107t76 74.5t109.5 26.5q36 0 66 -9l113 130h202l-199 -216q31 -50 31 -113q0 -59 -28 -107t-76.5 -75t-108.5 -27t-109 27t-76.5 75t-27.5 107zM721 1836 q0 -49 28.5 -78t76.5 -29q47 0 75.5 29t28.5 78t-29 78.5t-75 29.5t-75.5 -29.5t-29.5 -78.5z" />
<glyph unicode="&#x1fb;" horiz-adv-x="1264" d="M95 299q0 154 118 238.5t373 102.5l252 24v22q0 91 -32 142t-98 72.5t-178 21.5q-78 0 -169.5 -13t-173.5 -39v210q86 27 190 41t200 14q191 0 309.5 -44t176 -146.5t57.5 -279.5v-665h-240l-20 113h-14q-61 -63 -153.5 -97.5t-197.5 -34.5q-128 0 -218 39.5t-136 111.5 t-46 167zM383 322q0 -70 49 -109t148 -39q70 0 136.5 23.5t121.5 70.5v233l-229 -21q-122 -12 -174 -50.5t-52 -107.5zM416 1474q0 59 27.5 106t76 74t109.5 27q35 0 65 -9l123 151h202l-209 -236q32 -51 32 -113q0 -59 -28 -107t-76.5 -75t-108.5 -27t-109 27t-76.5 74.5 t-27.5 107.5zM524 1474q0 -49 28.5 -78.5t76.5 -29.5q47 0 75.5 29t28.5 79q0 49 -29 78t-75 29t-75.5 -29t-29.5 -78z" />
<glyph unicode="&#x1fc;" horiz-adv-x="2242" d="M32 0l589 1516h1513v-225h-858l37 -403h716v-224h-696l40 -440h771v-224h-1047l-37 433h-575l-164 -433h-289zM571 658h469l-53 633h-175zM986 1638l218 304h310l-261 -304h-267z" />
<glyph unicode="&#x1fd;" horiz-adv-x="1991" d="M95 301q0 160 123.5 250t382.5 90h237v45q0 91 -32 142t-98 72.5t-178 21.5q-78 0 -169.5 -13t-173.5 -39v210q87 27 186 41t192 14q165 0 273.5 -37t168.5 -121q69 77 168 117.5t224 40.5q163 0 277.5 -69t174.5 -200.5t60 -316.5v-72h-790q6 -103 48.5 -166 t129.5 -92.5t230 -29.5q142 0 315 40v-207q-176 -42 -358 -42q-184 0 -315 43.5t-209 133.5q-188 -176 -444 -176q-138 0 -233 39.5t-142.5 112t-47.5 168.5zM383 322q0 -71 50 -109.5t149 -38.5q82 0 155.5 29t140.5 97q-30 80 -37 179h-219q-239 0 -239 -157zM848 1270 l269 385h320l-312 -385h-277zM1120 641h521q-4 159 -68.5 235.5t-189.5 76.5q-126 0 -192.5 -76t-70.5 -236z" />
<glyph unicode="&#x1fe;" horiz-adv-x="1786" d="M112 758q0 251 95.5 425.5t271 263t414.5 88.5q287 0 478 -125l132 148l116 -105l-129 -144q90 -100 137.5 -238t47.5 -313q0 -250 -96 -424.5t-271.5 -263.5t-414.5 -89q-287 0 -478 124l-132 -147l-116 104l129 145q-90 98 -137 237t-47 314zM413 764q-1 -211 74 -343 l707 791q-116 87 -301 87q-227 0 -353.5 -132.5t-126.5 -402.5zM591 302q116 -86 302 -86q229 0 354.5 133t125.5 403q0 211 -76 342zM751 1638l218 304h310l-261 -304h-267z" />
<glyph unicode="&#x1ff;" horiz-adv-x="1377" d="M96 558q0 187 71.5 316.5t204 195t316.5 65.5q182 0 314 -64l82 104l111 -92l-74 -92q159 -149 159 -433q0 -185 -73 -315t-207 -196.5t-312 -66.5q-179 0 -313 65l-81 -102l-111 91l74 93q-78 74 -119.5 182.5t-41.5 248.5zM382 559q0 -142 47 -227l429 544 q-69 38 -170 37q-149 0 -227.5 -85t-78.5 -269zM519 240q68 -39 169 -39q150 0 228.5 85.5t78.5 270.5q0 143 -48 227zM542 1270l269 385h320l-312 -385h-277z" />
<glyph unicode="&#x200;" horiz-adv-x="1652" d="M32 0l583 1516h422l584 -1516h-293l-162 433h-683l-162 -433h-289zM329 1942h226l166 -304h-211zM567 658h514l-257 685zM749 1942h226l166 -304h-211z" />
<glyph unicode="&#x201;" horiz-adv-x="1264" d="M95 299q0 154 118 238.5t373 102.5l252 24v22q0 91 -32 142t-98 72.5t-178 21.5q-78 0 -169.5 -13t-173.5 -39v210q86 27 190 41t200 14q191 0 309.5 -44t176 -146.5t57.5 -279.5v-665h-240l-20 113h-14q-61 -63 -153.5 -97.5t-197.5 -34.5q-128 0 -218 39.5t-136 111.5 t-46 167zM121 1655h227l176 -385h-211zM383 322q0 -70 49 -109t148 -39q70 0 136.5 23.5t121.5 70.5v233l-229 -21q-122 -12 -174 -50.5t-52 -107.5zM541 1655h227l176 -385h-211z" />
<glyph unicode="&#x202;" horiz-adv-x="1652" d="M32 0l583 1516h422l584 -1516h-293l-162 433h-683l-162 -433h-289zM406 1652q19 128 122 205.5t297 77.5t297.5 -78t122.5 -205h-180q-32 140 -240 140q-112 0 -168 -37t-71 -103h-180zM567 658h514l-257 685z" />
<glyph unicode="&#x203;" horiz-adv-x="1264" d="M95 299q0 154 118 238.5t373 102.5l252 24v22q0 91 -32 142t-98 72.5t-178 21.5q-78 0 -169.5 -13t-173.5 -39v210q86 27 190 41t200 14q191 0 309.5 -44t176 -146.5t57.5 -279.5v-665h-240l-20 113h-14q-61 -63 -153.5 -97.5t-197.5 -34.5q-128 0 -218 39.5t-136 111.5 t-46 167zM232 1298q9 164 110 259t286 95q124 0 211 -43.5t133.5 -123t52.5 -187.5h-177q-9 97 -63 150.5t-157 53.5q-200 0 -219 -204h-177zM383 322q0 -70 49 -109t148 -39q70 0 136.5 23.5t121.5 70.5v233l-229 -21q-122 -12 -174 -50.5t-52 -107.5z" />
<glyph unicode="&#x204;" d="M174 0v1516h1151v-225h-859v-403h753v-224h-753v-440h869v-224h-1161zM274 1942h226l166 -304h-211zM694 1942h226l166 -304h-211z" />
<glyph unicode="&#x205;" horiz-adv-x="1260" d="M96 556q0 182 65 312t190.5 198.5t301.5 68.5q256 0 391.5 -153t135.5 -434v-71h-797q6 -103 48.5 -166t130.5 -92.5t234 -29.5q142 0 317 40v-207q-178 -42 -359 -42q-333 0 -495.5 140.5t-162.5 435.5zM144 1655h227l176 -385h-211zM382 641h529q-4 160 -69.5 236 t-193.5 76t-195 -76t-71 -236zM564 1655h227l176 -385h-211z" />
<glyph unicode="&#x206;" d="M174 0v1516h1151v-225h-859v-403h753v-224h-753v-440h869v-224h-1161zM351 1652q19 128 122 205.5t297 77.5t297.5 -78t122.5 -205h-180q-32 140 -240 140q-112 0 -168 -37t-71 -103h-180z" />
<glyph unicode="&#x207;" horiz-adv-x="1260" d="M96 556q0 182 65 312t190.5 198.5t301.5 68.5q256 0 391.5 -153t135.5 -434v-71h-797q6 -103 48.5 -166t130.5 -92.5t234 -29.5q142 0 317 40v-207q-178 -42 -359 -42q-333 0 -495.5 140.5t-162.5 435.5zM255 1298q9 164 110 259t286 95q124 0 211 -43.5t133.5 -123 t52.5 -187.5h-177q-9 97 -63 150.5t-157 53.5q-200 0 -219 -204h-177zM382 641h529q-4 160 -69.5 236t-193.5 76t-195 -76t-71 -236z" />
<glyph unicode="&#x208;" horiz-adv-x="643" d="M-175 1942h226l166 -304h-211zM174 0v1516h295v-1516h-295zM245 1942h226l166 -304h-211z" />
<glyph unicode="&#x209;" horiz-adv-x="602" d="M-207 1655h227l176 -385h-211zM157 0v1117h288v-1117h-288zM213 1655h227l176 -385h-211z" />
<glyph unicode="&#x20a;" horiz-adv-x="643" d="M-98 1652q19 128 122 205.5t297 77.5t297.5 -78t122.5 -205h-180q-32 140 -240 140q-112 0 -168 -37t-71 -103h-180zM174 0v1516h295v-1516h-295z" />
<glyph unicode="&#x20b;" horiz-adv-x="602" d="M-96 1298q9 164 110 259t286 95q124 0 211 -43.5t133.5 -123t52.5 -187.5h-177q-9 97 -63 150.5t-157 53.5q-200 0 -219 -204h-177zM157 0v1117h288v-1117h-288z" />
<glyph unicode="&#x20c;" horiz-adv-x="1786" d="M112 758q0 251 95.5 425.5t271 263t414.5 88.5q240 0 416 -89t271 -263.5t95 -424.5t-96 -424.5t-271.5 -263.5t-414.5 -89q-240 0 -415.5 88.5t-270.5 263t-95 425.5zM396 1942h226l166 -304h-211zM413 764q0 -280 125.5 -414t354.5 -134t354.5 133t125.5 403 q0 278 -126.5 412.5t-353.5 134.5t-353.5 -132.5t-126.5 -402.5zM816 1942h226l166 -304h-211z" />
<glyph unicode="&#x20d;" horiz-adv-x="1377" d="M96 558q0 187 71.5 316.5t204 195t316.5 65.5q185 0 318 -65t203.5 -193.5t70.5 -318.5q0 -185 -73 -315t-207 -196.5t-312 -66.5q-180 0 -313 65.5t-206 195.5t-73 317zM181 1655h227l176 -385h-211zM384 559q0 -356 304 -356t304 354q0 184 -77.5 268.5t-226.5 84.5 q-147 0 -225.5 -84t-78.5 -267zM601 1655h227l176 -385h-211z" />
<glyph unicode="&#x20e;" horiz-adv-x="1786" d="M112 758q0 251 95.5 425.5t271 263t414.5 88.5q240 0 416 -89t271 -263.5t95 -424.5t-96 -424.5t-271.5 -263.5t-414.5 -89q-240 0 -415.5 88.5t-270.5 263t-95 425.5zM413 764q0 -280 125.5 -414t354.5 -134t354.5 133t125.5 403q0 278 -126.5 412.5t-353.5 134.5 t-353.5 -132.5t-126.5 -402.5zM473 1652q19 128 122 205.5t297 77.5t297.5 -78t122.5 -205h-180q-32 140 -240 140q-112 0 -168 -37t-71 -103h-180z" />
<glyph unicode="&#x20f;" horiz-adv-x="1377" d="M96 558q0 187 71.5 316.5t204 195t316.5 65.5q185 0 318 -65t203.5 -193.5t70.5 -318.5q0 -185 -73 -315t-207 -196.5t-312 -66.5q-180 0 -313 65.5t-206 195.5t-73 317zM292 1298q9 164 110 259t286 95q124 0 211 -43.5t133.5 -123t52.5 -187.5h-177q-9 97 -63 150.5 t-157 53.5q-200 0 -219 -204h-177zM384 559q0 -356 304 -356t304 354q0 184 -77.5 268.5t-226.5 84.5q-147 0 -225.5 -84t-78.5 -267z" />
<glyph unicode="&#x210;" horiz-adv-x="1537" d="M174 0v1477q111 26 244 41t261 15q346 0 515.5 -114t169.5 -360q0 -169 -91 -280t-266 -161l487 -618h-330l-451 579h-36q-95 0 -213 8v-587h-290zM263 1942h226l166 -304h-211zM464 803q117 -12 225 -12q208 0 304 64t96 202q0 96 -40.5 154.5t-125 85t-221.5 26.5 q-119 0 -238 -23v-497zM683 1942h226l166 -304h-211z" />
<glyph unicode="&#x211;" horiz-adv-x="897" d="M13 1655h227l176 -385h-211zM157 0v1117h236l23 -138h14q57 73 148.5 112t195.5 39q58 0 109 -9v-256q-50 9 -124 9q-86 0 -173 -30.5t-141 -90.5v-753h-288zM433 1655h227l176 -385h-211z" />
<glyph unicode="&#x212;" horiz-adv-x="1537" d="M174 0v1477q111 26 244 41t261 15q346 0 515.5 -114t169.5 -360q0 -169 -91 -280t-266 -161l487 -618h-330l-451 579h-36q-95 0 -213 8v-587h-290zM340 1652q19 128 122 205.5t297 77.5t297.5 -78t122.5 -205h-180q-32 140 -240 140q-112 0 -168 -37t-71 -103h-180z M464 803q117 -12 225 -12q208 0 304 64t96 202q0 96 -40.5 154.5t-125 85t-221.5 26.5q-119 0 -238 -23v-497z" />
<glyph unicode="&#x213;" horiz-adv-x="897" d="M124 1298q9 164 110 259t286 95q124 0 211 -43.5t133.5 -123t52.5 -187.5h-177q-9 97 -63 150.5t-157 53.5q-200 0 -219 -204h-177zM157 0v1117h236l23 -138h14q57 73 148.5 112t195.5 39q58 0 109 -9v-256q-50 9 -124 9q-86 0 -173 -30.5t-141 -90.5v-753h-288z" />
<glyph unicode="&#x214;" horiz-adv-x="1698" d="M167 650v866h295v-891q0 -210 95.5 -308t294.5 -98q200 0 295.5 98t95.5 308v891h290v-866q0 -336 -165 -502.5t-516 -166.5q-354 0 -519.5 166.5t-165.5 502.5zM355 1942h226l166 -304h-211zM775 1942h226l166 -304h-211z" />
<glyph unicode="&#x215;" horiz-adv-x="1384" d="M143 446v671h289v-655q0 -127 56.5 -182t162.5 -55q79 0 156 30.5t132 87.5v774h289v-1117h-238l-18 114h-13q-76 -63 -172 -97.5t-200 -34.5q-207 0 -325.5 113t-118.5 351zM178 1655h227l176 -385h-211zM598 1655h227l176 -385h-211z" />
<glyph unicode="&#x216;" horiz-adv-x="1698" d="M167 650v866h295v-891q0 -210 95.5 -308t294.5 -98q200 0 295.5 98t95.5 308v891h290v-866q0 -336 -165 -502.5t-516 -166.5q-354 0 -519.5 166.5t-165.5 502.5zM432 1652q19 128 122 205.5t297 77.5t297.5 -78t122.5 -205h-180q-32 140 -240 140q-112 0 -168 -37 t-71 -103h-180z" />
<glyph unicode="&#x217;" horiz-adv-x="1384" d="M143 446v671h289v-655q0 -127 56.5 -182t162.5 -55q79 0 156 30.5t132 87.5v774h289v-1117h-238l-18 114h-13q-76 -63 -172 -97.5t-200 -34.5q-207 0 -325.5 113t-118.5 351zM289 1298q9 164 110 259t286 95q124 0 211 -43.5t133.5 -123t52.5 -187.5h-177 q-9 97 -63 150.5t-157 53.5q-200 0 -219 -204h-177z" />
<glyph unicode="&#x218;" horiz-adv-x="1305" d="M83 1084q0 215 167 333t492 118q222 0 404 -51v-236q-86 27 -190 41.5t-208 14.5q-196 0 -284.5 -54t-88.5 -155q0 -56 22.5 -94t75 -64t145.5 -44l114 -22q176 -35 284 -92.5t157.5 -141.5t49.5 -199q0 -143 -76.5 -246t-221 -157t-343.5 -54q-250 -1 -467 68v236 q104 -35 232 -54t238 -19q182 0 264 53.5t82 158.5q0 58 -26 96.5t-85 64t-164 46.5l-113 21q-241 47 -350.5 152t-109.5 280zM498 -249q0 50 41 77.5t124 27.5q169 -1 169 -139q0 -52 -20 -111t-55 -105h-175q42 85 51 147q-135 10 -135 103z" />
<glyph unicode="&#x219;" horiz-adv-x="1133" d="M96 783q0 164 139 258t423 94q89 0 178 -11.5t159 -30.5v-202q-156 44 -335 44q-162 0 -225 -37t-63 -102q0 -47 30.5 -77t107.5 -43l209 -31q174 -26 257 -98.5t83 -216.5q0 -109 -61 -188t-181.5 -120.5t-294.5 -41.5q-227 0 -402 50v201q190 -53 401 -53q140 0 201 35 t61 102q0 52 -30.5 80t-111.5 40l-209 31q-178 27 -257 105.5t-79 211.5zM410 -249q0 50 41 77.5t124 27.5q169 -1 169 -139q0 -52 -20 -111t-55 -105h-175q42 85 51 147q-135 10 -135 103z" />
<glyph unicode="&#x21a;" d="M22 1281v235h1390v-235h-548v-1281h-295v1281h-547zM550 -249q0 50 41 77.5t124 27.5q169 -1 169 -139q0 -52 -20 -111t-55 -105h-175q42 85 51 147q-135 10 -135 103z" />
<glyph unicode="&#x21b;" horiz-adv-x="941" d="M30 888v229h213l51 399h237v-399h361v-229h-361v-438q0 -129 55.5 -183.5t174.5 -54.5q57 0 142 16v-224q-110 -25 -220 -24q-216 0 -328 103t-112 312v493h-213zM407 -249q0 50 41 77.5t124 27.5q169 -1 169 -139q0 -52 -20 -111t-55 -105h-175q42 85 51 147 q-135 10 -135 103z" />
<glyph unicode="&#x22a;" horiz-adv-x="1786" d="M112 758q0 251 95.5 425.5t271 263t414.5 88.5q240 0 416 -89t271 -263.5t95 -424.5t-96 -424.5t-271.5 -263.5t-414.5 -89q-240 0 -415.5 88.5t-270.5 263t-95 425.5zM413 764q0 -280 125.5 -414t354.5 -134t354.5 133t125.5 403q0 278 -126.5 412.5t-353.5 134.5 t-353.5 -132.5t-126.5 -402.5zM451 1793q0 61 39 95.5t117 34.5q77 0 116 -34.5t39 -95.5t-38.5 -95t-116.5 -34t-117 34t-39 95zM506 2054v167h774v-167h-774zM1024 1793q0 61 38.5 95.5t115.5 34.5q78 0 117 -34.5t39 -95.5t-39 -95t-117 -34t-116 34t-38 95z" />
<glyph unicode="&#x22b;" horiz-adv-x="1377" d="M96 558q0 187 71.5 316.5t204 195t316.5 65.5q185 0 318 -65t203.5 -193.5t70.5 -318.5q0 -185 -73 -315t-207 -196.5t-312 -66.5q-180 0 -313 65.5t-206 195.5t-73 317zM259 1454q0 69 39.5 107t118.5 38t119 -38t40 -107t-40 -106.5t-119 -37.5t-118.5 37.5 t-39.5 106.5zM310 1769v167h757v-167h-757zM384 559q0 -356 304 -356t304 354q0 184 -77.5 268.5t-226.5 84.5q-147 0 -225.5 -84t-78.5 -267zM801 1454q0 69 40 107t119 38t119 -38t40 -107t-40 -106.5t-119 -37.5t-119 37.5t-40 106.5z" />
<glyph unicode="&#x22c;" horiz-adv-x="1786" d="M112 758q0 251 95.5 425.5t271 263t414.5 88.5q240 0 416 -89t271 -263.5t95 -424.5t-96 -424.5t-271.5 -263.5t-414.5 -89q-240 0 -415.5 88.5t-270.5 263t-95 425.5zM413 764q0 -280 125.5 -414t354.5 -134t354.5 133t125.5 403q0 278 -126.5 412.5t-353.5 134.5 t-353.5 -132.5t-126.5 -402.5zM489 1683v160q42 37 94 54t124 17q51 0 94.5 -10.5t107.5 -29.5q55 -17 94.5 -26.5t80.5 -9.5q65 0 114 16.5t98 52.5v-161q-42 -36 -94 -53t-124 -17q-50 0 -92.5 9.5t-109.5 29.5q-55 17 -94.5 26.5t-80.5 9.5q-65 0 -113.5 -16t-98.5 -52z M506 2054v167h774v-167h-774z" />
<glyph unicode="&#x22d;" horiz-adv-x="1377" d="M96 558q0 187 71.5 316.5t204 195t316.5 65.5q185 0 318 -65t203.5 -193.5t70.5 -318.5q0 -185 -73 -315t-207 -196.5t-312 -66.5q-180 0 -313 65.5t-206 195.5t-73 317zM310 1343v177q41 39 92 57t118 18q45 0 86.5 -12t98.5 -36q57 -23 90.5 -33t69.5 -10q58 0 106 20 t96 64v-177q-42 -39 -93 -57.5t-116 -18.5q-45 0 -86.5 12.5t-99.5 35.5q-57 23 -90.5 33t-69.5 10q-58 0 -106 -19t-96 -64zM310 1769v167h757v-167h-757zM384 559q0 -356 304 -356t304 354q0 184 -77.5 268.5t-226.5 84.5q-147 0 -225.5 -84t-78.5 -267z" />
<glyph unicode="&#x230;" horiz-adv-x="1786" d="M112 758q0 251 95.5 425.5t271 263t414.5 88.5q240 0 416 -89t271 -263.5t95 -424.5t-96 -424.5t-271.5 -263.5t-414.5 -89q-240 0 -415.5 88.5t-270.5 263t-95 425.5zM413 764q0 -280 125.5 -414t354.5 -134t354.5 133t125.5 403q0 278 -126.5 412.5t-353.5 134.5 t-353.5 -132.5t-126.5 -402.5zM506 2054v167h774v-167h-774zM715 1793q0 60 44.5 95t133.5 35t133 -35t44 -95t-44 -94.5t-133 -34.5t-133.5 34.5t-44.5 94.5z" />
<glyph unicode="&#x2c6;" horiz-adv-x="1228" d="M217 1270l281 385h233l281 -385h-222l-175 247l-176 -247h-222z" />
<glyph unicode="&#x2c7;" horiz-adv-x="1228" d="M214 1655h221l180 -248l179 248h221l-284 -385h-233z" />
<glyph unicode="&#x2d8;" horiz-adv-x="1228" d="M218 1630h177q18 -205 221 -205q200 0 218 205h177q-8 -164 -109.5 -258t-285.5 -94q-185 0 -287 94.5t-111 257.5z" />
<glyph unicode="&#x2d9;" horiz-adv-x="1228" d="M433 1454q0 72 45.5 110t136.5 38q90 0 135.5 -38t45.5 -110t-45.5 -109t-135.5 -37q-91 0 -136.5 37t-45.5 109z" />
<glyph unicode="&#x2da;" horiz-adv-x="1228" d="M402 1474q0 59 27.5 106t76 74t109.5 27q60 0 108.5 -27t76.5 -74t28 -106t-28 -107t-76.5 -75t-108.5 -27q-61 0 -109.5 27t-76 74.5t-27.5 107.5zM510 1474q0 -49 28.5 -78.5t76.5 -29.5q47 0 75.5 29t28.5 79q0 49 -29 78t-75 29t-75.5 -29t-29.5 -78z" />
<glyph unicode="&#x2db;" horiz-adv-x="1228" d="M183 -238q0 98 73 174t239 130l74 -66q-118 -49 -168 -101t-50 -117q0 -50 36 -79.5t102 -29.5q71 0 146 35v-115q-86 -36 -184 -35q-129 0 -198.5 54.5t-69.5 149.5z" />
<glyph unicode="&#x2dc;" horiz-adv-x="1228" d="M236 1343v177q41 39 92 57t118 18q45 0 86.5 -12t98.5 -36q57 -23 90.5 -33t69.5 -10q58 0 106 20t96 64v-177q-42 -39 -93 -57.5t-116 -18.5q-45 0 -86.5 12.5t-99.5 35.5q-57 23 -90.5 33t-69.5 10q-58 0 -106 -19t-96 -64z" />
<glyph unicode="&#x2dd;" horiz-adv-x="1228" d="M301 1270l176 385h226l-193 -385h-209zM719 1270l176 385h225l-192 -385h-209z" />
<glyph unicode="&#x3a9;" horiz-adv-x="1786" d="M112 0v220h301q-301 211 -301 599q0 215 93 377t269 250.5t419 88.5t419.5 -88.5t269.5 -250.5t93 -377q0 -388 -301 -599h301v-220h-654v176q177 121 264.5 270t87.5 342q0 245 -123.5 378t-356.5 133q-232 0 -356 -133t-124 -378q0 -194 88 -342.5t265 -269.5v-176 h-654z" />
<glyph unicode="&#x3c0;" horiz-adv-x="1601" d="M30 888v229h1443v-229h-213v-468q0 -79 19 -124t59 -64.5t107 -19.5q49 0 118 14v-225q-43 -9 -96.5 -15t-99.5 -6q-395 0 -396 386l-2 522h-438v-889h-288v889h-213z" />
<glyph unicode="&#x1e08;" horiz-adv-x="1422" d="M112 755q0 253 101 427.5t295.5 263.5t473.5 89q194 0 375 -43v-240q-170 41 -355 41q-293 0 -437 -130t-144 -404q0 -281 141 -409t423 -128q189 0 372 51v-239q-180 -53 -389 -53q-40 0 -60 1v-74q99 -10 149 -53.5t50 -118.5q0 -86 -70 -132t-202 -46q-123 0 -222 35 v112q103 -37 209 -37q67 0 100.5 18t33.5 57q0 41 -33 59.5t-101 18.5h-52v172q-322 42 -490 230t-168 532zM710 1638l217 304h310l-261 -304h-266z" />
<glyph unicode="&#x1e09;" horiz-adv-x="1107" d="M96 556q0 284 168.5 431.5t491.5 147.5q162 0 291 -34v-224q-74 15 -136 22t-129 7q-201 0 -295.5 -84.5t-94.5 -263.5q0 -178 91 -264t271 -86q67 0 135 10t158 35v-225q-146 -48 -323 -48h-6v-73q89 -11 134 -56.5t45 -117.5q0 -83 -65.5 -129t-187.5 -46q-55 0 -108 9 t-93 26v112q42 -18 93 -27.5t96 -9.5q57 0 85.5 18t28.5 58q0 41 -28.5 59t-85.5 18h-52v168q-237 33 -360.5 176t-123.5 391zM490 1270l269 385h320l-312 -385h-277z" />
<glyph unicode="&#x1e0c;" horiz-adv-x="1716" d="M174 15v1462q112 26 253.5 39.5t271.5 13.5q905 0 906 -772q0 -267 -107 -437t-321.5 -251.5t-543.5 -81.5q-242 -1 -459 27zM469 236q99 -12 237 -13q306 0 451.5 129.5t145.5 407.5q0 274 -147 404.5t-447 130.5q-111 0 -240 -21v-1038zM594 -273q0 59 44.5 94 t133.5 35t133 -35t44 -94q0 -60 -44 -94.5t-133 -34.5t-133.5 34t-44.5 95z" />
<glyph unicode="&#x1e0d;" horiz-adv-x="1402" d="M96 535q0 194 76 328.5t220.5 204t348.5 69.5q93 0 216 -17v535h289v-1655h-241l-17 121h-15q-65 -66 -156.5 -102.5t-201.5 -36.5q-150 0 -267 58.5t-184.5 182.5t-67.5 312zM384 555q0 -341 305 -341q77 0 147 26.5t121 84.5v570q-95 22 -198 21q-189 0 -282 -89 t-93 -272zM550 -284q0 65 40.5 102.5t118.5 37.5t118 -37.5t40 -102.5t-40.5 -102t-117.5 -37q-78 0 -118.5 37.5t-40.5 101.5z" />
<glyph unicode="&#x1e0e;" horiz-adv-x="1716" d="M174 15v1462q112 26 253.5 39.5t271.5 13.5q905 0 906 -772q0 -267 -107 -437t-321.5 -251.5t-543.5 -81.5q-242 -1 -459 27zM385 -185h774v-167h-774v167zM469 236q99 -12 237 -13q306 0 451.5 129.5t145.5 407.5q0 274 -147 404.5t-447 130.5q-111 0 -240 -21v-1038z " />
<glyph unicode="&#x1e0f;" horiz-adv-x="1402" d="M96 535q0 194 76 328.5t220.5 204t348.5 69.5q93 0 216 -17v535h289v-1655h-241l-17 121h-15q-65 -66 -156.5 -102.5t-201.5 -36.5q-150 0 -267 58.5t-184.5 182.5t-67.5 312zM347 -200h723v-166h-723v166zM384 555q0 -341 305 -341q77 0 147 26.5t121 84.5v570 q-95 22 -198 21q-189 0 -282 -89t-93 -272z" />
<glyph unicode="&#x1e14;" d="M174 0v1516h1151v-225h-859v-403h753v-224h-753v-440h869v-224h-1161zM359 2223h344l217 -237h-299zM384 1707v167h774v-167h-774z" />
<glyph unicode="&#x1e15;" horiz-adv-x="1260" d="M96 556q0 182 65 312t190.5 198.5t301.5 68.5q256 0 391.5 -153t135.5 -434v-71h-797q6 -103 48.5 -166t130.5 -92.5t234 -29.5q142 0 317 40v-207q-178 -42 -359 -42q-333 0 -495.5 140.5t-162.5 435.5zM257 2012h311l217 -304h-267zM273 1372v167h757v-167h-757z M382 641h529q-4 160 -69.5 236t-193.5 76t-195 -76t-71 -236z" />
<glyph unicode="&#x1e16;" d="M174 0v1516h1151v-225h-859v-403h753v-224h-753v-440h869v-224h-1161zM384 1707v167h774v-167h-774zM621 1986l216 237h345l-261 -237h-300z" />
<glyph unicode="&#x1e17;" horiz-adv-x="1260" d="M96 556q0 182 65 312t190.5 198.5t301.5 68.5q256 0 391.5 -153t135.5 -434v-71h-797q6 -103 48.5 -166t130.5 -92.5t234 -29.5q142 0 317 40v-207q-178 -42 -359 -42q-333 0 -495.5 140.5t-162.5 435.5zM273 1372v167h757v-167h-757zM382 641h529q-4 160 -69.5 236 t-193.5 76t-195 -76t-71 -236zM516 1708l218 304h310l-261 -304h-267z" />
<glyph unicode="&#x1e1c;" d="M174 0v1516h1151v-225h-859v-403h753v-224h-753v-440h869v-224h-508v-92q99 -10 149 -53.5t50 -118.5q0 -86 -70 -132t-202 -46q-123 0 -222 35v112q103 -37 209 -37q67 0 101 18t34 57q0 41 -33.5 59.5t-101.5 18.5h-52v179h-515zM351 1928h180q32 -141 241 -141 q112 0 167.5 37.5t71.5 103.5h180q-19 -128 -122 -206t-297 -78q-193 0 -297 78t-124 206z" />
<glyph unicode="&#x1e1d;" horiz-adv-x="1260" d="M96 556q0 182 65 312t190.5 198.5t301.5 68.5q256 0 391.5 -153t135.5 -434v-71h-797q6 -103 48.5 -166t130.5 -92.5t234 -29.5q142 0 317 40v-207q-178 -42 -359 -42h-26v-73q89 -11 134 -56.5t45 -117.5q0 -83 -65.5 -129t-187.5 -46q-55 0 -107.5 9t-92.5 26v112 q42 -18 92.5 -27.5t95.5 -9.5q57 0 86 18t29 58q0 41 -29 59t-86 18h-52v168q-250 33 -372 171.5t-122 395.5zM255 1630h177q18 -205 220 -205q200 0 218 205h178q-8 -164 -109.5 -258t-286.5 -94q-184 0 -286.5 94.5t-110.5 257.5zM382 641h529q-4 160 -69.5 236t-193.5 76 t-195 -76t-71 -236z" />
<glyph unicode="&#x1e20;" horiz-adv-x="1632" d="M112 753q0 254 107.5 429t312.5 264t497 89q187 0 381 -43v-240q-176 41 -359 41q-314 -1 -473 -132.5t-159 -407.5q0 -529 606 -530q83 0 160 6v508h276v-717q-115 -18 -215 -26.5t-206 -8.5q-464 0 -695.5 193t-232.5 575zM510 1707v167h774v-167h-774z" />
<glyph unicode="&#x1e21;" horiz-adv-x="1402" d="M96 535q0 290 173 445t508 155q119 0 243 -16.5t226 -46.5v-969q0 -201 -69.5 -327.5t-212.5 -186.5t-365 -60q-226 0 -424 55v225q217 -60 406 -61q135 0 217.5 31t120.5 97t38 174v75h-14q-66 -63 -155 -96.5t-197 -33.5q-139 0 -251.5 60t-178 181.5t-65.5 298.5z M349 1372v167h757v-167h-757zM384 558q0 -174 80.5 -252.5t222.5 -78.5q76 0 146.5 24.5t123.5 75.5v565q-96 24 -205 23q-368 0 -368 -357z" />
<glyph unicode="&#x1e24;" horiz-adv-x="1734" d="M174 0v1516h295v-613h797v613h295v-1516h-295v649h-797v-649h-295zM690 -273q0 59 44.5 94t133.5 35t133 -35t44 -94q0 -60 -44 -94.5t-133 -34.5t-133.5 34t-44.5 95z" />
<glyph unicode="&#x1e25;" horiz-adv-x="1394" d="M157 0v1655h288v-651h14q73 65 168 98t200 33q195 0 309.5 -114t114.5 -351v-670h-288v654q0 127 -57.5 181.5t-168.5 54.5q-82 0 -159 -30t-133 -87v-773h-288zM546 -284q0 65 40.5 102.5t118.5 37.5t118 -37.5t40 -102.5t-40.5 -102t-117.5 -37q-78 0 -118.5 37.5 t-40.5 101.5z" />
<glyph unicode="&#x1e2a;" horiz-adv-x="1734" d="M174 0v1516h295v-613h797v613h295v-1516h-295v649h-797v-649h-295zM448 -151h180q25 -144 241 -144q214 0 238 144h180q-15 -130 -118 -208.5t-300 -78.5q-198 0 -302 79t-119 208z" />
<glyph unicode="&#x1e2b;" horiz-adv-x="1394" d="M157 0v1655h288v-651h14q73 65 168 98t200 33q195 0 309.5 -114t114.5 -351v-670h-288v654q0 127 -57.5 181.5t-168.5 54.5q-82 0 -159 -30t-133 -87v-773h-288zM308 -152h177q5 -75 59.5 -114.5t161.5 -39.5q208 0 218 154h177q-3 -91 -49 -159.5t-133.5 -106 t-212.5 -37.5t-213.5 38t-135 106t-49.5 159z" />
<glyph unicode="&#x1e2e;" horiz-adv-x="643" d="M-120 1793q0 61 39 95.5t117 34.5q77 0 116 -34.5t39 -95.5t-38.5 -95t-116.5 -34t-117 34t-39 95zM172 1986l216 237h345l-261 -237h-300zM174 0v1516h295v-1516h-295zM453 1793q0 61 38.5 95.5t115.5 34.5q78 0 117 -34.5t39 -95.5t-39 -95t-117 -34t-116 34t-38 95z " />
<glyph unicode="&#x1e2f;" horiz-adv-x="602" d="M-129 1454q0 69 39.5 107t118.5 38t119 -38t40 -107t-40 -106.5t-119 -37.5t-118.5 37.5t-39.5 106.5zM157 0v1117h288v-1117h-288zM165 1708l218 304h310l-261 -304h-267zM413 1454q0 69 40 107t119 38t119 -38t40 -107t-40 -106.5t-119 -37.5t-119 37.5t-40 106.5z" />
<glyph unicode="&#x1e36;" horiz-adv-x="1301" d="M174 0v1516h295v-1282h815v-234h-1110zM551 -273q0 59 44.5 94t133.5 35t133 -35t44 -94q0 -60 -44 -94.5t-133 -34.5t-133.5 34t-44.5 95z" />
<glyph unicode="&#x1e37;" horiz-adv-x="602" d="M141 -284q0 65 40.5 102.5t118.5 37.5t118 -37.5t40 -102.5t-40.5 -102t-117.5 -37q-78 0 -118.5 37.5t-40.5 101.5zM157 0v1655h288v-1655h-288z" />
<glyph unicode="&#x1e3a;" horiz-adv-x="1301" d="M174 0v1516h295v-1282h815v-234h-1110zM342 -185h774v-167h-774v167z" />
<glyph unicode="&#x1e3b;" horiz-adv-x="602" d="M-62 -200h723v-166h-723v166zM157 0v1655h288v-1655h-288z" />
<glyph unicode="&#x1e42;" horiz-adv-x="2082" d="M178 0v1516h354l515 -1022l504 1022h355v-1516h-277v1142l-461 -926h-253l-460 901v-1117h-277zM882 -273q0 59 44.5 94t133.5 35t133 -35t44 -94q0 -60 -44 -94.5t-133 -34.5t-133.5 34t-44.5 95z" />
<glyph unicode="&#x1e43;" horiz-adv-x="2030" d="M157 0v1117h237l19 -117h14q67 65 157 100t194 35t185 -38t132 -115q85 80 183 116.5t200 36.5q191 0 299.5 -113.5t108.5 -351.5v-670h-287v654q0 126 -51.5 181.5t-145.5 55.5q-71 0 -132.5 -25.5t-107.5 -78.5q7 -50 7 -114v-673h-283v654q0 127 -48 182t-142 55 q-73 0 -138 -31t-113 -89v-771h-288zM869 -284q0 65 40.5 102.5t118.5 37.5t118 -37.5t40 -102.5t-40.5 -102t-117.5 -37q-78 0 -118.5 37.5t-40.5 101.5z" />
<glyph unicode="&#x1e44;" horiz-adv-x="1754" d="M174 0v1516h298l830 -1112v1112h278v-1516h-298l-829 1111v-1111h-279zM700 1793q0 60 44.5 95t133.5 35t133 -35t44 -95t-44 -94.5t-133 -34.5t-133.5 34.5t-44.5 94.5z" />
<glyph unicode="&#x1e45;" horiz-adv-x="1394" d="M157 0v1117h237l19 -117h14q76 65 175.5 100t211.5 35q204 0 320.5 -114.5t116.5 -354.5v-666h-288v652q0 128 -57 183.5t-169 55.5q-80 0 -158 -30t-134 -88v-773h-288zM523 1454q0 72 45.5 110t136.5 38q90 0 135.5 -38t45.5 -110t-45.5 -109t-135.5 -37 q-91 0 -136.5 37t-45.5 109z" />
<glyph unicode="&#x1e46;" horiz-adv-x="1754" d="M174 0v1516h298l830 -1112v1112h278v-1516h-298l-829 1111v-1111h-279zM700 -273q0 59 44.5 94t133.5 35t133 -35t44 -94q0 -60 -44 -94.5t-133 -34.5t-133.5 34t-44.5 95z" />
<glyph unicode="&#x1e47;" horiz-adv-x="1394" d="M157 0v1117h237l19 -117h14q76 65 175.5 100t211.5 35q204 0 320.5 -114.5t116.5 -354.5v-666h-288v652q0 128 -57 183.5t-169 55.5q-80 0 -158 -30t-134 -88v-773h-288zM546 -284q0 65 40.5 102.5t118.5 37.5t118 -37.5t40 -102.5t-40.5 -102t-117.5 -37 q-78 0 -118.5 37.5t-40.5 101.5z" />
<glyph unicode="&#x1e48;" horiz-adv-x="1754" d="M174 0v1516h298l830 -1112v1112h278v-1516h-298l-829 1111v-1111h-279zM491 -185h774v-167h-774v167z" />
<glyph unicode="&#x1e49;" horiz-adv-x="1394" d="M157 0v1117h237l19 -117h14q76 65 175.5 100t211.5 35q204 0 320.5 -114.5t116.5 -354.5v-666h-288v652q0 128 -57 183.5t-169 55.5q-80 0 -158 -30t-134 -88v-773h-288zM343 -200h723v-166h-723v166z" />
<glyph unicode="&#x1e4c;" horiz-adv-x="1786" d="M112 758q0 251 95.5 425.5t271 263t414.5 88.5q240 0 416 -89t271 -263.5t95 -424.5t-96 -424.5t-271.5 -263.5t-414.5 -89q-240 0 -415.5 88.5t-270.5 263t-95 425.5zM413 764q0 -280 125.5 -414t354.5 -134t354.5 133t125.5 403q0 278 -126.5 412.5t-353.5 134.5 t-353.5 -132.5t-126.5 -402.5zM489 1683v160q42 37 94 54t124 17q51 0 94.5 -10.5t107.5 -29.5q55 -17 94.5 -26.5t80.5 -9.5q65 0 114 16.5t98 52.5v-161q-42 -36 -94 -53t-124 -17q-50 0 -92.5 9.5t-109.5 29.5q-55 17 -94.5 26.5t-80.5 9.5q-65 0 -113.5 -16t-98.5 -52z M743 1986l216 237h345l-261 -237h-300z" />
<glyph unicode="&#x1e4d;" horiz-adv-x="1377" d="M96 558q0 187 71.5 316.5t204 195t316.5 65.5q185 0 318 -65t203.5 -193.5t70.5 -318.5q0 -185 -73 -315t-207 -196.5t-312 -66.5q-180 0 -313 65.5t-206 195.5t-73 317zM310 1343v177q41 39 92 57t118 18q45 0 86.5 -12t98.5 -36q57 -23 90.5 -33t69.5 -10q58 0 106 20 t96 64v-177q-42 -39 -93 -57.5t-116 -18.5q-45 0 -86.5 12.5t-99.5 35.5q-57 23 -90.5 33t-69.5 10q-58 0 -106 -19t-96 -64zM384 559q0 -356 304 -356t304 354q0 184 -77.5 268.5t-226.5 84.5q-147 0 -225.5 -84t-78.5 -267zM553 1708l218 304h310l-261 -304h-267z" />
<glyph unicode="&#x1e4e;" horiz-adv-x="1786" d="M112 758q0 251 95.5 425.5t271 263t414.5 88.5q240 0 416 -89t271 -263.5t95 -424.5t-96 -424.5t-271.5 -263.5t-414.5 -89q-240 0 -415.5 88.5t-270.5 263t-95 425.5zM413 764q0 -280 125.5 -414t354.5 -134t354.5 133t125.5 403q0 278 -126.5 412.5t-353.5 134.5 t-353.5 -132.5t-126.5 -402.5zM451 2140q0 61 39 95.5t117 34.5q77 0 116 -34.5t39 -95.5t-38.5 -95t-116.5 -34t-117 34t-39 95zM489 1683v160q42 37 94 54t124 17q51 0 94.5 -10.5t107.5 -29.5q55 -17 94.5 -26.5t80.5 -9.5q65 0 114 16.5t98 52.5v-161q-42 -36 -94 -53 t-124 -17q-50 0 -92.5 9.5t-109.5 29.5q-55 17 -94.5 26.5t-80.5 9.5q-65 0 -113.5 -16t-98.5 -52zM1024 2140q0 61 38.5 95.5t115.5 34.5q78 0 117 -34.5t39 -95.5t-39 -95t-117 -34t-116 34t-38 95z" />
<glyph unicode="&#x1e4f;" horiz-adv-x="1377" d="M96 558q0 187 71.5 316.5t204 195t316.5 65.5q185 0 318 -65t203.5 -193.5t70.5 -318.5q0 -185 -73 -315t-207 -196.5t-312 -66.5q-180 0 -313 65.5t-206 195.5t-73 317zM259 1851q0 69 39.5 107t118.5 38t119 -38t40 -107t-40 -106.5t-119 -37.5t-118.5 37.5 t-39.5 106.5zM310 1343v177q41 39 92 57t118 18q45 0 86.5 -12t98.5 -36q57 -23 90.5 -33t69.5 -10q58 0 106 20t96 64v-177q-42 -39 -93 -57.5t-116 -18.5q-45 0 -86.5 12.5t-99.5 35.5q-57 23 -90.5 33t-69.5 10q-58 0 -106 -19t-96 -64zM384 559q0 -356 304 -356t304 354 q0 184 -77.5 268.5t-226.5 84.5q-147 0 -225.5 -84t-78.5 -267zM801 1851q0 69 40 107t119 38t119 -38t40 -107t-40 -106.5t-119 -37.5t-119 37.5t-40 106.5z" />
<glyph unicode="&#x1e50;" horiz-adv-x="1786" d="M112 758q0 251 95.5 425.5t271 263t414.5 88.5q240 0 416 -89t271 -263.5t95 -424.5t-96 -424.5t-271.5 -263.5t-414.5 -89q-240 0 -415.5 88.5t-270.5 263t-95 425.5zM413 764q0 -280 125.5 -414t354.5 -134t354.5 133t125.5 403q0 278 -126.5 412.5t-353.5 134.5 t-353.5 -132.5t-126.5 -402.5zM481 2223h344l217 -237h-299zM506 1707v167h774v-167h-774z" />
<glyph unicode="&#x1e51;" horiz-adv-x="1377" d="M96 558q0 187 71.5 316.5t204 195t316.5 65.5q185 0 318 -65t203.5 -193.5t70.5 -318.5q0 -185 -73 -315t-207 -196.5t-312 -66.5q-180 0 -313 65.5t-206 195.5t-73 317zM294 2012h311l217 -304h-267zM310 1372v167h757v-167h-757zM384 559q0 -356 304 -356t304 354 q0 184 -77.5 268.5t-226.5 84.5q-147 0 -225.5 -84t-78.5 -267z" />
<glyph unicode="&#x1e52;" horiz-adv-x="1786" d="M112 758q0 251 95.5 425.5t271 263t414.5 88.5q240 0 416 -89t271 -263.5t95 -424.5t-96 -424.5t-271.5 -263.5t-414.5 -89q-240 0 -415.5 88.5t-270.5 263t-95 425.5zM413 764q0 -280 125.5 -414t354.5 -134t354.5 133t125.5 403q0 278 -126.5 412.5t-353.5 134.5 t-353.5 -132.5t-126.5 -402.5zM506 1707v167h774v-167h-774zM743 1986l216 237h345l-261 -237h-300z" />
<glyph unicode="&#x1e53;" horiz-adv-x="1377" d="M96 558q0 187 71.5 316.5t204 195t316.5 65.5q185 0 318 -65t203.5 -193.5t70.5 -318.5q0 -185 -73 -315t-207 -196.5t-312 -66.5q-180 0 -313 65.5t-206 195.5t-73 317zM310 1372v167h757v-167h-757zM384 559q0 -356 304 -356t304 354q0 184 -77.5 268.5t-226.5 84.5 q-147 0 -225.5 -84t-78.5 -267zM553 1708l218 304h310l-261 -304h-267z" />
<glyph unicode="&#x1e5a;" horiz-adv-x="1537" d="M174 0v1477q111 26 244 41t261 15q346 0 515.5 -114t169.5 -360q0 -169 -91 -280t-266 -161l487 -618h-330l-451 579h-36q-95 0 -213 8v-587h-290zM464 803q117 -12 225 -12q208 0 304 64t96 202q0 96 -40.5 154.5t-125 85t-221.5 26.5q-119 0 -238 -23v-497zM616 -273 q0 59 44.5 94t133.5 35t133 -35t44 -94q0 -60 -44 -94.5t-133 -34.5t-133.5 34t-44.5 95z" />
<glyph unicode="&#x1e5b;" horiz-adv-x="897" d="M142 -284q0 65 40.5 102.5t118.5 37.5t118 -37.5t40 -102.5t-40.5 -102t-117.5 -37q-78 0 -118.5 37.5t-40.5 101.5zM157 0v1117h236l23 -138h14q57 73 148.5 112t195.5 39q58 0 109 -9v-256q-50 9 -124 9q-86 0 -173 -30.5t-141 -90.5v-753h-288z" />
<glyph unicode="&#x1e5e;" horiz-adv-x="1537" d="M174 0v1477q111 26 244 41t261 15q346 0 515.5 -114t169.5 -360q0 -169 -91 -280t-266 -161l487 -618h-330l-451 579h-36q-95 0 -213 8v-587h-290zM407 -185h774v-167h-774v167zM464 803q117 -12 225 -12q208 0 304 64t96 202q0 96 -40.5 154.5t-125 85t-221.5 26.5 q-119 0 -238 -23v-497z" />
<glyph unicode="&#x1e5f;" horiz-adv-x="897" d="M-61 -200h723v-166h-723v166zM157 0v1117h236l23 -138h14q57 73 148.5 112t195.5 39q58 0 109 -9v-256q-50 9 -124 9q-86 0 -173 -30.5t-141 -90.5v-753h-288z" />
<glyph unicode="&#x1e60;" horiz-adv-x="1305" d="M83 1084q0 215 167 333t492 118q222 0 404 -51v-236q-86 27 -190 41.5t-208 14.5q-196 0 -284.5 -54t-88.5 -155q0 -56 22.5 -94t75 -64t145.5 -44l114 -22q176 -35 284 -92.5t157.5 -141.5t49.5 -199q0 -143 -76.5 -246t-221 -157t-343.5 -54q-250 -1 -467 68v236 q104 -35 232 -54t238 -19q182 0 264 53.5t82 158.5q0 58 -26 96.5t-85 64t-164 46.5l-113 21q-241 47 -350.5 152t-109.5 280zM487 1793q0 60 44.5 95t133.5 35t133 -35t44 -95t-44 -94.5t-133 -34.5t-133.5 34.5t-44.5 94.5z" />
<glyph unicode="&#x1e61;" horiz-adv-x="1133" d="M96 783q0 164 139 258t423 94q89 0 178 -11.5t159 -30.5v-202q-156 44 -335 44q-162 0 -225 -37t-63 -102q0 -47 30.5 -77t107.5 -43l209 -31q174 -26 257 -98.5t83 -216.5q0 -109 -61 -188t-181.5 -120.5t-294.5 -41.5q-227 0 -402 50v201q190 -53 401 -53q140 0 201 35 t61 102q0 52 -30.5 80t-111.5 40l-209 31q-178 27 -257 105.5t-79 211.5zM395 1454q0 72 45.5 110t136.5 38q90 0 135.5 -38t45.5 -110t-45.5 -109t-135.5 -37q-91 0 -136.5 37t-45.5 109z" />
<glyph unicode="&#x1e62;" horiz-adv-x="1305" d="M83 1084q0 215 167 333t492 118q222 0 404 -51v-236q-86 27 -190 41.5t-208 14.5q-196 0 -284.5 -54t-88.5 -155q0 -56 22.5 -94t75 -64t145.5 -44l114 -22q176 -35 284 -92.5t157.5 -141.5t49.5 -199q0 -143 -76.5 -246t-221 -157t-343.5 -54q-250 -1 -467 68v236 q104 -35 232 -54t238 -19q182 0 264 53.5t82 158.5q0 58 -26 96.5t-85 64t-164 46.5l-113 21q-241 47 -350.5 152t-109.5 280zM487 -273q0 59 44.5 94t133.5 35t133 -35t44 -94q0 -60 -44 -94.5t-133 -34.5t-133.5 34t-44.5 95z" />
<glyph unicode="&#x1e63;" horiz-adv-x="1133" d="M96 783q0 164 139 258t423 94q89 0 178 -11.5t159 -30.5v-202q-156 44 -335 44q-162 0 -225 -37t-63 -102q0 -47 30.5 -77t107.5 -43l209 -31q174 -26 257 -98.5t83 -216.5q0 -109 -61 -188t-181.5 -120.5t-294.5 -41.5q-227 0 -402 50v201q190 -53 401 -53q140 0 201 35 t61 102q0 52 -30.5 80t-111.5 40l-209 31q-178 27 -257 105.5t-79 211.5zM418 -284q0 65 40.5 102.5t118.5 37.5t118 -37.5t40 -102.5t-40.5 -102t-117.5 -37q-78 0 -118.5 37.5t-40.5 101.5z" />
<glyph unicode="&#x1e64;" horiz-adv-x="1305" d="M83 1084q0 215 167 333t492 118q222 0 404 -51v-236q-86 27 -190 41.5t-208 14.5q-196 0 -284.5 -54t-88.5 -155q0 -56 22.5 -94t75 -64t145.5 -44l114 -22q176 -35 284 -92.5t157.5 -141.5t49.5 -199q0 -143 -76.5 -246t-221 -157t-343.5 -54q-250 -1 -467 68v236 q104 -35 232 -54t238 -19q182 0 264 53.5t82 158.5q0 58 -26 96.5t-85 64t-164 46.5l-113 21q-241 47 -350.5 152t-109.5 280zM332 2009q0 50 37 80t110 30q74 0 111.5 -30t37.5 -80t-37 -79t-112 -29q-73 0 -110 29t-37 79zM529 1638l218 304h310l-261 -304h-267z" />
<glyph unicode="&#x1e65;" horiz-adv-x="1133" d="M96 783q0 164 139 258t423 94q89 0 178 -11.5t159 -30.5v-202q-156 44 -335 44q-162 0 -225 -37t-63 -102q0 -47 30.5 -77t107.5 -43l209 -31q174 -26 257 -98.5t83 -216.5q0 -109 -61 -188t-181.5 -120.5t-294.5 -41.5q-227 0 -402 50v201q190 -53 401 -53q140 0 201 35 t61 102q0 52 -30.5 80t-111.5 40l-209 31q-178 27 -257 105.5t-79 211.5zM278 1722q0 51 36.5 81t110.5 30t111 -29.5t37 -81.5q0 -50 -37 -79t-111 -29t-110.5 29t-36.5 79zM438 1270l269 385h320l-312 -385h-277z" />
<glyph unicode="&#x1e66;" horiz-adv-x="1305" d="M83 1084q0 215 167 333t492 118q222 0 404 -51v-236q-86 27 -190 41.5t-208 14.5q-196 0 -284.5 -54t-88.5 -155q0 -56 22.5 -94t75 -64t145.5 -44l114 -22q176 -35 284 -92.5t157.5 -141.5t49.5 -199q0 -143 -76.5 -246t-221 -157t-343.5 -54q-250 -1 -467 68v236 q104 -35 232 -54t238 -19q182 0 264 53.5t82 158.5q0 58 -26 96.5t-85 64t-164 46.5l-113 21q-241 47 -350.5 152t-109.5 280zM223 1942h245l197 -193l196 193h245l-317 -304h-248zM517 2072q0 51 37 80.5t111 29.5t110.5 -29.5t36.5 -80.5q0 -50 -37 -79.5t-110 -29.5 q-74 0 -111 29t-37 80z" />
<glyph unicode="&#x1e67;" horiz-adv-x="1133" d="M96 783q0 164 139 258t423 94q89 0 178 -11.5t159 -30.5v-202q-156 44 -335 44q-162 0 -225 -37t-63 -102q0 -47 30.5 -77t107.5 -43l209 -31q174 -26 257 -98.5t83 -216.5q0 -109 -61 -188t-181.5 -120.5t-294.5 -41.5q-227 0 -402 50v201q190 -53 401 -53q140 0 201 35 t61 102q0 52 -30.5 80t-111.5 40l-209 31q-178 27 -257 105.5t-79 211.5zM176 1655h221l180 -248l179 248h221l-284 -385h-233zM429 1785q0 50 37 79.5t111 29.5t110.5 -29.5t36.5 -79.5t-37 -79.5t-110 -29.5q-74 0 -111 29.5t-37 79.5z" />
<glyph unicode="&#x1e68;" horiz-adv-x="1305" d="M83 1084q0 215 167 333t492 118q222 0 404 -51v-236q-86 27 -190 41.5t-208 14.5q-196 0 -284.5 -54t-88.5 -155q0 -56 22.5 -94t75 -64t145.5 -44l114 -22q176 -35 284 -92.5t157.5 -141.5t49.5 -199q0 -143 -76.5 -246t-221 -157t-343.5 -54q-250 -1 -467 68v236 q104 -35 232 -54t238 -19q182 0 264 53.5t82 158.5q0 58 -26 96.5t-85 64t-164 46.5l-113 21q-241 47 -350.5 152t-109.5 280zM487 -273q0 59 44.5 94t133.5 35t133 -35t44 -94q0 -60 -44 -94.5t-133 -34.5t-133.5 34t-44.5 95zM487 1793q0 60 44.5 95t133.5 35t133 -35 t44 -95t-44 -94.5t-133 -34.5t-133.5 34.5t-44.5 94.5z" />
<glyph unicode="&#x1e69;" horiz-adv-x="1133" d="M96 783q0 164 139 258t423 94q89 0 178 -11.5t159 -30.5v-202q-156 44 -335 44q-162 0 -225 -37t-63 -102q0 -47 30.5 -77t107.5 -43l209 -31q174 -26 257 -98.5t83 -216.5q0 -109 -61 -188t-181.5 -120.5t-294.5 -41.5q-227 0 -402 50v201q190 -53 401 -53q140 0 201 35 t61 102q0 52 -30.5 80t-111.5 40l-209 31q-178 27 -257 105.5t-79 211.5zM395 1454q0 72 45.5 110t136.5 38q90 0 135.5 -38t45.5 -110t-45.5 -109t-135.5 -37q-91 0 -136.5 37t-45.5 109zM418 -284q0 65 40.5 102.5t118.5 37.5t118 -37.5t40 -102.5t-40.5 -102t-117.5 -37 q-78 0 -118.5 37.5t-40.5 101.5z" />
<glyph unicode="&#x1e6c;" d="M22 1281v235h1390v-235h-548v-1281h-295v1281h-547zM539 -273q0 59 44.5 94t133.5 35t133 -35t44 -94q0 -60 -44 -94.5t-133 -34.5t-133.5 34t-44.5 95z" />
<glyph unicode="&#x1e6d;" horiz-adv-x="941" d="M30 888v229h213l51 399h237v-399h361v-229h-361v-438q0 -129 55.5 -183.5t174.5 -54.5q57 0 142 16v-224q-110 -25 -220 -24q-216 0 -328 103t-112 312v493h-213zM415 -284q0 65 40.5 102.5t118.5 37.5t118 -37.5t40 -102.5t-40.5 -102t-117.5 -37q-78 0 -118.5 37.5 t-40.5 101.5z" />
<glyph unicode="&#x1e6e;" d="M22 1281v235h1390v-235h-548v-1281h-295v1281h-547zM330 -185h774v-167h-774v167z" />
<glyph unicode="&#x1e6f;" horiz-adv-x="941" d="M30 888v229h213l51 399h237v-399h361v-229h-361v-438q0 -129 55.5 -183.5t174.5 -54.5q57 0 142 16v-224q-110 -25 -220 -24q-216 0 -328 103t-112 312v493h-213zM212 -200h723v-166h-723v166z" />
<glyph unicode="&#x1e78;" horiz-adv-x="1698" d="M167 650v866h295v-891q0 -210 95.5 -308t294.5 -98q200 0 295.5 98t95.5 308v891h290v-866q0 -336 -165 -502.5t-516 -166.5q-354 0 -519.5 166.5t-165.5 502.5zM448 1683v160q42 37 94 54t124 17q51 0 94.5 -10.5t107.5 -29.5q55 -17 94.5 -26.5t80.5 -9.5 q65 0 114 16.5t98 52.5v-161q-42 -36 -94 -53t-124 -17q-50 0 -92.5 9.5t-109.5 29.5q-55 17 -94.5 26.5t-80.5 9.5q-65 0 -113.5 -16t-98.5 -52zM702 1986l216 237h345l-261 -237h-300z" />
<glyph unicode="&#x1e79;" horiz-adv-x="1384" d="M143 446v671h289v-655q0 -127 56.5 -182t162.5 -55q79 0 156 30.5t132 87.5v774h289v-1117h-238l-18 114h-13q-76 -63 -172 -97.5t-200 -34.5q-207 0 -325.5 113t-118.5 351zM307 1343v177q41 39 92 57t118 18q45 0 86.5 -12t98.5 -36q57 -23 90.5 -33t69.5 -10 q58 0 106 20t96 64v-177q-42 -39 -93 -57.5t-116 -18.5q-45 0 -86.5 12.5t-99.5 35.5q-57 23 -90.5 33t-69.5 10q-58 0 -106 -19t-96 -64zM550 1708l218 304h310l-261 -304h-267z" />
<glyph unicode="&#x1e7a;" horiz-adv-x="1698" d="M167 650v866h295v-891q0 -210 95.5 -308t294.5 -98q200 0 295.5 98t95.5 308v891h290v-866q0 -336 -165 -502.5t-516 -166.5q-354 0 -519.5 166.5t-165.5 502.5zM410 2140q0 61 39 95.5t117 34.5q77 0 116 -34.5t39 -95.5t-38.5 -95t-116.5 -34t-117 34t-39 95zM465 1707 v167h774v-167h-774zM983 2140q0 61 38.5 95.5t115.5 34.5q78 0 117 -34.5t39 -95.5t-39 -95t-117 -34t-116 34t-38 95z" />
<glyph unicode="&#x1e7b;" horiz-adv-x="1384" d="M143 446v671h289v-655q0 -127 56.5 -182t162.5 -55q79 0 156 30.5t132 87.5v774h289v-1117h-238l-18 114h-13q-76 -63 -172 -97.5t-200 -34.5q-207 0 -325.5 113t-118.5 351zM256 1851q0 69 39.5 107t118.5 38t119 -38t40 -107t-40 -106.5t-119 -37.5t-118.5 37.5 t-39.5 106.5zM307 1372v167h757v-167h-757zM798 1851q0 69 40 107t119 38t119 -38t40 -107t-40 -106.5t-119 -37.5t-119 37.5t-40 106.5z" />
<glyph unicode="&#x1e80;" horiz-adv-x="2588" d="M52 1516h300l381 -1260l403 1260h331l397 -1272l389 1272h283l-473 -1516h-376l-390 1232l-395 -1232h-376zM901 1942h311l217 -304h-267z" />
<glyph unicode="&#x1e81;" horiz-adv-x="2038" d="M75 1117h280l247 -832l259 832h329l254 -825l252 825h268l-344 -1117h-329l-269 861l-272 -861h-329zM570 1655h321l268 -385h-277z" />
<glyph unicode="&#x1e82;" horiz-adv-x="2588" d="M52 1516h300l381 -1260l403 1260h331l397 -1272l389 1272h283l-473 -1516h-376l-390 1232l-395 -1232h-376zM1160 1638l218 304h310l-261 -304h-267z" />
<glyph unicode="&#x1e83;" horiz-adv-x="2038" d="M75 1117h280l247 -832l259 832h329l254 -825l252 825h268l-344 -1117h-329l-269 861l-272 -861h-329zM882 1270l269 385h320l-312 -385h-277z" />
<glyph unicode="&#x1e84;" horiz-adv-x="2588" d="M52 1516h300l381 -1260l403 1260h331l397 -1272l389 1272h283l-473 -1516h-376l-390 1232l-395 -1232h-376zM854 1793q0 61 39 95.5t117 34.5q77 0 116 -34.5t39 -95.5t-38.5 -95t-116.5 -34t-117 34t-39 95zM1427 1793q0 61 38.5 95.5t115.5 34.5q78 0 117 -34.5 t39 -95.5t-39 -95t-117 -34t-116 34t-38 95z" />
<glyph unicode="&#x1e85;" horiz-adv-x="2038" d="M75 1117h280l247 -832l259 832h329l254 -825l252 825h268l-344 -1117h-329l-269 861l-272 -861h-329zM591 1454q0 69 39.5 107t118.5 38t119 -38t40 -107t-40 -106.5t-119 -37.5t-118.5 37.5t-39.5 106.5zM1133 1454q0 69 40 107t119 38t119 -38t40 -107t-40 -106.5 t-119 -37.5t-119 37.5t-40 106.5z" />
<glyph unicode="&#x1e8e;" d="M-41 1516h320l445 -631l436 631h299l-593 -864v-652h-295v649zM538 1793q0 60 44.5 95t133.5 35t133 -35t44 -95t-44 -94.5t-133 -34.5t-133.5 34.5t-44.5 94.5z" />
<glyph unicode="&#x1e8f;" horiz-adv-x="1320" d="M10 1117h306l353 -878l358 878h284l-667 -1568h-284l193 451h-70zM480 1454q0 72 45.5 110t136.5 38q90 0 135.5 -38t45.5 -110t-45.5 -109t-135.5 -37q-91 0 -136.5 37t-45.5 109z" />
<glyph unicode="&#x1e92;" horiz-adv-x="1411" d="M80 0v160l855 1122h-844v234h1229v-160l-856 -1123h868v-233h-1252zM529 -273q0 59 44.5 94t133.5 35t133 -35t44 -94q0 -60 -44 -94.5t-133 -34.5t-133.5 34t-44.5 95z" />
<glyph unicode="&#x1e93;" horiz-adv-x="1170" d="M83 0v185l622 703h-610v229h996v-185l-622 -703h633v-229h-1019zM434 -284q0 65 40.5 102.5t118.5 37.5t118 -37.5t40 -102.5t-40.5 -102t-117.5 -37q-78 0 -118.5 37.5t-40.5 101.5z" />
<glyph unicode="&#x1e97;" horiz-adv-x="941" d="M-43 1763q0 69 39.5 107t118.5 38t119 -38t40 -107t-40 -106.5t-119 -37.5t-118.5 37.5t-39.5 106.5zM30 888v229h213l51 399h237v-399h361v-229h-361v-438q0 -129 55.5 -183.5t174.5 -54.5q57 0 142 16v-224q-110 -25 -220 -24q-216 0 -328 103t-112 312v493h-213z M499 1763q0 69 40 107t119 38t119 -38t40 -107t-40 -106.5t-119 -37.5t-119 37.5t-40 106.5z" />
<glyph unicode="&#x1e9e;" horiz-adv-x="2056" d="M174 0v898q0 315 161 476t491 161q181 0 319 -56q147 56 366 56q210 0 387 -48v-237q-83 26 -182.5 40t-193.5 14q-193 0 -280 -54t-87 -155q0 -56 22 -94.5t72 -64.5t139 -43l108 -22q172 -34 277 -92.5t152.5 -142t47.5 -198.5q0 -143 -74.5 -246t-216 -157t-337.5 -54 q-236 0 -447 65v236q100 -34 223.5 -52t221.5 -18q180 0 261.5 53t81.5 159q0 58 -25.5 96.5t-81.5 64.5t-156 46l-109 21q-234 48 -340.5 152.5t-106.5 279.5q0 121 51 211q-48 7 -92 8q-181 0 -269 -91t-88 -278v-934h-295z" />
<glyph unicode="&#x1ea0;" horiz-adv-x="1652" d="M32 0l583 1516h422l584 -1516h-293l-162 433h-683l-162 -433h-289zM567 658h514l-257 685zM649 -273q0 59 44.5 94t133.5 35t133 -35t44 -94q0 -60 -44 -94.5t-133 -34.5t-133.5 34t-44.5 95z" />
<glyph unicode="&#x1ea1;" horiz-adv-x="1264" d="M95 299q0 154 118 238.5t373 102.5l252 24v22q0 91 -32 142t-98 72.5t-178 21.5q-78 0 -169.5 -13t-173.5 -39v210q86 27 190 41t200 14q191 0 309.5 -44t176 -146.5t57.5 -279.5v-665h-240l-20 113h-14q-61 -63 -153.5 -97.5t-197.5 -34.5q-128 0 -218 39.5t-136 111.5 t-46 167zM383 322q0 -70 49 -109t148 -39q70 0 136.5 23.5t121.5 70.5v233l-229 -21q-122 -12 -174 -50.5t-52 -107.5zM481 -284q0 65 40.5 102.5t118.5 37.5t118 -37.5t40 -102.5t-40.5 -102t-117.5 -37q-78 0 -118.5 37.5t-40.5 101.5z" />
<glyph unicode="&#x1ea2;" horiz-adv-x="1652" d="M32 0l583 1516h422l584 -1516h-293l-162 433h-683l-162 -433h-289zM567 658h514l-257 685zM597 1819v108q48 14 110 22t125 8q131 0 194.5 -35t63.5 -98q0 -32 -16 -54t-38 -36.5t-59 -31.5q-38 -18 -56.5 -31t-20.5 -33h-150q2 41 31.5 64t84.5 47q38 15 55 27.5 t17 29.5q0 41 -125 41q-57 0 -106 -6.5t-110 -21.5z" />
<glyph unicode="&#x1ea3;" horiz-adv-x="1264" d="M95 299q0 154 118 238.5t373 102.5l252 24v22q0 91 -32 142t-98 72.5t-178 21.5q-78 0 -169.5 -13t-173.5 -39v210q86 27 190 41t200 14q191 0 309.5 -44t176 -146.5t57.5 -279.5v-665h-240l-20 113h-14q-61 -63 -153.5 -97.5t-197.5 -34.5q-128 0 -218 39.5t-136 111.5 t-46 167zM383 322q0 -70 49 -109t148 -39q70 0 136.5 23.5t121.5 70.5v233l-229 -21q-122 -12 -174 -50.5t-52 -107.5zM426 1530v111q39 12 94.5 19t104.5 7q131 0 193.5 -38t62.5 -115q0 -35 -13 -59.5t-31.5 -40.5t-49.5 -37q-39 -27 -60 -49t-24 -58h-148q2 41 18.5 70 t38 47.5t53.5 38.5q34 22 49 37t15 36q0 30 -28 42.5t-93 12.5q-91 0 -182 -24z" />
<glyph unicode="&#x1ea4;" horiz-adv-x="1652" d="M32 0l583 1516h422l584 -1516h-293l-162 433h-683l-162 -433h-289zM384 1638l318 279h248l317 -279h-245l-196 180l-197 -180h-245zM567 658h514l-257 685zM1103 1854l163 260h215l-201 -260h-177z" />
<glyph unicode="&#x1ea5;" horiz-adv-x="1264" d="M95 299q0 154 118 238.5t373 102.5l252 24v22q0 91 -32 142t-98 72.5t-178 21.5q-78 0 -169.5 -13t-173.5 -39v210q86 27 190 41t200 14q191 0 309.5 -44t176 -146.5t57.5 -279.5v-665h-240l-20 113h-14q-61 -63 -153.5 -97.5t-197.5 -34.5q-128 0 -218 39.5t-136 111.5 t-46 167zM231 1270l281 385h233l281 -385h-222l-175 247l-176 -247h-222zM383 322q0 -70 49 -109t148 -39q70 0 136.5 23.5t121.5 70.5v233l-229 -21q-122 -12 -174 -50.5t-52 -107.5zM872 1635l217 278h256l-262 -278h-211z" />
<glyph unicode="&#x1ea6;" horiz-adv-x="1652" d="M32 0l583 1516h422l584 -1516h-293l-162 433h-683l-162 -433h-289zM384 1638l318 279h248l317 -279h-245l-196 180l-197 -180h-245zM567 658h514l-257 685zM933 2114h216l163 -260h-178z" />
<glyph unicode="&#x1ea7;" horiz-adv-x="1264" d="M95 299q0 154 118 238.5t373 102.5l252 24v22q0 91 -32 142t-98 72.5t-178 21.5q-78 0 -169.5 -13t-173.5 -39v210q86 27 190 41t200 14q191 0 309.5 -44t176 -146.5t57.5 -279.5v-665h-240l-20 113h-14q-61 -63 -153.5 -97.5t-197.5 -34.5q-128 0 -218 39.5t-136 111.5 t-46 167zM231 1270l281 385h233l281 -385h-222l-175 247l-176 -247h-222zM383 322q0 -70 49 -109t148 -39q70 0 136.5 23.5t121.5 70.5v233l-229 -21q-122 -12 -174 -50.5t-52 -107.5zM645 1913h255l218 -278h-211z" />
<glyph unicode="&#x1ea8;" horiz-adv-x="1652" d="M32 0l583 1516h422l584 -1516h-293l-162 433h-683l-162 -433h-289zM384 1638l318 279h248l317 -279h-245l-196 180l-197 -180h-245zM567 658h514l-257 685zM950 2022v97q48 13 110 20t124 7q131 0 194.5 -31.5t63.5 -89.5q0 -29 -16 -49t-37.5 -33t-58.5 -29 q-39 -17 -57 -29.5t-20 -30.5h-151q2 39 32.5 61t83.5 42q38 15 55 26t17 28q0 38 -124 38q-57 0 -106.5 -5.5t-109.5 -21.5z" />
<glyph unicode="&#x1ea9;" horiz-adv-x="1264" d="M95 299q0 154 118 238.5t373 102.5l252 24v22q0 91 -32 142t-98 72.5t-178 21.5q-78 0 -169.5 -13t-173.5 -39v210q86 27 190 41t200 14q191 0 309.5 -44t176 -146.5t57.5 -279.5v-665h-240l-20 113h-14q-61 -63 -153.5 -97.5t-197.5 -34.5q-128 0 -218 39.5t-136 111.5 t-46 167zM231 1270l281 385h233l281 -385h-222l-175 247l-176 -247h-222zM383 322q0 -70 49 -109t148 -39q70 0 136.5 23.5t121.5 70.5v233l-229 -21q-122 -12 -174 -50.5t-52 -107.5zM732 1806v94q42 12 101.5 19.5t116.5 7.5q122 0 179 -30t57 -91q0 -36 -22.5 -55 t-68.5 -41q-40 -18 -60 -33.5t-23 -41.5h-136q3 44 32 67t78 44q31 12 44.5 22t13.5 23q0 20 -26 30.5t-86 10.5q-103 0 -200 -26z" />
<glyph unicode="&#x1eaa;" horiz-adv-x="1652" d="M32 0l583 1516h422l584 -1516h-293l-162 433h-683l-162 -433h-289zM384 1638l318 279h248l317 -279h-245l-196 180l-197 -180h-245zM384 1958v126q57 36 114 49.5t129 13.5q55 0 104.5 -9t117.5 -27q55 -15 96 -22.5t81 -7.5q63 0 118 16t123 53v-126q-57 -35 -114 -48.5 t-129 -13.5q-55 0 -104 9t-118 27q-58 15 -97.5 22.5t-79.5 7.5q-62 0 -117.5 -16t-123.5 -54zM567 658h514l-257 685z" />
<glyph unicode="&#x1eab;" horiz-adv-x="1264" d="M95 299q0 154 118 238.5t373 102.5l252 24v22q0 91 -32 142t-98 72.5t-178 21.5q-78 0 -169.5 -13t-173.5 -39v210q86 27 190 41t200 14q191 0 309.5 -44t176 -146.5t57.5 -279.5v-665h-240l-20 113h-14q-61 -63 -153.5 -97.5t-197.5 -34.5q-128 0 -218 39.5t-136 111.5 t-46 167zM199 1271l306 341h248l306 -341h-238l-192 226l-193 -226h-237zM234 1677v143q42 33 94 48.5t120 15.5q49 0 93.5 -9t103.5 -28q58 -16 94 -24t76 -8q62 0 110.5 14.5t97.5 48.5v-142q-41 -33 -93 -48.5t-121 -15.5q-49 0 -91.5 9t-105.5 27q-58 16 -94 24.5 t-76 8.5q-62 0 -110 -15t-98 -49zM383 322q0 -70 49 -109t148 -39q70 0 136.5 23.5t121.5 70.5v233l-229 -21q-122 -12 -174 -50.5t-52 -107.5z" />
<glyph unicode="&#x1eac;" horiz-adv-x="1652" d="M32 0l583 1516h422l584 -1516h-293l-162 433h-683l-162 -433h-289zM384 1638l318 304h248l317 -304h-245l-196 193l-197 -193h-245zM567 658h514l-257 685zM649 -273q0 59 44.5 94t133.5 35t133 -35t44 -94q0 -60 -44 -94.5t-133 -34.5t-133.5 34t-44.5 95z" />
<glyph unicode="&#x1ead;" horiz-adv-x="1264" d="M95 299q0 154 118 238.5t373 102.5l252 24v22q0 91 -32 142t-98 72.5t-178 21.5q-78 0 -169.5 -13t-173.5 -39v210q86 27 190 41t200 14q191 0 309.5 -44t176 -146.5t57.5 -279.5v-665h-240l-20 113h-14q-61 -63 -153.5 -97.5t-197.5 -34.5q-128 0 -218 39.5t-136 111.5 t-46 167zM231 1270l281 385h233l281 -385h-222l-175 247l-176 -247h-222zM383 322q0 -70 49 -109t148 -39q70 0 136.5 23.5t121.5 70.5v233l-229 -21q-122 -12 -174 -50.5t-52 -107.5zM481 -284q0 65 40.5 102.5t118.5 37.5t118 -37.5t40 -102.5t-40.5 -102t-117.5 -37 q-78 0 -118.5 37.5t-40.5 101.5z" />
<glyph unicode="&#x1eae;" horiz-adv-x="1652" d="M32 0l583 1516h422l584 -1516h-293l-162 433h-683l-162 -433h-289zM436 1904h153q16 -68 68.5 -103t169.5 -35q80 0 128.5 16.5t73.5 46.5t38 75h148q-18 -120 -114 -190t-274 -70q-180 0 -276 70.5t-115 189.5zM567 658h514l-257 685zM737 1879l163 250h215l-200 -250 h-178z" />
<glyph unicode="&#x1eaf;" horiz-adv-x="1264" d="M95 299q0 154 118 238.5t373 102.5l252 24v22q0 91 -32 142t-98 72.5t-178 21.5q-78 0 -169.5 -13t-173.5 -39v210q86 27 190 41t200 14q191 0 309.5 -44t176 -146.5t57.5 -279.5v-665h-240l-20 113h-14q-61 -63 -153.5 -97.5t-197.5 -34.5q-128 0 -218 39.5t-136 111.5 t-46 167zM219 1604h179q13 -83 69 -131.5t163 -48.5q105 0 160.5 48.5t68.5 131.5h179q-16 -145 -118 -233.5t-290 -88.5q-189 0 -292 88.5t-119 233.5zM383 322q0 -70 49 -109t148 -39q70 0 136.5 23.5t121.5 70.5v233l-229 -21q-122 -12 -174 -50.5t-52 -107.5zM521 1635 l217 278h255l-261 -278h-211z" />
<glyph unicode="&#x1eb0;" horiz-adv-x="1652" d="M32 0l583 1516h422l584 -1516h-293l-162 433h-683l-162 -433h-289zM436 1904h148q13 -45 38 -75t74 -46.5t129 -16.5q117 0 169 35t68 103h153q-18 -119 -114.5 -189.5t-275.5 -70.5t-274.5 70t-114.5 190zM536 2129h215l164 -250h-178zM567 658h514l-257 685z" />
<glyph unicode="&#x1eb1;" horiz-adv-x="1264" d="M95 299q0 154 118 238.5t373 102.5l252 24v22q0 91 -32 142t-98 72.5t-178 21.5q-78 0 -169.5 -13t-173.5 -39v210q86 27 190 41t200 14q191 0 309.5 -44t176 -146.5t57.5 -279.5v-665h-240l-20 113h-14q-61 -63 -153.5 -97.5t-197.5 -34.5q-128 0 -218 39.5t-136 111.5 t-46 167zM219 1604h179q13 -83 69 -131.5t163 -48.5q105 0 160.5 48.5t68.5 131.5h179q-16 -145 -118 -233.5t-290 -88.5q-189 0 -292 88.5t-119 233.5zM264 1913h255l217 -278h-211zM383 322q0 -70 49 -109t148 -39q70 0 136.5 23.5t121.5 70.5v233l-229 -21 q-122 -12 -174 -50.5t-52 -107.5z" />
<glyph unicode="&#x1eb2;" horiz-adv-x="1652" d="M32 0l583 1516h422l584 -1516h-293l-162 433h-683l-162 -433h-289zM436 1904h153q16 -68 67.5 -103t168.5 -35t169.5 34.5t72.5 103.5h148q-18 -119 -114.5 -189.5t-275.5 -70.5t-274.5 70t-114.5 190zM567 658h514l-257 685zM597 2047v96q47 13 109 20.5t126 7.5 q131 0 194.5 -32t63.5 -89q0 -29 -16 -49.5t-37.5 -33t-58.5 -29.5q-39 -17 -57.5 -29.5t-20.5 -29.5h-150q2 39 31.5 60t84.5 42q38 15 55 26t17 28q0 39 -125 39q-56 0 -105 -6.5t-111 -20.5z" />
<glyph unicode="&#x1eb3;" horiz-adv-x="1264" d="M95 299q0 154 118 238.5t373 102.5l252 24v22q0 91 -32 142t-98 72.5t-178 21.5q-78 0 -169.5 -13t-173.5 -39v210q86 27 190 41t200 14q191 0 309.5 -44t176 -146.5t57.5 -279.5v-665h-240l-20 113h-14q-61 -63 -153.5 -97.5t-197.5 -34.5q-128 0 -218 39.5t-136 111.5 t-46 167zM219 1604h179q13 -83 69 -131.5t163 -48.5q105 0 160.5 48.5t68.5 131.5h179q-16 -145 -118 -233.5t-290 -88.5q-189 0 -292 88.5t-119 233.5zM383 322q0 -70 49 -109t148 -39q70 0 136.5 23.5t121.5 70.5v233l-229 -21q-122 -12 -174 -50.5t-52 -107.5zM400 1803 v97q49 12 111 19.5t124 7.5q131 0 194.5 -31.5t63.5 -90.5q0 -41 -29 -64t-83 -46q-39 -17 -57.5 -29.5t-20.5 -30.5h-150q2 39 31.5 60t83.5 42q38 14 55.5 25.5t17.5 28.5q0 39 -125 39q-56 0 -105 -6t-111 -21z" />
<glyph unicode="&#x1eb4;" horiz-adv-x="1652" d="M32 0l583 1516h422l584 -1516h-293l-162 433h-683l-162 -433h-289zM436 1904h153q16 -68 67.5 -103t168.5 -35t169 35t68 103h153q-18 -119 -114.5 -189.5t-275.5 -70.5t-274.5 70t-114.5 190zM436 1958v126q55 36 107 49.5t116 13.5q46 0 88 -9t99 -27 q47 -15 81.5 -22.5t67.5 -7.5q55 0 105 16t115 53v-126q-55 -35 -107 -48.5t-115 -13.5q-47 0 -89 9t-99 27q-49 14 -82.5 22t-65.5 8q-55 0 -105.5 -16t-115.5 -54zM567 658h514l-257 685z" />
<glyph unicode="&#x1eb5;" horiz-adv-x="1264" d="M95 299q0 154 118 238.5t373 102.5l252 24v22q0 91 -32 142t-98 72.5t-178 21.5q-78 0 -169.5 -13t-173.5 -39v210q86 27 190 41t200 14q191 0 309.5 -44t176 -146.5t57.5 -279.5v-665h-240l-20 113h-14q-61 -63 -153.5 -97.5t-197.5 -34.5q-128 0 -218 39.5t-136 111.5 t-46 167zM212 1677v143q45 34 99 49t127 15q52 0 99 -9t110 -28q61 -17 99 -24.5t79 -7.5q66 0 116.5 15t103.5 48v-142q-45 -33 -98.5 -48.5t-127.5 -15.5q-51 0 -96.5 9t-112.5 27q-55 16 -95.5 24.5t-82.5 8.5q-66 0 -116.5 -15.5t-103.5 -48.5zM219 1604h179 q13 -83 69 -131.5t163 -48.5q105 0 160.5 48.5t68.5 131.5h179q-16 -145 -118 -233.5t-290 -88.5q-189 0 -292 88.5t-119 233.5zM383 322q0 -70 49 -109t148 -39q70 0 136.5 23.5t121.5 70.5v233l-229 -21q-122 -12 -174 -50.5t-52 -107.5z" />
<glyph unicode="&#x1eb6;" horiz-adv-x="1652" d="M32 0l583 1516h422l584 -1516h-293l-162 433h-683l-162 -433h-289zM406 1928h180q32 -141 241 -141q112 0 167.5 37.5t70.5 103.5h180q-19 -128 -122 -206t-296 -78q-194 0 -298 78t-123 206zM567 658h514l-257 685zM649 -273q0 59 44.5 94t133.5 35t133 -35t44 -94 q0 -60 -44 -94.5t-133 -34.5t-133.5 34t-44.5 95z" />
<glyph unicode="&#x1eb7;" horiz-adv-x="1264" d="M95 299q0 154 118 238.5t373 102.5l252 24v22q0 91 -32 142t-98 72.5t-178 21.5q-78 0 -169.5 -13t-173.5 -39v210q86 27 190 41t200 14q191 0 309.5 -44t176 -146.5t57.5 -279.5v-665h-240l-20 113h-14q-61 -63 -153.5 -97.5t-197.5 -34.5q-128 0 -218 39.5t-136 111.5 t-46 167zM232 1630h177q18 -205 221 -205q200 0 218 205h177q-8 -164 -109.5 -258t-285.5 -94q-185 0 -287 94.5t-111 257.5zM383 322q0 -70 49 -109t148 -39q70 0 136.5 23.5t121.5 70.5v233l-229 -21q-122 -12 -174 -50.5t-52 -107.5zM481 -284q0 65 40.5 102.5 t118.5 37.5t118 -37.5t40 -102.5t-40.5 -102t-117.5 -37q-78 0 -118.5 37.5t-40.5 101.5z" />
<glyph unicode="&#x1eb8;" d="M174 0v1516h1151v-225h-859v-403h753v-224h-753v-440h869v-224h-1161zM596 -273q0 59 44.5 94t133.5 35t133 -35t44 -94q0 -60 -44 -94.5t-133 -34.5t-133.5 34t-44.5 95z" />
<glyph unicode="&#x1eb9;" horiz-adv-x="1260" d="M96 556q0 182 65 312t190.5 198.5t301.5 68.5q256 0 391.5 -153t135.5 -434v-71h-797q6 -103 48.5 -166t130.5 -92.5t234 -29.5q142 0 317 40v-207q-178 -42 -359 -42q-333 0 -495.5 140.5t-162.5 435.5zM382 641h529q-4 160 -69.5 236t-193.5 76t-195 -76t-71 -236z M493 -284q0 65 40.5 102.5t118.5 37.5t118 -37.5t40 -102.5t-40.5 -102t-117.5 -37q-78 0 -118.5 37.5t-40.5 101.5z" />
<glyph unicode="&#x1eba;" d="M174 0v1516h1151v-225h-859v-403h753v-224h-753v-440h869v-224h-1161zM542 1819v108q48 14 110 22t125 8q131 0 194.5 -35t63.5 -98q0 -32 -16 -54t-38 -36.5t-59 -31.5q-38 -18 -56.5 -31t-20.5 -33h-150q2 41 31.5 64t84.5 47q38 15 55 27.5t17 29.5q0 41 -125 41 q-57 0 -106 -6.5t-110 -21.5z" />
<glyph unicode="&#x1ebb;" horiz-adv-x="1260" d="M96 556q0 182 65 312t190.5 198.5t301.5 68.5q256 0 391.5 -153t135.5 -434v-71h-797q6 -103 48.5 -166t130.5 -92.5t234 -29.5q142 0 317 40v-207q-178 -42 -359 -42q-333 0 -495.5 140.5t-162.5 435.5zM382 641h529q-4 160 -69.5 236t-193.5 76t-195 -76t-71 -236z M449 1530v111q39 12 94.5 19t104.5 7q131 0 193.5 -38t62.5 -115q0 -35 -13 -59.5t-31.5 -40.5t-49.5 -37q-39 -27 -60 -49t-24 -58h-148q2 41 18.5 70t38 47.5t53.5 38.5q34 22 49 37t15 36q0 30 -28 42.5t-93 12.5q-91 0 -182 -24z" />
<glyph unicode="&#x1ebc;" d="M174 0v1516h1151v-225h-859v-403h753v-224h-753v-440h869v-224h-1161zM367 1683v160q42 37 94 54t124 17q51 0 94.5 -10.5t107.5 -29.5q55 -17 94.5 -26.5t80.5 -9.5q65 0 114 16.5t98 52.5v-161q-42 -36 -94 -53t-124 -17q-50 0 -92.5 9.5t-109.5 29.5 q-55 17 -94.5 26.5t-80.5 9.5q-65 0 -113.5 -16t-98.5 -52z" />
<glyph unicode="&#x1ebd;" horiz-adv-x="1260" d="M96 556q0 182 65 312t190.5 198.5t301.5 68.5q256 0 391.5 -153t135.5 -434v-71h-797q6 -103 48.5 -166t130.5 -92.5t234 -29.5q142 0 317 40v-207q-178 -42 -359 -42q-333 0 -495.5 140.5t-162.5 435.5zM273 1343v177q41 39 92 57t118 18q45 0 86.5 -12t98.5 -36 q57 -23 90.5 -33t69.5 -10q58 0 106 20t96 64v-177q-42 -39 -93 -57.5t-116 -18.5q-45 0 -86.5 12.5t-99.5 35.5q-57 23 -90.5 33t-69.5 10q-58 0 -106 -19t-96 -64zM382 641h529q-4 160 -69.5 236t-193.5 76t-195 -76t-71 -236z" />
<glyph unicode="&#x1ebe;" d="M174 0v1516h1151v-225h-859v-403h753v-224h-753v-440h869v-224h-1161zM329 1638l318 279h248l317 -279h-245l-196 180l-197 -180h-245zM1048 1854l163 260h215l-201 -260h-177z" />
<glyph unicode="&#x1ebf;" horiz-adv-x="1260" d="M96 556q0 182 65 312t190.5 198.5t301.5 68.5q256 0 391.5 -153t135.5 -434v-71h-797q6 -103 48.5 -166t130.5 -92.5t234 -29.5q142 0 317 40v-207q-178 -42 -359 -42q-333 0 -495.5 140.5t-162.5 435.5zM254 1270l281 385h233l281 -385h-222l-175 247l-176 -247h-222z M382 641h529q-4 160 -69.5 236t-193.5 76t-195 -76t-71 -236zM895 1635l217 278h256l-262 -278h-211z" />
<glyph unicode="&#x1ec0;" d="M174 0v1516h1151v-225h-859v-403h753v-224h-753v-440h869v-224h-1161zM329 1638l318 279h248l317 -279h-245l-196 180l-197 -180h-245zM878 2114h216l163 -260h-178z" />
<glyph unicode="&#x1ec1;" horiz-adv-x="1260" d="M96 556q0 182 65 312t190.5 198.5t301.5 68.5q256 0 391.5 -153t135.5 -434v-71h-797q6 -103 48.5 -166t130.5 -92.5t234 -29.5q142 0 317 40v-207q-178 -42 -359 -42q-333 0 -495.5 140.5t-162.5 435.5zM254 1270l281 385h233l281 -385h-222l-175 247l-176 -247h-222z M382 641h529q-4 160 -69.5 236t-193.5 76t-195 -76t-71 -236zM668 1913h255l218 -278h-211z" />
<glyph unicode="&#x1ec2;" d="M174 0v1516h1151v-225h-859v-403h753v-224h-753v-440h869v-224h-1161zM329 1638l318 279h248l317 -279h-245l-196 180l-197 -180h-245zM895 2022v97q48 13 110 20t124 7q131 0 194.5 -31.5t63.5 -89.5q0 -29 -16 -49t-37.5 -33t-58.5 -29q-39 -17 -57 -29.5t-20 -30.5 h-151q2 39 32.5 61t83.5 42q38 15 55 26t17 28q0 38 -124 38q-57 0 -106.5 -5.5t-109.5 -21.5z" />
<glyph unicode="&#x1ec3;" horiz-adv-x="1260" d="M96 556q0 182 65 312t190.5 198.5t301.5 68.5q256 0 391.5 -153t135.5 -434v-71h-797q6 -103 48.5 -166t130.5 -92.5t234 -29.5q142 0 317 40v-207q-178 -42 -359 -42q-333 0 -495.5 140.5t-162.5 435.5zM254 1270l281 385h233l281 -385h-222l-175 247l-176 -247h-222z M382 641h529q-4 160 -69.5 236t-193.5 76t-195 -76t-71 -236zM755 1806v94q42 12 101.5 19.5t116.5 7.5q122 0 179 -30t57 -91q0 -36 -22.5 -55t-68.5 -41q-40 -18 -60 -33.5t-23 -41.5h-136q3 44 32 67t78 44q31 12 44.5 22t13.5 23q0 20 -26 30.5t-86 10.5 q-103 0 -200 -26z" />
<glyph unicode="&#x1ec4;" d="M174 0v1516h1151v-225h-859v-403h753v-224h-753v-440h869v-224h-1161zM329 1638l318 279h248l317 -279h-245l-196 180l-197 -180h-245zM329 1958v126q57 36 114 49.5t129 13.5q55 0 104.5 -9t117.5 -27q55 -15 96 -22.5t81 -7.5q63 0 118 16t123 53v-126 q-57 -35 -114 -48.5t-129 -13.5q-55 0 -104 9t-118 27q-58 15 -97.5 22.5t-79.5 7.5q-62 0 -117.5 -16t-123.5 -54z" />
<glyph unicode="&#x1ec5;" horiz-adv-x="1260" d="M96 556q0 182 65 312t190.5 198.5t301.5 68.5q256 0 391.5 -153t135.5 -434v-71h-797q6 -103 48.5 -166t130.5 -92.5t234 -29.5q142 0 317 40v-207q-178 -42 -359 -42q-333 0 -495.5 140.5t-162.5 435.5zM222 1271l306 341h248l306 -341h-238l-192 226l-193 -226h-237z M257 1677v143q42 33 94 48.5t120 15.5q49 0 93.5 -9t103.5 -28q58 -16 94 -24t76 -8q62 0 110.5 14.5t97.5 48.5v-142q-41 -33 -93 -48.5t-121 -15.5q-49 0 -91.5 9t-105.5 27q-58 16 -94 24.5t-76 8.5q-62 0 -110 -15t-98 -49zM382 641h529q-4 160 -69.5 236t-193.5 76 t-195 -76t-71 -236z" />
<glyph unicode="&#x1ec6;" d="M174 0v1516h1151v-225h-859v-403h753v-224h-753v-440h869v-224h-1161zM329 1638l318 304h248l317 -304h-245l-196 193l-197 -193h-245zM596 -273q0 59 44.5 94t133.5 35t133 -35t44 -94q0 -60 -44 -94.5t-133 -34.5t-133.5 34t-44.5 95z" />
<glyph unicode="&#x1ec7;" horiz-adv-x="1260" d="M96 556q0 182 65 312t190.5 198.5t301.5 68.5q256 0 391.5 -153t135.5 -434v-71h-797q6 -103 48.5 -166t130.5 -92.5t234 -29.5q142 0 317 40v-207q-178 -42 -359 -42q-333 0 -495.5 140.5t-162.5 435.5zM254 1270l281 385h233l281 -385h-222l-175 247l-176 -247h-222z M382 641h529q-4 160 -69.5 236t-193.5 76t-195 -76t-71 -236zM493 -284q0 65 40.5 102.5t118.5 37.5t118 -37.5t40 -102.5t-40.5 -102t-117.5 -37q-78 0 -118.5 37.5t-40.5 101.5z" />
<glyph unicode="&#x1ec8;" horiz-adv-x="643" d="M93 1819v108q48 14 110 22t125 8q131 0 194.5 -35t63.5 -98q0 -32 -16 -54t-38 -36.5t-59 -31.5q-38 -18 -56.5 -31t-20.5 -33h-150q2 41 31.5 64t84.5 47q38 15 55 27.5t17 29.5q0 41 -125 41q-57 0 -106 -6.5t-110 -21.5zM174 0v1516h295v-1516h-295z" />
<glyph unicode="&#x1ec9;" horiz-adv-x="602" d="M98 1530v111q39 12 94.5 19t104.5 7q131 0 193.5 -38t62.5 -115q0 -35 -13 -59.5t-31.5 -40.5t-49.5 -37q-39 -27 -60 -49t-24 -58h-148q2 41 18.5 70t38 47.5t53.5 38.5q34 22 49 37t15 36q0 30 -28 42.5t-93 12.5q-91 0 -182 -24zM157 0v1117h288v-1117h-288z" />
<glyph unicode="&#x1eca;" horiz-adv-x="643" d="M143 -273q0 59 44.5 94t133.5 35t133 -35t44 -94q0 -60 -44 -94.5t-133 -34.5t-133.5 34t-44.5 95zM174 0v1516h295v-1516h-295z" />
<glyph unicode="&#x1ecb;" horiz-adv-x="602" d="M119 1454q0 72 45.5 110t136.5 38q90 0 135.5 -38t45.5 -110t-45.5 -109t-135.5 -37q-91 0 -136.5 37t-45.5 109zM142 -284q0 65 40.5 102.5t118.5 37.5t118 -37.5t40 -102.5t-40.5 -102t-117.5 -37q-78 0 -118.5 37.5t-40.5 101.5zM157 0v1117h288v-1117h-288z" />
<glyph unicode="&#x1ecc;" horiz-adv-x="1786" d="M112 758q0 251 95.5 425.5t271 263t414.5 88.5q240 0 416 -89t271 -263.5t95 -424.5t-96 -424.5t-271.5 -263.5t-414.5 -89q-240 0 -415.5 88.5t-270.5 263t-95 425.5zM413 764q0 -280 125.5 -414t354.5 -134t354.5 133t125.5 403q0 278 -126.5 412.5t-353.5 134.5 t-353.5 -132.5t-126.5 -402.5zM715 -273q0 59 44.5 94t133.5 35t133 -35t44 -94q0 -60 -44 -94.5t-133 -34.5t-133.5 34t-44.5 95z" />
<glyph unicode="&#x1ecd;" horiz-adv-x="1377" d="M96 558q0 187 71.5 316.5t204 195t316.5 65.5q185 0 318 -65t203.5 -193.5t70.5 -318.5q0 -185 -73 -315t-207 -196.5t-312 -66.5q-180 0 -313 65.5t-206 195.5t-73 317zM384 559q0 -356 304 -356t304 354q0 184 -77.5 268.5t-226.5 84.5q-147 0 -225.5 -84t-78.5 -267z M530 -284q0 65 40.5 102.5t118.5 37.5t118 -37.5t40 -102.5t-40.5 -102t-117.5 -37q-78 0 -118.5 37.5t-40.5 101.5z" />
<glyph unicode="&#x1ece;" horiz-adv-x="1786" d="M112 758q0 251 95.5 425.5t271 263t414.5 88.5q240 0 416 -89t271 -263.5t95 -424.5t-96 -424.5t-271.5 -263.5t-414.5 -89q-240 0 -415.5 88.5t-270.5 263t-95 425.5zM413 764q0 -280 125.5 -414t354.5 -134t354.5 133t125.5 403q0 278 -126.5 412.5t-353.5 134.5 t-353.5 -132.5t-126.5 -402.5zM664 1819v108q48 14 110 22t125 8q131 0 194.5 -35t63.5 -98q0 -32 -16 -54t-38 -36.5t-59 -31.5q-38 -18 -56.5 -31t-20.5 -33h-150q2 41 31.5 64t84.5 47q38 15 55 27.5t17 29.5q0 41 -125 41q-57 0 -106 -6.5t-110 -21.5z" />
<glyph unicode="&#x1ecf;" horiz-adv-x="1377" d="M96 558q0 187 71.5 316.5t204 195t316.5 65.5q185 0 318 -65t203.5 -193.5t70.5 -318.5q0 -185 -73 -315t-207 -196.5t-312 -66.5q-180 0 -313 65.5t-206 195.5t-73 317zM384 559q0 -356 304 -356t304 354q0 184 -77.5 268.5t-226.5 84.5q-147 0 -225.5 -84t-78.5 -267z M486 1530v111q39 12 94.5 19t104.5 7q131 0 193.5 -38t62.5 -115q0 -35 -13 -59.5t-31.5 -40.5t-49.5 -37q-39 -27 -60 -49t-24 -58h-148q2 41 18.5 70t38 47.5t53.5 38.5q34 22 49 37t15 36q0 30 -28 42.5t-93 12.5q-91 0 -182 -24z" />
<glyph unicode="&#x1ed0;" horiz-adv-x="1786" d="M112 758q0 251 95.5 425.5t271 263t414.5 88.5q240 0 416 -89t271 -263.5t95 -424.5t-96 -424.5t-271.5 -263.5t-414.5 -89q-240 0 -415.5 88.5t-270.5 263t-95 425.5zM413 764q0 -280 125.5 -414t354.5 -134t354.5 133t125.5 403q0 278 -126.5 412.5t-353.5 134.5 t-353.5 -132.5t-126.5 -402.5zM451 1638l318 279h248l317 -279h-245l-196 180l-197 -180h-245zM1170 1854l163 260h215l-201 -260h-177z" />
<glyph unicode="&#x1ed1;" horiz-adv-x="1377" d="M96 558q0 187 71.5 316.5t204 195t316.5 65.5q185 0 318 -65t203.5 -193.5t70.5 -318.5q0 -185 -73 -315t-207 -196.5t-312 -66.5q-180 0 -313 65.5t-206 195.5t-73 317zM291 1270l281 385h233l281 -385h-222l-175 247l-176 -247h-222zM384 559q0 -356 304 -356t304 354 q0 184 -77.5 268.5t-226.5 84.5q-147 0 -225.5 -84t-78.5 -267zM932 1635l217 278h256l-262 -278h-211z" />
<glyph unicode="&#x1ed2;" horiz-adv-x="1786" d="M112 758q0 251 95.5 425.5t271 263t414.5 88.5q240 0 416 -89t271 -263.5t95 -424.5t-96 -424.5t-271.5 -263.5t-414.5 -89q-240 0 -415.5 88.5t-270.5 263t-95 425.5zM413 764q0 -280 125.5 -414t354.5 -134t354.5 133t125.5 403q0 278 -126.5 412.5t-353.5 134.5 t-353.5 -132.5t-126.5 -402.5zM451 1638l318 279h248l317 -279h-245l-196 180l-197 -180h-245zM1000 2114h216l163 -260h-178z" />
<glyph unicode="&#x1ed3;" horiz-adv-x="1377" d="M96 558q0 187 71.5 316.5t204 195t316.5 65.5q185 0 318 -65t203.5 -193.5t70.5 -318.5q0 -185 -73 -315t-207 -196.5t-312 -66.5q-180 0 -313 65.5t-206 195.5t-73 317zM291 1270l281 385h233l281 -385h-222l-175 247l-176 -247h-222zM384 559q0 -356 304 -356t304 354 q0 184 -77.5 268.5t-226.5 84.5q-147 0 -225.5 -84t-78.5 -267zM705 1913h255l218 -278h-211z" />
<glyph unicode="&#x1ed4;" horiz-adv-x="1786" d="M112 758q0 251 95.5 425.5t271 263t414.5 88.5q240 0 416 -89t271 -263.5t95 -424.5t-96 -424.5t-271.5 -263.5t-414.5 -89q-240 0 -415.5 88.5t-270.5 263t-95 425.5zM413 764q0 -280 125.5 -414t354.5 -134t354.5 133t125.5 403q0 278 -126.5 412.5t-353.5 134.5 t-353.5 -132.5t-126.5 -402.5zM451 1638l318 279h248l317 -279h-245l-196 180l-197 -180h-245zM1017 2022v97q48 13 110 20t124 7q131 0 194.5 -31.5t63.5 -89.5q0 -29 -16 -49t-37.5 -33t-58.5 -29q-39 -17 -57 -29.5t-20 -30.5h-151q2 39 32.5 61t83.5 42q38 15 55 26 t17 28q0 38 -124 38q-57 0 -106.5 -5.5t-109.5 -21.5z" />
<glyph unicode="&#x1ed5;" horiz-adv-x="1377" d="M96 558q0 187 71.5 316.5t204 195t316.5 65.5q185 0 318 -65t203.5 -193.5t70.5 -318.5q0 -185 -73 -315t-207 -196.5t-312 -66.5q-180 0 -313 65.5t-206 195.5t-73 317zM291 1270l281 385h233l281 -385h-222l-175 247l-176 -247h-222zM384 559q0 -356 304 -356t304 354 q0 184 -77.5 268.5t-226.5 84.5q-147 0 -225.5 -84t-78.5 -267zM792 1806v94q42 12 101.5 19.5t116.5 7.5q122 0 179 -30t57 -91q0 -36 -22.5 -55t-68.5 -41q-40 -18 -60 -33.5t-23 -41.5h-136q3 44 32 67t78 44q31 12 44.5 22t13.5 23q0 20 -26 30.5t-86 10.5 q-103 0 -200 -26z" />
<glyph unicode="&#x1ed6;" horiz-adv-x="1786" d="M112 758q0 251 95.5 425.5t271 263t414.5 88.5q240 0 416 -89t271 -263.5t95 -424.5t-96 -424.5t-271.5 -263.5t-414.5 -89q-240 0 -415.5 88.5t-270.5 263t-95 425.5zM413 764q0 -280 125.5 -414t354.5 -134t354.5 133t125.5 403q0 278 -126.5 412.5t-353.5 134.5 t-353.5 -132.5t-126.5 -402.5zM451 1638l318 279h248l317 -279h-245l-196 180l-197 -180h-245zM451 1958v126q57 36 114 49.5t129 13.5q55 0 104.5 -9t117.5 -27q55 -15 96 -22.5t81 -7.5q63 0 118 16t123 53v-126q-57 -35 -114 -48.5t-129 -13.5q-55 0 -104 9t-118 27 q-58 15 -97.5 22.5t-79.5 7.5q-62 0 -117.5 -16t-123.5 -54z" />
<glyph unicode="&#x1ed7;" horiz-adv-x="1377" d="M96 558q0 187 71.5 316.5t204 195t316.5 65.5q185 0 318 -65t203.5 -193.5t70.5 -318.5q0 -185 -73 -315t-207 -196.5t-312 -66.5q-180 0 -313 65.5t-206 195.5t-73 317zM259 1271l306 341h248l306 -341h-238l-192 226l-193 -226h-237zM294 1677v143q42 33 94 48.5 t120 15.5q49 0 93.5 -9t103.5 -28q58 -16 94 -24t76 -8q62 0 110.5 14.5t97.5 48.5v-142q-41 -33 -93 -48.5t-121 -15.5q-49 0 -91.5 9t-105.5 27q-58 16 -94 24.5t-76 8.5q-62 0 -110 -15t-98 -49zM384 559q0 -356 304 -356t304 354q0 184 -77.5 268.5t-226.5 84.5 q-147 0 -225.5 -84t-78.5 -267z" />
<glyph unicode="&#x1ed8;" horiz-adv-x="1786" d="M112 758q0 251 95.5 425.5t271 263t414.5 88.5q240 0 416 -89t271 -263.5t95 -424.5t-96 -424.5t-271.5 -263.5t-414.5 -89q-240 0 -415.5 88.5t-270.5 263t-95 425.5zM413 764q0 -280 125.5 -414t354.5 -134t354.5 133t125.5 403q0 278 -126.5 412.5t-353.5 134.5 t-353.5 -132.5t-126.5 -402.5zM451 1638l318 304h248l317 -304h-245l-196 193l-197 -193h-245zM715 -273q0 59 44.5 94t133.5 35t133 -35t44 -94q0 -60 -44 -94.5t-133 -34.5t-133.5 34t-44.5 95z" />
<glyph unicode="&#x1ed9;" horiz-adv-x="1377" d="M96 558q0 187 71.5 316.5t204 195t316.5 65.5q185 0 318 -65t203.5 -193.5t70.5 -318.5q0 -185 -73 -315t-207 -196.5t-312 -66.5q-180 0 -313 65.5t-206 195.5t-73 317zM291 1270l281 385h233l281 -385h-222l-175 247l-176 -247h-222zM384 559q0 -356 304 -356t304 354 q0 184 -77.5 268.5t-226.5 84.5q-147 0 -225.5 -84t-78.5 -267zM530 -284q0 65 40.5 102.5t118.5 37.5t118 -37.5t40 -102.5t-40.5 -102t-117.5 -37q-78 0 -118.5 37.5t-40.5 101.5z" />
<glyph unicode="&#x1eda;" horiz-adv-x="1786" d="M112 758q0 251 95.5 425.5t271 263t414.5 88.5q51 0 110 -5t71 -6q127 -12 192 -13q114 0 168.5 39t54.5 124q0 63 -19 145h192q12 -42 17 -77t5 -75q0 -126 -68.5 -200.5t-194.5 -91.5q123 -97 188.5 -252.5t65.5 -364.5q0 -253 -95 -427t-270.5 -262t-416.5 -88 q-240 0 -415.5 88.5t-270.5 263t-95 425.5zM413 764q0 -280 125.5 -414t354.5 -134t354.5 133t125.5 403q0 278 -126.5 412.5t-353.5 134.5t-353.5 -132.5t-126.5 -402.5zM757 1638l218 304h310l-261 -304h-267z" />
<glyph unicode="&#x1edb;" horiz-adv-x="1377" d="M96 558q0 187 72 316.5t207 195t324 65.5q50 0 146 -8q51 -5 83 -5q106 0 159.5 38.5t53.5 124.5q0 63 -19 145h183q12 -42 16.5 -77t4.5 -75q0 -113 -54.5 -185t-156.5 -98q165 -147 165 -437q0 -185 -73 -315t-207 -196.5t-312 -66.5q-180 0 -313 65.5t-206 195.5 t-73 317zM384 559q0 -356 304 -356t304 354q0 184 -77.5 268.5t-226.5 84.5q-147 0 -225.5 -84t-78.5 -267zM546 1270l269 385h320l-312 -385h-277z" />
<glyph unicode="&#x1edc;" horiz-adv-x="1786" d="M112 758q0 251 95.5 425.5t271 263t414.5 88.5q51 0 110 -5t71 -6q127 -12 192 -13q114 0 168.5 39t54.5 124q0 63 -19 145h192q12 -42 17 -77t5 -75q0 -126 -68.5 -200.5t-194.5 -91.5q123 -97 188.5 -252.5t65.5 -364.5q0 -253 -95 -427t-270.5 -262t-416.5 -88 q-240 0 -415.5 88.5t-270.5 263t-95 425.5zM413 764q0 -280 125.5 -414t354.5 -134t354.5 133t125.5 403q0 278 -126.5 412.5t-353.5 134.5t-353.5 -132.5t-126.5 -402.5zM498 1942h311l217 -304h-267z" />
<glyph unicode="&#x1edd;" horiz-adv-x="1377" d="M96 558q0 187 72 316.5t207 195t324 65.5q50 0 146 -8q51 -5 83 -5q106 0 159.5 38.5t53.5 124.5q0 63 -19 145h183q12 -42 16.5 -77t4.5 -75q0 -113 -54.5 -185t-156.5 -98q165 -147 165 -437q0 -185 -73 -315t-207 -196.5t-312 -66.5q-180 0 -313 65.5t-206 195.5 t-73 317zM234 1655h321l268 -385h-277zM384 559q0 -356 304 -356t304 354q0 184 -77.5 268.5t-226.5 84.5q-147 0 -225.5 -84t-78.5 -267z" />
<glyph unicode="&#x1ede;" horiz-adv-x="1786" d="M112 758q0 251 95.5 425.5t271 263t414.5 88.5q51 0 110 -5t71 -6q127 -12 192 -13q114 0 168.5 39t54.5 124q0 63 -19 145h192q12 -42 17 -77t5 -75q0 -126 -68.5 -200.5t-194.5 -91.5q123 -97 188.5 -252.5t65.5 -364.5q0 -253 -95 -427t-270.5 -262t-416.5 -88 q-240 0 -415.5 88.5t-270.5 263t-95 425.5zM413 764q0 -280 125.5 -414t354.5 -134t354.5 133t125.5 403q0 278 -126.5 412.5t-353.5 134.5t-353.5 -132.5t-126.5 -402.5zM664 1819v108q48 14 110 22t125 8q131 0 194.5 -35t63.5 -98q0 -32 -16 -54t-38 -36.5t-59 -31.5 q-38 -18 -56.5 -31t-20.5 -33h-150q2 41 31.5 64t84.5 47q38 15 55 27.5t17 29.5q0 41 -125 41q-57 0 -106 -6.5t-110 -21.5z" />
<glyph unicode="&#x1edf;" horiz-adv-x="1377" d="M96 558q0 187 72 316.5t207 195t324 65.5q50 0 146 -8q51 -5 83 -5q106 0 159.5 38.5t53.5 124.5q0 63 -19 145h183q12 -42 16.5 -77t4.5 -75q0 -113 -54.5 -185t-156.5 -98q165 -147 165 -437q0 -185 -73 -315t-207 -196.5t-312 -66.5q-180 0 -313 65.5t-206 195.5 t-73 317zM384 559q0 -356 304 -356t304 354q0 184 -77.5 268.5t-226.5 84.5q-147 0 -225.5 -84t-78.5 -267zM482 1530v111q39 12 94.5 19t104.5 7q131 0 193.5 -38t62.5 -115q0 -35 -13 -59.5t-31.5 -40.5t-49.5 -37q-39 -27 -60 -49t-24 -58h-148q2 41 18.5 70t38 47.5 t53.5 38.5q34 22 49 37t15 36q0 30 -28 42.5t-93 12.5q-91 0 -182 -24z" />
<glyph unicode="&#x1ee0;" horiz-adv-x="1786" d="M112 758q0 251 95.5 425.5t271 263t414.5 88.5q51 0 110 -5t71 -6q127 -12 192 -13q114 0 168.5 39t54.5 124q0 63 -19 145h192q12 -42 17 -77t5 -75q0 -126 -68.5 -200.5t-194.5 -91.5q123 -97 188.5 -252.5t65.5 -364.5q0 -253 -95 -427t-270.5 -262t-416.5 -88 q-240 0 -415.5 88.5t-270.5 263t-95 425.5zM413 764q0 -280 125.5 -414t354.5 -134t354.5 133t125.5 403q0 278 -126.5 412.5t-353.5 134.5t-353.5 -132.5t-126.5 -402.5zM489 1683v160q42 37 94.5 54t125.5 17q50 0 94.5 -10.5t106.5 -29.5q55 -18 94 -27t80 -9 q65 0 114.5 16.5t98.5 52.5v-161q-42 -36 -94.5 -53t-124.5 -17q-50 0 -95 10t-106 29q-55 17 -95 26.5t-81 9.5q-63 0 -112.5 -16t-99.5 -52z" />
<glyph unicode="&#x1ee1;" horiz-adv-x="1377" d="M96 558q0 187 72 316.5t207 195t324 65.5q50 0 146 -8q51 -5 83 -5q106 0 159.5 38.5t53.5 124.5q0 63 -19 145h183q12 -42 16.5 -77t4.5 -75q0 -113 -54.5 -185t-156.5 -98q165 -147 165 -437q0 -185 -73 -315t-207 -196.5t-312 -66.5q-180 0 -313 65.5t-206 195.5 t-73 317zM317 1343v177q41 39 91 57t113 18q44 0 84.5 -12t95.5 -36q54 -23 87 -33t68 -10q56 0 103.5 20t94.5 64v-177q-41 -39 -91 -57.5t-113 -18.5q-44 0 -84 12.5t-97 35.5q-50 22 -84.5 32.5t-69.5 10.5q-56 0 -102.5 -19t-95.5 -64zM384 559q0 -356 304 -356t304 354 q0 184 -77.5 268.5t-226.5 84.5q-147 0 -225.5 -84t-78.5 -267z" />
<glyph unicode="&#x1ee2;" horiz-adv-x="1786" d="M112 758q0 251 95.5 425.5t271 263t414.5 88.5q51 0 110 -5t71 -6q127 -12 192 -13q114 0 168.5 39t54.5 124q0 63 -19 145h192q12 -42 17 -77t5 -75q0 -126 -68.5 -200.5t-194.5 -91.5q123 -97 188.5 -252.5t65.5 -364.5q0 -253 -95 -427t-270.5 -262t-416.5 -88 q-240 0 -415.5 88.5t-270.5 263t-95 425.5zM413 764q0 -280 125.5 -414t354.5 -134t354.5 133t125.5 403q0 278 -126.5 412.5t-353.5 134.5t-353.5 -132.5t-126.5 -402.5zM715 -273q0 59 44.5 94t133.5 35t133 -35t44 -94q0 -60 -44 -94.5t-133 -34.5t-133.5 34t-44.5 95z " />
<glyph unicode="&#x1ee3;" horiz-adv-x="1377" d="M96 558q0 187 72 316.5t207 195t324 65.5q50 0 146 -8q51 -5 83 -5q106 0 159.5 38.5t53.5 124.5q0 63 -19 145h183q12 -42 16.5 -77t4.5 -75q0 -113 -54.5 -185t-156.5 -98q165 -147 165 -437q0 -185 -73 -315t-207 -196.5t-312 -66.5q-180 0 -313 65.5t-206 195.5 t-73 317zM384 559q0 -356 304 -356t304 354q0 184 -77.5 268.5t-226.5 84.5q-147 0 -225.5 -84t-78.5 -267zM526 -284q0 65 40.5 102.5t118.5 37.5t118 -37.5t40 -102.5t-40.5 -102t-117.5 -37q-78 0 -118.5 37.5t-40.5 101.5z" />
<glyph unicode="&#x1ee4;" horiz-adv-x="1698" d="M167 650v866h295v-891q0 -210 95.5 -308t294.5 -98q200 0 295.5 98t95.5 308v891h290v-866q0 -336 -165 -502.5t-516 -166.5q-354 0 -519.5 166.5t-165.5 502.5zM674 -273q0 59 44.5 94t133.5 35t133 -35t44 -94q0 -60 -44 -94.5t-133 -34.5t-133.5 34t-44.5 95z" />
<glyph unicode="&#x1ee5;" horiz-adv-x="1384" d="M143 446v671h289v-655q0 -127 56.5 -182t162.5 -55q79 0 156 30.5t132 87.5v774h289v-1117h-238l-18 114h-13q-76 -63 -172 -97.5t-200 -34.5q-207 0 -325.5 113t-118.5 351zM527 -284q0 65 40.5 102.5t118.5 37.5t118 -37.5t40 -102.5t-40.5 -102t-117.5 -37 q-78 0 -118.5 37.5t-40.5 101.5z" />
<glyph unicode="&#x1ee6;" horiz-adv-x="1698" d="M167 650v866h295v-891q0 -210 95.5 -308t294.5 -98q200 0 295.5 98t95.5 308v891h290v-866q0 -336 -165 -502.5t-516 -166.5q-354 0 -519.5 166.5t-165.5 502.5zM623 1819v108q48 14 110 22t125 8q131 0 194.5 -35t63.5 -98q0 -32 -16 -54t-38 -36.5t-59 -31.5 q-38 -18 -56.5 -31t-20.5 -33h-150q2 41 31.5 64t84.5 47q38 15 55 27.5t17 29.5q0 41 -125 41q-57 0 -106 -6.5t-110 -21.5z" />
<glyph unicode="&#x1ee7;" horiz-adv-x="1384" d="M143 446v671h289v-655q0 -127 56.5 -182t162.5 -55q79 0 156 30.5t132 87.5v774h289v-1117h-238l-18 114h-13q-76 -63 -172 -97.5t-200 -34.5q-207 0 -325.5 113t-118.5 351zM483 1530v111q39 12 94.5 19t104.5 7q131 0 193.5 -38t62.5 -115q0 -35 -13 -59.5t-31.5 -40.5 t-49.5 -37q-39 -27 -60 -49t-24 -58h-148q2 41 18.5 70t38 47.5t53.5 38.5q34 22 49 37t15 36q0 30 -28 42.5t-93 12.5q-91 0 -182 -24z" />
<glyph unicode="&#x1ee8;" horiz-adv-x="1698" d="M167 650v866h295v-891q0 -210 95.5 -308t294.5 -98q200 0 295.5 98t95.5 308v891h91q115 0 170 36.5t55 121.5q0 34 -5 67t-15 78h192q12 -42 17 -77t5 -75q0 -112 -57 -182.5t-163 -91.5v-743q0 -336 -165 -502.5t-516 -166.5q-354 0 -519.5 166.5t-165.5 502.5z M714 1638l218 304h310l-261 -304h-267z" />
<glyph unicode="&#x1ee9;" horiz-adv-x="1416" d="M143 446v671h289v-655q0 -127 56.5 -182t162.5 -55q79 0 156 30.5t132 87.5v774h118q106 0 159.5 38.5t53.5 124.5q0 63 -19 144h182q12 -42 17 -76.5t5 -74.5q0 -118 -59 -190.5t-168 -96.5v-986h-238l-18 114h-13q-76 -63 -172 -97.5t-200 -34.5q-207 0 -325.5 113 t-118.5 351zM547 1270l269 385h320l-312 -385h-277z" />
<glyph unicode="&#x1eea;" horiz-adv-x="1698" d="M167 650v866h295v-891q0 -210 95.5 -308t294.5 -98q200 0 295.5 98t95.5 308v891h91q115 0 170 36.5t55 121.5q0 34 -5 67t-15 78h192q12 -42 17 -77t5 -75q0 -112 -57 -182.5t-163 -91.5v-743q0 -336 -165 -502.5t-516 -166.5q-354 0 -519.5 166.5t-165.5 502.5z M455 1942h311l217 -304h-267z" />
<glyph unicode="&#x1eeb;" horiz-adv-x="1416" d="M143 446v671h289v-655q0 -127 56.5 -182t162.5 -55q79 0 156 30.5t132 87.5v774h118q106 0 159.5 38.5t53.5 124.5q0 63 -19 144h182q12 -42 17 -76.5t5 -74.5q0 -118 -59 -190.5t-168 -96.5v-986h-238l-18 114h-13q-76 -63 -172 -97.5t-200 -34.5q-207 0 -325.5 113 t-118.5 351zM235 1655h321l268 -385h-277z" />
<glyph unicode="&#x1eec;" horiz-adv-x="1698" d="M167 650v866h295v-891q0 -210 95.5 -308t294.5 -98q200 0 295.5 98t95.5 308v891h91q115 0 170 36.5t55 121.5q0 34 -5 67t-15 78h192q12 -42 17 -77t5 -75q0 -112 -57 -182.5t-163 -91.5v-743q0 -336 -165 -502.5t-516 -166.5q-354 0 -519.5 166.5t-165.5 502.5z M621 1819v108q48 14 110 22t125 8q131 0 194.5 -35t63.5 -98q0 -32 -16 -54t-38 -36.5t-59 -31.5q-38 -18 -56.5 -31t-20.5 -33h-150q2 41 31.5 64t84.5 47q38 15 55 27.5t17 29.5q0 41 -125 41q-57 0 -106 -6.5t-110 -21.5z" />
<glyph unicode="&#x1eed;" horiz-adv-x="1416" d="M143 446v671h289v-655q0 -127 56.5 -182t162.5 -55q79 0 156 30.5t132 87.5v774h118q106 0 159.5 38.5t53.5 124.5q0 63 -19 144h182q12 -42 17 -76.5t5 -74.5q0 -118 -59 -190.5t-168 -96.5v-986h-238l-18 114h-13q-76 -63 -172 -97.5t-200 -34.5q-207 0 -325.5 113 t-118.5 351zM483 1530v111q39 12 94.5 19t104.5 7q131 0 193.5 -38t62.5 -115q0 -35 -13 -59.5t-31.5 -40.5t-49.5 -37q-39 -27 -60 -49t-24 -58h-148q2 41 18.5 70t38 47.5t53.5 38.5q34 22 49 37t15 36q0 30 -28 42.5t-93 12.5q-91 0 -182 -24z" />
<glyph unicode="&#x1eee;" horiz-adv-x="1698" d="M167 650v866h295v-891q0 -210 95.5 -308t294.5 -98q200 0 295.5 98t95.5 308v891h91q115 0 170 36.5t55 121.5q0 34 -5 67t-15 78h192q12 -42 17 -77t5 -75q0 -112 -57 -182.5t-163 -91.5v-743q0 -336 -165 -502.5t-516 -166.5q-354 0 -519.5 166.5t-165.5 502.5z M446 1683v160q42 37 94 54t124 17q51 0 94.5 -10.5t107.5 -29.5q55 -17 94.5 -26.5t80.5 -9.5q65 0 114 16.5t98 52.5v-161q-42 -36 -94 -53t-124 -17q-50 0 -92.5 9.5t-109.5 29.5q-55 17 -94.5 26.5t-80.5 9.5q-65 0 -113.5 -16t-98.5 -52z" />
<glyph unicode="&#x1eef;" horiz-adv-x="1416" d="M143 446v671h289v-655q0 -127 56.5 -182t162.5 -55q79 0 156 30.5t132 87.5v774h118q106 0 159.5 38.5t53.5 124.5q0 63 -19 144h182q12 -42 17 -76.5t5 -74.5q0 -118 -59 -190.5t-168 -96.5v-986h-238l-18 114h-13q-76 -63 -172 -97.5t-200 -34.5q-207 0 -325.5 113 t-118.5 351zM307 1343v177q41 39 92 57t117 18q46 0 87 -12t100 -36q50 -22 86 -32.5t72 -10.5q58 0 106.5 20t97.5 64v-177q-42 -39 -93 -57.5t-117 -18.5q-46 0 -87.5 12.5t-98.5 35.5q-50 22 -86.5 32.5t-72.5 10.5q-59 0 -107 -19t-96 -64z" />
<glyph unicode="&#x1ef0;" horiz-adv-x="1698" d="M167 650v866h295v-891q0 -210 95.5 -308t294.5 -98q200 0 295.5 98t95.5 308v891h91q115 0 170 36.5t55 121.5q0 34 -5 67t-15 78h192q12 -42 17 -77t5 -75q0 -112 -57 -182.5t-163 -91.5v-743q0 -336 -165 -502.5t-516 -166.5q-354 0 -519.5 166.5t-165.5 502.5z M672 -273q0 59 44.5 94t133.5 35t133 -35t44 -94q0 -60 -44 -94.5t-133 -34.5t-133.5 34t-44.5 95z" />
<glyph unicode="&#x1ef1;" horiz-adv-x="1416" d="M143 446v671h289v-655q0 -127 56.5 -182t162.5 -55q79 0 156 30.5t132 87.5v774h118q106 0 159.5 38.5t53.5 124.5q0 63 -19 144h182q12 -42 17 -76.5t5 -74.5q0 -118 -59 -190.5t-168 -96.5v-986h-238l-18 114h-13q-76 -63 -172 -97.5t-200 -34.5q-207 0 -325.5 113 t-118.5 351zM527 -284q0 65 40.5 102.5t118.5 37.5t118 -37.5t40 -102.5t-40.5 -102t-117.5 -37q-78 0 -118.5 37.5t-40.5 101.5z" />
<glyph unicode="&#x1ef2;" d="M-41 1516h320l445 -631l436 631h299l-593 -864v-652h-295v649zM321 1942h311l217 -304h-267z" />
<glyph unicode="&#x1ef3;" horiz-adv-x="1320" d="M10 1117h306l353 -878l358 878h284l-667 -1568h-284l193 451h-70zM211 1655h321l268 -385h-277z" />
<glyph unicode="&#x1ef4;" d="M-41 1516h320l445 -631l436 631h299l-593 -864v-652h-295v649zM538 -273q0 59 44.5 94t133.5 35t133 -35t44 -94q0 -60 -44 -94.5t-133 -34.5t-133.5 34t-44.5 95z" />
<glyph unicode="&#x1ef5;" horiz-adv-x="1320" d="M10 1117h306l353 -878l358 878h284l-667 -1568h-284l193 451h-70zM890 -284q0 65 40.5 102.5t118.5 37.5t118 -37.5t40 -102.5t-40.5 -102t-117.5 -37q-78 0 -118.5 37.5t-40.5 101.5z" />
<glyph unicode="&#x1ef6;" d="M-41 1516h320l445 -631l436 631h299l-593 -864v-652h-295v649zM487 1819v108q48 14 110 22t125 8q131 0 194.5 -35t63.5 -98q0 -32 -16 -54t-38 -36.5t-59 -31.5q-38 -18 -56.5 -31t-20.5 -33h-150q2 41 31.5 64t84.5 47q38 15 55 27.5t17 29.5q0 41 -125 41 q-57 0 -106 -6.5t-110 -21.5z" />
<glyph unicode="&#x1ef7;" horiz-adv-x="1320" d="M10 1117h306l353 -878l358 878h284l-667 -1568h-284l193 451h-70zM459 1530v111q39 12 94.5 19t104.5 7q131 0 193.5 -38t62.5 -115q0 -35 -13 -59.5t-31.5 -40.5t-49.5 -37q-39 -27 -60 -49t-24 -58h-148q2 41 18.5 70t38 47.5t53.5 38.5q34 22 49 37t15 36 q0 30 -28 42.5t-93 12.5q-91 0 -182 -24z" />
<glyph unicode="&#x1ef8;" d="M-41 1516h320l445 -631l436 631h299l-593 -864v-652h-295v649zM312 1683v160q42 37 94 54t124 17q51 0 94.5 -10.5t107.5 -29.5q55 -17 94.5 -26.5t80.5 -9.5q65 0 114 16.5t98 52.5v-161q-42 -36 -94 -53t-124 -17q-50 0 -92.5 9.5t-109.5 29.5q-55 17 -94.5 26.5 t-80.5 9.5q-65 0 -113.5 -16t-98.5 -52z" />
<glyph unicode="&#x1ef9;" horiz-adv-x="1320" d="M10 1117h306l353 -878l358 878h284l-667 -1568h-284l193 451h-70zM283 1343v177q41 39 92 57t118 18q45 0 86.5 -12t98.5 -36q57 -23 90.5 -33t69.5 -10q58 0 106 20t96 64v-177q-42 -39 -93 -57.5t-116 -18.5q-45 0 -86.5 12.5t-99.5 35.5q-57 23 -90.5 33t-69.5 10 q-58 0 -106 -19t-96 -64z" />
<glyph unicode="&#x2000;" horiz-adv-x="1135" />
<glyph unicode="&#x2001;" horiz-adv-x="2270" />
<glyph unicode="&#x2002;" horiz-adv-x="1135" />
<glyph unicode="&#x2003;" horiz-adv-x="2270" />
<glyph unicode="&#x2004;" horiz-adv-x="756" />
<glyph unicode="&#x2005;" horiz-adv-x="567" />
<glyph unicode="&#x2006;" horiz-adv-x="378" />
<glyph unicode="&#x2007;" horiz-adv-x="1361" />
<glyph unicode="&#x2008;" horiz-adv-x="598" />
<glyph unicode="&#x2009;" horiz-adv-x="409" />
<glyph unicode="&#x200a;" horiz-adv-x="145" />
<glyph unicode="&#x200b;" horiz-adv-x="0" />
<glyph unicode="&#x2010;" horiz-adv-x="1069" d="M153 461v236h763v-236h-763z" />
<glyph unicode="&#x2011;" horiz-adv-x="1069" d="M153 461v236h763v-236h-763z" />
<glyph unicode="&#x2012;" horiz-adv-x="1361" d="M129 475v208h1104v-208h-1104z" />
<glyph unicode="&#x2013;" horiz-adv-x="1024" d="M0 475v208h1024v-208h-1024z" />
<glyph unicode="&#x2014;" horiz-adv-x="2048" d="M0 475v208h2048v-208h-2048z" />
<glyph unicode="&#x2015;" horiz-adv-x="2048" d="M0 475v208h2048v-208h-2048z" />
<glyph unicode="&#x2018;" horiz-adv-x="598" d="M112 1210q0 118 39 234.5t108 210.5h163q-44 -96 -68 -173.5t-30 -152.5q77 -6 120.5 -51.5t43.5 -119.5q0 -79 -49 -125t-136 -46q-94 0 -142.5 56t-48.5 167z" />
<glyph unicode="&#x2019;" horiz-adv-x="598" d="M110 1500q0 78 49 124t136 46q94 0 142.5 -55.5t48.5 -167.5q0 -117 -39 -233t-108 -210h-163q44 95 68 172.5t30 152.5q-78 6 -121 51.5t-43 119.5z" />
<glyph unicode="&#x201a;" horiz-adv-x="598" d="M110 156q0 79 49 125t136 46q94 0 142.5 -56t48.5 -168q0 -117 -39 -233t-108 -210h-163q44 95 68 173t30 153q-78 6 -121 51.5t-43 118.5z" />
<glyph unicode="&#x201c;" horiz-adv-x="1095" d="M112 1210q0 118 39 234.5t108 210.5h163q-44 -96 -68 -173.5t-30 -152.5q77 -6 120.5 -51.5t43.5 -119.5q0 -79 -49 -125t-136 -46q-94 0 -142.5 56t-48.5 167zM610 1210q0 118 39 234.5t108 210.5h163q-44 -96 -68 -173.5t-30 -152.5q77 -6 120.5 -51.5t43.5 -119.5 q0 -79 -49 -125t-136 -46q-94 0 -142.5 56t-48.5 167z" />
<glyph unicode="&#x201d;" horiz-adv-x="1095" d="M110 1500q0 78 49 124t136 46q94 0 142.5 -55.5t48.5 -167.5q0 -117 -39 -233t-108 -210h-163q44 95 68 172.5t30 152.5q-78 6 -121 51.5t-43 119.5zM608 1500q0 78 49 124t136 46q94 0 142.5 -55.5t48.5 -167.5q0 -117 -39 -233t-108 -210h-163q44 95 68 172.5t30 152.5 q-78 6 -121 51.5t-43 119.5z" />
<glyph unicode="&#x201e;" horiz-adv-x="1095" d="M110 156q0 79 49 125t136 46q94 0 142.5 -56t48.5 -168q0 -117 -39 -233t-108 -210h-163q44 95 68 173t30 153q-78 6 -121 51.5t-43 118.5zM608 156q0 79 49 125t136 46q94 0 142.5 -56t48.5 -168q0 -117 -39 -233t-108 -210h-163q44 95 68 173t30 153q-78 6 -121 51.5 t-43 118.5z" />
<glyph unicode="&#x2020;" horiz-adv-x="1143" d="M78 1153v187h195l226 -23l-24 183v155h193v-155l-23 -183l225 23h195v-187h-195l-225 24l23 -184v-604l-23 -225h-146l-24 225v604l24 184l-226 -24h-195z" />
<glyph unicode="&#x2021;" horiz-adv-x="1143" d="M78 478v188h168l252 -23l-24 192v158l24 183l-252 -23h-168v187h168l252 -22l-24 182v155h193v-155l-23 -182l254 22h167v-187h-167l-254 23l23 -183v-158l-23 -192l254 23h167v-188h-167l-254 23l23 -183v-154h-193v154l24 183l-252 -23h-168z" />
<glyph unicode="&#x2022;" horiz-adv-x="804" d="M110 573q0 84 38.5 151t106 104.5t147.5 37.5q82 0 149 -37.5t106 -104.5t39 -151q0 -83 -39 -150t-106 -104.5t-149 -37.5q-80 0 -147.5 37.5t-106 104.5t-38.5 150z" />
<glyph unicode="&#x2026;" horiz-adv-x="1753" d="M110 155q0 80 50 126t139 46t139 -47t50 -125t-50.5 -124t-138.5 -46t-138.5 45.5t-50.5 124.5zM688 155q0 80 50 126t139 46t139 -47t50 -125t-50.5 -124t-138.5 -46t-138.5 45.5t-50.5 124.5zM1265 155q0 80 50 126t139 46t139 -47t50 -125t-50.5 -124t-138.5 -46 t-138.5 45.5t-50.5 124.5z" />
<glyph unicode="&#x202f;" horiz-adv-x="454" />
<glyph unicode="&#x2030;" horiz-adv-x="3211" d="M114 1060q0 155 53 261.5t148.5 160t221.5 53.5q127 0 222 -53.5t148.5 -160.5t53.5 -261q0 -156 -53.5 -262.5t-149 -159t-221.5 -52.5t-221.5 52.5t-148.5 159t-53 262.5zM340 1061q0 -153 52.5 -224t144.5 -71t144.5 69.5t52.5 223.5t-52.5 225t-144.5 71 q-91 0 -144 -71t-53 -223zM632 0l759 1516h243l-758 -1516h-244zM1306 456q0 156 53 262.5t148.5 160t222.5 53.5q126 0 221 -53.5t148 -160.5t53 -262t-53 -261.5t-148.5 -159.5t-220.5 -53q-126 0 -222 53t-149 159.5t-53 261.5zM1532 457q0 -153 53 -224t145 -71 q91 0 143.5 70t52.5 223q0 154 -52.5 225t-143.5 71t-144.5 -71t-53.5 -223zM2252 456q0 156 52.5 262.5t148 160t222.5 53.5t222 -53.5t148 -160.5t53 -262t-53.5 -261.5t-148.5 -159.5t-221 -53t-221.5 53t-148.5 159.5t-53 261.5zM2477 457q0 -153 53.5 -224t144.5 -71 q92 0 144.5 70t52.5 223q0 154 -52.5 225t-144.5 71q-91 0 -144.5 -71t-53.5 -223z" />
<glyph unicode="&#x2032;" horiz-adv-x="522" d="M121 1655h280l-53 -771h-174z" />
<glyph unicode="&#x2033;" horiz-adv-x="972" d="M121 1655h280l-53 -771h-174zM572 1655h280l-53 -771h-174z" />
<glyph unicode="&#x2039;" horiz-adv-x="796" d="M109 579l317 441h303l-317 -441l317 -441h-303z" />
<glyph unicode="&#x203a;" horiz-adv-x="796" d="M68 138l317 441l-317 441h303l317 -441l-317 -441h-303z" />
<glyph unicode="&#x2044;" horiz-adv-x="408" d="M-366 -139l898 1794h242l-897 -1794h-243z" />
<glyph unicode="&#x205f;" horiz-adv-x="567" />
<glyph unicode="&#x20a1;" horiz-adv-x="1422" d="M112 -246l164 473q-165 191 -164 528q0 319 158 511.5t460 247.5l86 247h179l-79 -227q20 1 64 1q68 0 118 -4l80 230h179l-87 -251q41 -7 87 -18v-240q-172 41 -355 41q-294 0 -437.5 -130t-143.5 -404q0 -275 139.5 -406t424.5 -131q188 0 372 50v-239 q-179 -52 -389 -52q-128 0 -231 16l-85 -243h-179l98 283q-89 31 -156 73l-124 -356h-179z" />
<glyph unicode="&#x20a3;" horiz-adv-x="1540" d="M82 253v208h233v1055h1146v-231h-851v-358h743v-231h-743v-235h377v-208h-377v-253h-295v253h-233z" />
<glyph unicode="&#x20a4;" horiz-adv-x="1533" d="M87 0v207h234v293h-234v168h234v189h-234v169h234q2 254 169 381.5t500 127.5q216 0 399 -48v-225q-85 26 -188 39.5t-200 13.5q-144 0 -230 -27t-126.5 -87.5t-40.5 -164.5v-10h557v-169h-557v-189h557v-168h-557v-293h839v-207h-1356z" />
<glyph unicode="&#x20a6;" horiz-adv-x="2036" d="M82 505v169h233v188h-233v169h233v485h298l830 -1112v1112h279v-485h233v-169h-233v-188h233v-169h-233v-505h-299l-829 1111v-1111h-279v505h-233z" />
<glyph unicode="&#x20a7;" horiz-adv-x="3281" d="M174 0v1487q124 24 238.5 35t238.5 11q309 0 482 -101.5t209 -314.5h192l51 399h238v-399h350v-229h-350v-438q0 -129 55 -183.5t175 -54.5q56 0 141 16v-224q-110 -25 -220 -24q-216 0 -328 103t-112 312v493h-191q-33 -213 -204 -321t-483 -108q-68 0 -187 7v-466h-295 zM469 683q51 -7 92.5 -10t96.5 -3q213 0 310 78t97 248q0 169 -96 247.5t-292 78.5q-104 0 -208 -18v-621zM2245 783q0 165 142.5 258.5t440.5 93.5q82 0 164 -9.5t152 -26.5v-201q-152 37 -318 37q-173 0 -239.5 -37t-66.5 -102q0 -47 31 -77t108 -43l208 -31 q174 -25 257 -98t83 -217q0 -166 -140.5 -258t-417.5 -92q-97 0 -196.5 11.5t-184.5 34.5v201q93 -25 191.5 -37t187.5 -12q156 0 220.5 34.5t64.5 102.5q0 52 -31 80t-112 40l-209 31q-178 27 -256.5 105.5t-78.5 211.5z" />
<glyph unicode="&#x20a9;" horiz-adv-x="2805" d="M82 505v169h342l-59 188h-283v169h229l-151 485h301l381 -1259l401 1259h333l396 -1272l389 1272h284l-152 -485h231v-169h-284l-58 -188h342v-169h-395l-158 -505h-376l-389 1232l-395 -1232h-376l-159 505h-394z" />
<glyph unicode="&#x20ab;" horiz-adv-x="1402" d="M96 535q0 194 75.5 328.5t220.5 204t349 69.5q84 0 216 -16v182h-435v172h435v180h289v-180h148v-172h-148v-1303h-241l-17 121h-15q-65 -66 -156.5 -102.5t-201.5 -36.5q-150 0 -266.5 57.5t-184.5 181t-68 314.5zM170 -162h1076v-194h-1076v194zM384 555 q0 -341 305 -341q77 0 147 26.5t121 84.5v570q-95 22 -198 21q-189 0 -282 -89t-93 -272z" />
<glyph unicode="&#x20ac;" horiz-adv-x="1601" d="M82 505v169h212q-3 40 -3 81q0 49 5 107h-214v169h247q75 246 289.5 375t542.5 129q194 0 375 -43v-229q-168 42 -354 42q-214 0 -349 -67t-193 -207h669v-169h-711q-5 -54 -5 -103q0 -45 3 -85h713v-169h-678q54 -153 187 -223.5t346 -70.5q98 0 188.5 13t183.5 39v-229 q-180 -53 -389 -53q-337 0 -549.5 129.5t-279.5 394.5h-236z" />
<glyph unicode="&#x20ad;" horiz-adv-x="1631" d="M82 673v207h233v636h295v-636h192l476 636h315l-475 -636h388v-207h-377l512 -673h-327l-513 673h-191v-673h-295v673h-233z" />
<glyph unicode="&#x20b1;" horiz-adv-x="1744" d="M82 733v168h233v190h-233v167h233v229q124 24 239.5 35t239.5 11q252 0 413 -67.5t232 -207.5h265v-167h-216q5 -49 5 -94q0 -50 -6 -96h217v-168h-268q-143 -274 -638 -274q-68 0 -188 7v-466h-295v733h-233zM610 683q51 -7 92.5 -10t97.5 -3q213 0 309.5 78t96.5 248 q0 169 -95.5 247.5t-292.5 78.5q-104 0 -208 -18v-621z" />
<glyph unicode="&#x20b2;" horiz-adv-x="1632" d="M112 753q-1 324 173 518t499 246v244h274v-226q174 -3 352 -43v-240q-176 41 -359 41q-314 -1 -473 -132.5t-159 -407.5q0 -529 606 -530q83 0 160 6v508h276v-717q-212 -35 -403 -35v-231h-274v248q-336 49 -503.5 237.5t-168.5 513.5z" />
<glyph unicode="&#x20b5;" horiz-adv-x="1422" d="M112 755q0 324 164 517.5t476 245.5v243h273v-226q170 -4 332 -43v-240q-170 41 -355 41q-293 0 -437 -130t-144 -404q0 -281 141 -409t423 -128q189 0 372 51v-239q-158 -46 -332 -52v-228h-273v241q-312 45 -476 233t-164 527z" />
<glyph unicode="&#x20b9;" horiz-adv-x="1325" d="M82 585v191q79 -7 138.5 -10t146.5 -3q197 0 298 51t125 164h-708v168h706q-15 75 -63 118.5t-131.5 62t-210.5 18.5h-301v171h1199v-171h-370q111 -73 142 -199h228v-168h-217q-14 -141 -105.5 -235t-256.5 -137l509 -606h-334l-477 569h-20q-77 0 -141 4t-157 12z" />
<glyph unicode="&#x20ba;" horiz-adv-x="1418" d="M82 495v169l233 79v189l-233 -80v170l233 80v414h283v-318l558 192v-169l-558 -192v-188l558 191v-169l-558 -191v-229q0 -90 33 -142t111.5 -76t220.5 -24q100 0 218.5 14t200.5 39v-225q-83 -23 -202 -35.5t-234 -12.5q-236 0 -373.5 46t-197.5 142t-60 254v151z" />
<glyph unicode="&#x20bc;" horiz-adv-x="1714" d="M153 0q0 540 52 858t175 476.5t342 191.5v235h273v-235q219 -33 341.5 -191.5t174.5 -476.5t52 -858h-280q0 493 -30 762t-99 388t-192 144v-764h-207v764q-125 -25 -194 -143.5t-99.5 -387.5t-30.5 -763h-278z" />
<glyph unicode="&#x20bd;" horiz-adv-x="1586" d="M82 245v168h233v189h-233v169h233v716q124 24 239.5 35t239.5 11q348 0 523.5 -114t175.5 -353q0 -159 -73.5 -261t-236 -152.5t-428.5 -50.5h-145v-189h557v-168h-557v-245h-295v245h-233zM610 771h131q170 0 272 30t147.5 91.5t45.5 159.5q0 146 -92 213.5t-296 67.5 q-108 0 -208 -19v-543z" />
<glyph unicode="&#x20bf;" horiz-adv-x="1473" d="M174 14v1463q117 27 270 43v241h179v-229q24 1 69 1q58 0 113 -3v231h177v-253q195 -39 286 -137.5t91 -257.5q0 -125 -67 -212.5t-191 -119.5q145 -27 222.5 -118t77.5 -237q0 -165 -98.5 -268.5t-320.5 -145.5v-258h-177v237q-81 -6 -177 -6h-5v-231h-179v236 q-143 8 -270 24zM463 206q108 -13 238 -13q164 0 258.5 27t132.5 79.5t38 136.5q0 123 -80 179t-260 56h-327v-465zM463 882h298q167 0 244 53t77 167q0 79 -35 128t-114 72t-210 23q-140 0 -260 -25v-418z" />
<glyph unicode="&#x2122;" horiz-adv-x="2429" d="M22 1336v180h953v-180h-360v-844h-234v844h-359zM1066 492v1024h284l318 -653l312 653h283v-1024h-221v725l-278 -578h-198l-278 557v-704h-222z" />
<glyph unicode="&#x2202;" horiz-adv-x="1395" d="M71 493q0 262 139 384t394 122q98 0 196 -23t172 -63q-56 404 -493 405q-83 0 -170 -14t-157 -40v219q140 52 348 52q376 0 571 -212t195 -618q0 -243 -77.5 -405t-220.5 -240.5t-339 -78.5q-175 0 -300 57.5t-191.5 172.5t-66.5 282zM339 486q0 -300 290 -300 q174 0 262.5 112t88.5 369v45q-69 41 -153.5 61.5t-166.5 20.5q-160 0 -240.5 -72t-80.5 -236z" />
<glyph unicode="&#x2206;" horiz-adv-x="1652" d="M32 0l583 1516h422l584 -1516h-1589zM402 224h845l-422 1119z" />
<glyph unicode="&#x220f;" horiz-adv-x="1606" d="M174 -451v1967h1260v-1967h-296v1713h-669v-1713h-295z" />
<glyph unicode="&#x2211;" horiz-adv-x="1411" d="M80 -291l620 823l-620 824v160h1181v-234h-796l559 -750l-559 -749h796v-234h-1181v160z" />
<glyph unicode="&#x221a;" horiz-adv-x="1616" d="M112 899v218h453l317 -903l451 1302h269l-534 -1516h-377l-327 899h-252z" />
<glyph unicode="&#x221e;" horiz-adv-x="1807" d="M96 778q0 114 49 199.5t136.5 132t201.5 46.5q131 0 230 -61.5t190 -168.5q91 108 190 169t231 61q115 0 202.5 -46.5t135.5 -132t48 -199.5t-48.5 -199t-136 -132t-201.5 -47q-132 0 -231 61.5t-190 169.5q-91 -108 -190 -169.5t-230 -61.5q-115 0 -202 47t-136 132.5 t-49 198.5zM310 778q0 -93 55 -145.5t142 -52.5q78 0 141 50t139 148q-77 98 -139.5 148.5t-140.5 50.5q-88 0 -142.5 -53t-54.5 -146zM1019 778q77 -97 140.5 -147.5t140.5 -50.5q86 0 141.5 52.5t55.5 145.5t-54.5 146t-142.5 53q-78 0 -141 -50.5t-140 -148.5z" />
<glyph unicode="&#x222b;" horiz-adv-x="800" d="M41 -234q60 -10 114 -11q85 0 133.5 41.5t48.5 128.5q0 24 -5 60l-145 1043q-11 56 -11 117q0 126 56.5 214t152 132.5t215.5 44.5q83 0 160 -14v-223q-60 10 -114 11q-86 0 -134.5 -41.5t-48.5 -128.5q0 -24 5 -60l144 -1043q11 -57 12 -117q0 -127 -56 -215 t-152.5 -132t-214.5 -44q-82 0 -160 14v223z" />
<glyph unicode="&#x2248;" horiz-adv-x="1183" d="M153 398v227q45 50 103.5 74.5t134.5 24.5q55 0 103.5 -16t120.5 -49q57 -28 98 -41.5t81 -13.5q69 0 125.5 26.5t111.5 85.5v-228q-46 -50 -105 -74t-133 -24q-56 0 -106 17t-120 49q-59 28 -98.5 41t-78.5 13q-69 0 -126 -27t-111 -85zM153 841v227q45 50 103.5 74 t134.5 24q55 0 103.5 -15.5t120.5 -48.5q57 -28 98 -41.5t81 -13.5q69 0 125.5 26.5t111.5 84.5v-226q-46 -50 -104.5 -74.5t-133.5 -24.5q-56 0 -106 16.5t-120 48.5q-59 28 -98.5 41t-78.5 13q-69 0 -126 -27t-111 -84z" />
<glyph unicode="&#x2260;" horiz-adv-x="1183" d="M153 445v219h244l148 229h-392v218h532l141 219l176 -100l-76 -119h105v-218h-245l-147 -229h392v-219h-532l-142 -219l-177 101l77 118h-104z" />
<glyph unicode="&#x2264;" horiz-adv-x="1183" d="M153 0v218h878v-218h-878zM153 725v217l878 302v-206l-606 -202l606 -207v-205z" />
<glyph unicode="&#x2265;" horiz-adv-x="1183" d="M153 0v218h878v-218h-878zM153 424v205l606 207l-606 202v206l878 -302v-217z" />
<glyph unicode="&#x25ca;" horiz-adv-x="1361" d="M73 758l456 758h301l459 -758l-459 -758h-301zM367 758l314 -524l314 524l-314 523z" />
<glyph unicode="&#x25fc;" horiz-adv-x="1116" d="M0 0v1116h1116v-1116h-1116z" />
</font>
</defs>
</svg>
